<svg width="227" height="105" fill="none" xmlns="http://www.w3.org/2000/svg">
    <path d="M148.116 8.186c12.816 7.802 7.929 15.114 16.915 22.605 5.045 4.204 13.833 6.608 18.951 13.792 9.541 13.391-5.907 24.459-16.643 31.617-4.272 2.846-11.015 4.76-14.345 11.823-1.747 3.704-.834 12.77-10.66 16.116-10.217 3.48-17.079-4.68-23.867-5.212-9.025-.71-13.771 1.553-22.835 1.543-11.877-.01-23.988-1.341-30.77-11.47-2.609-3.897-4.237-8.254-5.352-12.691-1.013-4.024-.548-8.253-3.18-11.836-3.903-5.314-9.793-7.417-11.248-14.387C41.97 35.158 59.346 31.06 71.415 26.092c6.609-2.722 8.4-10.933 13.24-15.527C91.652 3.925 101.959.208 112.045.013c10.086-.195 25.94 2.007 36.071 8.173z" fill="#E2E1E1"/>
    <path d="M39.464 85.334c-5.17 0-10.17-.625-14.935-1.867C15.526 81.117 7.34 76.54.203 69.861a.638.638 0 01-.028-.906.64.64 0 01.907-.029c15.806 14.79 33.885 16.132 46.265 14.65 13.445-1.607 23.246-6.777 23.342-6.829a.643.643 0 01.868.263.643.643 0 01-.262.867c-.1.055-10.115 5.337-23.794 6.973-2.72.32-5.403.484-8.037.484zM156.84 73.626c-2.756-2.12-6.159-4.885-9.765-7.811-6.958-5.65-14.842-12.057-17.079-12.857l.433-1.207c2.442.874 9.733 6.797 17.454 13.071 3.596 2.923 6.996 5.683 9.739 7.793l-.782 1.011zM79.46 64.723l-1.1-.66c.122-.204 3.064-5.038 8.516-9.546 7.25-6 15.476-8.461 23.79-7.12l-.205 1.265c-8.038-1.297-15.688.999-22.736 6.816-5.291 4.37-8.233 9.197-8.265 9.245z" fill="#18A0FB"/>
    <path d="M179.987 78.944c-2.044 0-4.14-.09-6.278-.285-8.147-.743-11.003-1.159-16.829-5.007a.643.643 0 01-.183-.887.645.645 0 01.888-.182c5.589 3.688 8.166 4.066 16.239 4.799 15.711 1.43 29.053-2.91 37.478-6.803 9.128-4.217 14.586-8.817 14.64-8.862a.641.641 0 01.83.977c-.054.048-5.65 4.757-14.931 9.047-7.423 3.435-18.601 7.203-31.854 7.203z" fill="#18A0FB"/>
    <path d="M113.085 13.952c16.38 0 25.985 7.562 25.985 20.54 0 16.363-16.947 19.638-16.947 31.486h-18.868c0-16.813 12.429-18.62 12.429-27.31 0-3.273-1.583-4.742-4.971-4.742-4.179 0-6.102 2.82-6.102 8.916H85.18c0-18.168 10.281-28.89 27.905-28.89zm10.845 69.516c0 6.883-4.746 11.624-11.637 11.624-6.778 0-11.525-4.741-11.525-11.624 0-6.771 4.747-11.513 11.525-11.513 6.894.004 11.637 4.742 11.637 11.513z" fill="#F8FAFB"/>
    <path d="M114.832 93.008c-7.066 0-12.005-4.978-12.005-12.105 0-7.059 4.935-11.992 12.005-11.992 7.135 0 12.118 4.93 12.118 11.992 0 7.127-4.983 12.105-12.118 12.105zm0-23.137c-6.502 0-11.044 4.537-11.044 11.032 0 6.563 4.542 11.144 11.044 11.144 6.673 0 11.157-4.478 11.157-11.144 0-6.495-4.586-11.032-11.157-11.032zm10.311-5.98h-19.829v-.48c0-9.966 4.352-14.83 7.846-18.738 2.458-2.747 4.579-5.122 4.579-8.574 0-2.986-1.343-4.26-4.49-4.26-3.887 0-5.621 2.602-5.621 8.435v.48h-20.39v-.48c0-9.05 2.587-16.516 7.477-21.59 4.907-5.09 12.137-7.78 20.909-7.78 8.15 0 14.871 1.905 19.435 5.507 4.599 3.633 7.031 8.996 7.031 15.514 0 9.037-5.118 14.23-9.634 18.811-3.762 3.816-7.313 7.421-7.313 12.675v.48zm-18.864-.96h17.912c.202-5.379 3.788-9.019 7.579-12.867 4.599-4.668 9.356-9.495 9.356-18.14 0-12.747-9.295-20.06-25.505-20.06-17.274 0-27.245 10.172-27.421 27.93h18.473c.102-6.08 2.202-8.916 6.576-8.916 3.67 0 5.452 1.706 5.452 5.221 0 3.817-2.237 6.317-4.824 9.21-3.503 3.92-7.467 8.35-7.598 17.622z" fill="#18A0FB"/>
    <path d="M77.86 82.036c-6.093 6.086-12.477 6.842-17.31 2.014-6.092-6.086-1.01-13.596-5.42-18.002l7.016-7.008c6.26 6.253 2.31 11.542 5.544 14.772 1.218 1.216 2.353 1.175 3.612-.084 1.555-1.552 1.218-3.316-1.05-5.58l7.226-7.219c6.769 6.755 6.936 14.56.382 21.107zm-29.912-21.82c-2.564-2.562-2.564-6.087 0-8.645 2.52-2.516 6.051-2.516 8.612.042 2.519 2.516 2.519 6.044 0 8.56-2.56 2.559-6.09 2.559-8.612.042z" fill="#F8FAFB"/>
    <path d="M67.614 89.563c-2.673 0-5.195-1.086-7.39-3.276-3.43-3.425-3.462-7.308-3.488-10.73-.022-2.888-.041-5.386-1.932-7.271l-.34-.34 7.695-7.686.34.34c3.772 3.767 3.967 7.24 4.124 10.03.113 1.965.2 3.518 1.42 4.74.516.516.984.75 1.44.747.457-.013.948-.285 1.496-.83.673-.672.92-1.338.775-2.093-.15-.804-.766-1.748-1.826-2.808l-.34-.34 7.907-7.897.34.34c6.947 6.94 7.088 15.084.377 21.788-3.515 3.509-7.179 5.285-10.598 5.285zm-11.8-21.607c1.842 2.113 1.861 4.777 1.884 7.59.025 3.4.054 6.913 3.205 10.063 4.644 4.639 10.704 3.902 16.63-2.014 6.269-6.262 6.243-13.561-.042-20.086l-6.547 6.54c1.01 1.076 1.583 2.05 1.756 2.965.202 1.067-.148 2.062-1.042 2.952-.73.73-1.432 1.092-2.15 1.111-.734.022-1.433-.317-2.144-1.028-1.484-1.482-1.59-3.368-1.702-5.365-.15-2.673-.32-5.692-3.51-9.06l-6.339 6.332zM52.23 64.48c-1.631 0-3.256-.675-4.608-2.03-1.33-1.328-2.064-2.983-2.064-4.66 0-1.678.733-3.333 2.064-4.662 2.724-2.721 6.544-2.702 9.29.042 2.725 2.721 2.725 6.521 0 9.24-1.38 1.379-3.035 2.07-4.682 2.07zm0-12.402c-1.39 0-2.775.576-3.929 1.729-1.167 1.165-1.782 2.542-1.782 3.983 0 1.44.615 2.82 1.782 3.982 2.324 2.321 5.586 2.302 7.932-.042 2.324-2.32 2.324-5.56 0-7.882-1.18-1.18-2.593-1.77-4.003-1.77z" fill="#18A0FB"/>
    <path d="M173.458 56.261c6.644 5.478 8.003 11.756 3.654 17.02-5.484 6.636-13.454 2.295-17.425 7.1l-7.65-6.31c5.634-6.82 11.281-3.397 14.194-6.918 1.096-1.329.949-2.453-.426-3.586-1.695-1.399-3.42-.896-5.461 1.575l-7.881-6.499c6.086-7.366 13.848-8.275 20.995-2.382zm-18.899 31.82c-2.307 2.791-5.82 3.127-8.615.822-2.749-2.267-3.083-5.775-.778-8.567 2.269-2.747 5.781-3.083 8.531-.813 2.795 2.302 3.131 5.81.862 8.557z" fill="#F8FAFB"/>
    <path d="M151.804 90.712c-1.461 0-2.952-.538-4.278-1.633-1.433-1.181-2.305-2.747-2.459-4.415-.153-1.668.42-3.384 1.616-4.83 2.452-2.968 6.24-3.33 9.207-.881 2.997 2.471 3.378 6.268.927 9.236-1.375 1.671-3.173 2.523-5.013 2.523zm-.141-12.396c-1.554 0-3.073.72-4.237 2.129-1.048 1.268-1.532 2.695-1.4 4.13.131 1.427.862 2.73 2.112 3.761 1.272 1.047 2.702 1.53 4.137 1.393 1.436-.138 2.75-.88 3.801-2.151 2.125-2.571 1.805-5.74-.798-7.886-1.118-.918-2.378-1.376-3.615-1.376zm9.98 2.548l-8.393-6.921.304-.372c3.394-4.107 6.839-4.632 9.605-5.055 1.949-.297 3.487-.531 4.59-1.863.923-1.117.82-1.934-.363-2.907-1.041-.858-2.422-1.348-4.784 1.511l-.308.372-8.621-7.11.304-.372c3.07-3.717 6.676-5.91 10.419-6.336 3.76-.432 7.65.916 11.259 3.887 6.83 5.634 8.221 12.248 3.718 17.694-3.09 3.736-6.955 4.136-10.365 4.489-2.878.297-5.362.553-7.06 2.612l-.305.371zm-7.035-7.046l6.917 5.705c1.929-2.033 4.583-2.305 7.384-2.596 3.384-.35 6.884-.711 9.72-4.146 4.179-5.059 2.872-11.016-3.589-16.344-3.401-2.804-7.045-4.075-10.535-3.675-3.368.388-6.637 2.328-9.477 5.628l7.141 5.89c2.093-2.362 4.003-2.778 5.826-1.273 1.584 1.306 1.75 2.74.494 4.26-1.337 1.614-3.205 1.903-5.186 2.203-2.65.4-5.64.858-8.695 4.348z" fill="#18A0FB"/>
    <path d="M76.956 50.24c-1.28-2.225-2.555-4.45-3.833-6.678l-.542-.941c-.308-.535-1.138-.055-.83.483 1.279 2.225 2.554 4.45 3.833 6.678.18.314.359.628.542.942.307.538 1.137.054.83-.484zM79.96 48.742l-.46-5.747-.068-.826c-.048-.611-1.01-.618-.962 0l.462 5.747.067.826c.052.611 1.013.617.962 0zM73.572 52.366c-1.292-.845-2.584-1.687-3.875-2.532-.186-.122-.372-.244-.561-.365-.218-.141-.532-.045-.657.172-.138.234-.045.516.173.657l3.875 2.532.56.365c.218.14.533.045.658-.173a.49.49 0 00-.174-.656zM145.575 47.718l2.631-5.619c.109-.234.067-.519-.173-.656-.209-.122-.548-.064-.657.173l-2.631 5.618c-.109.234-.068.519.173.656.205.122.544.065.657-.172zM147.342 50.349c2.109-1.4 4.221-2.795 6.33-4.194l.913-.605c.513-.34.032-1.172-.484-.83-2.109 1.4-4.221 2.796-6.33 4.195l-.913.605c-.516.339-.035 1.171.484.829zM148.826 53.115l5.435-.768c.257-.035.516-.074.773-.109.256-.035.397-.365.336-.592-.077-.276-.333-.371-.593-.336l-5.435.768c-.257.035-.516.074-.773.109-.256.035-.397.365-.336.592.077.279.333.375.593.336zM133.302 89.588c1.529 2.059 3.061 4.117 4.59 6.176.214.288.429.58.644.867.365.49 1.198.013.83-.483l-4.59-6.175c-.214-.289-.429-.58-.644-.868-.365-.493-1.202-.016-.83.483zM130.296 91.087l.461 5.747.068.826c.048.611 1.009.618.961 0l-.462-5.747-.067-.826c-.048-.615-1.009-.618-.961 0zM136.688 87.463l3.875 2.532.561.365c.218.14.532.045.657-.173.138-.233.045-.515-.173-.656l-3.875-2.532a91.264 91.264 0 00-.561-.365c-.218-.141-.532-.045-.657.172-.138.231-.045.513.173.657zM92.202 89.252c-.055 2.069-.109 4.133-.167 6.202-.016.618.946.618.962 0 .054-2.069.109-4.133.166-6.201.017-.618-.945-.618-.961 0zM89.502 87.53l-4.134 6.38c-.196.305-.391.605-.59.91-.337.521.493 1.002.83.483l4.134-6.38c.196-.305.391-.606.59-.91.34-.518-.493-1.002-.83-.483zM87.125 85.503l-4.676 2.875-.663.407c-.526.323-.045 1.156.484.829l4.676-2.875.663-.407c.526-.323.045-1.155-.484-.829z" fill="#fff"/>
</svg>
