<svg width="221" height="134" fill="none" xmlns="http://www.w3.org/2000/svg">
    <path d="M156.729 4.538c10.323 3.777 19.935 7.297 21.822 14.724 2.368 9.337-9.758 15.843-7.027 22.398 3.416 8.2 23.391.406 34.248 12.171 6.028 6.529 8.198 17.944 4.459 25.353-3.677 7.285-10.831 6.28-12.364 13.052-1.401 6.174 3.424 10.022 1.851 19.134-.3 1.729-.928 3.542-2.05 5.542-7.902 14.034-30.859 20.482-42.561 13.185-23.328-14.552-30.239-26.799-50.298-25.415-12.47.863-13.319 9.642-31.98 12.637-3.028.486-26.007 3.94-31.615-5.883-3.588-6.285 4.318-12.654 2.285-28.285-.455-3.494-.942-7.236-3.094-11.468C33.008 57.13 16.67 57.905 13.157 45.928c-1.29-4.392-.194-8.258.39-10.306 4.122-14.516 22.934-21.465 35.922-22.845 10.73-1.14 11.764 2.128 26.055 1.88 13.107-.225 27.164-4.436 30.337-5.444C122.15 4.02 119.998 1.769 128.659.486c12.1-1.791 21.853 1.778 28.07 4.052z" fill="#E2E1E1"/>
    <path d="M52.11 39.09c-1.763-3.074-3.522-6.148-5.285-9.226-.248-.434-.495-.867-.747-1.3-.424-.74-1.569-.076-1.144.667 1.763 3.074 3.522 6.148 5.285 9.227.247.433.495.866.747 1.3.424.743 1.568.075 1.144-.668zM56.253 37.02l-.637-7.94-.093-1.14c-.066-.845-1.392-.854-1.325 0l.636 7.939.093 1.141c.07.845 1.396.854 1.326 0zM47.443 42.027c-1.78-1.168-3.561-2.331-5.342-3.499-.257-.168-.513-.336-.774-.504-.3-.194-.733-.062-.905.239-.19.323-.062.712.238.907 1.781 1.167 3.562 2.33 5.343 3.498.256.168.512.336.773.504.3.195.734.062.906-.238.186-.323.062-.708-.239-.907zM151.727 42.646c1.211-2.587 2.417-5.175 3.628-7.762.15-.323.093-.717-.239-.907-.287-.168-.755-.088-.905.239-1.211 2.587-2.418 5.175-3.628 7.762-.151.323-.093.717.238.907.283.168.751.088.906-.239zM154.168 46.286c2.907-1.933 5.82-3.861 8.727-5.794l1.26-.836c.707-.469.044-1.619-.668-1.145-2.907 1.932-5.82 3.86-8.727 5.793l-1.26.837c-.711.468-.048 1.618.668 1.145zM156.208 50.108l7.495-1.062c.353-.048.711-.102 1.065-.15.353-.049.548-.504.464-.818-.106-.38-.46-.514-.818-.465l-7.494 1.062c-.354.048-.712.101-1.065.15-.354.049-.548.504-.464.818.106.38.459.513.817.465zM155.017 104.355c1.145 3.352 2.285 6.705 3.43 10.057l.481 1.411c.274.801 1.569.522 1.295-.287-1.145-3.353-2.285-6.705-3.429-10.058-.159-.469-.323-.942-.482-1.411-.274-.8-1.569-.522-1.295.288zM150.444 105.063c-.601 2.583-1.207 5.17-1.808 7.753-.088.372-.172.743-.26 1.115-.195.827 1.069 1.238 1.264.402l1.807-7.753c.088-.372.172-.743.261-1.115.19-.827-1.07-1.238-1.264-.402zM160.362 102.98c1.339 1.654 2.682 3.308 4.021 4.962.195.239.389.478.579.717.226.278.681.278.937.048.279-.252.274-.659.049-.937-1.339-1.655-2.683-3.309-4.022-4.963-.194-.239-.389-.478-.579-.716-.225-.279-.68-.279-.936-.049-.279.252-.279.659-.049.938zM78.058 49.48H.622v51.996h77.436V49.48z" fill="#fff"/>
    <path d="M5.817 96.274V48.18h14.225v-1.95H3.868v51.996h44.42v-1.95H5.818zM36.592 46.228v1.951h42.763v48.095H65.13v1.95h16.174V46.229H36.592zM54.204 94.2a2.58 2.58 0 00-2.581 2.583 2.58 2.58 0 002.58 2.583c.054 0 .107 0 .16-.004-.106.703-.64.986-.888 1.159 2.492-.496 2.965-2.066 3.195-2.964v-.004c.07-.226.106-.46.115-.708 0-.04.004-.062.004-.062a2.589 2.589 0 00-2.585-2.583zM59.93 94.2a2.58 2.58 0 00-2.581 2.583 2.58 2.58 0 002.58 2.583c.053 0 .106 0 .16-.004-.107.703-.641.986-.889 1.159 2.493-.496 2.965-2.066 3.195-2.964v-.004c.07-.226.106-.46.115-.708 0-.04.005-.062.005-.062a2.586 2.586 0 00-2.586-2.583zM30.695 50.576a2.58 2.58 0 002.581-2.583 2.58 2.58 0 00-2.58-2.583c-.054 0-.107 0-.16.005.106-.704.641-.987.889-1.16-2.493.496-2.966 2.066-3.195 2.964v.005c-.071.225-.106.46-.115.707 0 .04-.005.062-.005.062a2.591 2.591 0 002.585 2.583zM24.965 50.576a2.58 2.58 0 002.58-2.583 2.58 2.58 0 00-2.58-2.583c-.053 0-.106 0-.159.005.106-.704.64-.987.888-1.16-2.492.496-2.965 2.066-3.195 2.964v.005c-.07.225-.106.46-.115.707 0 .04-.004.062-.004.062a2.586 2.586 0 002.585 2.583z" fill="#18A0FB"/>
    <path d="M207.135 60.701h-5.603c-.539 3.344-3.425 5.9-6.92 5.9h-9.09c-3.491 0-6.382-2.556-6.921-5.9H107.33c-7.393 0-13.38 5.998-13.38 13.397v10.293c0 7.4 5.987 13.392 13.38 13.392h74.413l16.152 12.632V97.783h9.236c7.389 0 13.381-5.993 13.381-13.392V74.097c.004-7.4-5.988-13.397-13.377-13.397z" fill="#fff"/>
    <path d="M190.062 109.088a.689.689 0 01-.425-.146l-15.966-12.486H99.497c-7.76 0-14.075-6.32-14.075-14.082V72.08c0-7.767 6.315-14.087 14.075-14.087h71.54a.691.691 0 010 1.38h-71.54c-7 0-12.692 5.701-12.692 12.707v10.293c0 7.005 5.696 12.702 12.692 12.702h74.413c.155 0 .305.053.424.146l15.038 11.761V95.766c0-.38.31-.69.69-.69h9.236c6.999 0 12.691-5.701 12.691-12.702V72.08c0-5.887-4.158-11.101-9.885-12.397a.693.693 0 01.305-1.35c6.451 1.46 10.959 7.113 10.959 13.743v10.292c0 7.767-6.315 14.083-14.07 14.083h-8.547v11.942c0 .265-.15.504-.389.619a.594.594 0 01-.3.075z" fill="#18A0FB"/>
    <path d="M186.818 55.906a2.746 2.746 0 00-2.745 2.747 2.746 2.746 0 002.745 2.747c.057 0 .114 0 .167-.005-.114.748-.68 1.048-.945 1.234 2.651-.526 3.155-2.194 3.398-3.153v-.005a2.64 2.64 0 00.119-.752c.005-.04.005-.066.005-.066a2.746 2.746 0 00-2.744-2.747zM192.912 55.906a2.745 2.745 0 00-2.744 2.747 2.745 2.745 0 002.744 2.747c.058 0 .115 0 .168-.005-.115.748-.68 1.048-.946 1.234 2.652-.526 3.156-2.194 3.399-3.153v-.005a2.64 2.64 0 00.119-.752c.004-.04.004-.066.004-.066a2.745 2.745 0 00-2.744-2.747z" fill="#18A0FB"/>
    <path d="M98.57 64.686l-.565-.106c-17.133-3.255-29.1-14.304-29.1-26.86 0-7.493 4.141-14.512 11.658-19.767 7.428-5.197 17.292-8.058 27.774-8.058s20.341 2.861 27.769 8.058c7.517 5.26 11.658 12.278 11.658 19.766 0 12.557-11.967 23.606-29.104 26.861l-.566.106-9.762 11.456-9.761-11.456z" fill="#fff"/>
    <path d="M133.769 13.335c-7.698-5.387-17.897-8.355-28.706-8.355-10.814 0-21.009 2.968-28.711 8.355-7.968 5.573-12.356 13.075-12.356 21.111 0 13.442 12.466 25.056 30.43 28.47l10.632 12.478 10.633-12.477c17.963-3.415 30.434-15.03 30.434-28.47 0-8.042-4.388-15.543-12.356-21.112zm-18.383 47.967l-.566.107-9.762 11.455-9.761-11.455-.566-.107C77.598 58.047 65.63 47 65.63 34.442c0-7.493 4.14-14.512 11.658-19.766 7.428-5.197 17.292-8.059 27.774-8.059s20.341 2.862 27.769 8.059c7.517 5.258 11.658 12.278 11.658 19.766 0 12.561-11.967 23.605-29.104 26.86z" fill="#18A0FB"/>
    <path d="M108.966 25.985a3.517 3.517 0 003.518-3.52 3.517 3.517 0 00-3.518-3.521c-.07 0-.146 0-.216.004.146-.955.87-1.344 1.215-1.579-3.398.677-4.043 2.813-4.353 4.038v.005a3.594 3.594 0 00-.154.964c-.005.053-.005.084-.005.084a3.517 3.517 0 003.513 3.525zM101.158 25.985a3.517 3.517 0 003.517-3.52 3.517 3.517 0 00-3.517-3.521c-.071 0-.146 0-.217.004.146-.955.871-1.344 1.215-1.579-3.398.677-4.043 2.813-4.352 4.038v.005a3.635 3.635 0 00-.155.964c-.005.053-.005.084-.005.084a3.514 3.514 0 003.514 3.525z" fill="#18A0FB"/>
</svg>
