<svg width="135" height="30" fill="none" xmlns="http://www.w3.org/2000/svg">
    <g clip-path="url(#clip0)" fill="#403F3F">
        <path d="M129.946 3.74l.902 1.322h.824l-.979-1.322a.879.879 0 00.707-.342 1.25 1.25 0 00.272-.785c0-.28-.077-.521-.225-.716-.226-.287-.599-.427-1.128-.427h-1.057v3.592h.676l.008-1.322zm-.008-1.633h.397c.256 0 .435.063.552.187.078.093.117.21.117.35 0 .14-.047.257-.125.35-.109.116-.288.179-.544.179h-.397V2.107z"/>
        <path d="M130.35 6.5c.894 0 1.664-.318 2.294-.948a3.14 3.14 0 00.956-2.302c0-.894-.318-1.656-.956-2.294-.63-.637-1.4-.948-2.294-.948-.91 0-1.672.319-2.31.948a3.155 3.155 0 00-.948 2.302c0 .902.319 1.672.956 2.302.63.622 1.4.94 2.302.94zm-1.874-5.116a2.566 2.566 0 011.874-.777c.731 0 1.345.264 1.866.777.521.513.778 1.135.778 1.859 0 .738-.265 1.368-.778 1.881a2.566 2.566 0 01-1.866.77c-.747 0-1.369-.256-1.882-.77a2.572 2.572 0 01-.77-1.874c0-.73.257-1.353.778-1.866zM7.87 13.81H3.156v9.93H0V1.166h3.157v9.806h4.775l7.1-9.806h3.452L10.42 12.099l8.452 11.64h-3.678L7.87 13.81zM37.053 19.036c0 1.508-.568 2.667-1.695 3.483-1.128.817-2.815 1.229-5.047 1.229h-8.22v-17.1h7.932c2.022 0 3.6.381 4.744 1.144 1.143.762 1.71 1.842 1.71 3.242 0 .902-.24 1.68-.723 2.34-.482.654-1.158 1.16-2.014 1.502 2.209.56 3.313 1.944 3.313 4.16zm-11.928-5.031h4.642c1.182 0 2.076-.218 2.69-.646.615-.428.918-1.05.918-1.874 0-1.633-1.205-2.45-3.608-2.45h-4.642v4.97zm7.869 6.741c.645-.404.964-1.042.964-1.905 0-.878-.295-1.54-.886-1.967-.591-.428-1.525-.645-2.792-.645h-5.163v5.124h4.969c1.29.008 2.262-.202 2.908-.607zM57.279 16.228H43.406c.195 1.508.856 2.714 1.983 3.631 1.128.918 2.535 1.369 4.207 1.369 2.045 0 3.686-.684 4.938-2.06l1.71 1.998a7.44 7.44 0 01-2.884 2.06c-1.151.475-2.434.708-3.857.708-1.804 0-3.406-.373-4.806-1.112-1.4-.739-2.48-1.78-3.242-3.11-.762-1.33-1.143-2.839-1.143-4.518 0-1.657.373-3.15 1.111-4.487a7.962 7.962 0 013.064-3.11c1.299-.74 2.768-1.113 4.401-1.113 1.634 0 3.088.374 4.37 1.112 1.276.74 2.279 1.781 3.002 3.11.723 1.33 1.081 2.862 1.081 4.58 0 .242-.023.553-.062.942zm-12.115-5.77c-1.003.902-1.587 2.084-1.758 3.546h10.965c-.172-1.439-.755-2.62-1.758-3.53-1.003-.918-2.24-1.37-3.724-1.37-1.486 0-2.722.452-3.725 1.354zM75.661 7.589a7.83 7.83 0 013.08 3.063c.738 1.315 1.112 2.83 1.112 4.55 0 1.718-.374 3.242-1.112 4.564a7.82 7.82 0 01-3.08 3.08c-1.314.73-2.791 1.096-4.448 1.096-1.228 0-2.348-.234-3.367-.708a7.033 7.033 0 01-2.597-2.06v8.833h-3.095V6.647h2.97v2.707a6.491 6.491 0 012.614-2.146c1.05-.483 2.216-.724 3.483-.724 1.64.008 3.126.374 4.44 1.105zm-1.757 12.884a5.436 5.436 0 002.06-2.13c.506-.918.755-1.96.755-3.142s-.257-2.231-.754-3.141c-.506-.91-1.19-1.618-2.061-2.115-.871-.498-1.859-.739-2.947-.739-1.073 0-2.045.257-2.916.754a5.498 5.498 0 00-2.06 2.115c-.506.902-.755 1.944-.755 3.126s.249 2.232.739 3.142a5.33 5.33 0 002.06 2.13c.879.506 1.859.755 2.932.755 1.088 0 2.076-.257 2.947-.755zM87.426 6.648H84.33V23.74h3.095V6.648zM100.101 16.516h-3.546v7.224H93.46V6.648h3.095v7.224h3.608l5.544-7.224h3.321l-6.486 8.228 6.937 8.872h-3.647l-5.731-7.232zM114.953 22.806a8.288 8.288 0 01-3.211-3.11c-.778-1.322-1.159-2.823-1.159-4.502 0-1.68.389-3.18 1.159-4.503a8.09 8.09 0 013.211-3.095c1.369-.738 2.916-1.112 4.658-1.112 1.547 0 2.932.311 4.145.934a6.668 6.668 0 012.822 2.706l-2.356 1.516c-.536-.817-1.205-1.43-1.998-1.835a5.757 5.757 0 00-2.644-.615c-1.12 0-2.123.25-3.017.74a5.29 5.29 0 00-2.1 2.114c-.505.918-.754 1.96-.754 3.142 0 1.205.249 2.263.754 3.18a5.291 5.291 0 002.1 2.115c.894.498 1.897.739 3.017.739.964 0 1.851-.202 2.644-.614.793-.405 1.462-1.019 1.998-1.836l2.356 1.486a6.75 6.75 0 01-2.822 2.721c-1.213.638-2.598.95-4.145.95-1.734.007-3.289-.366-4.658-1.12z"/>
    </g>
    <defs>
        <clipPath id="clip0">
            <path fill="#fff" d="M0 0h133.6v30H0z"/>
        </clipPath>
    </defs>
</svg>
