<svg width="226" height="49" fill="none" xmlns="http://www.w3.org/2000/svg">
    <g clip-path="url(#clip0)" fill="#00BFD2">
        <path d="M219.615 6.109l1.524 2.16h1.393l-1.656-2.16c.486 0 .881-.19 1.196-.559.302-.38.46-.8.46-1.283 0-.457-.131-.85-.381-1.168-.381-.47-1.012-.699-1.906-.699h-1.787v5.868h1.143l.014-2.159zm-.014-2.667h.671c.433 0 .736.101.933.305a.846.846 0 01.197.571c0 .229-.079.42-.21.572-.184.19-.487.292-.92.292h-.671v-1.74z"/>
        <path d="M220.297 10.618c1.512 0 2.813-.52 3.877-1.55 1.078-1.041 1.617-2.298 1.617-3.759 0-1.46-.539-2.705-1.617-3.747-1.064-1.041-2.365-1.55-3.877-1.55-1.537 0-2.825.521-3.903 1.55-1.064 1.042-1.603 2.286-1.603 3.76 0 1.473.539 2.73 1.616 3.76 1.065 1.015 2.366 1.536 3.89 1.536zM217.13 2.26c.868-.839 1.932-1.27 3.167-1.27 1.236 0 2.274.431 3.154 1.27.881.838 1.315 1.854 1.315 3.035 0 1.207-.447 2.236-1.315 3.074-.88.838-1.931 1.257-3.154 1.257-1.261 0-2.313-.419-3.18-1.257-.867-.851-1.301-1.867-1.301-3.061s.434-2.21 1.314-3.048zM13.3 22.557H5.336v16.219H0V1.906h5.336V17.92h8.069L25.403 1.905h5.835L17.61 19.763l14.285 19.013H25.68L13.3 22.556zM62.62 31.092c0 2.464-.959 4.356-2.864 5.69-1.906 1.334-4.757 2.007-8.53 2.007h-13.89v-27.93H50.74c3.416 0 6.084.623 8.016 1.867 1.932 1.245 2.891 3.01 2.891 5.297 0 1.473-.407 2.743-1.222 3.823-.815 1.067-1.958 1.892-3.404 2.45 3.733.915 5.599 3.176 5.599 6.796zm-20.159-8.218h7.846c1.997 0 3.509-.355 4.547-1.054 1.038-.698 1.55-1.714 1.55-3.06 0-2.668-2.036-4.002-6.097-4.002h-7.846v8.116zm13.3 11.012c1.09-.66 1.63-1.702 1.63-3.112 0-1.435-.5-2.514-1.499-3.213-.998-.698-2.576-1.054-4.718-1.054h-8.726v8.37h8.398c2.181.012 3.824-.33 4.915-.99zM96.803 26.507H73.358c.329 2.464 1.446 4.433 3.352 5.931 1.905 1.499 4.284 2.236 7.11 2.236 3.456 0 6.229-1.118 8.344-3.366l2.892 3.264c-1.315 1.473-2.931 2.604-4.876 3.366-1.945.774-4.113 1.155-6.518 1.155-3.05 0-5.757-.61-8.122-1.816-2.366-1.206-4.192-2.908-5.48-5.08-1.288-2.172-1.932-4.636-1.932-7.38 0-2.704.63-5.143 1.88-7.328a13.23 13.23 0 015.177-5.08c2.195-1.207 4.679-1.816 7.438-1.816 2.76 0 5.218.61 7.386 1.816 2.155 1.207 3.85 2.909 5.073 5.08 1.222 2.172 1.827 4.674 1.827 7.481 0 .394-.04.902-.106 1.537zM76.33 17.083c-1.696 1.473-2.681 3.404-2.97 5.792h18.53c-.29-2.35-1.275-4.28-2.97-5.767-1.696-1.498-3.785-2.235-6.296-2.235-2.51 0-4.6.737-6.294 2.21zM127.87 12.396c2.221 1.194 3.956 2.858 5.205 5.004 1.248 2.147 1.879 4.624 1.879 7.43 0 2.807-.631 5.297-1.879 7.456-1.249 2.159-2.984 3.835-5.205 5.03-2.221 1.193-4.718 1.79-7.517 1.79-2.076 0-3.969-.38-5.69-1.156a11.83 11.83 0 01-4.39-3.365v14.428h-5.23V10.859h5.02v4.42a10.904 10.904 0 014.416-3.505c1.774-.787 3.745-1.181 5.887-1.181 2.773.012 5.283.61 7.504 1.803zm-2.97 21.046c1.472-.826 2.629-1.982 3.483-3.48.854-1.5 1.275-3.201 1.275-5.131 0-1.931-.434-3.646-1.275-5.132-.854-1.486-2.011-2.642-3.483-3.454-1.472-.813-3.141-1.207-4.98-1.207-1.814 0-3.457.42-4.929 1.232-1.472.826-2.628 1.981-3.482 3.455-.854 1.473-1.275 3.175-1.275 5.105 0 1.931.421 3.646 1.248 5.132a8.858 8.858 0 003.483 3.48c1.485.825 3.141 1.232 4.955 1.232 1.839 0 3.508-.42 4.98-1.232zM147.754 10.86h-5.231v27.916h5.231V10.859zM169.175 26.977h-5.992v11.799h-5.231V10.859h5.231v11.8h6.097l9.371-11.8h5.611l-10.96 13.438 11.722 14.492h-6.163l-9.686-11.812zM194.276 37.252c-2.313-1.232-4.113-2.921-5.427-5.08-1.314-2.16-1.958-4.61-1.958-7.354 0-2.744.657-5.195 1.958-7.354 1.301-2.16 3.114-3.848 5.427-5.055 2.313-1.207 4.929-1.816 7.872-1.816 2.616 0 4.955.508 7.005 1.524s3.64 2.49 4.77 4.42l-3.982 2.477c-.906-1.334-2.037-2.337-3.377-2.998-1.341-.66-2.839-1.003-4.468-1.003-1.893 0-3.588.406-5.099 1.206a8.787 8.787 0 00-3.549 3.455c-.854 1.499-1.274 3.2-1.274 5.131 0 1.969.42 3.696 1.274 5.195a8.788 8.788 0 003.549 3.454c1.511.813 3.206 1.207 5.099 1.207 1.629 0 3.127-.33 4.468-1.003 1.34-.66 2.471-1.664 3.377-2.998l3.982 2.426c-1.13 1.93-2.72 3.417-4.77 4.445-2.05 1.042-4.389 1.55-7.005 1.55-2.93.012-5.559-.597-7.872-1.83z"/>
    </g>
    <defs>
        <clipPath id="clip0">
            <path fill="#fff" d="M0 0h225.79v49H0z"/>
        </clipPath>
    </defs>
</svg>
