<svg width="226" height="42" fill="none" xmlns="http://www.w3.org/2000/svg">
    <g clip-path="url(#clip0)">
        <path d="M143.053 6.98v2.376h-5.482v12.647h-2.726V9.356h-5.482V6.98h13.69zM126.865 6.98h-2.715v15.023h2.715V6.98zM119.127 13.428c-.687-.823-1.706-1.396-3.038-1.719.978-.385 1.727-.937 2.278-1.698.531-.76.801-1.677.801-2.76 0-1.636-.614-2.897-1.82-3.782-1.228-.875-2.923-1.313-5.087-1.313h-8.509v19.846h9.05c2.392 0 4.223-.469 5.482-1.417 1.248-.948 1.872-2.281 1.872-4 0-1.292-.343-2.334-1.029-3.157zM106.55 4.396h5.513c1.363 0 2.403.27 3.142.833.738.553 1.102 1.365 1.102 2.428 0 1.052-.364 1.865-1.092 2.406-.728.552-1.779.834-3.152.834h-5.513V4.396zm6.2 15.366h-6.2v-6.72h6.2c1.498 0 2.632.261 3.412.813.759.532 1.134 1.365 1.134 2.51 0 2.262-1.509 3.397-4.546 3.397zM99.852 10.532a7.258 7.258 0 00-2.777-2.719c-1.186-.656-2.517-.979-4.005-.979s-2.84.323-4.026.98a7.119 7.119 0 00-2.777 2.718c-.666 1.157-1.01 2.48-1.01 3.948 0 1.48.344 2.803 1.01 3.97a7.216 7.216 0 002.777 2.73c1.186.666 2.538.989 4.026.989s2.819-.323 4.005-.99a7.36 7.36 0 002.777-2.73c.666-1.166.999-2.49.999-3.969 0-1.468-.333-2.791-.999-3.948zm-2.403 6.72a4.707 4.707 0 01-1.789 1.875c-.76.437-1.633.667-2.59.667-.967 0-1.83-.23-2.59-.667a4.781 4.781 0 01-1.82-1.875c-.438-.802-.656-1.73-.656-2.771 0-1.032.218-1.949.655-2.75.448-.813 1.051-1.428 1.82-1.855.76-.438 1.624-.656 2.59-.656.958 0 1.832.218 2.591.656.76.427 1.352 1.042 1.79 1.854.436.802.655 1.72.655 2.75 0 1.042-.219 1.97-.656 2.772zM84.799 6.98v2.376h-8.322v12.647h-2.715V6.98h11.037zM69.133 10.49a6.894 6.894 0 00-2.694-2.687c-1.154-.646-2.455-.969-3.91-.969a7.37 7.37 0 00-3.06.635 5.941 5.941 0 00-2.298 1.886V6.98h-2.6v20.512h2.725v-7.761a6.252 6.252 0 002.278 1.823c.894.406 1.872.615 2.954.615 1.456 0 2.757-.323 3.911-.97a6.879 6.879 0 002.695-2.708c.655-1.156.977-2.49.977-4.01 0-1.5-.322-2.834-.978-3.99zM66.7 17.253a4.828 4.828 0 01-1.81 1.875c-.759.437-1.622.667-2.59.667-.946 0-1.8-.23-2.57-.667a4.645 4.645 0 01-1.82-1.875c-.437-.802-.655-1.73-.655-2.771 0-1.032.24-1.949.666-2.74.458-.803 1.06-1.417 1.82-1.855.76-.448 1.613-.666 2.56-.666.967 0 1.83.218 2.59.656.759.427 1.362 1.042 1.81 1.854.436.802.675 1.72.675 2.75 0 1.042-.239 1.97-.676 2.772zM50.638 14.574c0-1.51-.323-2.854-.947-4.02a6.947 6.947 0 00-2.632-2.74c-1.123-.657-2.403-.98-3.838-.98-1.425 0-2.726.323-3.86.98a7.028 7.028 0 00-2.694 2.74c-.645 1.166-.977 2.489-.977 3.926 0 1.48.343 2.803 1.009 3.98.676 1.167 1.622 2.073 2.84 2.73 1.227.656 2.642.979 4.233.979 1.227 0 2.361-.209 3.37-.615a6.81 6.81 0 002.538-1.823l-1.508-1.76c-1.082 1.218-2.538 1.823-4.327 1.823-1.467 0-2.705-.417-3.703-1.209-.978-.802-1.56-1.875-1.727-3.198h12.17c.032-.334.053-.604.053-.813zM38.415 13.44c.145-1.282.666-2.323 1.54-3.115.884-.802 1.976-1.188 3.266-1.188 1.31 0 2.403.396 3.276 1.198.864.803 1.384 1.844 1.53 3.105h-9.612zM32.07 6.98v15.023h-2.715V15.71h-8.55v6.293H18.1V6.98h2.704v6.376h8.55V6.98h2.716zM14.376 19.543v2.459H0V2.156h13.991v2.47H2.84v6.094h9.924v2.406H2.84v6.417h11.536zM211.509 11.396h-1.55v4.71h1.55v-4.71z" fill="#555"/>
        <path d="M209.107 13.595V12.2a5.112 5.112 0 00-3.464 4.844 5.113 5.113 0 005.107 5.116 5.114 5.114 0 005.108-5.116 5.127 5.127 0 00-3.464-4.844v1.396a3.812 3.812 0 012.174 3.448 3.83 3.83 0 01-3.818 3.824 3.83 3.83 0 01-3.818-3.824c0-1.51.885-2.823 2.175-3.448z" fill="#555"/>
        <path d="M160.642 12.2v10h-1.009v-8l-3.922 6.73h-.499l-3.922-6.689v7.96h-1.009V12.198h.874l4.338 7.407 4.296-7.407h.853zM170.036 19.523h-5.565l-1.196 2.667h-1.103l4.566-10h1.041l4.566 10h-1.113l-1.196-2.667zm-.385-.854l-2.392-5.365-2.393 5.365h4.785zM181.718 15.627c0 2.125-1.539 3.417-4.077 3.417h-2.684V22.2h-1.051v-10h3.735c2.538 0 4.077 1.28 4.077 3.427zm-1.05 0c0-1.605-1.061-2.511-3.048-2.511h-2.653v5h2.653c1.997-.01 3.048-.916 3.048-2.49zM189.425 19.523h-5.566l-1.196 2.667h-1.102l4.566-10h1.04l4.567 10h-1.113l-1.196-2.667zm-.385-.854l-2.393-5.365-2.392 5.365h4.785zM198.496 21.512v1.031h-.988v-1.031c-3.349-.115-5.336-1.667-5.336-4.323 0-2.657 1.976-4.21 5.336-4.324v-1h.988v1c3.34.115 5.337 1.688 5.337 4.324 0 2.646-1.987 4.219-5.337 4.323zm-.977-.844V13.71c-2.757.115-4.317 1.334-4.317 3.47-.011 2.156 1.602 3.354 4.317 3.49zm5.305-3.49c0-2.146-1.602-3.375-4.317-3.469v6.96c2.736-.116 4.317-1.345 4.317-3.49zM226 12.2v10h-1.04v-4.615h-6.241V22.2h-1.051v-10h1.051v4.458h6.241v-4.459H226z" fill="#222"/>
        <path d="M146.517 3.26l.79 1.157h.718l-.853-1.156c.25 0 .458-.094.614-.292.156-.198.239-.427.239-.688a.972.972 0 00-.198-.625c-.197-.25-.52-.375-.988-.375h-.915v3.136h.593V3.261zm-.011-1.416h.344c.218 0 .385.052.478.166a.437.437 0 01.104.313.46.46 0 01-.114.313c-.094.104-.25.156-.468.156h-.344v-.948z" fill="#555"/>
        <path d="M146.859 5.668c.781 0 1.446-.271 1.998-.834.551-.552.832-1.229.832-2.01 0-.781-.281-1.448-.832-2a2.726 2.726 0 00-1.998-.834c-.79 0-1.456.271-2.007.823a2.73 2.73 0 00-.832 2c0 .782.28 1.459.832 2.011.561.563 1.227.844 2.007.844zm-1.622-4.459a2.235 2.235 0 011.633-.677c.634 0 1.175.23 1.623.677.447.448.676.99.676 1.625 0 .646-.229 1.188-.676 1.636a2.207 2.207 0 01-1.623.667c-.645 0-1.197-.23-1.633-.678-.448-.448-.666-.99-.666-1.635-.021-.625.208-1.167.666-1.615z" fill="#555"/>
        <path d="M132.4 32.982h-.312l-.624-3-1.321 2.875h-.094l-1.321-2.875-.635 3h-.312l.739-3.552h.26l1.311 2.854 1.31-2.854h.26l.739 3.552zM135.822 29.44h.343l-1.768 3.802c-.177.385-.354.646-.541.781-.187.146-.427.219-.728.219h-.292v-.292h.271c.249 0 .437-.052.572-.156.135-.104.281-.313.426-.635l.188-.386-1.623-3.334h.343l1.446 2.98 1.363-2.98zM137.331 29.44h2.184v3.552h-.312v-3.26h-1.592l-.228 2.104c-.042.427-.146.729-.313.906-.166.177-.426.26-.769.26h-.063V32.7h.073c.239 0 .416-.062.531-.198.114-.135.187-.354.228-.656l.261-2.407zM142.125 30.66c.343 0 .635.104.863.323.229.218.344.5.344.833 0 .344-.115.615-.344.833-.228.22-.509.323-.863.323h-1.373V29.42h.312v1.23h1.061v.01zm-.031 2.031c.27 0 .489-.083.655-.24a.855.855 0 00.26-.625.818.818 0 00-.26-.625c-.166-.166-.385-.25-.655-.25h-1.02v1.74h1.02zM146.442 29.44v.291h-1.414v3.25h-.313v-3.25h-1.414v-.292h3.141zM149.803 29.44h.187v3.552h-.301v-2.959l-2.32 2.959h-.187V29.44h.312v2.948l2.309-2.948zM153.308 31.127a.876.876 0 01.478.334.865.865 0 01.177.562c0 .281-.104.51-.302.698-.197.188-.457.27-.759.27h-1.685V29.44h1.675c.187 0 .353.042.499.115.146.073.26.177.333.313a.837.837 0 01.114.458.914.914 0 01-.145.5.746.746 0 01-.385.302zm.229-.77a.597.597 0 00-.188-.46c-.125-.114-.291-.166-.499-.166h-1.321v1.25h1.321a.712.712 0 00.499-.177.56.56 0 00.188-.448zm-.666 2.312a.956.956 0 00.395-.083.707.707 0 00.271-.25.736.736 0 000-.719.707.707 0 00-.271-.25.816.816 0 00-.395-.084h-1.332v1.396h1.332v-.01zM154.932 28.7v-.458h.395v.459h-.395zm.041 4.282V29.43h.323v3.552h-.323zM159.155 29.44v.291h-1.415v3.25h-.312v-3.25h-1.414v-.292h3.141zM162.859 29.44h.26v3.552h-.271l-.031-.77c-.156.26-.374.468-.635.614-.27.146-.572.219-.905.219-.52 0-.957-.177-1.3-.531a1.818 1.818 0 01-.52-1.313c0-.52.177-.969.52-1.313.343-.343.78-.53 1.3-.53.333 0 .635.072.905.228.271.157.479.355.635.625l.042-.78zm-1.571 3.302c.281 0 .541-.062.77-.197.228-.136.405-.313.541-.553.124-.229.197-.5.197-.78 0-.438-.145-.814-.426-1.095a1.475 1.475 0 00-1.072-.437c-.426 0-.79.146-1.082.437-.291.292-.426.657-.426 1.094 0 .438.146.802.426 1.094.281.292.635.438 1.072.438zM168.63 32.982h-.312l-.624-3-1.321 2.875h-.094l-1.321-2.875-.634 3h-.312l.738-3.552h.26l1.311 2.854 1.311-2.854h.26l.738 3.552zM169.494 28.7v-.458h.395v.459h-.395zm.042 4.282V29.43h.322v3.552h-.322zM173.645 29.44h.312v3.552h-.312v-1.677h-2.247v1.677h-.312V29.44h.312v1.552h2.247v-1.553zM177.754 29.44h.312v3.552h-.312v-1.677h-2.247v1.677h-.312V29.44h.312v1.552h2.247v-1.553zM181.926 29.44h.187v3.552h-.301v-2.959l-2.32 2.959h-.187V29.44h.312v2.948l2.309-2.948zM185.971 29.44h.187v3.553h-.301v-2.958l-2.32 2.958h-.187v-3.552h.312v2.948l2.309-2.948zm-.385-1.083v.25h-1.664v-.25h1.664zM191.558 32.982l-1.415-1.698h-.614v1.698h-.322V29.43h.322v1.541h.625l1.29-1.541h.395l-1.415 1.698 1.54 1.854h-.406zM194.064 33.055c-.53 0-.967-.177-1.321-.52-.353-.345-.53-.793-.53-1.324s.177-.969.53-1.323c.354-.354.791-.52 1.321-.52.531 0 .978.176 1.322.52.353.354.53.792.53 1.323 0 .531-.177.969-.53 1.323-.354.344-.791.521-1.322.521zm0-.313c.292 0 .552-.062.781-.197.229-.136.416-.313.541-.553.135-.229.197-.5.197-.78 0-.438-.145-.814-.437-1.095a1.48 1.48 0 00-1.092-.437c-.291 0-.551.062-.79.198a1.374 1.374 0 00-.541.552c-.136.24-.198.5-.198.781 0 .438.146.802.437 1.094.302.292.666.438 1.102.438zM201.107 32.982h-.312l-.624-3-1.321 2.875h-.094l-1.321-2.875-.635 3h-.312l.739-3.552h.26l1.311 2.854 1.31-2.854h.26l.739 3.552zM202.002 29.44h2.902v3.552h-.322v-3.25h-2.258v3.25h-.322V29.44zM206.704 29.44h2.184v3.552h-.312v-3.26h-1.592l-.228 2.104c-.042.427-.146.729-.313.906-.166.177-.426.26-.769.26h-.063V32.7h.073c.239 0 .416-.062.531-.198.114-.135.187-.354.228-.656l.261-2.407zM213.362 31.201c0 .032 0 .073-.011.125h-3.214c.021.282.094.521.218.74.125.219.302.386.52.5.219.115.458.177.729.177.291 0 .541-.073.769-.208.229-.136.406-.334.531-.584h.343a2.023 2.023 0 01-.666.823c-.28.188-.613.282-.977.282a1.71 1.71 0 01-1.28-.532c-.343-.354-.51-.791-.51-1.323 0-.52.177-.958.521-1.312a1.708 1.708 0 011.279-.532c.51 0 .936.178 1.259.521.322.344.489.802.489 1.323zm-1.748-1.531c-.395 0-.728.125-.999.375-.27.25-.426.573-.468.969h2.903a1.678 1.678 0 00-.146-.552 1.454 1.454 0 00-.312-.427 1.295 1.295 0 00-.447-.271 1.543 1.543 0 00-.531-.094zM216.638 32.982l-1.415-1.698h-.613v1.698h-.323V29.43h.323v1.541h.624l1.29-1.541h.395l-1.415 1.698 1.54 1.854h-.406zM219.123 33.055c-.52 0-.946-.177-1.3-.531-.354-.355-.52-.792-.52-1.313 0-.531.177-.969.52-1.323s.78-.52 1.3-.52c.395 0 .749.103 1.051.322.301.219.509.5.624.854h-.323a1.36 1.36 0 00-.53-.625 1.458 1.458 0 00-.822-.229c-.426 0-.78.146-1.071.438a1.518 1.518 0 00-.427 1.093c0 .438.146.803.427 1.094.281.292.645.438 1.061.438.301 0 .572-.073.811-.23.239-.156.416-.364.551-.645h.333a1.687 1.687 0 01-.645.864 1.798 1.798 0 01-1.04.313zM225.063 31.106a.897.897 0 01.416.344.947.947 0 01.156.542.958.958 0 01-.364.76c-.25.198-.562.302-.947.302-.332 0-.613-.083-.853-.26a1.055 1.055 0 01-.426-.677h.302a.772.772 0 00.332.458c.177.115.385.167.635.167.291 0 .531-.073.718-.219a.678.678 0 00.281-.552.677.677 0 00-.219-.51.795.795 0 00-.562-.209h-.613v-.27h.603a.767.767 0 00.52-.178.572.572 0 00.198-.458.609.609 0 00-.26-.51c-.167-.136-.385-.199-.645-.199-.229 0-.427.052-.583.157a.758.758 0 00-.312.427h-.301a.944.944 0 01.395-.636c.218-.166.489-.24.801-.24.343 0 .634.095.863.272a.863.863 0 01.343.697.798.798 0 01-.135.47c-.093.135-.187.26-.343.322zM98.01 36.92c.333 0 .624.073.884.219.26.146.468.354.614.614.145.26.218.553.218.876 0 .5-.166.916-.5 1.24-.332.322-.758.489-1.258.489-.52 0-.957-.167-1.28-.51-.322-.344-.499-.782-.499-1.313 0-.959.167-1.667.51-2.136.343-.469.926-.802 1.758-1l.968-.23v.324l-.947.219c-.593.135-1.04.354-1.352.666-.302.313-.49.74-.573 1.303a1.61 1.61 0 01.604-.553c.25-.145.54-.208.853-.208zm-.042 3.115c.406 0 .75-.135 1.03-.406.27-.271.406-.605.406-1.01 0-.407-.135-.74-.416-1.011a1.387 1.387 0 00-1.02-.407c-.416 0-.76.136-1.03.407-.27.27-.405.604-.405 1.01s.135.74.416 1.01c.26.272.603.407 1.02.407zM103.21 36.732h.344l-1.769 3.803c-.176.385-.353.646-.541.781-.187.146-.426.219-.728.219h-.291v-.292h.27c.25 0 .437-.052.573-.156.135-.104.28-.313.426-.636l.187-.385-1.622-3.334h.343l1.446 2.98 1.362-2.98zM106.166 36.66c.52 0 .947.177 1.29.521.343.344.51.792.51 1.323 0 .531-.167.969-.51 1.323-.343.354-.77.521-1.29.521-.322 0-.614-.073-.884-.219a1.851 1.851 0 01-.645-.594v2h-.323v-4.802h.24l.062.771c.167-.26.375-.469.645-.625.271-.156.572-.219.905-.219zm-.031 3.376c.437 0 .801-.146 1.082-.438.281-.292.426-.656.426-1.094 0-.438-.145-.813-.426-1.094a1.482 1.482 0 00-1.082-.437c-.427 0-.791.145-1.072.437-.291.292-.436.657-.436 1.094 0 .438.145.802.436 1.094.281.292.645.438 1.072.438zM112.874 36.732h.323v3.553H108.9v-3.553h.312v3.25h1.675v-3.25h.312v3.25h1.675v-3.25zM117.067 36.732v.292h-1.414v3.25h-.313v-3.25h-1.414v-.292h3.141zM120.416 36.732h.188v3.553h-.302v-2.959l-2.32 2.959h-.187v-3.553h.312v2.949l2.309-2.949zM124.401 36.732h.312v3.553h-.312v-1.677h-2.247v1.677h-.312v-3.553h.312v1.553h2.247v-1.553zM127.5 40.348c-.53 0-.967-.177-1.321-.52-.354-.345-.531-.793-.531-1.324s.177-.969.531-1.323c.354-.354.791-.52 1.321-.52.531 0 .978.176 1.321.52.354.354.531.792.531 1.323 0 .531-.177.969-.531 1.323-.354.344-.79.521-1.321.521zm0-.313a1.5 1.5 0 00.78-.197 1.38 1.38 0 00.541-.553c.135-.229.198-.5.198-.78 0-.439-.146-.814-.437-1.095a1.48 1.48 0 00-1.092-.437c-.292 0-.552.062-.791.198a1.38 1.38 0 00-.541.552c-.135.24-.197.5-.197.781 0 .438.145.802.436 1.094.292.292.666.438 1.103.438zM132.368 38.42a.88.88 0 01.479.333.865.865 0 01.177.563c0 .281-.104.51-.302.698-.198.188-.458.27-.759.27h-1.686v-3.552h1.675a1.1 1.1 0 01.499.115c.146.073.26.177.333.313a.83.83 0 01.115.458.907.907 0 01-.146.5.742.742 0 01-.385.302zm.229-.77a.597.597 0 00-.187-.46c-.125-.114-.291-.166-.499-.166h-1.322v1.25h1.322a.712.712 0 00.499-.177c.125-.104.187-.26.187-.448zm-.666 2.312a.961.961 0 00.396-.084.697.697 0 00.27-.25.737.737 0 000-.719.697.697 0 00-.27-.25.82.82 0 00-.396-.083H130.6v1.396h1.331v-.01zM135.582 40.348c-.53 0-.967-.177-1.321-.52-.354-.345-.531-.793-.531-1.324s.177-.969.531-1.323c.354-.354.791-.52 1.321-.52.531 0 .978.176 1.321.52.354.354.531.792.531 1.323 0 .531-.177.969-.531 1.323-.354.344-.79.521-1.321.521zm0-.313a1.5 1.5 0 00.78-.197 1.38 1.38 0 00.541-.553c.135-.229.198-.5.198-.78 0-.439-.146-.814-.437-1.095a1.48 1.48 0 00-1.092-.437c-.292 0-.552.062-.791.198a1.38 1.38 0 00-.541.552c-.135.24-.197.5-.197.781 0 .438.145.802.436 1.094.292.292.666.438 1.103.438zM141.199 36.66c.52 0 .947.177 1.29.532.343.354.51.791.51 1.322 0 .532-.167.97-.51 1.313-.343.344-.77.521-1.29.521-.489 0-.905-.156-1.248-.48-.343-.322-.52-.728-.551-1.218h-.718v1.636h-.323v-3.563h.323v1.625h.718c.031-.49.218-.896.561-1.219a1.764 1.764 0 011.238-.469zm0 3.376c.427 0 .78-.146 1.051-.438.281-.292.416-.656.416-1.094 0-.438-.135-.802-.416-1.094a1.388 1.388 0 00-1.051-.437c-.426 0-.78.145-1.05.437-.281.292-.417.657-.417 1.094 0 .438.136.802.417 1.094.28.292.634.438 1.05.438zM148.098 40.275l-1.425-1.698h-.614v1.698h-.323v-3.552h.323v1.541h.624l1.29-1.541h.395l-1.415 1.698 1.54 1.854h-.395zM151.748 36.732h.188v3.553h-.302v-2.959l-2.32 2.959h-.187v-3.553h.312v2.949l2.309-2.949zM154.703 40.348c-.52 0-.946-.177-1.3-.531-.354-.355-.52-.792-.52-1.313 0-.531.177-.969.52-1.323s.78-.52 1.3-.52c.395 0 .749.103 1.051.322.301.219.51.5.624.854h-.323a1.36 1.36 0 00-.53-.625 1.458 1.458 0 00-.822-.229c-.426 0-.78.146-1.071.438a1.519 1.519 0 00-.427 1.093c0 .438.146.803.427 1.094.281.292.645.438 1.061.438.301 0 .572-.073.811-.23.239-.156.416-.364.551-.645h.333a1.687 1.687 0 01-.645.864 1.777 1.777 0 01-1.04.313zM157.791 36.732h2.185v3.553h-.312v-3.26h-1.592l-.229 2.104c-.041.427-.145.729-.312.906-.166.177-.426.26-.769.26h-.063v-.302h.073c.239 0 .416-.062.531-.198.114-.135.187-.354.228-.656l.26-2.407zM162.764 40.348c-.531 0-.968-.177-1.321-.52-.354-.345-.531-.793-.531-1.324s.177-.969.531-1.323c.353-.354.79-.52 1.321-.52.53 0 .978.176 1.321.52.353.354.53.792.53 1.323 0 .531-.177.969-.53 1.323-.343.344-.791.521-1.321.521zm0-.313a1.5 1.5 0 00.78-.197 1.38 1.38 0 00.541-.553c.135-.229.197-.5.197-.78 0-.439-.145-.814-.436-1.095a1.483 1.483 0 00-1.093-.437c-.291 0-.551.062-.79.198a1.38 1.38 0 00-.541.552c-.135.24-.198.5-.198.781 0 .438.146.802.437 1.094.302.292.666.438 1.103.438zM168.048 36.732v.292h-1.415v3.25h-.312v-3.25h-1.415v-.292h3.142zM170.191 40.348c-.53 0-.967-.177-1.321-.52-.353-.345-.53-.793-.53-1.324s.177-.969.53-1.323c.354-.354.791-.52 1.321-.52.531 0 .978.176 1.322.52.353.354.53.792.53 1.323 0 .531-.177.969-.53 1.323-.354.344-.791.521-1.322.521zm0-.313a1.5 1.5 0 00.781-.197c.228-.136.416-.313.541-.553.135-.229.197-.5.197-.78 0-.439-.145-.814-.437-1.095a1.48 1.48 0 00-1.092-.437c-.291 0-.551.062-.791.198a1.378 1.378 0 00-.54.552c-.136.24-.198.5-.198.781 0 .438.146.802.437 1.094a1.52 1.52 0 001.102.438zM175.818 36.66c.52 0 .947.177 1.29.532.343.354.51.791.51 1.322 0 .532-.167.97-.51 1.313-.343.344-.77.521-1.29.521-.489 0-.905-.156-1.248-.48-.343-.322-.52-.728-.551-1.218h-.718v1.636h-.322v-3.563h.322v1.625h.718c.031-.49.218-.896.561-1.219.333-.313.749-.469 1.238-.469zm0 3.376c.427 0 .78-.146 1.051-.438.281-.292.416-.656.416-1.094 0-.438-.135-.802-.416-1.094a1.388 1.388 0 00-1.051-.437c-.426 0-.78.145-1.05.437-.281.292-.416.657-.416 1.094 0 .438.135.802.416 1.094.27.292.624.438 1.05.438zM183.152 39.961h.5v1.292h-.292v-.98h-3.235v.98h-.291v-1.292h.385c.114-.104.198-.25.26-.437.062-.188.114-.48.156-.875a53.34 53.34 0 00.166-1.938h2.351v3.25zm-2.059-2.948c-.073 1.063-.136 1.782-.208 2.157-.063.374-.167.645-.302.791h2.268v-2.958h-1.758v.01zM185.077 36.732h2.184v3.553h-.312v-3.26h-1.592l-.228 2.104c-.042.427-.146.729-.312.906-.167.177-.427.26-.77.26h-.063v-.302h.073c.239 0 .416-.062.531-.198.114-.135.187-.354.229-.656l.26-2.407zM189.363 36.732h1.519v3.542h-.312v-1.437h-1.113l-.947 1.448h-.354l.957-1.49a1.007 1.007 0 01-.863-1.01c0-.303.104-.563.312-.76.208-.199.478-.293.801-.293zm0 1.782h1.196v-1.469h-1.175c-.24 0-.437.063-.583.208a.71.71 0 00-.218.532c0 .218.073.396.218.53.146.136.333.199.562.199zM196.727 39.961h.499v1.292h-.291v-.98h-3.236v.98h-.291v-1.292h.385a.992.992 0 00.26-.437c.063-.188.115-.48.156-.875.042-.396.104-1.042.167-1.938h2.351v3.25zm-2.071-2.948c-.072 1.063-.135 1.782-.208 2.157-.062.374-.166.645-.301.791h2.267v-2.958h-1.758v.01zM199.588 40.348c-.531 0-.967-.177-1.321-.52-.354-.345-.531-.793-.531-1.324s.177-.969.531-1.323c.354-.354.79-.52 1.321-.52.53 0 .978.176 1.321.52.354.354.531.792.531 1.323 0 .531-.177.969-.531 1.323-.354.344-.791.521-1.321.521zm0-.313a1.5 1.5 0 00.78-.197 1.38 1.38 0 00.541-.553c.135-.229.198-.5.198-.78 0-.439-.146-.814-.437-1.095a1.483 1.483 0 00-1.092-.437c-.292 0-.552.062-.791.198a1.38 1.38 0 00-.541.552c-.135.24-.198.5-.198.781 0 .438.146.802.437 1.094.292.292.666.438 1.103.438zM204.217 36.66c.52 0 .946.177 1.29.521.343.344.509.792.509 1.323 0 .531-.166.969-.509 1.323-.344.354-.77.521-1.29.521a1.82 1.82 0 01-.884-.219 1.851 1.851 0 01-.645-.594v2h-.323v-4.802h.239l.063.771c.166-.26.374-.469.645-.625.27-.156.572-.219.905-.219zm-.031 3.376c.437 0 .801-.146 1.081-.438.281-.292.427-.656.427-1.094 0-.438-.146-.813-.427-1.094a1.478 1.478 0 00-1.081-.437c-.427 0-.791.145-1.072.437a1.486 1.486 0 00-.437 1.094c0 .438.146.802.437 1.094a1.45 1.45 0 001.072.438zM208.502 40.348c-.531 0-.967-.177-1.321-.52-.354-.345-.531-.793-.531-1.324s.177-.969.531-1.323c.354-.354.79-.52 1.321-.52.53 0 .978.176 1.321.52.354.354.531.792.531 1.323 0 .531-.177.969-.531 1.323-.354.344-.791.521-1.321.521zm0-.313a1.5 1.5 0 00.78-.197 1.38 1.38 0 00.541-.553c.135-.229.198-.5.198-.78 0-.439-.146-.814-.437-1.095a1.481 1.481 0 00-1.092-.437c-.292 0-.552.062-.791.198a1.38 1.38 0 00-.541.552c-.135.24-.198.5-.198.781 0 .438.146.802.437 1.094.302.292.666.438 1.103.438zM212.809 40.348c-.52 0-.947-.177-1.301-.531-.353-.355-.52-.792-.52-1.313 0-.531.177-.969.52-1.323.344-.354.781-.52 1.301-.52.395 0 .749.103 1.05.322.302.219.51.5.624.854h-.322a1.361 1.361 0 00-.531-.625 1.454 1.454 0 00-.821-.229c-.427 0-.78.146-1.072.438a1.518 1.518 0 00-.426 1.093c0 .438.145.803.426 1.094.281.292.645.438 1.061.438a1.45 1.45 0 001.363-.875h.333a1.693 1.693 0 01-.645.864 1.78 1.78 0 01-1.04.313zM215.899 36.732h2.184v3.553h-.312v-3.26h-1.591l-.229 2.104c-.042.427-.146.729-.312.906-.167.177-.427.26-.77.26h-.062v-.302h.072c.24 0 .417-.062.531-.198.114-.135.187-.354.229-.656l.26-2.407zM221.942 36.732h.187v3.553h-.302v-2.959l-2.319 2.959h-.188v-3.553h.312v2.949l2.31-2.949zM225.936 40.275h-.364l-1.196-1.646-1.186 1.646h-.364l1.363-1.854-1.238-1.698h.364l1.061 1.468 1.072-1.468h.364l-1.238 1.677 1.362 1.875z" fill="#222"/>
    </g>
    <defs>
        <clipPath id="clip0">
            <path fill="#fff" d="M0 0h226v41.535H0z"/>
        </clipPath>
    </defs>
</svg>
