<svg width="457" height="84" fill="none" xmlns="http://www.w3.org/2000/svg">
    <g clip-path="url(#clip0)">
        <path d="M289.27 14.113v4.803h-11.086V44.49h-5.511V18.916h-11.085v-4.803h27.682zM256.539 14.113h-5.49V44.49h5.49V14.113zM240.89 27.154c-1.388-1.664-3.45-2.822-6.142-3.475 1.977-.78 3.492-1.896 4.607-3.434 1.072-1.538 1.619-3.392 1.619-5.583 0-3.307-1.241-5.856-3.681-7.646-2.482-1.77-5.911-2.655-10.286-2.655h-17.206v40.13h18.3c4.838 0 8.54-.947 11.085-2.864 2.524-1.917 3.786-4.614 3.786-8.09 0-2.612-.694-4.718-2.082-6.383zM215.459 8.89h11.149c2.755 0 4.859.548 6.352 1.686 1.493 1.116 2.23 2.76 2.23 4.908 0 2.128-.737 3.77-2.209 4.866-1.472 1.117-3.597 1.685-6.373 1.685h-11.149V8.89zm12.537 31.072h-12.537V26.375h12.537c3.029 0 5.322.527 6.899 1.643 1.536 1.075 2.293 2.76 2.293 5.077 0 4.571-3.05 6.867-9.192 6.867zM201.912 21.297a14.676 14.676 0 00-5.616-5.498c-2.398-1.328-5.091-1.98-8.099-1.98-3.007 0-5.742.652-8.14 1.98-2.398 1.327-4.27 3.16-5.616 5.498S172.4 26.31 172.4 29.28c0 2.991.695 5.666 2.041 8.026 1.346 2.317 3.218 4.192 5.616 5.519 2.398 1.348 5.133 2.001 8.14 2.001 3.008 0 5.701-.653 8.099-2.001 2.377-1.327 4.249-3.202 5.616-5.52 1.346-2.359 2.019-5.034 2.019-8.025 0-2.97-.673-5.646-2.019-7.984zm-4.859 13.587c-.883 1.643-2.082 2.886-3.618 3.792-1.535.885-3.302 1.348-5.238 1.348-1.956 0-3.702-.463-5.237-1.348-1.557-.906-2.777-2.149-3.681-3.792-.884-1.622-1.325-3.497-1.325-5.603 0-2.086.441-3.94 1.325-5.562.904-1.643 2.124-2.886 3.681-3.75 1.535-.884 3.281-1.327 5.237-1.327 1.936 0 3.703.443 5.238 1.328 1.536.863 2.735 2.106 3.618 3.75.884 1.621 1.325 3.475 1.325 5.56 0 2.107-.441 3.982-1.325 5.604zM171.474 14.113v4.803h-16.828V44.49h-5.49V14.113h22.318zM139.796 21.212c-1.304-2.317-3.134-4.15-5.448-5.434-2.335-1.307-4.964-1.96-7.909-1.96-2.251 0-4.312.443-6.184 1.285-1.872.864-3.408 2.15-4.649 3.813v-4.803h-5.258v41.479h5.511V39.898c1.241 1.6 2.797 2.823 4.606 3.686 1.809.822 3.787 1.243 5.974 1.243 2.945 0 5.574-.653 7.909-1.959 2.314-1.306 4.144-3.118 5.448-5.477 1.325-2.338 1.978-5.035 1.978-8.11 0-3.034-.653-5.73-1.978-8.069zm-4.922 13.672c-.904 1.643-2.124 2.886-3.66 3.792-1.535.885-3.281 1.348-5.238 1.348-1.914 0-3.639-.463-5.195-1.348a9.386 9.386 0 01-3.681-3.792c-.884-1.622-1.325-3.497-1.325-5.603 0-2.086.483-3.94 1.346-5.54.925-1.623 2.145-2.866 3.681-3.75 1.535-.906 3.26-1.349 5.174-1.349 1.957 0 3.703.443 5.238 1.328 1.536.863 2.756 2.106 3.66 3.75.884 1.621 1.367 3.475 1.367 5.56 0 2.107-.483 3.982-1.367 5.604zM102.397 29.47c0-3.054-.652-5.772-1.914-8.131-1.284-2.38-3.071-4.213-5.322-5.54-2.272-1.328-4.86-1.98-7.762-1.98-2.882 0-5.511.652-7.804 1.98-2.314 1.327-4.123 3.16-5.448 5.54-1.304 2.36-1.977 5.035-1.977 7.942 0 2.991.694 5.666 2.04 8.047 1.368 2.36 3.282 4.192 5.743 5.519 2.482 1.327 5.343 1.98 8.56 1.98 2.483 0 4.776-.421 6.816-1.243 2.04-.863 3.744-2.085 5.133-3.686l-3.05-3.56c-2.188 2.464-5.133 3.686-8.75 3.686-2.967 0-5.47-.843-7.49-2.444-1.977-1.621-3.154-3.791-3.491-6.467h24.611c.063-.674.105-1.221.105-1.643zm-24.716-2.296c.294-2.591 1.346-4.698 3.113-6.299 1.788-1.622 3.997-2.401 6.605-2.401 2.65 0 4.86.8 6.626 2.422 1.746 1.622 2.798 3.73 3.092 6.278H77.681zM64.85 14.113V44.49h-5.49V31.766H42.068V44.49h-5.47V14.113h5.47v12.893h17.29V14.113h5.49zM29.07 39.52v4.972H0V4.362h28.292v4.992H5.742v12.323H25.81v4.867H5.742V39.52H29.07zM427.699 23.045h-3.135v9.522h3.135v-9.522z" fill="#E26F18"/>
        <path d="M422.84 27.489v-2.823a10.34 10.34 0 00-7.004 9.796c0 5.708 4.628 10.343 10.328 10.343 5.7 0 10.328-4.635 10.328-10.343 0-4.55-2.945-8.406-7.005-9.796v2.823a7.709 7.709 0 014.397 6.973c0 4.255-3.471 7.73-7.72 7.73s-7.72-3.475-7.72-7.73c0-3.055 1.788-5.71 4.396-6.973z" fill="#E26F18"/>
        <path d="M324.839 24.668v20.223h-2.04V28.713l-7.93 13.608h-1.01l-7.93-13.524V44.89h-2.04V24.668h1.767l8.771 14.978 8.687-14.978h1.725zM343.834 39.477H332.58l-2.419 5.393h-2.229l9.234-20.223h2.103l9.235 20.223h-2.251l-2.419-5.393zm-.778-1.728L338.218 26.9l-4.838 10.85h9.676zM367.455 31.599c0 4.297-3.113 6.91-8.245 6.91h-5.427v6.382h-2.125V24.668h7.552c5.132 0 8.245 2.591 8.245 6.93zm-2.124 0c0-3.244-2.146-5.077-6.163-5.077h-5.364v10.111h5.364c4.038-.02 6.163-1.854 6.163-5.034zM383.043 39.477h-11.254l-2.419 5.393h-2.229l9.234-20.223h2.103l9.235 20.223h-2.251l-2.419-5.393zm-.778-1.728L377.427 26.9l-4.838 10.85h9.676zM401.385 43.501v2.086h-1.999V43.5c-6.773-.232-10.79-3.37-10.79-8.742 0-5.372 3.996-8.51 10.79-8.742v-2.023h1.999v2.023c6.752.231 10.791 3.412 10.791 8.742 0 5.35-4.018 8.531-10.791 8.742zm-1.977-1.706V27.723c-5.575.232-8.73 2.696-8.73 7.015-.021 4.36 3.239 6.783 8.73 7.057zm10.727-7.057c0-4.34-3.239-6.826-8.729-7.015v14.072c5.532-.232 8.729-2.718 8.729-7.057zM456.999 24.668v20.223h-2.103V35.56h-12.621v9.332h-2.125V24.668h2.125v9.016h12.621v-9.016h2.103z" fill="#000"/>
        <path d="M296.273 6.592l1.599 2.339h1.451l-1.725-2.339c.505 0 .926-.19 1.241-.59.316-.4.484-.863.484-1.39 0-.505-.126-.906-.399-1.264-.4-.505-1.052-.758-1.999-.758h-1.851v6.34h1.199V6.593zm-.021-2.865h.694c.442 0 .779.106.968.337.147.169.21.359.21.632a.934.934 0 01-.231.632c-.189.211-.505.316-.947.316h-.694V3.727z" fill="#E26F18"/>
        <path d="M296.967 11.46c1.578 0 2.924-.548 4.039-1.686 1.115-1.116 1.683-2.486 1.683-4.066 0-1.58-.568-2.928-1.683-4.044-1.115-1.117-2.461-1.685-4.039-1.685-1.599 0-2.945.547-4.06 1.664-1.114 1.116-1.682 2.464-1.682 4.044 0 1.58.568 2.95 1.682 4.066 1.136 1.138 2.482 1.706 4.06 1.706zm-3.281-9.017a4.522 4.522 0 013.302-1.37c1.283 0 2.377.464 3.282 1.37.904.906 1.367 2.001 1.367 3.286 0 1.307-.463 2.402-1.367 3.308-.905.906-1.999 1.348-3.282 1.348-1.304 0-2.419-.463-3.302-1.37-.905-.905-1.347-2-1.347-3.307-.042-1.264.421-2.359 1.347-3.265z" fill="#E26F18"/>
        <path d="M267.73 66.693h-.631l-1.262-6.067-2.671 5.814h-.19l-2.671-5.814-1.283 6.067h-.631l1.493-7.183h.526l2.65 5.772 2.651-5.772h.526l1.493 7.183zM274.651 59.531h.694l-3.576 7.69c-.358.779-.715 1.305-1.094 1.58-.378.294-.862.442-1.472.442h-.589v-.59h.547c.505 0 .883-.106 1.157-.316.273-.21.568-.632.862-1.285l.379-.78-3.282-6.74h.694l2.924 6.024 2.756-6.025zM277.701 59.531h4.417v7.184h-.631V60.12h-3.218l-.463 4.255c-.084.864-.294 1.475-.631 1.833-.337.358-.862.527-1.557.527h-.126v-.611h.147c.484 0 .842-.127 1.073-.4.232-.274.379-.717.463-1.328l.526-4.866zM287.398 61.997c.694 0 1.283.21 1.746.653.462.443.694 1.011.694 1.685 0 .696-.232 1.243-.694 1.686-.463.442-1.031.653-1.746.653h-2.777V59.49h.631v2.486h2.146v.021zm-.063 4.108c.546 0 .988-.169 1.325-.485.336-.337.526-.758.526-1.264 0-.505-.169-.926-.526-1.263-.337-.338-.779-.506-1.325-.506h-2.062v3.518h2.062zM296.126 59.531v.59h-2.861v6.573h-.631V60.12h-2.861v-.59h6.353zM302.92 59.531h.378v7.184h-.61v-5.983l-4.69 5.983h-.379V59.53h.631v5.962l4.67-5.962zM310.009 62.944c.4.126.736.337.968.674.252.316.357.695.357 1.138 0 .568-.21 1.032-.61 1.411-.399.38-.925.548-1.535.548h-3.408V59.53h3.387c.378 0 .715.084 1.01.232.294.147.525.358.673.632.168.274.231.569.231.927 0 .379-.105.716-.294 1.011-.19.295-.442.485-.779.61zm.463-1.559c0-.38-.126-.695-.379-.927-.252-.232-.589-.337-1.009-.337h-2.672v2.528h2.672c.42 0 .757-.126 1.009-.358.253-.21.379-.527.379-.906zm-1.346 4.677c.294 0 .568-.064.799-.169.231-.126.421-.295.547-.505.126-.211.189-.464.189-.717 0-.274-.063-.505-.189-.737a1.413 1.413 0 00-.547-.506c-.231-.126-.505-.168-.799-.168h-2.693v2.823h2.693v-.021zM313.291 58.036v-.927h.799v.927h-.799zm.084 8.658v-7.183h.652v7.183h-.652zM321.831 59.531v.59h-2.861v6.573h-.631V60.12h-2.86v-.59h6.352zM329.32 59.532h.526v7.184h-.547l-.063-1.56a3.47 3.47 0 01-1.283 1.244 3.794 3.794 0 01-1.83.442c-1.052 0-1.936-.358-2.63-1.074-.694-.716-1.052-1.601-1.052-2.655 0-1.053.358-1.959 1.052-2.654.694-.695 1.578-1.074 2.63-1.074.673 0 1.283.147 1.83.463.546.316.967.716 1.283 1.264l.084-1.58zm-3.176 6.678c.568 0 1.093-.126 1.556-.4a2.93 2.93 0 001.094-1.117c.252-.463.4-1.01.4-1.58 0-.884-.295-1.643-.863-2.212a2.98 2.98 0 00-2.166-.884c-.863 0-1.599.295-2.188.884-.589.59-.862 1.328-.862 2.212 0 .885.294 1.623.862 2.212.568.59 1.283.885 2.167.885zM340.994 66.693h-.631l-1.262-6.067-2.672 5.814h-.189l-2.672-5.814-1.283 6.067h-.631l1.494-7.183h.526l2.65 5.772 2.65-5.772h.526l1.494 7.183zM342.74 58.036v-.927h.8v.927h-.8zm.084 8.658v-7.183h.652v7.183h-.652zM351.132 59.531h.631v7.184h-.631v-3.392h-4.544v3.392h-.631V59.53h.631v3.14h4.544v-3.14zM359.44 59.531h.631v7.184h-.631v-3.392h-4.543v3.392h-.631V59.53h.631v3.14h4.543v-3.14zM367.875 59.531h.379v7.184h-.61v-5.983l-4.691 5.983h-.379V59.53h.631v5.962l4.67-5.962zM376.059 59.533h.378v7.183h-.61v-5.983l-4.691 5.983h-.378v-7.183h.631v5.961l4.67-5.961zm-.779-2.191v.505h-3.365v-.505h3.365zM387.353 66.693l-2.86-3.433h-1.241v3.433h-.652V59.51h.652v3.117h1.262l2.608-3.117h.799l-2.86 3.434 3.113 3.75h-.821zM392.424 66.842c-1.073 0-1.956-.358-2.672-1.053-.715-.695-1.072-1.601-1.072-2.676 0-1.074.357-1.959 1.072-2.675.716-.716 1.599-1.053 2.672-1.053 1.073 0 1.977.358 2.671 1.053.715.716 1.073 1.601 1.073 2.675 0 1.075-.358 1.96-1.073 2.676-.715.695-1.598 1.053-2.671 1.053zm0-.632c.589 0 1.115-.126 1.577-.4.463-.274.842-.632 1.094-1.117.274-.463.4-1.01.4-1.58 0-.884-.295-1.643-.884-2.212-.588-.59-1.325-.884-2.208-.884-.589 0-1.115.126-1.599.4-.463.274-.841.632-1.094 1.116a3.155 3.155 0 00-.399 1.58c0 .885.294 1.623.883 2.212.61.59 1.346.885 2.23.885zM406.664 66.693h-.631l-1.263-6.067-2.671 5.814h-.189l-2.672-5.814-1.283 6.067h-.631l1.494-7.183h.526l2.65 5.772 2.65-5.772h.526l1.494 7.183zM408.473 59.531h5.868v7.184h-.652v-6.573h-4.564v6.573h-.652V59.53zM417.98 59.531h4.417v7.184h-.631V60.12h-3.218l-.463 4.255c-.084.864-.294 1.475-.631 1.833-.336.358-.862.527-1.556.527h-.127v-.611h.148c.483 0 .841-.127 1.072-.4.232-.274.379-.717.463-1.328l.526-4.866zM431.442 63.092c0 .063 0 .147-.021.253h-6.499c.042.569.189 1.053.441 1.495.253.443.61.78 1.052 1.011a3.11 3.11 0 001.473.359c.589 0 1.093-.148 1.556-.422a2.78 2.78 0 001.073-1.18h.694c-.337.717-.778 1.265-1.346 1.665-.568.379-1.241.569-1.977.569-1.031 0-1.894-.358-2.588-1.075-.694-.716-1.03-1.6-1.03-2.675 0-1.053.357-1.938 1.051-2.654.694-.717 1.557-1.075 2.588-1.075 1.03 0 1.893.358 2.545 1.054.652.695.988 1.622.988 2.675zm-3.533-3.097c-.8 0-1.473.253-2.02.759-.547.505-.862 1.158-.946 1.959h5.868a3.377 3.377 0 00-.294-1.117 2.957 2.957 0 00-.631-.863 2.606 2.606 0 00-.905-.548 3.107 3.107 0 00-1.072-.19zM438.068 66.693l-2.86-3.433h-1.241v3.433h-.653V59.51h.653v3.117h1.262l2.608-3.117h.799l-2.86 3.434 3.113 3.75h-.821zM443.095 66.842c-1.052 0-1.914-.358-2.629-1.074-.715-.716-1.052-1.601-1.052-2.655 0-1.074.358-1.959 1.052-2.675.694-.716 1.577-1.053 2.629-1.053.799 0 1.515.21 2.125.653a3.356 3.356 0 011.262 1.727h-.652a2.76 2.76 0 00-1.073-1.264c-.484-.316-1.031-.463-1.662-.463-.862 0-1.577.295-2.166.885-.568.59-.863 1.327-.863 2.212 0 .884.295 1.622.863 2.211.568.59 1.304.885 2.145.885.61 0 1.157-.147 1.641-.463.484-.316.841-.738 1.115-1.306h.673a3.427 3.427 0 01-1.304 1.748c-.61.421-1.326.632-2.104.632zM455.106 62.902c.358.147.631.38.841.695.211.316.316.674.316 1.095 0 .611-.252 1.138-.736 1.538-.505.4-1.136.611-1.914.611-.673 0-1.241-.168-1.725-.526a2.132 2.132 0 01-.863-1.37h.61c.106.38.316.696.673.927.358.232.779.337 1.284.337.589 0 1.072-.147 1.451-.442.379-.295.568-.674.568-1.117 0-.4-.147-.758-.442-1.032-.294-.274-.673-.421-1.136-.421h-1.241v-.548h1.22c.442 0 .779-.126 1.052-.358.273-.232.4-.548.4-.927 0-.421-.169-.758-.526-1.032-.337-.274-.778-.4-1.304-.4-.463 0-.863.105-1.178.316a1.53 1.53 0 00-.631.863h-.61c.084-.526.357-.969.799-1.285.442-.337.989-.484 1.62-.484.694 0 1.283.19 1.746.547.462.38.694.843.694 1.412 0 .358-.084.674-.274.948-.189.274-.378.526-.694.653zM198.189 74.656c.673 0 1.262.148 1.788.443.526.294.946.716 1.241 1.242.294.527.442 1.117.442 1.77 0 1.011-.337 1.854-1.01 2.507s-1.536.99-2.545.99c-1.052 0-1.935-.337-2.588-1.032-.652-.695-1.009-1.58-1.009-2.655 0-1.938.336-3.37 1.031-4.318.694-.948 1.872-1.622 3.554-2.022l1.957-.464v.653l-1.915.443c-1.199.274-2.103.716-2.734 1.348-.61.632-.989 1.495-1.157 2.633a3.258 3.258 0 011.22-1.116c.505-.295 1.094-.422 1.725-.422zm-.084 6.299c.82 0 1.514-.274 2.082-.822.547-.547.821-1.221.821-2.043 0-.822-.274-1.496-.842-2.043-.547-.548-1.241-.822-2.061-.822-.842 0-1.536.274-2.083.822-.547.547-.82 1.221-.82 2.043 0 .822.273 1.496.841 2.043.526.548 1.22.822 2.062.822zM208.706 74.277h.694l-3.576 7.69c-.358.779-.715 1.305-1.094 1.58-.379.294-.862.442-1.472.442h-.589v-.59h.546c.505 0 .884-.106 1.157-.316.274-.21.568-.632.863-1.285l.378-.78-3.281-6.74h.694l2.924 6.024 2.756-6.025zM214.68 74.13c1.051 0 1.914.359 2.608 1.054.694.695 1.031 1.601 1.031 2.675 0 1.075-.337 1.96-1.031 2.676-.694.716-1.557 1.053-2.608 1.053a3.688 3.688 0 01-1.788-.442 3.745 3.745 0 01-1.304-1.201v4.045h-.652v-9.712h.483l.127 1.56a3.743 3.743 0 011.304-1.265c.547-.316 1.157-.442 1.83-.442zm-.063 6.826c.883 0 1.619-.295 2.187-.885.568-.59.863-1.327.863-2.212 0-.884-.295-1.643-.863-2.211-.568-.57-1.304-.885-2.187-.885-.863 0-1.599.295-2.167.885-.589.59-.883 1.327-.883 2.212 0 .884.294 1.622.883 2.211.568.59 1.304.885 2.167.885zM228.248 74.277h.652v7.184h-8.687v-7.184h.631v6.573h3.386v-6.573h.632v6.573h3.386v-6.573zM236.724 74.277v.59h-2.861v6.573h-.631v-6.573h-2.861v-.59h6.353zM243.498 74.277h.379v7.184h-.61v-5.983l-4.691 5.983h-.379v-7.184h.631v5.962l4.67-5.962zM251.553 74.277h.631v7.184h-.631v-3.392h-4.543v3.392h-.631v-7.184h.631v3.14h4.543v-3.14zM257.822 81.588c-1.072 0-1.956-.358-2.671-1.053-.715-.695-1.073-1.601-1.073-2.675 0-1.075.358-1.96 1.073-2.676.715-.716 1.599-1.053 2.671-1.053 1.073 0 1.978.358 2.672 1.053.715.716 1.072 1.601 1.072 2.675 0 1.075-.357 1.96-1.072 2.676-.715.695-1.599 1.053-2.672 1.053zm0-.632c.589 0 1.115-.126 1.578-.4.463-.274.841-.632 1.094-1.117.273-.463.399-1.01.399-1.58 0-.884-.294-1.643-.883-2.211-.589-.59-1.325-.885-2.209-.885-.589 0-1.115.126-1.598.4-.463.274-.842.632-1.094 1.117a3.146 3.146 0 00-.4 1.58c0 .884.295 1.622.884 2.211.589.59 1.346.885 2.229.885zM267.667 77.69c.4.126.737.337.968.674.252.316.358.695.358 1.138 0 .568-.211 1.032-.61 1.411-.4.38-.926.548-1.536.548h-3.408v-7.184h3.387c.379 0 .715.085 1.01.232.294.147.526.358.673.632.168.274.231.569.231.927 0 .38-.105.716-.294 1.011-.19.295-.442.485-.779.611zm.463-1.559c0-.38-.126-.695-.378-.927-.253-.231-.589-.337-1.01-.337h-2.671v2.528h2.671c.421 0 .757-.126 1.01-.358.252-.21.378-.527.378-.906zm-1.346 4.677c.294 0 .568-.064.799-.169.232-.126.421-.295.547-.505.126-.211.19-.464.19-.717 0-.273-.064-.505-.19-.737a1.406 1.406 0 00-.547-.506c-.231-.126-.505-.168-.799-.168h-2.692v2.823h2.692v-.021zM274.166 81.588c-1.073 0-1.956-.358-2.671-1.053-.716-.695-1.073-1.601-1.073-2.675 0-1.075.357-1.96 1.073-2.676.715-.716 1.598-1.053 2.671-1.053 1.073 0 1.977.358 2.671 1.053.716.716 1.073 1.601 1.073 2.675 0 1.075-.357 1.96-1.073 2.676-.715.695-1.598 1.053-2.671 1.053zm0-.632c.589 0 1.115-.126 1.578-.4.462-.274.841-.632 1.093-1.117.274-.463.4-1.01.4-1.58 0-.884-.294-1.643-.883-2.211-.589-.59-1.326-.885-2.209-.885-.589 0-1.115.126-1.599.4-.462.274-.841.632-1.093 1.117a3.146 3.146 0 00-.4 1.58c0 .884.294 1.622.883 2.211.589.59 1.347.885 2.23.885zM285.526 74.13c1.051 0 1.914.359 2.608 1.075.694.716 1.031 1.601 1.031 2.676 0 1.074-.337 1.959-1.031 2.654-.694.695-1.557 1.053-2.608 1.053-.989 0-1.83-.316-2.524-.969-.695-.653-1.052-1.475-1.115-2.465h-1.452v3.308h-.652v-7.205h.652v3.286h1.452c.063-.99.441-1.811 1.136-2.464.694-.632 1.514-.948 2.503-.948zm0 6.826c.862 0 1.577-.295 2.124-.885.568-.59.842-1.327.842-2.212 0-.884-.274-1.622-.842-2.211-.568-.59-1.262-.885-2.124-.885-.863 0-1.578.295-2.125.885-.568.59-.841 1.327-.841 2.212 0 .884.273 1.622.841 2.211.568.59 1.283.885 2.125.885zM299.47 81.441l-2.882-3.434h-1.241v3.434h-.652v-7.183h.652v3.118h1.262l2.609-3.118h.799l-2.861 3.434 3.114 3.75h-.8zM306.854 74.277h.378v7.184h-.61v-5.983l-4.691 5.983h-.378v-7.184h.631v5.962l4.67-5.962zM312.828 81.588c-1.052 0-1.915-.358-2.63-1.074-.715-.716-1.052-1.601-1.052-2.654 0-1.075.358-1.96 1.052-2.676.694-.716 1.578-1.053 2.63-1.053.799 0 1.514.21 2.124.653a3.35 3.35 0 011.262 1.727h-.652a2.755 2.755 0 00-1.073-1.264c-.484-.316-1.03-.463-1.661-.463-.863 0-1.578.295-2.167.885-.568.59-.862 1.327-.862 2.212 0 .884.294 1.622.862 2.212.568.59 1.304.884 2.146.884.61 0 1.156-.147 1.64-.463.484-.316.842-.737 1.115-1.306h.673a3.421 3.421 0 01-1.304 1.748c-.61.421-1.304.632-2.103.632zM319.076 74.277h4.417v7.184h-.631v-6.594h-3.218l-.463 4.255c-.084.864-.294 1.475-.631 1.833-.337.358-.862.527-1.557.527h-.126v-.611h.147c.484 0 .842-.126 1.073-.4.232-.274.379-.717.463-1.328l.526-4.866zM329.131 81.588c-1.073 0-1.956-.358-2.672-1.053-.715-.695-1.072-1.601-1.072-2.675 0-1.075.357-1.96 1.072-2.676.716-.716 1.599-1.053 2.672-1.053 1.073 0 1.977.358 2.671 1.053.715.716 1.073 1.601 1.073 2.675 0 1.075-.358 1.96-1.073 2.676-.694.695-1.598 1.053-2.671 1.053zm0-.632c.589 0 1.115-.126 1.577-.4.463-.274.842-.632 1.094-1.117.274-.463.4-1.01.4-1.58 0-.884-.295-1.643-.884-2.211-.588-.59-1.325-.885-2.208-.885-.589 0-1.115.126-1.599.4-.463.274-.841.632-1.094 1.117a3.155 3.155 0 00-.399 1.58c0 .884.294 1.622.883 2.211.61.59 1.346.885 2.23.885zM339.815 74.277v.59h-2.86v6.573h-.631v-6.573h-2.861v-.59h6.352zM344.148 81.588c-1.072 0-1.956-.358-2.671-1.053-.715-.695-1.073-1.601-1.073-2.675 0-1.075.358-1.96 1.073-2.676.715-.716 1.599-1.053 2.671-1.053 1.073 0 1.978.358 2.672 1.053.715.716 1.073 1.601 1.073 2.675 0 1.075-.358 1.96-1.073 2.676-.715.695-1.599 1.053-2.672 1.053zm0-.632c.589 0 1.115-.126 1.578-.4.463-.274.841-.632 1.094-1.117.273-.463.4-1.01.4-1.58 0-.884-.295-1.643-.884-2.211-.589-.59-1.325-.885-2.209-.885-.589 0-1.114.126-1.598.4-.463.274-.842.632-1.094 1.117a3.156 3.156 0 00-.4 1.58c0 .884.295 1.622.884 2.211.61.59 1.346.885 2.229.885zM355.528 74.13c1.051 0 1.914.359 2.608 1.075.694.716 1.031 1.601 1.031 2.676 0 1.074-.337 1.959-1.031 2.654-.694.695-1.557 1.053-2.608 1.053-.989 0-1.83-.316-2.525-.969-.694-.653-1.051-1.475-1.114-2.465h-1.452v3.308h-.652v-7.205h.652v3.286h1.452c.063-.99.441-1.811 1.135-2.464.674-.632 1.515-.948 2.504-.948zm0 6.826c.862 0 1.577-.295 2.124-.885.568-.59.841-1.327.841-2.212 0-.884-.273-1.622-.841-2.211-.568-.59-1.262-.885-2.124-.885-.863 0-1.578.295-2.125.885-.568.59-.841 1.327-.841 2.212 0 .884.273 1.622.841 2.211.547.59 1.262.885 2.125.885zM370.359 80.809h1.009v2.612h-.589v-1.98h-6.542v1.98h-.589v-2.612h.779c.231-.21.399-.506.526-.885.126-.38.231-.969.315-1.77.084-.8.21-2.106.337-3.918h4.754v6.573zm-4.165-5.962c-.148 2.149-.274 3.603-.421 4.36-.126.76-.337 1.307-.61 1.602h4.585v-5.983h-3.554v.021zM374.25 74.277h4.417v7.184h-.631v-6.594h-3.218l-.463 4.255c-.084.864-.295 1.475-.631 1.833-.337.358-.863.527-1.557.527h-.126v-.611h.147c.484 0 .842-.126 1.073-.4.231-.274.379-.717.463-1.328l.526-4.866zM382.917 74.277h3.071v7.163h-.631v-2.907h-2.251l-1.914 2.928h-.715l1.935-3.013c-.526-.084-.947-.316-1.262-.695a2.034 2.034 0 01-.484-1.348c0-.61.21-1.138.631-1.538.421-.4.967-.59 1.62-.59zm0 3.603h2.419v-2.97h-2.377c-.484 0-.884.126-1.178.42a1.43 1.43 0 00-.442 1.075c0 .442.147.8.442 1.074.294.274.673.4 1.136.4zM397.808 80.809h1.009v2.612h-.589v-1.98h-6.541v1.98h-.589v-2.612h.778c.231-.21.4-.506.526-.885.126-.38.231-.969.315-1.77.084-.8.211-2.106.337-3.918h4.754v6.573zm-4.186-5.962c-.147 2.149-.274 3.603-.421 4.36-.126.76-.336 1.307-.61 1.602h4.586v-5.983h-3.555v.021zM403.594 81.588c-1.073 0-1.956-.358-2.672-1.053-.715-.695-1.072-1.601-1.072-2.675 0-1.075.357-1.96 1.072-2.676.716-.716 1.599-1.053 2.672-1.053 1.073 0 1.977.358 2.671 1.053.715.716 1.073 1.601 1.073 2.675 0 1.075-.358 1.96-1.073 2.676-.715.695-1.598 1.053-2.671 1.053zm0-.632c.589 0 1.115-.126 1.577-.4.463-.274.842-.632 1.094-1.117.274-.463.4-1.01.4-1.58 0-.884-.295-1.643-.884-2.211-.589-.59-1.325-.885-2.208-.885-.589 0-1.115.126-1.599.4-.463.274-.841.632-1.094 1.117a3.155 3.155 0 00-.399 1.58c0 .884.294 1.622.883 2.211.589.59 1.346.885 2.23.885zM412.953 74.13c1.052 0 1.914.359 2.608 1.054.695.695 1.031 1.601 1.031 2.675 0 1.075-.336 1.96-1.031 2.676-.694.716-1.556 1.053-2.608 1.053a3.688 3.688 0 01-1.788-.442 3.754 3.754 0 01-1.304-1.201v4.045h-.652v-9.712h.484l.126 1.56a3.752 3.752 0 011.304-1.265c.547-.316 1.157-.442 1.83-.442zm-.063 6.826c.884 0 1.62-.295 2.188-.885.568-.59.862-1.327.862-2.212 0-.884-.294-1.643-.862-2.211-.568-.57-1.304-.885-2.188-.885-.862 0-1.599.295-2.167.885-.588.59-.883 1.327-.883 2.212 0 .884.295 1.622.883 2.211.589.59 1.305.885 2.167.885zM421.619 81.588c-1.073 0-1.956-.358-2.671-1.053-.715-.695-1.073-1.601-1.073-2.675 0-1.075.358-1.96 1.073-2.676.715-.716 1.598-1.053 2.671-1.053 1.073 0 1.977.358 2.672 1.053.715.716 1.072 1.601 1.072 2.675 0 1.075-.357 1.96-1.072 2.676-.716.695-1.599 1.053-2.672 1.053zm0-.632c.589 0 1.115-.126 1.578-.4.462-.274.841-.632 1.094-1.117.273-.463.399-1.01.399-1.58 0-.884-.294-1.643-.883-2.211-.589-.59-1.325-.885-2.209-.885-.589 0-1.115.126-1.599.4-.462.274-.841.632-1.093 1.117a3.146 3.146 0 00-.4 1.58c0 .884.295 1.622.883 2.211.61.59 1.347.885 2.23.885zM430.328 81.588c-1.052 0-1.915-.358-2.63-1.074-.715-.716-1.052-1.601-1.052-2.654 0-1.075.358-1.96 1.052-2.676.694-.716 1.578-1.053 2.63-1.053.799 0 1.514.21 2.124.653a3.35 3.35 0 011.262 1.727h-.652a2.755 2.755 0 00-1.073-1.264c-.484-.316-1.03-.463-1.661-.463-.863 0-1.578.295-2.167.885-.568.59-.862 1.327-.862 2.212 0 .884.294 1.622.862 2.212.568.59 1.304.884 2.146.884.61 0 1.156-.147 1.64-.463.484-.316.842-.737 1.115-1.306h.673a3.421 3.421 0 01-1.304 1.748c-.61.421-1.304.632-2.103.632zM436.576 74.277h4.417v7.184h-.631v-6.594h-3.218l-.463 4.255c-.084.864-.294 1.475-.631 1.833-.337.358-.862.527-1.557.527h-.126v-.611h.147c.484 0 .842-.126 1.073-.4.232-.274.379-.717.463-1.328l.526-4.866zM448.797 74.277h.378v7.184h-.61v-5.983l-4.69 5.983h-.379v-7.184h.631v5.962l4.67-5.962zM456.873 81.441h-.736l-2.419-3.328-2.398 3.328h-.736l2.756-3.75-2.504-3.433h.737l2.145 2.97 2.167-2.97h.736l-2.503 3.391 2.755 3.792z" fill="#000"/>
    </g>
    <defs>
        <clipPath id="clip0">
            <path fill="#fff" d="M0 0h457v83.989H0z"/>
        </clipPath>
    </defs>
</svg>
