<svg width="200" height="30" fill="none" xmlns="http://www.w3.org/2000/svg">
    <g clip-path="url(#clip0)" fill="#403F3F">
        <path d="M197.202 5.248l.697.98h.636l-.745-.98a.667.667 0 00.541-.257.87.87 0 00.204-.583c0-.21-.06-.385-.18-.525-.168-.21-.456-.315-.865-.315h-.804V6.24h.516v-.991zm0-1.213h.3c.192 0 .336.047.421.14.06.07.096.152.096.256a.378.378 0 01-.096.257c-.085.093-.217.128-.409.128h-.3v-.781h-.012z"/>
        <path d="M197.514 7.302c.684 0 1.273-.234 1.753-.712A2.264 2.264 0 00200 4.875c0-.664-.24-1.224-.733-1.703a2.44 2.44 0 00-1.753-.711c-.697 0-1.285.233-1.766.7-.48.466-.732 1.038-.732 1.703s.24 1.236.732 1.714c.481.49 1.069.724 1.766.724zm-1.442-3.803a1.981 1.981 0 011.43-.571c.552 0 1.033.198 1.429.571.396.385.6.84.6 1.388 0 .548-.204 1.015-.6 1.4a1.979 1.979 0 01-1.429.571 1.99 1.99 0 01-1.442-.571 1.867 1.867 0 01-.588-1.388 1.93 1.93 0 01.6-1.4zM24.812 19.339c-2.173 1.715-5.236 2.636-9.2 2.776v2.415H12.49v-2.415c-3.963-.151-7.038-1.085-9.211-2.8C1.105 17.602 0 15.223 0 12.225 0 9.203 1.093 6.835 3.279 5.12c2.185-1.715 5.248-2.648 9.211-2.8V0h3.123v2.31c3.939.151 7.002 1.096 9.187 2.822 2.186 1.726 3.279 4.094 3.279 7.092-.012 3.02-1.105 5.389-3.267 7.115zM5.657 17.426c1.597 1.248 3.879 1.96 6.833 2.135V4.887c-3.002.175-5.284.887-6.87 2.123-1.573 1.236-2.365 2.974-2.365 5.214 0 2.216.804 3.954 2.402 5.202zm16.813 0c1.574-1.248 2.366-2.997 2.366-5.237 0-2.193-.804-3.92-2.402-5.167-1.597-1.248-3.867-1.96-6.821-2.135v14.674c3.002-.175 5.284-.887 6.857-2.135zM48.713 16.073H34.277c.204 1.516.889 2.741 2.066 3.674 1.177.922 2.63 1.388 4.383 1.388 2.126 0 3.843-.7 5.14-2.088l1.778 2.018a7.785 7.785 0 01-3.003 2.088c-1.2.478-2.534.712-4.01.712-1.874 0-3.544-.374-4.997-1.12-1.453-.747-2.582-1.796-3.375-3.15-.792-1.352-1.189-2.869-1.189-4.56 0-1.668.385-3.184 1.153-4.537.769-1.353 1.838-2.392 3.195-3.15 1.357-.746 2.882-1.12 4.588-1.12 1.705 0 3.218.374 4.551 1.12a7.917 7.917 0 013.123 3.15c.745 1.353 1.129 2.892 1.129 4.63-.024.245-.048.56-.096.945zm-12.61-5.832c-1.045.91-1.646 2.111-1.826 3.58h11.41c-.18-1.457-.793-2.647-1.826-3.568-1.045-.922-2.33-1.388-3.88-1.388-1.537 0-2.834.454-3.879 1.376zM67.843 7.337a8.012 8.012 0 013.206 3.102c.77 1.33 1.153 2.858 1.153 4.596s-.384 3.277-1.153 4.619a7.965 7.965 0 01-3.206 3.114c-1.37.735-2.907 1.108-4.636 1.108-1.273 0-2.45-.233-3.507-.711a7.208 7.208 0 01-2.702-2.088v8.935h-3.219V6.392h3.087v2.74a6.855 6.855 0 012.714-2.169c1.093-.49 2.306-.734 3.627-.734 1.73 0 3.279.373 4.636 1.108zm-1.826 13.028a5.676 5.676 0 002.15-2.146c.528-.921.793-1.983.793-3.184 0-1.19-.264-2.251-.793-3.184-.528-.922-1.237-1.633-2.15-2.135-.9-.501-1.933-.746-3.074-.746-1.117 0-2.138.256-3.039.77a5.728 5.728 0 00-2.15 2.134c-.528.91-.792 1.971-.792 3.16 0 1.202.252 2.252.768 3.185.517.922 1.226 1.645 2.15 2.146.913.514 1.934.77 3.05.77 1.154-.012 2.175-.256 3.087-.77zM90.939 7.337a8.012 8.012 0 013.206 3.102c.769 1.33 1.153 2.858 1.153 4.596s-.384 3.277-1.153 4.619a7.965 7.965 0 01-3.206 3.114c-1.37.735-2.907 1.108-4.636 1.108-1.273 0-2.45-.233-3.507-.711a7.208 7.208 0 01-2.702-2.088v8.935h-3.219V6.392h3.087v2.74a6.855 6.855 0 012.714-2.169c1.093-.49 2.306-.734 3.627-.734 1.73 0 3.278.373 4.636 1.108zm-1.826 13.028a5.676 5.676 0 002.15-2.146c.528-.921.792-1.983.792-3.184 0-1.19-.264-2.251-.792-3.184-.529-.922-1.237-1.633-2.15-2.135-.9-.501-1.933-.746-3.075-.746-1.116 0-2.137.256-3.038.77a5.728 5.728 0 00-2.15 2.134c-.528.91-.792 1.971-.792 3.16 0 1.202.252 2.252.768 3.185.517.922 1.225 1.645 2.15 2.146.913.514 1.934.77 3.05.77 1.153-.012 2.186-.256 3.087-.77zM102.828 22.721c-1.406-.758-2.51-1.807-3.303-3.149-.793-1.341-1.19-2.857-1.19-4.549 0-1.691.397-3.207 1.19-4.549.793-1.341 1.897-2.38 3.303-3.126 1.405-.746 3.002-1.12 4.768-1.12 1.765 0 3.35.374 4.755 1.12a8.364 8.364 0 013.291 3.126c.793 1.342 1.189 2.858 1.189 4.55 0 1.69-.396 3.207-1.189 4.548-.793 1.342-1.897 2.391-3.291 3.15-1.405.758-2.978 1.143-4.755 1.143-1.778 0-3.363-.374-4.768-1.143zm7.842-2.356a5.566 5.566 0 002.138-2.146c.516-.921.768-1.983.768-3.184 0-1.19-.252-2.251-.768-3.184a5.381 5.381 0 00-2.138-2.135c-.901-.501-1.934-.746-3.074-.746-1.141 0-2.162.245-3.075.746a5.567 5.567 0 00-2.15 2.135c-.528.921-.792 1.982-.792 3.184 0 1.201.264 2.251.792 3.184.529.922 1.237 1.645 2.15 2.146.901.514 1.934.77 3.075.77 1.14-.012 2.161-.256 3.074-.77zM135.687 6.393v17.274h-3.219v-6.975c-1.922.875-3.843 1.306-5.741 1.306-2.222 0-3.927-.501-5.14-1.504-1.213-1.003-1.814-2.496-1.814-4.503V6.393h3.219v5.412c0 1.19.384 2.1 1.153 2.706.769.606 1.85.91 3.243.91 1.561 0 3.254-.385 5.068-1.143V6.393h3.231zM157.953 16.073h-14.436c.204 1.516.889 2.741 2.066 3.674 1.177.922 2.63 1.388 4.383 1.388 2.126 0 3.844-.7 5.141-2.088l1.777 2.018a7.786 7.786 0 01-3.002 2.088c-1.201.478-2.534.712-4.012.712-1.873 0-3.543-.374-4.996-1.12-1.453-.747-2.582-1.796-3.374-3.15-.793-1.352-1.189-2.869-1.189-4.56 0-1.668.384-3.184 1.152-4.537.769-1.353 1.838-2.392 3.195-3.15 1.357-.746 2.882-1.12 4.588-1.12 1.705 0 3.219.374 4.552 1.12a7.913 7.913 0 013.122 3.15c.745 1.353 1.129 2.892 1.129 4.63-.036.245-.06.56-.096.945zm-12.61-5.832c-1.045.91-1.646 2.111-1.826 3.58h11.41c-.181-1.457-.793-2.647-1.826-3.568-1.045-.922-2.33-1.388-3.879-1.388s-2.834.454-3.879 1.376zM177.999 6.393v17.274h-3.219V9.134h-7.65l-.205 3.849c-.108 2.32-.324 4.269-.636 5.82-.312 1.552-.829 2.8-1.549 3.733-.721.933-1.718 1.4-2.991 1.4-.576 0-1.237-.094-1.981-.292l.204-2.636c.288.07.564.093.804.093.901 0 1.562-.385 2.018-1.143.444-.758.733-1.668.877-2.706.144-1.038.252-2.531.372-4.467l.3-6.392h13.656zM197.633 13.764c1.189.98 1.778 2.356 1.778 4.141 0 1.866-.649 3.313-1.934 4.316-1.285 1.014-3.122 1.504-5.524 1.481l-7.723-.035V6.393h3.219v5.832l5.008.035c2.258.023 3.987.524 5.176 1.504zm-2.642 6.707c.745-.583 1.129-1.458 1.129-2.613 0-1.131-.36-1.96-1.093-2.472-.732-.525-1.837-.794-3.338-.817l-4.228-.07v6.777l4.228.035c1.453.035 2.558-.245 3.302-.84z"/>
    </g>
    <defs>
        <clipPath id="clip0">
            <path fill="#fff" d="M0 0h200v30H0z"/>
        </clipPath>
    </defs>
</svg>
