<svg width="315" height="49" fill="none" xmlns="http://www.w3.org/2000/svg">
    <g clip-path="url(#clip0)" fill="#E30E13">
        <path d="M310.593 8.573l1.097 1.6h1.002l-1.173-1.6c.341 0 .625-.133.852-.419.227-.285.321-.59.321-.952 0-.343-.094-.629-.283-.858-.265-.342-.719-.514-1.362-.514h-1.268v4.363h.814v-1.62zm0-1.98h.473c.302 0 .529.075.662.228a.633.633 0 01.151.419.633.633 0 01-.151.419c-.133.152-.341.21-.644.21h-.472V6.592h-.019z"/>
        <path d="M311.085 11.926c1.078 0 2.005-.381 2.761-1.162.776-.762 1.154-1.696 1.154-2.8 0-1.087-.378-2.001-1.154-2.782-.756-.762-1.683-1.162-2.761-1.162-1.097 0-2.024.38-2.781 1.143-.756.762-1.154 1.695-1.154 2.781s.379 2.02 1.154 2.8c.757.8 1.684 1.182 2.781 1.182zm-2.27-6.21a3.06 3.06 0 012.251-.934c.87 0 1.627.323 2.251.933.624.629.946 1.372.946 2.267 0 .896-.322 1.658-.946 2.286a3.06 3.06 0 01-2.251.934c-.889 0-1.646-.305-2.27-.934-.624-.628-.927-1.39-.927-2.267.019-.895.322-1.657.946-2.286zM39.08 31.587c-3.424 2.8-8.248 4.306-14.49 4.534v3.944h-4.918V36.12C13.43 35.874 8.588 34.35 5.164 31.55 1.74 28.749 0 24.862 0 19.966c0-4.935 1.721-8.802 5.164-11.602C8.607 5.563 13.43 4.039 19.672 3.79V0h4.918v3.772c6.204.248 11.028 1.791 14.47 4.61 3.443 2.82 5.164 6.688 5.164 11.584-.018 4.934-1.74 8.801-5.145 11.621zM8.91 28.463c2.515 2.038 6.109 3.2 10.762 3.486V7.983c-4.729.285-8.323 1.447-10.82 3.467-2.477 2.02-3.726 4.858-3.726 8.516 0 3.62 1.267 6.458 3.783 8.497zm26.48 0c2.479-2.039 3.727-4.896 3.727-8.554 0-3.582-1.267-6.402-3.783-8.44-2.516-2.039-6.09-3.2-10.744-3.486v23.966c4.729-.286 8.323-1.448 10.8-3.486zM76.72 26.253H53.984c.322 2.477 1.4 4.477 3.253 6.001 1.854 1.505 4.143 2.267 6.905 2.267 3.348 0 6.053-1.143 8.096-3.41l2.799 3.296c-1.267 1.486-2.837 2.63-4.729 3.41-1.891.781-3.991 1.162-6.318 1.162-2.95 0-5.58-.61-7.869-1.828-2.288-1.22-4.066-2.934-5.315-5.144-1.248-2.21-1.872-4.687-1.872-7.45 0-2.724.605-5.2 1.816-7.41 1.21-2.21 2.894-3.906 5.031-5.144 2.138-1.22 4.54-1.83 7.226-1.83s5.07.61 7.169 1.83c2.1 1.219 3.745 2.934 4.918 5.144 1.172 2.21 1.778 4.724 1.778 7.563-.038.4-.076.914-.151 1.543zm-19.86-9.526c-1.646 1.486-2.592 3.449-2.876 5.85h17.97c-.284-2.382-1.249-4.325-2.875-5.83-1.646-1.505-3.67-2.268-6.11-2.268-2.421 0-4.464.743-6.11 2.248zM106.853 11.984c2.157 1.2 3.84 2.896 5.051 5.067 1.21 2.172 1.816 4.668 1.816 7.507 0 2.838-.606 5.353-1.816 7.544-1.211 2.19-2.894 3.886-5.051 5.087-2.156 1.2-4.577 1.81-7.301 1.81-2.005 0-3.859-.382-5.524-1.163a11.414 11.414 0 01-4.256-3.41V49.02h-5.069V10.441h4.861v4.477c1.135-1.563 2.554-2.744 4.275-3.544 1.722-.8 3.632-1.2 5.713-1.2 2.724 0 5.164.61 7.301 1.81zm-2.875 21.28c1.419-.838 2.554-2 3.386-3.505.832-1.506 1.248-3.24 1.248-5.201 0-1.944-.416-3.677-1.248-5.201-.832-1.505-1.948-2.668-3.386-3.487-1.419-.819-3.045-1.22-4.842-1.22-1.76 0-3.367.42-4.786 1.258a9.192 9.192 0 00-3.386 3.487c-.832 1.486-1.248 3.22-1.248 5.163 0 1.962.397 3.677 1.21 5.2.814 1.506 1.93 2.687 3.386 3.506 1.438.838 3.046 1.257 4.805 1.257 1.816-.019 3.423-.419 4.861-1.257zM143.228 11.984c2.157 1.2 3.84 2.896 5.051 5.067 1.21 2.172 1.816 4.668 1.816 7.507 0 2.838-.606 5.353-1.816 7.544-1.211 2.19-2.894 3.886-5.051 5.087-2.156 1.2-4.577 1.81-7.301 1.81-2.005 0-3.859-.382-5.524-1.163a11.42 11.42 0 01-4.256-3.41V49.02h-5.069V10.441h4.861v4.477c1.135-1.563 2.554-2.744 4.275-3.544 1.722-.8 3.632-1.2 5.713-1.2 2.724 0 5.164.61 7.301 1.81zm-2.875 21.28c1.419-.838 2.554-2 3.386-3.505.832-1.506 1.248-3.24 1.248-5.201 0-1.944-.416-3.677-1.248-5.201-.832-1.505-1.948-2.668-3.386-3.487-1.419-.819-3.045-1.22-4.842-1.22-1.759 0-3.367.42-4.786 1.258a9.188 9.188 0 00-3.386 3.487c-.832 1.486-1.248 3.22-1.248 5.163 0 1.962.397 3.677 1.21 5.2.814 1.506 1.93 2.687 3.386 3.506 1.438.838 3.046 1.257 4.805 1.257 1.816-.019 3.442-.419 4.861-1.257zM161.955 37.112c-2.213-1.238-3.953-2.953-5.201-5.144-1.249-2.19-1.873-4.667-1.873-7.43 0-2.762.624-5.239 1.873-7.43 1.248-2.19 2.988-3.886 5.201-5.105 2.213-1.22 4.729-1.83 7.51-1.83 2.78 0 5.277.61 7.49 1.83a13.394 13.394 0 015.183 5.105c1.249 2.191 1.873 4.668 1.873 7.43 0 2.763-.624 5.24-1.873 7.43-1.248 2.191-2.989 3.906-5.183 5.144-2.213 1.239-4.691 1.867-7.49 1.867-2.8 0-5.297-.61-7.51-1.867zm12.352-3.848a8.928 8.928 0 003.367-3.505c.813-1.506 1.211-3.24 1.211-5.201 0-1.944-.398-3.677-1.211-5.201-.813-1.505-1.929-2.668-3.367-3.487-1.419-.819-3.045-1.22-4.842-1.22-1.797 0-3.405.401-4.843 1.22-1.418.82-2.553 1.982-3.386 3.487-.832 1.505-1.248 3.238-1.248 5.2 0 1.963.416 3.678 1.248 5.202.833 1.505 1.949 2.686 3.386 3.505 1.419.838 3.046 1.257 4.843 1.257 1.797-.019 3.405-.419 4.842-1.257zM213.708 10.44v28.214h-5.07V27.262c-3.026 1.429-6.053 2.133-9.041 2.133-3.5 0-6.186-.819-8.096-2.457-1.911-1.639-2.856-4.077-2.856-7.354V10.44h5.069v8.84c0 1.942.605 3.428 1.816 4.42 1.21.99 2.913 1.485 5.107 1.485 2.459 0 5.126-.628 7.982-1.867V10.44h5.089zM248.777 26.253h-22.736c.321 2.477 1.399 4.477 3.253 6.001 1.854 1.505 4.143 2.267 6.904 2.267 3.348 0 6.053-1.143 8.096-3.41l2.8 3.296c-1.268 1.486-2.838 2.63-4.729 3.41-1.892.781-3.991 1.162-6.318 1.162-2.951 0-5.58-.61-7.869-1.828-2.289-1.22-4.067-2.934-5.315-5.144-1.249-2.21-1.873-4.687-1.873-7.45 0-2.724.606-5.2 1.816-7.41 1.211-2.21 2.894-3.906 5.032-5.144 2.137-1.22 4.539-1.83 7.225-1.83s5.07.61 7.169 1.83c2.1 1.219 3.746 2.934 4.918 5.144 1.173 2.21 1.778 4.724 1.778 7.563-.056.4-.094.914-.151 1.543zm-19.861-9.526c-1.646 1.486-2.592 3.449-2.875 5.85h17.969c-.283-2.382-1.248-4.325-2.875-5.83-1.645-1.505-3.669-2.268-6.109-2.268-2.441 0-4.465.743-6.11 2.248zM280.347 10.44v28.214h-5.07V14.916h-12.049l-.322 6.287c-.17 3.792-.51 6.973-1.002 9.507s-1.305 4.572-2.44 6.096c-1.135 1.525-2.705 2.287-4.71 2.287-.908 0-1.948-.153-3.121-.477l.321-4.305c.454.114.889.152 1.268.152 1.418 0 2.459-.629 3.178-1.867.699-1.238 1.153-2.724 1.38-4.42.227-1.695.398-4.134.587-7.296l.473-10.44h21.507zM311.274 22.48c1.872 1.6 2.799 3.848 2.799 6.763 0 3.048-1.021 5.41-3.045 7.05-2.024 1.657-4.918 2.457-8.701 2.419l-12.163-.058V10.44h5.069v9.526l7.888.057c3.556.038 6.28.858 8.153 2.458zm-4.162 10.954c1.173-.952 1.778-2.381 1.778-4.267 0-1.848-.567-3.2-1.721-4.039-1.154-.857-2.894-1.296-5.258-1.334l-6.659-.114V34.75l6.659.057c2.288.057 4.029-.4 5.201-1.372z"/>
    </g>
    <defs>
        <clipPath id="clip0">
            <path fill="#fff" d="M0 0h315v49H0z"/>
        </clipPath>
    </defs>
</svg>
