<svg width="148" height="149" fill="none" xmlns="http://www.w3.org/2000/svg">
    <path d="M5.928 0H0v5.928h5.928V0z" fill="#222"/>
    <path d="M11.854 0H5.927v5.928h5.927V0zM17.781 0h-5.927v5.928h5.927V0z" fill="#222"/>
    <path d="M23.677 0h-5.928v5.928h5.928V0zM29.607 0H23.68v5.928h5.927V0z" fill="#222"/>
    <path d="M35.534 0h-5.928v5.928h5.928V0zM41.462 0h-5.928v5.928h5.928V0zM53.283 0h-5.928v5.928h5.928V0zM59.215 0h-5.928v5.928h5.928V0z" fill="#222"/>
    <path d="M65.142 0h-5.928v5.928h5.928V0z" fill="#222"/>
    <path d="M71.037 0H65.11v5.928h5.928V0zM88.817 0H82.89v5.928h5.927V0zM100.644 0h-5.928v5.928h5.928V0zM112.497 0h-5.928v5.928h5.928V0z" fill="#222"/>
    <path d="M118.424 0h-5.928v5.928h5.928V0z" fill="#222"/>
    <path d="M124.319 0h-5.927v5.928h5.927V0zM130.251 0h-5.928v5.928h5.928V0z" fill="#222"/>
    <path d="M136.178 0h-5.928v5.928h5.928V0z" fill="#222"/>
    <path d="M142.104 0h-5.927v5.928h5.927V0z" fill="#222"/>
    <path d="M148 0h-5.928v5.928H148V0zM5.928 5.93H0v5.927h5.928V5.93zM41.462 5.93h-5.928v5.927h5.928V5.93zM71.037 5.93H65.11v5.927h5.928V5.93z" fill="#222"/>
    <path d="M76.964 5.93h-5.928v5.927h5.928V5.93zM100.644 5.93h-5.928v5.927h5.928V5.93zM112.497 5.93h-5.928v5.927h5.928V5.93zM148 5.93h-5.928v5.927H148V5.93zM5.928 11.855H0v5.928h5.928v-5.928zM17.781 11.855h-5.927v5.928h5.927v-5.928z" fill="#222"/>
    <path d="M23.677 11.855h-5.928v5.928h5.928v-5.928zM29.607 11.855H23.68v5.928h5.927v-5.928zM41.462 11.855h-5.928v5.928h5.928v-5.928zM59.215 11.855h-5.928v5.928h5.928v-5.928zM71.037 11.855H65.11v5.928h5.928v-5.928zM82.89 11.855h-5.927v5.928h5.928v-5.928z" fill="#222"/>
    <path d="M88.817 11.855H82.89v5.928h5.927v-5.928zM94.748 11.855H88.82v5.928h5.928v-5.928z" fill="#222"/>
    <path d="M100.644 11.855h-5.928v5.928h5.928v-5.928zM112.497 11.855h-5.928v5.928h5.928v-5.928zM124.319 11.855h-5.927v5.928h5.927v-5.928zM130.251 11.855h-5.928v5.928h5.928v-5.928z" fill="#222"/>
    <path d="M136.178 11.855h-5.928v5.928h5.928v-5.928zM148 11.855h-5.928v5.928H148v-5.928zM5.928 17.75H0v5.928h5.928V17.75zM17.781 17.75h-5.927v5.928h5.927V17.75z" fill="#222"/>
    <path d="M23.677 17.75h-5.928v5.928h5.928V17.75zM29.607 17.75H23.68v5.928h5.927V17.75zM41.462 17.75h-5.928v5.928h5.928V17.75zM65.142 17.75h-5.928v5.928h5.928V17.75z" fill="#222"/>
    <path d="M71.037 17.75H65.11v5.928h5.928V17.75zM88.817 17.75H82.89v5.928h5.927V17.75zM100.644 17.75h-5.928v5.928h5.928V17.75zM112.497 17.75h-5.928v5.928h5.928V17.75zM124.319 17.75h-5.927v5.928h5.927V17.75zM130.251 17.75h-5.928v5.928h5.928V17.75z" fill="#222"/>
    <path d="M136.178 17.75h-5.928v5.928h5.928V17.75zM148 17.75h-5.928v5.928H148V17.75zM5.928 23.68H0v5.927h5.928V23.68zM17.781 23.68h-5.927v5.927h5.927V23.68z" fill="#222"/>
    <path d="M23.677 23.68h-5.928v5.927h5.928V23.68zM29.607 23.68H23.68v5.927h5.927V23.68zM41.462 23.68h-5.928v5.927h5.928V23.68zM65.142 23.68h-5.928v5.927h5.928V23.68z" fill="#222"/>
    <path d="M71.037 23.68H65.11v5.927h5.928V23.68z" fill="#222"/>
    <path d="M76.964 23.68h-5.928v5.927h5.928V23.68z" fill="#222"/>
    <path d="M82.89 23.68h-5.927v5.927h5.928V23.68z" fill="#222"/>
    <path d="M88.817 23.68H82.89v5.927h5.927V23.68zM100.644 23.68h-5.928v5.927h5.928V23.68zM112.497 23.68h-5.928v5.927h5.928V23.68zM124.319 23.68h-5.927v5.927h5.927V23.68zM130.251 23.68h-5.928v5.927h5.928V23.68z" fill="#222"/>
    <path d="M136.178 23.68h-5.928v5.927h5.928V23.68zM148 23.68h-5.928v5.927H148V23.68zM5.928 29.605H0v5.928h5.928v-5.928zM41.462 29.605h-5.928v5.928h5.928v-5.928zM59.215 29.605h-5.928v5.928h5.928v-5.928zM71.037 29.605H65.11v5.928h5.928v-5.928zM82.89 29.605h-5.927v5.928h5.928v-5.928z" fill="#222"/>
    <path d="M88.817 29.605H82.89v5.928h5.927v-5.928zM112.497 29.605h-5.928v5.928h5.928v-5.928zM148 29.605h-5.928v5.928H148v-5.928zM5.928 35.535H0v5.928h5.928v-5.928z" fill="#222"/>
    <path d="M11.854 35.535H5.927v5.928h5.927v-5.928zM17.781 35.535h-5.927v5.928h5.927v-5.928z" fill="#222"/>
    <path d="M23.677 35.535h-5.928v5.928h5.928v-5.928zM29.607 35.535H23.68v5.928h5.927v-5.928z" fill="#222"/>
    <path d="M35.534 35.535h-5.928v5.928h5.928v-5.928zM41.462 35.535h-5.928v5.928h5.928v-5.928zM53.283 35.535h-5.928v5.928h5.928v-5.928zM65.142 35.535h-5.928v5.928h5.928v-5.928zM76.964 35.535h-5.928v5.928h5.928v-5.928zM88.817 35.535H82.89v5.928h5.927v-5.928zM100.644 35.535h-5.928v5.928h5.928v-5.928zM112.497 35.535h-5.928v5.928h5.928v-5.928z" fill="#222"/>
    <path d="M118.424 35.535h-5.928v5.928h5.928v-5.928z" fill="#222"/>
    <path d="M124.319 35.535h-5.927v5.928h5.927v-5.928zM130.251 35.535h-5.928v5.928h5.928v-5.928z" fill="#222"/>
    <path d="M136.178 35.535h-5.928v5.928h5.928v-5.928z" fill="#222"/>
    <path d="M142.104 35.535h-5.927v5.928h5.927v-5.928z" fill="#222"/>
    <path d="M148 35.535h-5.928v5.928H148v-5.928zM53.283 41.43h-5.928v5.927h5.928V41.43zM59.215 41.43h-5.928v5.927h5.928V41.43zM76.964 41.43h-5.928v5.927h5.928V41.43zM88.817 41.43H82.89v5.927h5.927V41.43zM100.644 41.43h-5.928v5.927h5.928V41.43zM5.928 47.36H0v5.927h5.928V47.36z" fill="#222"/>
    <path d="M11.854 47.36H5.927v5.927h5.927V47.36zM23.677 47.36h-5.928v5.927h5.928V47.36zM29.607 47.36H23.68v5.927h5.927V47.36zM41.462 47.36h-5.928v5.927h5.928V47.36zM59.215 47.36h-5.928v5.927h5.928V47.36zM76.964 47.36h-5.928v5.927h5.928V47.36z" fill="#222"/>
    <path d="M82.89 47.36h-5.927v5.927h5.928V47.36z" fill="#222"/>
    <path d="M88.817 47.36H82.89v5.927h5.927V47.36zM94.748 47.36H88.82v5.927h5.928V47.36zM112.497 47.36h-5.928v5.927h5.928V47.36zM148 47.36h-5.928v5.927H148V47.36zM5.928 53.285H0v5.928h5.928v-5.928z" fill="#222"/>
    <path d="M11.854 53.285H5.927v5.928h5.927v-5.928zM17.781 53.285h-5.927v5.928h5.927v-5.928z" fill="#222"/>
    <path d="M23.677 53.285h-5.928v5.928h5.928v-5.928zM29.607 53.285H23.68v5.928h5.927v-5.928z" fill="#222"/>
    <path d="M35.534 53.285h-5.928v5.928h5.928v-5.928zM47.356 53.285H41.43v5.928h5.927v-5.928zM65.142 53.285h-5.928v5.928h5.928v-5.928zM88.817 53.285H82.89v5.928h5.927v-5.928zM94.748 53.285H88.82v5.928h5.928v-5.928zM106.57 53.285h-5.927v5.928h5.927v-5.928zM118.424 53.285h-5.928v5.928h5.928v-5.928z" fill="#222"/>
    <path d="M124.319 53.285h-5.927v5.928h5.927v-5.928zM130.251 53.285h-5.928v5.928h5.928v-5.928z" fill="#222"/>
    <path d="M136.178 53.285h-5.928v5.928h5.928v-5.928z" fill="#222"/>
    <path d="M142.104 53.285h-5.927v5.928h5.927v-5.928zM17.781 59.21h-5.927v5.929h5.927V59.21zM41.462 59.21h-5.928v5.929h5.928V59.21z" fill="#222"/>
    <path d="M47.356 59.21H41.43v5.929h5.927V59.21zM59.215 59.21h-5.928v5.929h5.928V59.21zM76.964 59.21h-5.928v5.929h5.928V59.21zM88.817 59.21H82.89v5.929h5.927V59.21zM94.748 59.21H88.82v5.929h5.928V59.21zM112.497 59.21h-5.928v5.929h5.928V59.21z" fill="#222"/>
    <path d="M118.424 59.21h-5.928v5.929h5.928V59.21zM130.251 59.21h-5.928v5.929h5.928V59.21zM148 59.21h-5.928v5.929H148V59.21zM17.781 65.11h-5.927v5.927h5.927V65.11zM47.356 65.11H41.43v5.927h5.927V65.11z" fill="#222"/>
    <path d="M53.283 65.11h-5.928v5.927h5.928V65.11zM88.817 65.11H82.89v5.927h5.927V65.11zM94.748 65.11H88.82v5.927h5.928V65.11zM118.424 65.11h-5.928v5.927h5.928V65.11zM130.251 65.11h-5.928v5.927h5.928V65.11z" fill="#222"/>
    <path d="M136.178 65.11h-5.928v5.927h5.928V65.11z" fill="#222"/>
    <path d="M142.104 65.11h-5.927v5.927h5.927V65.11z" fill="#222"/>
    <path d="M148 65.11h-5.928v5.927H148V65.11zM5.928 71.035H0v5.928h5.928v-5.928zM17.781 71.035h-5.927v5.928h5.927v-5.928zM29.607 71.035H23.68v5.928h5.927v-5.928zM41.462 71.035h-5.928v5.928h5.928v-5.928z" fill="#222"/>
    <path d="M47.356 71.035H41.43v5.928h5.927v-5.928z" fill="#222"/>
    <path d="M53.283 71.035h-5.928v5.928h5.928v-5.928zM59.215 71.035h-5.928v5.928h5.928v-5.928z" fill="#222"/>
    <path d="M65.142 71.035h-5.928v5.928h5.928v-5.928zM82.89 71.035h-5.927v5.928h5.928v-5.928z" fill="#222"/>
    <path d="M88.817 71.035H82.89v5.928h5.927v-5.928zM100.644 71.035h-5.928v5.928h5.928v-5.928z" fill="#222"/>
    <path d="M106.57 71.035h-5.927v5.928h5.927v-5.928z" fill="#222"/>
    <path d="M112.497 71.035h-5.928v5.928h5.928v-5.928zM148 71.035h-5.928v5.928H148v-5.928zM5.928 76.965H0v5.927h5.928v-5.927zM17.781 76.965h-5.927v5.927h5.927v-5.927z" fill="#222"/>
    <path d="M23.677 76.965h-5.928v5.927h5.928v-5.927zM29.607 76.965H23.68v5.927h5.927v-5.927zM59.215 76.965h-5.928v5.927h5.928v-5.927z" fill="#222"/>
    <path d="M65.142 76.965h-5.928v5.927h5.928v-5.927zM76.964 76.965h-5.928v5.927h5.928v-5.927zM94.748 76.965H88.82v5.927h5.928v-5.927zM124.319 76.965h-5.927v5.927h5.927v-5.927zM142.104 76.965h-5.927v5.927h5.927v-5.927zM5.928 82.89H0v5.928h5.928v-5.927z" fill="#222"/>
    <path d="M11.854 82.89H5.927v5.928h5.927v-5.927zM17.781 82.89h-5.927v5.928h5.927v-5.927z" fill="#222"/>
    <path d="M23.677 82.89h-5.928v5.928h5.928v-5.927zM41.462 82.89h-5.928v5.928h5.928v-5.927z" fill="#222"/>
    <path d="M47.356 82.89H41.43v5.928h5.927v-5.927zM65.142 82.89h-5.928v5.928h5.928v-5.927zM88.817 82.89H82.89v5.928h5.927v-5.927zM94.748 82.89H88.82v5.928h5.928v-5.927z" fill="#222"/>
    <path d="M100.644 82.89h-5.928v5.928h5.928v-5.927z" fill="#222"/>
    <path d="M106.57 82.89h-5.927v5.928h5.927v-5.927zM124.319 82.89h-5.927v5.928h5.927v-5.927zM130.251 82.89h-5.928v5.928h5.928v-5.927z" fill="#222"/>
    <path d="M136.178 82.89h-5.928v5.928h5.928v-5.927z" fill="#222"/>
    <path d="M142.104 82.89h-5.927v5.928h5.927v-5.927z" fill="#222"/>
    <path d="M148 82.89h-5.928v5.928H148v-5.927zM5.928 88.82H0v5.928h5.928V88.82zM17.781 88.82h-5.927v5.928h5.927V88.82z" fill="#222"/>
    <path d="M23.677 88.82h-5.928v5.928h5.928V88.82zM29.607 88.82H23.68v5.928h5.927V88.82zM76.964 88.82h-5.928v5.928h5.928V88.82z" fill="#222"/>
    <path d="M82.89 88.82h-5.927v5.928h5.928V88.82z" fill="#222"/>
    <path d="M88.817 88.82H82.89v5.928h5.927V88.82zM100.644 88.82h-5.928v5.928h5.928V88.82zM118.424 88.82h-5.928v5.928h5.928V88.82z" fill="#222"/>
    <path d="M124.319 88.82h-5.927v5.928h5.927V88.82zM136.178 88.82h-5.928v5.928h5.928V88.82zM148 88.82h-5.928v5.928H148V88.82zM5.928 94.715H0v5.928h5.928v-5.928zM17.781 94.715h-5.927v5.928h5.927v-5.928z" fill="#222"/>
    <path d="M23.677 94.715h-5.928v5.928h5.928v-5.928zM29.607 94.715H23.68v5.928h5.927v-5.928zM41.462 94.715h-5.928v5.928h5.928v-5.928z" fill="#222"/>
    <path d="M47.356 94.715H41.43v5.928h5.927v-5.928z" fill="#222"/>
    <path d="M53.283 94.715h-5.928v5.928h5.928v-5.928zM59.215 94.715h-5.928v5.928h5.928v-5.928zM71.037 94.715H65.11v5.928h5.928v-5.928z" fill="#222"/>
    <path d="M76.964 94.715h-5.928v5.928h5.928v-5.928zM100.644 94.715h-5.928v5.928h5.928v-5.928z" fill="#222"/>
    <path d="M106.57 94.715h-5.927v5.928h5.927v-5.928z" fill="#222"/>
    <path d="M112.497 94.715h-5.928v5.928h5.928v-5.928z" fill="#222"/>
    <path d="M118.424 94.715h-5.928v5.928h5.928v-5.928z" fill="#222"/>
    <path d="M124.319 94.715h-5.927v5.928h5.927v-5.928zM136.178 94.715h-5.928v5.928h5.928v-5.928z" fill="#222"/>
    <path d="M142.104 94.715h-5.927v5.928h5.927v-5.928zM53.283 100.641h-5.928v5.927h5.928v-5.927zM59.215 100.641h-5.928v5.927h5.928v-5.927z" fill="#222"/>
    <path d="M65.142 100.641h-5.928v5.927h5.928v-5.927z" fill="#222"/>
    <path d="M71.037 100.641H65.11v5.927h5.928v-5.927zM100.644 100.641h-5.928v5.927h5.928v-5.927zM124.319 100.641h-5.927v5.927h5.927v-5.927zM142.104 100.641h-5.927v5.927h5.927v-5.927zM5.928 106.57H0v5.928h5.928v-5.928z" fill="#222"/>
    <path d="M11.854 106.57H5.927v5.928h5.927v-5.928zM17.781 106.57h-5.927v5.928h5.927v-5.928z" fill="#222"/>
    <path d="M23.677 106.57h-5.928v5.928h5.928v-5.928zM29.607 106.57H23.68v5.928h5.927v-5.928z" fill="#222"/>
    <path d="M35.534 106.57h-5.928v5.928h5.928v-5.928zM41.462 106.57h-5.928v5.928h5.928v-5.928zM65.142 106.57h-5.928v5.928h5.928v-5.928zM76.964 106.57h-5.928v5.928h5.928v-5.928z" fill="#222"/>
    <path d="M82.89 106.57h-5.927v5.928h5.928v-5.928z" fill="#222"/>
    <path d="M88.817 106.57H82.89v5.928h5.927v-5.928zM100.644 106.57h-5.928v5.928h5.928v-5.928zM112.497 106.57h-5.928v5.928h5.928v-5.928zM124.319 106.57h-5.927v5.928h5.927v-5.928zM130.251 106.57h-5.928v5.928h5.928v-5.928zM148 106.57h-5.928v5.928H148v-5.928zM5.928 112.5H0v5.928h5.928V112.5zM41.462 112.5h-5.928v5.928h5.928V112.5zM71.037 112.5H65.11v5.928h5.928V112.5zM82.89 112.5h-5.927v5.928h5.928V112.5zM94.748 112.5H88.82v5.928h5.928V112.5z" fill="#222"/>
    <path d="M100.644 112.5h-5.928v5.928h5.928V112.5zM124.319 112.5h-5.927v5.928h5.927V112.5zM5.928 118.395H0v5.927h5.928v-5.927zM17.781 118.395h-5.927v5.927h5.927v-5.927z" fill="#222"/>
    <path d="M23.677 118.395h-5.928v5.927h5.928v-5.927zM29.607 118.395H23.68v5.927h5.927v-5.927zM41.462 118.395h-5.928v5.927h5.928v-5.927zM53.283 118.395h-5.928v5.927h5.928v-5.927zM59.215 118.395h-5.928v5.927h5.928v-5.927z" fill="#222"/>
    <path d="M65.142 118.395h-5.928v5.927h5.928v-5.927z" fill="#222"/>
    <path d="M71.037 118.395H65.11v5.927h5.928v-5.927zM82.89 118.395h-5.927v5.927h5.928v-5.927zM94.748 118.395H88.82v5.927h5.928v-5.927z" fill="#222"/>
    <path d="M100.644 118.395h-5.928v5.927h5.928v-5.927z" fill="#222"/>
    <path d="M106.57 118.395h-5.927v5.927h5.927v-5.927z" fill="#222"/>
    <path d="M112.497 118.395h-5.928v5.927h5.928v-5.927z" fill="#222"/>
    <path d="M118.424 118.395h-5.928v5.927h5.928v-5.927z" fill="#222"/>
    <path d="M124.319 118.395h-5.927v5.927h5.927v-5.927zM130.251 118.395h-5.928v5.927h5.928v-5.927zM148 118.395h-5.928v5.927H148v-5.927zM5.928 124.32H0v5.928h5.928v-5.928zM17.781 124.32h-5.927v5.928h5.927v-5.928z" fill="#222"/>
    <path d="M23.677 124.32h-5.928v5.928h5.928v-5.928zM29.607 124.32H23.68v5.928h5.927v-5.928zM41.462 124.32h-5.928v5.928h5.928v-5.928zM53.283 124.32h-5.928v5.928h5.928v-5.928zM59.215 124.32h-5.928v5.928h5.928v-5.928z" fill="#222"/>
    <path d="M65.142 124.32h-5.928v5.928h5.928v-5.928zM76.964 124.32h-5.928v5.928h5.928v-5.928z" fill="#222"/>
    <path d="M82.89 124.32h-5.927v5.928h5.928v-5.928zM100.644 124.32h-5.928v5.928h5.928v-5.928z" fill="#222"/>
    <path d="M106.57 124.32h-5.927v5.928h5.927v-5.928z" fill="#222"/>
    <path d="M112.497 124.32h-5.928v5.928h5.928v-5.928z" fill="#222"/>
    <path d="M118.424 124.32h-5.928v5.928h5.928v-5.928zM130.251 124.32h-5.928v5.928h5.928v-5.928zM142.104 124.32h-5.927v5.928h5.927v-5.928z" fill="#222"/>
    <path d="M148 124.32h-5.928v5.928H148v-5.928zM5.928 130.25H0v5.928h5.928v-5.928zM17.781 130.25h-5.927v5.928h5.927v-5.928z" fill="#222"/>
    <path d="M23.677 130.25h-5.928v5.928h5.928v-5.928zM29.607 130.25H23.68v5.928h5.927v-5.928zM41.462 130.25h-5.928v5.928h5.928v-5.928zM71.037 130.25H65.11v5.928h5.928v-5.928zM82.89 130.25h-5.927v5.928h5.928v-5.928zM94.748 130.25H88.82v5.928h5.928v-5.928zM118.424 130.25h-5.928v5.928h5.928v-5.928z" fill="#222"/>
    <path d="M124.319 130.25h-5.927v5.928h5.927v-5.928zM136.178 130.25h-5.928v5.928h5.928v-5.928z" fill="#222"/>
    <path d="M142.104 130.25h-5.927v5.928h5.927v-5.928z" fill="#222"/>
    <path d="M148 130.25h-5.928v5.928H148v-5.928zM5.928 136.176H0v5.927h5.928v-5.927zM41.462 136.176h-5.928v5.927h5.928v-5.927zM53.283 136.176h-5.928v5.927h5.928v-5.927zM59.215 136.176h-5.928v5.927h5.928v-5.927z" fill="#222"/>
    <path d="M65.142 136.176h-5.928v5.927h5.928v-5.927z" fill="#222"/>
    <path d="M71.037 136.176H65.11v5.927h5.928v-5.927z" fill="#222"/>
    <path d="M76.964 136.176h-5.928v5.927h5.928v-5.927z" fill="#222"/>
    <path d="M82.89 136.176h-5.927v5.927h5.928v-5.927zM94.748 136.176H88.82v5.927h5.928v-5.927zM112.497 136.176h-5.928v5.927h5.928v-5.927z" fill="#222"/>
    <path d="M118.424 136.176h-5.928v5.927h5.928v-5.927z" fill="#222"/>
    <path d="M124.319 136.176h-5.927v5.927h5.927v-5.927zM136.178 136.176h-5.928v5.927h5.928v-5.927z" fill="#222"/>
    <path d="M142.104 136.176h-5.927v5.927h5.927v-5.927z" fill="#222"/>
    <path d="M148 136.176h-5.928v5.927H148v-5.927zM5.928 142.074H0v5.928h5.928v-5.928z" fill="#222"/>
    <path d="M11.854 142.074H5.927v5.928h5.927v-5.928zM17.781 142.074h-5.927v5.928h5.927v-5.928z" fill="#222"/>
    <path d="M23.677 142.074h-5.928v5.928h5.928v-5.928zM29.607 142.074H23.68v5.928h5.927v-5.928z" fill="#222"/>
    <path d="M35.534 142.074h-5.928v5.928h5.928v-5.928zM41.462 142.074h-5.928v5.928h5.928v-5.928zM53.283 142.074h-5.928v5.928h5.928v-5.928zM65.142 142.074h-5.928v5.928h5.928v-5.928z" fill="#222"/>
    <path d="M71.037 142.074H65.11v5.928h5.928v-5.928z" fill="#222"/>
    <path d="M76.964 142.074h-5.928v5.928h5.928v-5.928z" fill="#222"/>
    <path d="M82.89 142.074h-5.927v5.928h5.928v-5.928zM100.644 142.074h-5.928v5.928h5.928v-5.928zM112.497 142.074h-5.928v5.928h5.928v-5.928zM130.251 142.074h-5.928v5.928h5.928v-5.928zM148 142.074h-5.928v5.928H148v-5.928z" fill="#222"/>
</svg>
