<svg width="174" height="26" fill="none" xmlns="http://www.w3.org/2000/svg">
    <path d="M170.95 4.398l.696 1.025h.635l-.752-1.025a.668.668 0 00.541-.264.953.953 0 00.211-.61c0-.217-.057-.4-.176-.55-.174-.22-.462-.331-.87-.331h-.812V5.42h.521l.006-1.022zm-.006-1.26h.303c.196 0 .336.049.424.143.06.072.092.16.092.272 0 .109-.035.2-.097.272-.083.092-.22.137-.417.137h-.302v-.824h-.003z" fill="#403F3F"/>
    <path d="M171.261 6.53c.69 0 1.28-.243 1.768-.735.49-.49.735-1.085.735-1.781 0-.69-.245-1.28-.735-1.772a2.407 2.407 0 00-1.768-.736c-.698 0-1.288.243-1.778.733a2.425 2.425 0 00-.733 1.775c0 .696.245 1.288.735 1.78a2.416 2.416 0 001.776.737zm-1.442-3.953a1.974 1.974 0 011.442-.602c.559 0 1.038.2 1.437.602.399.398.598.879.598 1.44 0 .572-.199 1.056-.598 1.454a1.97 1.97 0 01-1.437.593c-.573 0-1.054-.2-1.448-.598a1.995 1.995 0 01-.593-1.45c0-.56.2-1.041.599-1.44z" fill="#403F3F"/>
    <g clip-path="url(#clip0)" fill="#403F3F">
        <path d="M24.544 20.066c-2.148 1.761-5.18 2.707-9.103 2.838v2.47h-3.088v-2.47c-3.915-.155-6.955-1.11-9.11-2.87C1.085 18.271 0 15.857 0 12.783c0-3.1 1.078-5.521 3.242-7.282 2.156-1.762 5.196-2.716 9.119-2.87V.25h3.088v2.373c3.899.155 6.922 1.117 9.087 2.887 2.156 1.77 3.242 4.191 3.242 7.265-.016 3.1-1.086 5.53-3.234 7.29zM5.593 18.109c1.58 1.28 3.834 2.014 6.76 2.185V5.265c-2.967.18-5.228.905-6.793 2.17-1.564 1.263-2.342 3.049-2.342 5.349 0 2.267.794 4.044 2.375 5.325zm16.64 0c1.565-1.28 2.343-3.067 2.343-5.366 0-2.25-.794-4.012-2.375-5.292-1.58-1.28-3.834-2.007-6.76-2.186v15.037c2.967-.18 5.236-.913 6.793-2.193zM35.17 23.54c-1.395-.784-2.489-1.852-3.275-3.222-.786-1.37-1.175-2.92-1.175-4.664 0-1.737.389-3.295 1.175-4.665a8.332 8.332 0 013.275-3.204c1.394-.767 2.966-1.15 4.717-1.15 1.75 0 3.315.383 4.701 1.15a8.343 8.343 0 013.259 3.204c.786 1.37 1.175 2.928 1.175 4.665s-.397 3.294-1.175 4.664a8.44 8.44 0 01-3.259 3.221c-1.386.783-2.95 1.166-4.7 1.166-1.752 0-3.324-.383-4.718-1.166zm7.757-2.423c.9-.521 1.596-1.255 2.107-2.201.51-.946.762-2.03.762-3.262 0-1.223-.251-2.308-.762-3.262-.51-.946-1.216-1.68-2.107-2.185-.9-.514-1.913-.767-3.04-.767s-2.14.253-3.04.767c-.9.513-1.604 1.239-2.123 2.185-.519.946-.778 2.03-.778 3.262 0 1.223.26 2.308.778 3.262a5.647 5.647 0 002.123 2.201c.9.522 1.913.783 3.04.783s2.14-.26 3.04-.783zM68.614 6.8V24.51h-3.186V9.604h-7.57l-.203 3.939c-.113 2.381-.324 4.37-.632 5.961-.308 1.59-.819 2.87-1.524 3.825-.705.954-1.694 1.435-2.958 1.435-.576 0-1.232-.098-1.962-.302l.203-2.707c.283.065.55.098.794.098.884 0 1.548-.392 1.994-1.167.446-.782.73-1.704.867-2.772.13-1.068.252-2.593.365-4.575l.3-6.548h13.512v.008zM86.665 8.437c1.297 1.207 1.945 2.993 1.945 5.382v10.69h-3.023v-2.34c-.535.824-1.289 1.452-2.278 1.884-.989.432-2.156.652-3.501.652-1.97 0-3.55-.48-4.734-1.435-1.183-.954-1.775-2.218-1.775-3.775 0-1.558.567-2.814 1.694-3.76 1.127-.946 2.926-1.419 5.382-1.419h5.05v-.636c0-1.378-.397-2.438-1.2-3.172-.802-.734-1.97-1.1-3.518-1.1a9.155 9.155 0 00-3.055.521c-.998.343-1.84.807-2.521 1.386L73.8 8.91c.908-.734 1.994-1.297 3.259-1.688a13.508 13.508 0 014.02-.587c2.424 0 4.296.595 5.585 1.802zm-3.17 12.982c.884-.546 1.524-1.321 1.93-2.324v-2.47h-4.912c-2.7 0-4.053.913-4.053 2.74 0 .888.34 1.59 1.03 2.103.688.514 1.637.767 2.853.767 1.215 0 2.27-.27 3.153-.816zM101.199 17.025h-3.656v7.486h-3.186V6.799h3.186v7.486h3.72l5.715-7.486h3.42l-6.679 8.521 7.141 9.19h-3.753l-5.908-7.485zM127.038 9.604h-6.444v14.899h-3.185V9.604h-6.444V6.799h16.073v2.805zM130.289 6.799h3.186v12.9l10.796-12.9h2.886V24.51h-3.185v-12.9l-10.765 12.9h-2.926V6.799h.008zM168.75 19.634c0 1.558-.583 2.765-1.742 3.613-1.159.848-2.894 1.272-5.196 1.272h-8.47V6.799h8.17c2.083 0 3.704.4 4.88 1.182 1.175.791 1.759 1.908 1.759 3.36 0 .938-.252 1.745-.746 2.422s-1.192 1.199-2.075 1.557c2.278.58 3.42 2.015 3.42 4.314zm-12.288-5.219h4.783c1.216 0 2.14-.22 2.772-.668.632-.449.948-1.093.948-1.941 0-1.696-1.24-2.536-3.72-2.536h-4.783v5.145zm8.106 6.989c.665-.424.997-1.077.997-1.974 0-.913-.308-1.59-.916-2.038-.608-.449-1.564-.669-2.869-.669h-5.318v5.317h5.115c1.329 0 2.326-.212 2.991-.636z"/>
    </g>
    <defs>
        <clipPath id="clip0">
            <path fill="#fff" transform="translate(0 .25)" d="M0 0h168.75v25.124H0z"/>
        </clipPath>
    </defs>
</svg>
