<svg width="279" height="41" fill="none" xmlns="http://www.w3.org/2000/svg">
    <path d="M273.521 7.334l1.112 1.64h1.017l-1.204-1.64c.351 0 .639-.142.867-.422a1.53 1.53 0 00.337-.976c0-.348-.091-.641-.282-.88-.279-.352-.739-.53-1.391-.53h-1.3v4.443h.834l.01-1.635zm-.01-2.016h.484c.314 0 .538.078.679.229a.65.65 0 01.146.435c0 .174-.054.32-.155.435-.132.147-.351.22-.666.22h-.483v-1.32h-.005z" fill="#DD4AB3"/>
    <path d="M274.018 10.747c1.104 0 2.048-.39 2.828-1.178.784-.783 1.176-1.736 1.176-2.849 0-1.104-.392-2.048-1.176-2.836-.78-.783-1.724-1.177-2.828-1.177-1.117 0-2.061.39-2.846 1.173A3.882 3.882 0 00270 6.72c0 1.113.392 2.062 1.177 2.85.784.787 1.733 1.177 2.841 1.177zM271.71 4.42c.639-.636 1.41-.962 2.308-.962.894 0 1.66.321 2.299.962a3.14 3.14 0 01.957 2.305c0 .916-.319 1.69-.957 2.327a3.152 3.152 0 01-2.299.948c-.917 0-1.687-.32-2.317-.957a3.19 3.19 0 01-.948-2.318c0-.898.319-1.668.957-2.305z" fill="#DD4AB3"/>
    <g clip-path="url(#clip0)" fill="#DD4AB3">
        <path d="M39.27 32.402c-3.437 2.819-8.287 4.332-14.564 4.54v3.954h-4.941v-3.953C13.5 36.695 8.637 35.169 5.188 32.35 1.738 29.532 0 25.67 0 20.751 0 15.793 1.725 11.918 5.188 9.1c3.45-2.818 8.313-4.345 14.59-4.593V.697h4.94v3.797c6.239.248 11.076 1.788 14.539 4.619 3.45 2.831 5.188 6.706 5.188 11.625-.026 4.958-1.738 8.846-5.175 11.664zm-30.321-3.13c2.528 2.048 6.134 3.222 10.816 3.496V8.72c-4.747.287-8.365 1.449-10.868 3.471-2.503 2.022-3.748 4.88-3.748 8.56 0 3.626 1.27 6.47 3.8 8.52zm26.625 0c2.503-2.05 3.748-4.907 3.748-8.586 0-3.601-1.271-6.42-3.8-8.468-2.53-2.048-6.134-3.21-10.816-3.497v24.06c4.746-.287 8.378-1.461 10.868-3.51zM56.272 37.961c-2.23-1.252-3.981-2.961-5.24-5.153-1.257-2.192-1.88-4.671-1.88-7.463 0-2.78.623-5.272 1.88-7.464 1.259-2.192 3.01-3.9 5.24-5.127 2.23-1.227 4.747-1.84 7.548-1.84s5.304.613 7.522 1.84a13.349 13.349 0 015.214 5.127c1.258 2.192 1.88 4.684 1.88 7.463 0 2.78-.635 5.272-1.88 7.464a13.503 13.503 0 01-5.214 5.153c-2.218 1.253-4.72 1.866-7.522 1.866-2.801 0-5.317-.613-7.548-1.866zm12.411-3.875c1.44-.835 2.555-2.01 3.372-3.523.817-1.513 1.22-3.248 1.22-5.218 0-1.958-.403-3.693-1.22-5.22-.817-1.513-1.945-2.687-3.372-3.496-1.439-.822-3.06-1.227-4.863-1.227-1.803 0-3.424.405-4.863 1.227-1.44.822-2.568 1.983-3.398 3.496-.83 1.514-1.245 3.25-1.245 5.22 0 1.957.415 3.692 1.245 5.218.83 1.514 1.971 2.688 3.398 3.523 1.44.835 3.06 1.253 4.863 1.253 1.803 0 3.424-.418 4.863-1.253zM109.782 11.175v28.34h-5.097V15.662H92.572l-.324 6.302c-.182 3.81-.52 6.994-1.012 9.538-.493 2.544-1.31 4.593-2.438 6.12-1.128 1.526-2.71 2.296-4.734 2.296-.92 0-1.971-.157-3.138-.483l.324-4.332c.454.105.882.157 1.271.157 1.414 0 2.477-.627 3.19-1.866.714-1.253 1.168-2.727 1.388-4.436.207-1.71.402-4.15.584-7.32l.48-10.477h21.619v.013zM138.664 13.797c2.075 1.932 3.113 4.789 3.113 8.612v17.105h-4.838v-3.745c-.856 1.318-2.062 2.323-3.644 3.014-1.582.692-3.45 1.044-5.603 1.044-3.151 0-5.68-.77-7.573-2.296-1.894-1.527-2.841-3.55-2.841-6.041 0-2.492.908-4.502 2.711-6.015 1.803-1.514 4.682-2.27 8.611-2.27h8.08v-1.018c0-2.205-.636-3.901-1.92-5.075-1.283-1.175-3.151-1.762-5.628-1.762-1.66 0-3.294.274-4.889.835-1.596.548-2.944 1.292-4.034 2.218l-2.127-3.849c1.453-1.174 3.191-2.074 5.214-2.7 2.023-.627 4.163-.94 6.432-.94 3.878 0 6.874.953 8.936 2.883zm-5.071 20.772c1.414-.874 2.438-2.114 3.087-3.719v-3.953h-7.859c-4.319 0-6.485 1.461-6.485 4.384 0 1.422.545 2.544 1.647 3.366 1.103.822 2.62 1.227 4.565 1.227 1.946 0 3.632-.43 5.045-1.305zM161.917 27.535h-5.849v11.978h-5.096v-28.34h5.096v11.978h5.953l9.143-11.977h5.473l-10.686 13.634 11.425 14.705h-6.004l-9.455-11.978zM203.262 15.662h-10.31V39.5h-5.097V15.662h-10.31v-4.488h25.717v4.488zM208.462 11.174h5.097v20.64l17.275-20.64h4.617v28.339h-5.097V18.872l-17.223 20.64h-4.682V11.175h.013zM270 31.71c0 2.492-.934 4.423-2.789 5.78-1.854 1.357-4.63 2.036-8.313 2.036h-13.552V11.174h13.072c3.333 0 5.927.64 7.808 1.892 1.88 1.265 2.814 3.053 2.814 5.375 0 1.5-.402 2.792-1.193 3.875-.791 1.083-1.907 1.918-3.32 2.492 3.644.927 5.473 3.223 5.473 6.902zm-19.661-8.35h7.651c1.946 0 3.424-.352 4.436-1.07 1.011-.717 1.517-1.748 1.517-3.105 0-2.714-1.984-4.058-5.953-4.058h-7.651v8.233zm12.969 11.182c1.063-.679 1.595-1.723 1.595-3.158 0-1.461-.493-2.544-1.466-3.262-.972-.717-2.503-1.07-4.591-1.07h-8.507v8.507h8.183c2.127 0 3.722-.339 4.786-1.017z"/>
    </g>
    <defs>
        <clipPath id="clip0">
            <path fill="#fff" transform="translate(0 .697)" d="M0 0h270v40.199H0z"/>
        </clipPath>
    </defs>
</svg>
