<svg width="247" height="45" fill="none" xmlns="http://www.w3.org/2000/svg">
    <g clip-path="url(#clip0)" fill="#DD4AB3">
        <path d="M39.424 35.531c-3.45 2.81-8.322 4.319-14.617 4.533v3.945h-4.962v-3.945c-6.295-.25-11.176-1.777-14.644-4.587C1.733 32.67 0 28.812 0 23.907c0-4.943 1.733-8.816 5.2-11.626 3.469-2.81 8.35-4.336 14.645-4.586V3.912h4.962v3.786c6.259.25 11.122 1.786 14.59 4.614 3.468 2.824 5.204 6.691 5.204 11.597 0 4.94-1.727 8.812-5.177 11.622zm-30.436-3.12c2.543 2.045 6.162 3.207 10.857 3.494V11.908c-4.767.286-8.401 1.44-10.911 3.466-2.507 2.027-3.76 4.87-3.76 8.532 0 3.626 1.271 6.463 3.814 8.505zm26.73 0c2.507-2.045 3.76-4.897 3.76-8.559 0-3.59-1.271-6.406-3.814-8.45-2.544-2.045-6.162-3.208-10.857-3.494v23.994c4.767-.284 8.4-1.446 10.91-3.49zM56.497 41.075c-2.242-1.243-3.993-2.96-5.255-5.146-1.263-2.187-1.892-4.665-1.892-7.44 0-2.773.63-5.251 1.892-7.438 1.262-2.186 3.013-3.894 5.255-5.12 2.239-1.225 4.767-1.84 7.575-1.84s5.324.615 7.548 1.84a13.388 13.388 0 015.228 5.12c1.262 2.187 1.892 4.665 1.892 7.439s-.633 5.252-1.892 7.439c-1.263 2.186-3.007 3.9-5.228 5.146-2.224 1.244-4.74 1.868-7.548 1.868s-5.336-.62-7.575-1.867zm12.456-3.863c1.44-.835 2.57-2.01 3.387-3.521.82-1.512 1.23-3.244 1.23-5.198 0-1.955-.41-3.686-1.23-5.198-.82-1.512-1.947-2.675-3.387-3.494-1.44-.819-3.067-1.225-4.881-1.225s-3.441.41-4.881 1.225c-1.44.82-2.58 1.982-3.414 3.494-.838 1.512-1.254 3.243-1.254 5.198 0 1.955.419 3.69 1.254 5.198.834 1.512 1.973 2.683 3.414 3.52 1.44.835 3.067 1.253 4.88 1.253 1.812 0 3.442-.418 4.882-1.252zM110.218 14.363v28.26h-5.119V18.842H92.935l-.32 6.291c-.177 3.804-.515 6.978-1.012 9.517-.497 2.542-1.317 4.578-2.456 6.104-1.139 1.53-2.72 2.292-4.748 2.292-.925 0-1.974-.16-3.149-.479l.32-4.318c.46.108.888.16 1.28.16 1.422 0 2.489-.624 3.2-1.868.711-1.244 1.175-2.72 1.389-4.427.214-1.708.407-4.141.588-7.306l.479-10.45h21.712v.006zM125.26 14.362h-5.122v28.261h5.122v-28.26zM159.989 34.838c0 2.488-.934 4.41-2.802 5.759-1.868 1.352-4.649 2.026-8.349 2.026h-13.605v-28.26h13.126c3.341 0 5.957.632 7.843 1.894 1.883 1.261 2.826 3.047 2.826 5.357 0 1.494-.401 2.783-1.199 3.867s-1.913 1.913-3.336 2.479c3.664.924 5.496 3.216 5.496 6.878zM140.25 26.52h7.681c1.955 0 3.441-.355 4.453-1.066 1.016-.71 1.522-1.74 1.522-3.093 0-2.701-1.992-4.053-5.975-4.053h-7.681v8.212zm13.02 11.143c1.067-.674 1.6-1.722 1.6-3.147 0-1.457-.491-2.542-1.467-3.252-.98-.711-2.519-1.067-4.616-1.067h-8.537v8.478h8.214c2.136.003 3.736-.334 4.806-1.012zM173.115 14.362h-5.123v28.261h5.123v-28.26zM204.159 18.84h-10.348v23.783h-5.122V18.841h-10.35v-4.479h25.82v4.479zM208.837 12.017l.735 1.078h.672l-.796-1.079a.71.71 0 00.573-.277 1 1 0 00.223-.641.886.886 0 00-.187-.578c-.184-.232-.488-.35-.919-.35h-.859v2.922h.552l.006-1.075zm-.006-1.326h.319c.208 0 .356.052.449.151a.428.428 0 01.096.286c0 .114-.036.21-.102.286-.087.097-.232.145-.44.145h-.319v-.868h-.003z"/>
        <path d="M209.164 14.26c.73 0 1.353-.256 1.869-.774a2.547 2.547 0 00.777-1.873c0-.726-.259-1.346-.777-1.864a2.55 2.55 0 00-1.869-.774c-.738 0-1.362.256-1.88.77a2.547 2.547 0 00-.774 1.868c0 .732.259 1.355.777 1.873a2.557 2.557 0 001.877.774zm-1.524-4.159a2.092 2.092 0 011.524-.632c.591 0 1.097.21 1.519.632.422.419.633.924.633 1.515 0 .602-.211 1.111-.633 1.53a2.087 2.087 0 01-1.519.623c-.605 0-1.115-.21-1.53-.63a2.09 2.09 0 01-.627-1.523c0-.59.211-1.096.633-1.515zM246.999 38.203v4.071h-25.687v-3.267l15.011-16.727c1.881-2.093 3.173-3.945 3.836-5.502.675-1.584 1.016-3.193 1.016-4.8 0-2.452-.751-4.392-2.254-5.759-1.459-1.34-3.559-2.018-6.234-2.018-4.047 0-7.274 1.482-9.582 4.406l-2.796-2.783c1.349-1.75 3.082-3.14 5.173-4.15C227.754.564 230.342 0 233.172 0c3.757 0 6.776 1.033 8.964 3.09 2.199 2.042 3.26 4.75 3.26 8.273 0 2.183-.41 4.288-1.226 6.243-.817 1.967-2.411 4.264-4.731 6.83L227.058 38.2h19.941v.002z"/>
    </g>
    <defs>
        <clipPath id="clip0">
            <path fill="#fff" d="M0 0h247v44.009H0z"/>
        </clipPath>
    </defs>
</svg>
