<svg width="134" height="26" fill="none" xmlns="http://www.w3.org/2000/svg">
    <path d="M24.261 19.866c-2.123 1.73-5.121 2.658-8.995 2.79v2.427h-3.054v-2.428c-3.873-.154-6.877-1.093-9.012-2.822C1.066 18.106 0 15.73 0 12.713 0 9.67 1.066 7.287 3.2 5.558c2.135-1.73 5.139-2.67 9.012-2.823V.408h3.054v2.33c3.851.154 6.844 1.099 8.978 2.84 2.134 1.737 3.203 4.117 3.203 7.136 0 3.04-1.063 5.423-3.186 7.152zm-18.73-1.92c1.565 1.258 3.792 1.974 6.681 2.15V5.329c-2.933.176-5.17.886-6.714 2.133-1.543 1.247-2.314 2.997-2.314 5.25 0 2.232.782 3.977 2.347 5.234zm16.45 0c1.542-1.258 2.313-3.013 2.313-5.267 0-2.21-.782-3.942-2.347-5.2-1.565-1.259-3.792-1.974-6.681-2.15v14.765c2.933-.174 5.17-.89 6.714-2.148zM34.767 23.277a8.325 8.325 0 01-3.233-3.167c-.777-1.345-1.165-2.87-1.165-4.577 0-1.707.388-3.233 1.165-4.578a8.209 8.209 0 013.233-3.15c1.378-.755 2.934-1.133 4.662-1.133 1.728 0 3.276.378 4.645 1.132a8.239 8.239 0 013.217 3.15c.777 1.346 1.165 2.872 1.165 4.579 0 1.706-.39 3.232-1.165 4.577a8.382 8.382 0 01-3.217 3.168c-1.369.765-2.917 1.149-4.645 1.149-1.728 0-3.284-.382-4.662-1.15zm7.666-2.377a5.43 5.43 0 002.084-2.167c.504-.93.757-1.996.757-3.199 0-1.202-.253-2.268-.757-3.198a5.34 5.34 0 00-2.084-2.15c-.886-.504-1.888-.755-3.004-.755s-2.118.253-3.004.755a5.44 5.44 0 00-2.1 2.15c-.516.93-.772 1.996-.772 3.198 0 1.203.258 2.27.771 3.2a5.558 5.558 0 002.101 2.166c.886.513 1.888.77 3.004.77 1.114 0 2.117-.257 3.004-.77zM67.827 6.838v17.391h-3.15V9.594H57.19l-.197 3.871c-.11 2.34-.317 4.294-.623 5.857-.306 1.564-.81 2.817-1.511 3.756-.7.942-1.674 1.41-2.922 1.41-.57 0-1.215-.098-1.938-.294l.197-2.658c.283.067.547.098.788.098.875 0 1.531-.383 1.969-1.149.437-.765.723-1.673.855-2.724.131-1.05.25-2.548.361-4.496l.295-6.431h13.362v.004zM77.083 6.838H73.93v17.391h3.152V6.838zM98.455 19.439c0 1.53-.575 2.713-1.724 3.543-1.15.832-2.861 1.247-5.138 1.247H83.22V6.838h8.077c2.056 0 3.666.39 4.826 1.166 1.16.776 1.74 1.875 1.74 3.297 0 .919-.247 1.712-.738 2.38-.492.667-1.178 1.176-2.053 1.525 2.255.569 3.382 1.979 3.382 4.233zm-12.147-5.12h4.726c1.204 0 2.118-.218 2.741-.655.625-.438.936-1.072.936-1.904 0-1.662-1.225-2.494-3.677-2.494h-4.726v5.054zm8.012 6.858c.657-.415.985-1.06.985-1.937 0-.897-.302-1.564-.903-2.001-.603-.438-1.55-.656-2.84-.656h-5.254V21.8h5.055c1.314.002 2.299-.206 2.957-.623zM106.532 6.838h-3.152v17.391h3.152V6.838zM125.636 9.594h-6.367v14.635h-3.153V9.594h-6.369V6.838h15.889v2.756zM130.276 6.4l.693 1.02h.634l-.75-1.02a.668.668 0 00.54-.261.95.95 0 00.21-.607.844.844 0 00-.176-.547c-.173-.22-.46-.33-.867-.33h-.81v2.763h.52l.006-1.017zm-.006-1.253h.301c.197 0 .336.049.424.143.06.07.091.16.091.27 0 .109-.034.2-.097.27-.082.092-.219.138-.415.138h-.301v-.82h-.003z" fill="#403F3F"/>
    <path d="M130.586 8.523c.688 0 1.277-.242 1.763-.732.489-.487.733-1.08.733-1.772 0-.686-.244-1.273-.733-1.763a2.402 2.402 0 00-1.763-.733c-.696 0-1.285.243-1.773.73a2.409 2.409 0 00-.731 1.766c0 .692.244 1.282.733 1.772a2.41 2.41 0 001.771.732zm-1.438-3.934a1.97 1.97 0 011.438-.598c.557 0 1.035.2 1.433.598.398.396.597.875.597 1.433 0 .57-.199 1.051-.597 1.447-.398.393-.876.59-1.433.59-.571 0-1.051-.2-1.444-.595a1.982 1.982 0 01-.591-1.442c0-.558.199-1.037.597-1.433z" fill="#403F3F"/>
</svg>
