<svg width="278" height="30" fill="none" xmlns="http://www.w3.org/2000/svg">
    <g clip-path="url(#clip0)">
        <path d="M214.679 22.471v1.437h-2.316V22.47c-4.564-.231-7.158-2.34-7.158-5.907 0-3.58 2.594-5.687 7.158-5.919V9.278h2.316v1.379c4.564.231 7.147 2.363 7.147 5.919 0 3.556-2.583 5.71-7.147 5.895zm-2.316-1.969V12.65c-3.116.232-4.703 1.529-4.703 3.927 0 2.374 1.703 3.671 4.703 3.926zm7.042-3.95c0-2.386-1.668-3.694-4.726-3.915v7.854c3.093-.22 4.726-1.552 4.726-3.939z" fill="#222"/>
        <path d="M224.606 16.576c0-4.008 3.093-6.962 7.297-6.962 4.205 0 7.298 2.942 7.298 6.962 0 4.03-3.093 6.973-7.298 6.973-4.204 0-7.297-2.966-7.297-6.973zm12.058 0c0-2.769-2.027-4.761-4.761-4.761-2.733 0-4.76 1.992-4.76 4.76 0 2.769 2.027 4.761 4.76 4.761 2.734 0 4.761-1.992 4.761-4.76z" fill="#403F3F"/>
        <path d="M253.332 14.64c0 2.978-2.212 4.82-5.768 4.82h-3.058v3.914h-2.514V9.822h5.572c3.567 0 5.768 1.819 5.768 4.819zm-2.537 0c0-1.702-1.146-2.687-3.347-2.687h-2.942v5.387h2.942c2.212-.012 3.347-.997 3.347-2.7zM265.158 11.954h-4.494v11.42h-2.502v-11.42h-4.471V9.822h11.456v2.132h.011zM277.494 21.255v2.108h-10.158V9.823h9.892v2.107h-7.379v3.522h6.545v2.073h-6.545v3.73h7.645z" fill="#222"/>
        <path d="M23.93 19.414c-2.096 1.702-5.05 2.617-8.872 2.756v2.398h-3.012V22.17c-3.822-.15-6.787-1.077-8.884-2.78C1.066 17.688 0 15.336 0 12.36c0-3 1.054-5.352 3.162-7.054C5.26 3.59 8.224 2.665 12.046 2.514V.209h3.012v2.293c3.8.151 6.753 1.09 8.86 2.804 2.109 1.714 3.163 4.065 3.163 7.042-.011 3.012-1.066 5.363-3.15 7.066zM5.456 17.526c1.54 1.239 3.74 1.945 6.59 2.12V5.073c-2.895.174-5.096.869-6.625 2.096-1.518 1.228-2.282 2.954-2.282 5.178 0 2.212.776 3.927 2.317 5.178zm16.216 0c1.517-1.24 2.282-2.977 2.282-5.201 0-2.178-.776-3.892-2.317-5.131-1.54-1.24-3.73-1.946-6.58-2.12v14.571c2.897-.174 5.097-.88 6.615-2.12zM46.98 16.182H33.059c.197 1.506.857 2.722 1.992 3.649 1.135.915 2.537 1.378 4.228 1.378 2.05 0 3.707-.695 4.958-2.073l1.714 2.004a7.511 7.511 0 01-2.896 2.073c-1.158.475-2.444.707-3.869.707-1.806 0-3.417-.37-4.818-1.112-1.402-.741-2.49-1.784-3.255-3.128-.764-1.343-1.147-2.849-1.147-4.529 0-1.656.371-3.162 1.112-4.505a7.999 7.999 0 013.081-3.128c1.31-.741 2.78-1.112 4.425-1.112s3.104.37 4.39 1.112a7.756 7.756 0 013.012 3.128c.718 1.343 1.088 2.872 1.088 4.598-.023.232-.046.545-.092.938zM34.82 10.38c-1.008.904-1.587 2.097-1.761 3.556h11.004c-.174-1.448-.765-2.63-1.76-3.544-1.008-.915-2.248-1.379-3.742-1.379-1.483.012-2.734.464-3.741 1.367zM65.432 7.495a7.834 7.834 0 013.093 3.081c.741 1.32 1.112 2.838 1.112 4.564s-.37 3.255-1.112 4.587a7.79 7.79 0 01-3.093 3.092c-1.32.73-2.803 1.1-4.47 1.1-1.229 0-2.364-.231-3.383-.706a6.981 6.981 0 01-2.606-2.073v8.872h-3.104V6.557h2.977v2.722a6.65 6.65 0 012.617-2.155c1.054-.486 2.224-.73 3.498-.73 1.668 0 3.163.371 4.471 1.1zm-1.76 12.938a5.557 5.557 0 002.073-2.131c.51-.915.765-1.97.765-3.162 0-1.182-.255-2.236-.765-3.163-.51-.915-1.193-1.621-2.073-2.12-.869-.497-1.865-.74-2.965-.74-1.078 0-2.062.254-2.931.764a5.608 5.608 0 00-2.073 2.12c-.51.903-.765 1.957-.765 3.139 0 1.193.243 2.235.741 3.162.498.915 1.182 1.633 2.074 2.131.88.51 1.865.765 2.942.765 1.112 0 2.096-.255 2.977-.765zM87.707 7.495a7.834 7.834 0 013.092 3.081c.742 1.32 1.112 2.838 1.112 4.564s-.37 3.255-1.112 4.587a7.79 7.79 0 01-3.092 3.092c-1.32.73-2.803 1.1-4.471 1.1-1.228 0-2.363-.231-3.383-.706a6.981 6.981 0 01-2.606-2.073v8.872h-3.104V6.557h2.977v2.722a6.649 6.649 0 012.618-2.155c1.054-.486 2.224-.73 3.498-.73 1.668 0 3.162.371 4.47 1.1zm-1.76 12.938a5.557 5.557 0 002.072-2.131c.51-.915.765-1.97.765-3.162 0-1.182-.255-2.236-.765-3.163-.51-.915-1.193-1.621-2.073-2.12-.869-.497-1.865-.74-2.965-.74-1.077 0-2.062.254-2.93.764a5.608 5.608 0 00-2.074 2.12c-.51.903-.764 1.957-.764 3.139 0 1.193.243 2.235.74 3.162.499.915 1.182 1.633 2.074 2.131.88.51 1.865.765 2.942.765 1.112 0 2.108-.255 2.977-.765zM99.174 22.785a8.185 8.185 0 01-3.186-3.128c-.764-1.332-1.146-2.838-1.146-4.517 0-1.68.382-3.186 1.147-4.518a8.05 8.05 0 013.185-3.104c1.355-.741 2.896-1.112 4.598-1.112 1.703 0 3.232.37 4.587 1.112a8.177 8.177 0 013.174 3.105c.764 1.332 1.147 2.837 1.147 4.517 0 1.68-.383 3.185-1.147 4.517a8.235 8.235 0 01-3.174 3.128c-1.355.753-2.872 1.135-4.587 1.135-1.714 0-3.243-.383-4.598-1.135zm7.564-2.352a5.451 5.451 0 002.061-2.131c.498-.915.742-1.97.742-3.162 0-1.182-.244-2.236-.742-3.162-.498-.915-1.181-1.622-2.061-2.12-.869-.498-1.865-.741-2.966-.741-1.1 0-2.085.243-2.965.741a5.447 5.447 0 00-2.073 2.12c-.51.915-.765 1.969-.765 3.162 0 1.193.255 2.235.765 3.162.51.915 1.193 1.633 2.073 2.131.869.51 1.865.765 2.965.765 1.101 0 2.085-.255 2.966-.765zM130.865 6.557V23.71h-3.104v-6.915c-1.853.869-3.707 1.297-5.537 1.297-2.143 0-3.788-.498-4.957-1.494-1.17-.996-1.749-2.479-1.749-4.47V6.556h3.104v5.374c0 1.182.37 2.085 1.112 2.687.741.603 1.784.904 3.127.904 1.506 0 3.139-.382 4.888-1.135v-7.83h3.116zM152.34 16.182h-13.923c.197 1.506.857 2.722 1.992 3.649 1.135.915 2.537 1.378 4.228 1.378 2.05 0 3.707-.695 4.957-2.073l1.715 2.004a7.513 7.513 0 01-2.896 2.073c-1.158.475-2.444.707-3.869.707-1.807 0-3.417-.37-4.818-1.112-1.402-.741-2.491-1.784-3.255-3.128-.765-1.343-1.147-2.849-1.147-4.529 0-1.656.371-3.162 1.112-4.505a8.003 8.003 0 013.081-3.128c1.309-.741 2.78-1.112 4.425-1.112s3.104.37 4.39 1.112a7.76 7.76 0 013.012 3.128c.718 1.343 1.088 2.872 1.088 4.598-.034.232-.058.545-.092.938zm-12.163-5.803c-1.007.904-1.586 2.097-1.76 3.556h11.004c-.174-1.448-.765-2.63-1.761-3.544-1.008-.915-2.247-1.379-3.741-1.379-1.494.012-2.734.464-3.742 1.367zM171.672 6.557V23.71h-3.104V9.28h-7.379l-.197 3.822c-.104 2.305-.312 4.24-.614 5.78-.301 1.54-.799 2.78-1.494 3.706-.695.927-1.656 1.39-2.884 1.39-.556 0-1.193-.092-1.911-.29l.197-2.617c.278.07.544.093.776.093.869 0 1.506-.382 1.946-1.135.428-.753.706-1.657.845-2.688.139-1.03.244-2.513.359-4.436l.29-6.347h13.17zM190.61 13.877c1.147.973 1.715 2.34 1.715 4.112 0 1.853-.626 3.29-1.865 4.286-1.24 1.008-3.012 1.494-5.329 1.47l-7.447-.034V6.557h3.104v5.791l4.83.035c2.178.023 3.846.521 4.992 1.494zm-2.548 6.672c.718-.58 1.089-1.448 1.089-2.595 0-1.123-.348-1.946-1.054-2.455-.707-.522-1.772-.788-3.22-.811l-4.078-.07v6.73l4.078.035c1.401.023 2.467-.255 3.185-.834zM193.61 3.776l.915 1.343h.834l-.984-1.343c.289 0 .521-.116.718-.348.185-.231.278-.498.278-.799 0-.29-.081-.521-.232-.718-.232-.29-.602-.429-1.147-.429h-1.065V5.12h.683V3.776zm-.011-1.645h.393c.255 0 .441.07.556.185a.516.516 0 01.116.36.566.566 0 01-.127.359c-.104.115-.29.185-.545.185h-.393V2.13z" fill="#403F3F"/>
        <path d="M194.016 6.568c.903 0 1.679-.325 2.316-.962.649-.637.962-1.425.962-2.328 0-.903-.325-1.668-.962-2.317A3.166 3.166 0 00194.016 0c-.915 0-1.691.324-2.329.961a3.166 3.166 0 00-.961 2.317c0 .903.324 1.691.961 2.328a3.177 3.177 0 002.329.962zm-1.888-5.166a2.59 2.59 0 011.888-.788c.729 0 1.366.266 1.888.788.521.52.787 1.146.787 1.876a2.58 2.58 0 01-.787 1.9 2.563 2.563 0 01-1.888.776c-.753 0-1.39-.255-1.9-.776a2.58 2.58 0 01-.776-1.888c0-.742.255-1.367.788-1.888z" fill="#403F3F"/>
    </g>
    <defs>
        <clipPath id="clip0">
            <path fill="#fff" d="M0 0h277.494v30H0z"/>
        </clipPath>
    </defs>
</svg>
