<svg width="454" height="49" fill="none" xmlns="http://www.w3.org/2000/svg">
    <g clip-path="url(#clip0)">
        <path d="M350.643 36.703v2.346h-3.784v-2.346c-7.454-.378-11.692-3.822-11.692-9.649 0-5.846 4.238-9.289 11.692-9.667v-2.233h3.784v2.252c7.454.378 11.673 3.86 11.673 9.667 0 5.808-4.219 9.327-11.673 9.63zm-3.784-3.216V20.66c-5.089.378-7.681 2.497-7.681 6.413 0 3.879 2.781 5.998 7.681 6.414zm11.503-6.452c0-3.897-2.724-6.035-7.719-6.394v12.827c5.052-.36 7.719-2.535 7.719-6.433z" fill="#222"/>
        <path d="M366.857 27.073c0-6.546 5.051-11.37 11.919-11.37 6.867 0 11.919 4.806 11.919 11.37 0 6.584-5.052 11.39-11.919 11.39-6.868 0-11.919-4.844-11.919-11.39zm19.695 0c0-4.521-3.311-7.775-7.776-7.775S371 22.552 371 27.073c0 4.522 3.311 7.776 7.776 7.776s7.776-3.254 7.776-7.776z" fill="#E30E13"/>
        <path d="M413.776 23.913c0 4.862-3.614 7.87-9.422 7.87h-4.995v6.395h-4.105V16.043h9.1c5.827 0 9.422 2.97 9.422 7.87zm-4.144 0c0-2.78-1.873-4.389-5.467-4.389h-4.806v8.797h4.806c3.613-.019 5.467-1.627 5.467-4.408zM433.092 19.524h-7.341v18.654h-4.086V19.524h-7.303v-3.481h18.711v3.481h.019zM453.24 34.716v3.443h-16.592V16.043h16.157v3.443h-12.051v5.752h10.689v3.386h-10.689v6.092h12.486z" fill="#222"/>
        <path d="M39.087 31.708c-3.425 2.782-8.25 4.276-14.492 4.503v3.916h-4.92v-3.916c-6.243-.246-11.086-1.76-14.51-4.54C1.74 28.89 0 25.049 0 20.187c0-4.9 1.722-8.74 5.165-11.522 3.424-2.8 8.267-4.313 14.51-4.56V.342h4.92v3.746c6.205.246 11.03 1.778 14.473 4.578 3.443 2.8 5.164 6.64 5.164 11.503-.018 4.919-1.74 8.76-5.145 11.54zM8.91 28.625c2.516 2.024 6.11 3.178 10.765 3.462v-23.8c-4.73.284-8.325 1.419-10.822 3.424-2.478 2.005-3.727 4.824-3.727 8.457 0 3.613 1.268 6.413 3.784 8.457zm26.486 0c2.479-2.025 3.727-4.863 3.727-8.495 0-3.557-1.267-6.357-3.784-8.381-2.516-2.024-6.091-3.178-10.745-3.462v23.8c4.73-.284 8.324-1.438 10.802-3.462zM76.735 26.43h-22.74c.321 2.46 1.4 4.446 3.254 5.96 1.854 1.495 4.143 2.251 6.905 2.251 3.349 0 6.054-1.135 8.097-3.386l2.8 3.273c-1.267 1.475-2.837 2.61-4.73 3.386-1.891.776-3.991 1.154-6.318 1.154-2.952 0-5.581-.605-7.87-1.816-2.29-1.21-4.068-2.913-5.317-5.108-1.248-2.195-1.873-4.654-1.873-7.397 0-2.706.606-5.165 1.817-7.36 1.21-2.194 2.894-3.878 5.032-5.108 2.138-1.21 4.54-1.816 7.227-1.816 2.687 0 5.07.605 7.17 1.816 2.1 1.21 3.746 2.914 4.92 5.108 1.172 2.195 1.778 4.692 1.778 7.511-.038.378-.076.89-.152 1.532zM56.87 16.953c-1.646 1.476-2.591 3.424-2.875 5.808h17.973c-.284-2.365-1.249-4.294-2.876-5.789-1.646-1.495-3.67-2.251-6.11-2.251-2.422.019-4.466.756-6.112 2.232zM106.873 12.24c2.157 1.192 3.84 2.876 5.051 5.033 1.211 2.157 1.816 4.635 1.816 7.454 0 2.82-.605 5.316-1.816 7.492s-2.894 3.86-5.051 5.051c-2.157 1.192-4.579 1.798-7.303 1.798-2.005 0-3.86-.379-5.524-1.154a11.402 11.402 0 01-4.257-3.387V49.02h-5.07v-38.31h4.862v4.445c1.135-1.551 2.554-2.724 4.276-3.519 1.721-.794 3.632-1.192 5.713-1.192 2.724 0 5.165.606 7.303 1.798zm-2.876 21.133a9.082 9.082 0 003.387-3.481c.832-1.495 1.248-3.216 1.248-5.165 0-1.93-.416-3.651-1.248-5.165-.833-1.494-1.949-2.648-3.387-3.462-1.419-.813-3.046-1.21-4.843-1.21-1.76 0-3.368.415-4.787 1.248a9.158 9.158 0 00-3.386 3.462c-.832 1.476-1.249 3.197-1.249 5.127 0 1.949.398 3.651 1.211 5.165.814 1.495 1.93 2.668 3.387 3.481 1.437.833 3.046 1.249 4.805 1.249 1.816 0 3.424-.416 4.862-1.249zM143.254 12.24c2.157 1.192 3.841 2.876 5.052 5.033 1.21 2.157 1.816 4.635 1.816 7.454 0 2.82-.606 5.316-1.816 7.492-1.211 2.176-2.895 3.86-5.052 5.051-2.157 1.192-4.578 1.798-7.303 1.798-2.005 0-3.859-.379-5.524-1.154a11.4 11.4 0 01-4.257-3.387V49.02h-5.07v-38.31h4.862v4.445c1.135-1.551 2.554-2.724 4.276-3.519 1.722-.794 3.632-1.192 5.713-1.192 2.725 0 5.165.606 7.303 1.798zm-2.876 21.133a9.075 9.075 0 003.387-3.481c.832-1.495 1.249-3.216 1.249-5.165 0-1.93-.417-3.651-1.249-5.165-.832-1.494-1.949-2.648-3.387-3.462-1.418-.813-3.045-1.21-4.843-1.21-1.759 0-3.367.415-4.786 1.248a9.163 9.163 0 00-3.387 3.462c-.832 1.476-1.248 3.197-1.248 5.127 0 1.949.397 3.651 1.21 5.165.814 1.495 1.93 2.668 3.387 3.481 1.438.833 3.046 1.249 4.805 1.249 1.817 0 3.444-.416 4.862-1.249zM161.984 37.214c-2.214-1.23-3.954-2.932-5.203-5.108-1.248-2.176-1.873-4.635-1.873-7.378 0-2.744.625-5.203 1.873-7.379 1.249-2.175 2.989-3.86 5.203-5.07 2.213-1.21 4.73-1.816 7.511-1.816 2.781 0 5.278.605 7.492 1.816a13.35 13.35 0 015.183 5.07c1.249 2.176 1.873 4.636 1.873 7.379 0 2.743-.624 5.202-1.873 7.378-1.248 2.176-2.989 3.878-5.183 5.108-2.214 1.23-4.692 1.854-7.492 1.854s-5.298-.624-7.511-1.854zm12.354-3.84a8.903 8.903 0 003.368-3.481c.813-1.495 1.21-3.217 1.21-5.165 0-1.93-.397-3.652-1.21-5.165-.814-1.495-1.93-2.649-3.368-3.462-1.419-.814-3.046-1.211-4.843-1.211-1.798 0-3.406.397-4.844 1.21-1.418.814-2.554 1.968-3.386 3.463-.832 1.495-1.249 3.216-1.249 5.165 0 1.948.417 3.651 1.249 5.165.832 1.494 1.949 2.667 3.386 3.48 1.419.833 3.046 1.25 4.844 1.25 1.797 0 3.405-.417 4.843-1.25zM213.746 10.708v28.019h-5.07V27.432c-3.028 1.42-6.055 2.12-9.044 2.12-3.5 0-6.186-.814-8.097-2.441-1.911-1.627-2.857-4.049-2.857-7.303v-9.1h5.07v8.778c0 1.93.606 3.406 1.817 4.39 1.211.983 2.913 1.475 5.108 1.475 2.459 0 5.127-.624 7.984-1.854V10.708h5.089zM248.822 26.43h-22.741c.322 2.46 1.4 4.446 3.254 5.96 1.854 1.495 4.143 2.251 6.906 2.251 3.348 0 6.054-1.135 8.097-3.386l2.8 3.273c-1.268 1.475-2.838 2.61-4.73 3.386-1.892.776-3.992 1.154-6.319 1.154-2.951 0-5.581-.605-7.87-1.816-2.289-1.21-4.068-2.913-5.316-5.108-1.249-2.195-1.873-4.654-1.873-7.397 0-2.706.605-5.165 1.816-7.36 1.211-2.194 2.895-3.878 5.032-5.108 2.138-1.21 4.541-1.816 7.227-1.816 2.687 0 5.071.605 7.171 1.816 2.1 1.21 3.746 2.914 4.919 5.108 1.173 2.195 1.778 4.692 1.778 7.511-.057.378-.095.89-.151 1.532zm-19.865-9.478c-1.646 1.476-2.592 3.424-2.876 5.808h17.973c-.284-2.365-1.249-4.294-2.876-5.789-1.646-1.495-3.67-2.251-6.11-2.251-2.441.019-4.465.756-6.111 2.232zM280.397 10.708v28.019h-5.07V15.154h-12.051l-.322 6.243c-.17 3.765-.511 6.925-1.003 9.44-.492 2.517-1.305 4.541-2.44 6.055-1.135 1.513-2.706 2.27-4.711 2.27-.908 0-1.949-.151-3.122-.473l.322-4.276a5.24 5.24 0 001.267.152c1.419 0 2.46-.625 3.179-1.854.7-1.23 1.154-2.706 1.381-4.39.227-1.683.397-4.105.586-7.245l.473-10.368h21.511zM311.33 22.665c1.873 1.589 2.8 3.821 2.8 6.716 0 3.027-1.022 5.373-3.046 7-2.024 1.646-4.919 2.44-8.703 2.403l-12.165-.057V10.708h5.071v9.46l7.889.056c3.557.038 6.281.852 8.154 2.44zm-4.162 10.897c1.173-.946 1.778-2.365 1.778-4.238 0-1.835-.568-3.178-1.722-4.01-1.154-.852-2.894-1.287-5.259-1.325l-6.659-.113v10.991l6.659.057c2.289.038 4.03-.416 5.203-1.362zM316.23 6.168l1.495 2.194h1.362l-1.608-2.194c.473 0 .851-.19 1.173-.568.302-.378.454-.813.454-1.305 0-.473-.133-.852-.379-1.173-.378-.473-.984-.7-1.873-.7h-1.74v5.94h1.116V6.168zm-.019-2.687h.643c.417 0 .719.114.908.303.133.151.19.34.19.587a.922.922 0 01-.209.586c-.17.19-.472.303-.889.303h-.643V3.48z" fill="#E30E13"/>
        <path d="M316.892 10.727c1.476 0 2.743-.53 3.784-1.57 1.059-1.04 1.57-2.327 1.57-3.803s-.53-2.724-1.57-3.784C319.635.53 318.368 0 316.892 0c-1.495 0-2.762.53-3.803 1.57-1.04 1.04-1.57 2.308-1.57 3.784s.53 2.762 1.57 3.803c1.041 1.04 2.308 1.57 3.803 1.57zm-3.084-8.438c.852-.851 1.892-1.286 3.084-1.286 1.192 0 2.232.435 3.084 1.286.851.852 1.286 1.873 1.286 3.065 0 1.23-.435 2.251-1.286 3.103-.852.851-1.873 1.267-3.084 1.267-1.23 0-2.27-.416-3.103-1.267-.851-.852-1.267-1.892-1.267-3.084 0-1.21.416-2.232 1.286-3.084z" fill="#E30E13"/>
    </g>
    <defs>
        <clipPath id="clip0">
            <path fill="#fff" d="M0 0h453.241v49H0z"/>
        </clipPath>
    </defs>
</svg>
