<svg width="102" height="53" fill="none" xmlns="http://www.w3.org/2000/svg">
    <g clip-path="url(#clip0)">
        <g clip-path="url(#clip1)" fill="#F5F5F5">
            <path d="M36.3 65.789c0 5.205-4.19 9.416-9.368 9.416h-.013c-5.166-.014-9.355-4.224-9.355-9.416 0-.327.055-1.418.055-1.636v-17.17c.406 0 2.602.041 4.365 1.826a6.208 6.208 0 011.816 4.388v12.578c0 1.73 1.397 3.148 3.132 3.148a3.141 3.141 0 003.132-3.148l.067-6.282c0-.831.163-1.635.461-2.371.922-2.235 3.105-3.816 5.653-3.843l.041 11.774c0 .231.014.49.014.736zM47.362 45.865c0 3.475-2.793 6.282-6.25 6.282h-3.715c0-3.475 2.793-6.282 6.25-6.282h3.715zM30.05 42.145c3.457 0 6.25 2.808 6.25 6.282v3.734c-3.457 0-6.25-2.807-6.25-6.282v-3.733zM87.15 39.243c0 5.205-4.19 9.416-9.368 9.416h-.014c-5.165-.014-9.354-4.224-9.354-9.416 0-.327.054-1.418.054-1.636v-17.17c.407 0 2.603.041 4.365 1.826a6.208 6.208 0 011.817 4.388V39.23c0 1.73 1.396 3.148 3.132 3.148a3.141 3.141 0 003.131-3.148l.068-6.282c0-.831.163-1.635.46-2.371.923-2.235 3.105-3.816 5.654-3.843l.04 11.774c0 .232 0 .49.014.736zM94.497 36.722c-3.457 0-6.25-2.807-6.25-6.282v-3.734c3.457 0 6.25 2.807 6.25 6.282v3.734zM98.212 19.32c0 3.474-2.793 6.281-6.25 6.281h-3.715c0-3.474 2.793-6.282 6.25-6.282h3.715zM80.9 15.6c3.456 0 6.25 2.807 6.25 6.282v3.733c-3.458 0-6.25-2.807-6.25-6.282V15.6zM36.3 12.698c0 5.205-4.19 9.416-9.368 9.416h-.013c-5.166-.014-9.355-4.224-9.355-9.416 0-.327.055-1.417.055-1.636v-17.17c.406 0 2.602.041 4.365 1.827A6.208 6.208 0 0123.8.106v12.578c0 1.73 1.397 3.148 3.132 3.148a3.141 3.141 0 003.132-3.148l.067-6.282c0-.831.163-1.635.461-2.371.922-2.235 3.105-3.816 5.653-3.843l.041 11.774c0 .245.014.49.014.736zM43.66 10.177c-3.456 0-6.249-2.807-6.249-6.282V.16c3.457 0 6.25 2.807 6.25 6.282v3.734zM42.888 32.92c0 .327-.081.613-.258.885-.176.273-.447.477-.8.64-.352.15-.8.233-1.314.233-.461 0-.909-.069-1.343-.218a2.943 2.943 0 01-.718-.341c-.027-.014-.04-.027-.068-.041a.384.384 0 01-.108-.436.37.37 0 01.339-.232.31.31 0 01.19.055c.013 0 .013.013.026.013.163.096.326.178.53.246.365.136.731.204 1.124.204.502 0 .882-.095 1.14-.259a.765.765 0 00.379-.681.71.71 0 00-.204-.518 1.336 1.336 0 00-.501-.3c-.203-.068-.488-.15-.854-.245a8.899 8.899 0 01-1.112-.327 1.85 1.85 0 01-.732-.518c-.203-.232-.298-.545-.298-.94 0-.327.081-.627.257-.886.177-.259.434-.477.787-.64.352-.164.786-.232 1.301-.232.366 0 .719.04 1.071.136.203.055.38.123.556.204l.081.041a.38.38 0 01.163.314.38.38 0 01-.38.381.486.486 0 01-.149-.027 3.228 3.228 0 00-1.328-.3c-.502 0-.868.096-1.112.273a.82.82 0 00-.366.695.69.69 0 00.203.518c.136.136.312.231.516.313.203.068.488.15.84.232.46.109.827.218 1.112.327.284.109.515.286.718.504.217.232.312.531.312.927zM30.755 31.462c0 .041 0 .069-.014.11v-.22c0 .042.014.083.014.11z"/>
            <path d="M31.243 34.212a.389.389 0 01-.38.382h-3.687a.38.38 0 01-.38-.382v-5.396a.38.38 0 01.38-.381h3.552a.38.38 0 01.38.381.38.38 0 01-.38.382h-3.064v1.894h2.711c.163 0 .312.109.353.272v.218a.379.379 0 01-.353.273h-2.71v1.99h3.185a.372.372 0 01.393.367zM36.964 33.97l-1.003-1.432c.434-.15.773-.395 1.003-.736.23-.327.353-.735.353-1.212 0-.668-.23-1.186-.678-1.581-.461-.382-1.085-.573-1.871-.573h-1.952a.43.43 0 00-.434.437v5.287c0 .245.19.436.434.436a.43.43 0 00.434-.436v-1.431h1.518c.095 0 .217 0 .393-.014l1.193 1.704c0 .013.014.013.014.027a.378.378 0 00.311.163.394.394 0 00.394-.395.386.386 0 00-.055-.204l-.054-.04zm-2.237-1.99h-1.491V29.2h1.491c.556 0 .976.122 1.275.354.298.232.433.586.433 1.022 0 .45-.149.79-.433 1.036-.299.245-.719.368-1.275.368zM48.61 34.214a.389.389 0 01-.38.382h-3.688a.38.38 0 01-.38-.382v-5.396a.38.38 0 01.38-.382h3.552a.38.38 0 01.38.382.38.38 0 01-.38.382H45.03v1.894h2.712c.162 0 .311.109.352.272v.218a.379.379 0 01-.352.273H45.03v1.99h3.186a.364.364 0 01.393.367zM76.643 2.3a.404.404 0 01-.027.136l-.04.082-2.224 5.097c-.014.027-.014.04-.027.054a.658.658 0 01-1.207-.027l-2.223-5.07a.506.506 0 01-.068-.15c-.013-.026-.013-.054-.013-.08 0-.246.203-.437.433-.437.177 0 .326.11.393.259l1.993 4.565.109.232.095-.218 2.02-4.593a.298.298 0 01.04-.068.405.405 0 01.34-.177.389.389 0 01.406.395zM93.738 6.375c0 .327-.082.613-.258.885-.176.273-.447.477-.8.64-.352.15-.8.233-1.315.233-.46 0-.908-.069-1.342-.218a2.944 2.944 0 01-.718-.341c-.027-.014-.04-.027-.068-.041a.384.384 0 01-.108-.436.37.37 0 01.338-.232.31.31 0 01.19.055c.014 0 .014.013.027.013.163.096.326.178.529.246.366.136.732.204 1.125.204.502 0 .881-.095 1.139-.259a.765.765 0 00.38-.681.71.71 0 00-.204-.518 1.334 1.334 0 00-.501-.3 13.79 13.79 0 00-.854-.245 8.898 8.898 0 01-1.112-.327 1.85 1.85 0 01-.732-.518c-.203-.232-.298-.545-.298-.94 0-.327.08-.627.257-.886a1.88 1.88 0 01.787-.64c.352-.164.786-.232 1.3-.232.367 0 .72.04 1.072.136.203.055.38.123.556.205l.081.04a.38.38 0 01.163.314.38.38 0 01-.38.381.485.485 0 01-.149-.027 3.23 3.23 0 00-1.329-.3c-.501 0-.867.096-1.111.273a.82.82 0 00-.366.695.69.69 0 00.203.518c.136.136.312.231.515.313.204.068.488.15.84.232.462.109.828.218 1.112.327.285.109.516.286.719.504.203.232.312.545.312.927zM61.23 2.326v3.08c0 .885-.231 1.567-.692 2.03-.447.463-1.085.708-1.898.708s-1.464-.231-1.912-.708c-.447-.463-.69-1.145-.69-2.03v-3.08c0-.246.203-.436.433-.436.244 0 .434.204.434.436V5.35c0 1.322.583 1.976 1.735 1.976.556 0 .99-.164 1.288-.49.298-.328.447-.818.447-1.486V2.326a.427.427 0 11.854 0zM67.52 2.328V7.56a.487.487 0 01-.827.355.243.243 0 01-.068-.096l-3.498-4.36v4.156a.438.438 0 01-.434.436.447.447 0 01-.433-.436V2.382c0-.272.217-.49.488-.49.162 0 .325.081.406.218l3.498 4.374V2.328c0-.246.203-.436.434-.436.244 0 .434.204.434.436zM69.756 2.328v5.287a.438.438 0 01-.433.436.447.447 0 01-.434-.436V2.328c0-.246.203-.436.434-.436.23 0 .433.204.433.436zM81.592 4.93c0 .042 0 .07-.014.11v-.219c.014.028.014.069.014.11z"/>
            <path d="M82.08 7.67a.389.389 0 01-.38.381h-3.688a.38.38 0 01-.38-.382V2.273a.38.38 0 01.38-.381h3.552a.38.38 0 01.38.381.38.38 0 01-.38.382H78.5v1.894h2.712c.162 0 .311.109.352.272v.218a.379.379 0 01-.352.273H78.5v1.99h3.186a.372.372 0 01.393.367zM87.814 7.424l-1.003-1.43c.433-.15.772-.396 1.003-.737.23-.327.352-.735.352-1.212 0-.668-.23-1.186-.677-1.581-.462-.382-1.085-.572-1.871-.572h-1.953a.43.43 0 00-.433.436v5.287c0 .245.19.436.433.436a.43.43 0 00.434-.436v-1.43h1.519c.095 0 .217 0 .393-.015l1.193 1.704c0 .013.013.013.013.027a.378.378 0 00.312.164.394.394 0 00.393-.396.387.387 0 00-.054-.204l-.054-.04zm-2.237-1.99h-1.491v-2.78h1.491c.556 0 .976.123 1.274.355.299.232.434.586.434 1.022 0 .45-.149.79-.434 1.036-.298.245-.732.368-1.274.368zM99.459 7.67a.389.389 0 01-.38.381h-3.687a.38.38 0 01-.38-.382V2.273a.38.38 0 01.38-.381h3.552a.38.38 0 01.38.381.38.38 0 01-.38.382H95.88v1.894h2.711c.163 0 .312.109.353.272v.218a.379.379 0 01-.353.273H95.88v1.99h3.186a.372.372 0 01.393.367zM36.298 65.789c0 5.205-4.189 9.416-9.367 9.416h-.014c-5.165-.014-9.354-4.224-9.354-9.416 0-.327.054-1.418.054-1.636v-17.17c.407 0 2.603.041 4.366 1.826a6.208 6.208 0 011.816 4.388v12.578a3.141 3.141 0 003.132 3.148 3.141 3.141 0 003.131-3.148l.068-6.282c0-.831.163-1.635.461-2.371.922-2.235 3.105-3.816 5.653-3.843l.04 11.774c0 .231.014.49.014.736zM36.298 12.698c0 5.205-4.189 9.416-9.367 9.416h-.014c-5.165-.014-9.354-4.224-9.354-9.416 0-.327.054-1.417.054-1.636v-17.17c.407 0 2.603.041 4.366 1.827A6.208 6.208 0 0123.799.106v12.578c0 1.73 1.396 3.148 3.132 3.148a3.141 3.141 0 003.131-3.148l.068-6.282c0-.831.163-1.635.461-2.371.922-2.235 3.105-3.816 5.653-3.843l.04 11.774c0 .245.014.49.014.736zM25.792 28.831a.404.404 0 01-.068.218l-2.21 5.11c-.013.028-.013.041-.027.055a.658.658 0 01-1.206-.027l-2.224-5.07a.504.504 0 01-.068-.15c-.013-.026-.013-.054-.013-.081 0-.245.203-.436.434-.436.176 0 .325.109.393.259l1.993 4.565.108.232.095-.218 2.02-4.593c.014-.027.027-.054.04-.068a.405.405 0 01.34-.177.375.375 0 01.393.381zM10.391 28.873v3.08c0 .885-.23 1.566-.691 2.03-.447.463-1.085.708-1.898.708s-1.464-.231-1.911-.708c-.448-.477-.692-1.145-.692-2.03v-3.067c0-.245.204-.436.434-.436.244 0 .434.205.434.436v3.025c0 1.322.583 1.976 1.735 1.976.556 0 .99-.163 1.288-.49.298-.327.447-.818.447-1.486v-3.038a.427.427 0 11.854 0zM16.668 28.873v5.232a.487.487 0 01-.827.355c-.027-.028-.054-.055-.068-.096l-3.497-4.36v4.156a.438.438 0 01-.434.436.438.438 0 01-.434-.436v-5.233c0-.272.217-.49.488-.49.163 0 .325.081.407.218l3.497 4.374v-4.156c0-.246.204-.437.434-.437a.43.43 0 01.434.437zM18.905 28.873v5.287a.438.438 0 01-.434.436.447.447 0 01-.434-.436v-5.287c0-.246.204-.437.434-.437s.434.191.434.437zM31.241 34.214a.389.389 0 01-.38.382h-3.687a.38.38 0 01-.38-.382v-5.396a.38.38 0 01.38-.382h3.552a.38.38 0 01.38.382.38.38 0 01-.38.382h-3.064v1.894h2.712c.162 0 .312.109.352.272v.218a.379.379 0 01-.352.273h-2.712v1.99h3.186a.372.372 0 01.393.367z"/>
        </g>
    </g>
    <defs>
        <clipPath id="clip0">
            <path fill="#fff" d="M0 0h102v53H0z"/>
        </clipPath>
        <clipPath id="clip1">
            <rect width="360" height="204" rx="6" fill="#fff"/>
        </clipPath>
    </defs>
</svg>
