<svg width="337" height="233" fill="none" xmlns="http://www.w3.org/2000/svg">
    <path d="M253.643 100.204s-7.947-10.524.494-16.37c0 0 6.098-3.191 10.875-2.598 0 0-7.504 10.95-5.379 12.211 2.125 1.27 7.478-12.796 7.478-12.796s13.46-.46 17.635 1.871c0 0-12.021 8.628-9.646 9.338 2.376.71 15.301-7.692 15.301-7.692s12.313 2.89 11.176 10.432c-1.138 7.542-5.572 9.614-7.445 9.296-1.874-.317-12.64-5.212-12.975-3.683-.335 1.528 5.99 6.982 10.624 7.509 0 0-9.378 9.12-15.041 5.963-5.655-3.149-5.881-7.609-9.411-9.488-3.53-1.888-6.634-2.072-5.245-.293 1.397 1.788 7.872 3.843 9.72 7.643 1.849 3.8 3.564 6.398-2.417 5.112-5.981-1.287-15.51-6.306-15.627-11.376l-.117-5.079z" fill="#E2E1E1"/>
    <path d="M295.998 94.065s-33.729-3.408-41.801 5.78c0 0-1.958 4.836-7.32 9.012l-.929 2.105s6.249-5.805 8.366-6.047c-.009.008-2.535-12.162 41.684-10.85z" fill="#919191"/>
    <path d="M246.868 108.856s-7.595 4.903-8.691 14.45l1.313.2s2.936-9.756 7.37-13.364c4.425-3.608.008-1.286.008-1.286zM214.635 75.04s-17.626-9.857-9.403-23.237c0 0 6.583-8.21 13.635-10.324 0 0-3.764 19.946 0 20.422 3.765.467 2.585-22.527 2.585-22.527s18.572-8.92 25.858-8.21c0 0-11.519 19.478-7.755 19.01 3.765-.468 16.689-20.18 16.689-20.18s19.04-3.516 22.093 7.743c3.053 11.268-1.882 16.897-4.701 17.599-2.819.701-20.922.468-20.454 2.815.469 2.347 12.691 6.105 19.508 3.992 0 0-7.52 18.542-17.391 17.599-9.871-.936-12.925-7.041-19.04-7.51-6.115-.467-10.574 1.17-7.52 2.816 3.053 1.645 13.401.534 18.337 4.727 4.935 4.193 8.934 6.774-.235 8.653-9.168 1.88-25.623.702-28.91-6.34l-3.296-7.049z" fill="#919191"/>
    <path d="M269.637 41.245s-49.364 15.961-55.002 33.794c0 0 .234 7.976-4.701 17.13v3.517s5.169-11.97 7.989-13.615c0 .009-11.043-15.477 51.714-40.826z" fill="#E2E1E1"/>
    <path d="M209.933 92.17s-7.612 11.543-3.271 25.592l1.958-.527s-1.899-15.477 2.083-23.261c3.982-7.776-.77-1.804-.77-1.804z" fill="#E2E1E1"/>
    <path d="M121.671 80.092s20.512-8.67 13.125-24.323c0 0-6.215-9.797-13.686-12.963 0 0 1.698 22.318-2.476 22.376-4.174.059-.1-24.998-.1-24.998s-19.266-12.02-27.338-12.128c0 0 10.256 22.744 6.19 21.775-4.066-.97-15.836-24.139-15.836-24.139s-20.436-6.164-25.154 5.813c-4.718 11.978.008 18.743 3.011 19.863 3.003 1.11 22.871 3.048 22.068 5.562-.803 2.514-14.648 5.154-21.867 2.013 0 0 5.99 21.232 16.923 21.39 10.934.168 15.024-6.147 21.775-5.93 6.751.226 11.452 2.565 7.897 3.993-3.547 1.428-14.748-1.027-20.662 2.965-5.915 3.993-10.608 6.34-.795 9.505 9.82 3.166 27.99 3.876 32.449-3.45l4.476-7.324z" fill="#919191"/>
    <path d="M65.497 36.4s52.158 23.462 56.174 43.692c0 0-1.23 8.72 3.07 19.344l-.427 3.859s-4.216-13.74-7.102-15.886c0 0 13.987-15.636-51.715-51.009z" fill="#E2E1E1"/>
    <path d="M124.741 99.436s6.943 13.573.477 28.44l-2.083-.81s3.965-16.73.544-25.742c-3.413-9.013 1.062-1.888 1.062-1.888zM79.593 130.398c-3.622-5.221-4.032-10.082-4.032-10.082s10.03-7.191 4.116-14.75c0 0-4.56-4.535-8.985-5.337 0 0 3.656 11.86 1.397 12.403-2.25.543-3.111-13.506-3.111-13.506s-11.888-4.151-16.271-3.224c0 0 8.332 11.042 6.014 11.017-2.317-.025-11.519-11.117-11.519-11.117s-11.803-.835-12.89 6.214c-1.088 7.05 2.3 10.132 4.065 10.374 1.765.234 12.74-1.144 12.615.317-.126 1.454-7.295 4.577-11.578 3.759 0 0 5.84 10.749 11.77 9.505 5.931-1.245 7.37-5.162 11.051-5.863 3.68-.702 6.508-.009 4.76 1.194-1.74 1.203-8.098 1.244-10.808 4.126-2.71 2.882-4.96 4.719.736 5.237 5.697.518 15.61-1.32 17.124-5.822.067-.192.125-.384.192-.559-.083.367-.192.559-.192.559 1.096.485 2.953 3.166 4.275 5.229.192.359.493.844.928 1.503.184.301.326.543.427.719 2.518 4.685 2.434 13.263 2.434 13.263l1.23.184c1.665-8.853-3.748-15.343-3.748-15.343z" fill="#E2E1E1"/>
    <path d="M60.242 105.249l98.277-58.743a17.162 17.162 0 0117.609 0l98.276 58.743v95.753L60.242 190.277v-85.028z" fill="#18A0FB"/>
    <path opacity=".1" d="M60.242 105.249l98.277-58.743a17.162 17.162 0 0117.609 0l98.276 58.743v95.753L60.242 190.277v-85.028z" fill="#000"/>
    <path d="M255.968 62.828H78.672V215.81h177.296V62.828z" fill="#E2E1E1"/>
    <path d="M85.909 71.321a1.822 1.822 0 001.823-1.82 1.822 1.822 0 00-3.647 0c0 1.005.816 1.82 1.824 1.82zM246.808 69.5c0-1.003.819-1.821 1.823-1.821s1.824.818 1.824 1.82c0 1.003-.82 1.821-1.824 1.821a1.82 1.82 0 01-1.823-1.82z" fill="#919191"/>
    <path d="M248.624 69.299H85.909v.392h162.715V69.3z" fill="#919191"/>
    <path d="M86.1 68.773h-.393v162.464h.393V68.773zM248.882 68.773h-.393v162.464h.393V68.773z" fill="#919191"/>
    <path d="M274.404 104.982V233H60.242V104.982l107.077 64.014 107.085-64.014z" fill="#18A0FB"/>
    <path d="M60.242 233l98.093-70.219a15.43 15.43 0 0117.977 0L274.404 233H60.242z" fill="#18A0FB"/>
    <path opacity=".1" d="M60.242 233l98.093-70.219a15.43 15.43 0 0117.977 0L274.404 233H60.242z" fill="#000"/>
    <path d="M200.012 84.018h-64.639a1.713 1.713 0 01-1.707-1.704c0-.936.77-1.704 1.707-1.704h64.639c.937 0 1.706.768 1.706 1.704 0 .935-.761 1.704-1.706 1.704zM216.667 90.858h-97.951a1.712 1.712 0 01-1.706-1.704c0-.936.769-1.704 1.706-1.704h97.942c.937 0 1.707.768 1.707 1.704a1.7 1.7 0 01-1.698 1.704zM203.96 112.065h-70.864a1.24 1.24 0 01-1.238-1.236 1.24 1.24 0 011.238-1.236h70.864a1.24 1.24 0 011.238 1.236 1.24 1.24 0 01-1.238 1.236zM140.216 118.506h-19.985a1.24 1.24 0 01-1.238-1.237 1.24 1.24 0 011.238-1.236h19.985a1.24 1.24 0 011.238 1.236 1.25 1.25 0 01-1.238 1.237zM170.348 118.506h-24.142a1.24 1.24 0 01-1.238-1.237 1.24 1.24 0 011.238-1.236h24.142a1.24 1.24 0 011.238 1.236c0 .677-.56 1.237-1.238 1.237zM216.825 118.506H175.09a1.24 1.24 0 01-1.238-1.237 1.24 1.24 0 011.238-1.236h41.735a1.24 1.24 0 011.238 1.236c0 .677-.561 1.237-1.238 1.237zM170.507 125.99h-38.816a1.24 1.24 0 01-1.238-1.236 1.24 1.24 0 011.238-1.236h38.816a1.24 1.24 0 011.238 1.236 1.24 1.24 0 01-1.238 1.236zM205.365 125.99H174.79a1.24 1.24 0 01-1.238-1.237 1.24 1.24 0 011.238-1.236h30.575a1.24 1.24 0 011.238 1.236c0 .685-.552 1.237-1.238 1.237zM181.408 141.206c-2.334 1.938-4.835 3.55-7.462 5.02.226-.693.41-1.42.376-2.063-.05-.886-.752-1.278-1.463-1.646a6.845 6.845 0 01-.502-.284c.276-.267.418-.643.234-1.052-.301-.668-1.138-.56-1.422.058-.05.117-.084.226-.101.335a.813.813 0 01-.276-.218c.435-.81.837-1.628 1.213-2.464.084-.192-.025-.409-.175-.526-.628-.468-1.473-.317-1.975.276-.594.701-.443 1.762-.159 2.556.017.058.042.108.067.167a35.412 35.412 0 01-1.79 2.898c-.058-.058-.117-.117-.184-.175a4.663 4.663 0 01-.502-.602 8.67 8.67 0 00.552-2.405c.034-.376-.343-.56-.652-.443-.862.317-1.33 1.194-1.222 2.096.042.31.143.602.285.878a7.402 7.402 0 01-.694 1.211c-.176.25-.051.509.159.634-.285.944-.661 1.905-1.314 2.581-.535.552-1.522.978-2.175.318-.41-.418-.46-1.111-.519-1.662-.142-1.354-.242-2.765-.192-4.135.025-.643.092-1.303.318-1.913.134-.375.326-.952.519-.3.092.317-.034.818-.067 1.144-.059.585.845.651.903.067.067-.685.377-2.122-.401-2.548-.645-.359-1.23.151-1.531.685-1.071 1.921-.644 4.552-.485 6.64.125 1.663.752 3.701 2.877 3.174 2-.501 2.736-3.015 3.196-4.752a.486.486 0 00-.017-.293c.008-.016.017-.025.025-.041l.251.25c.117.109.234.217.343.326-.209.292-.426.576-.644.869-.125.158-.092.401.033.551.678.81 1.883.209 1.858-.785a1.47 1.47 0 00-.151-.618 37.618 37.618 0 001.773-2.807c.285.276.645.46 1.088.435.033 0 .059-.009.092-.009.234.242.527.451.795.602.259.142.552.234.786.426.435.35.301.751.209 1.252-.125.66-.334 1.32-.527 1.955-.912.526-1.815 1.194-2.125 2.247-.284.96-.033 1.971.795 2.564.251.175.577.033.686-.226a44.768 44.768 0 001.38-3.867c.017-.042.025-.083.042-.125.812-.459 1.657-.86 2.451-1.336a46.707 46.707 0 006.032-4.252c.443-.359-.159-1.036-.611-.668zm-11.042-1.203c-.009-.359.184-1.027.602-1.019-.192.41-.385.819-.586 1.22-.008-.075-.016-.142-.016-.201zm1.154 10.483c-.385-.719.167-1.596.795-2.18-.251.735-.51 1.461-.795 2.18z" fill="#919191"/>
    <path d="M163.498 0l9.227 20.338-34.022 15.402-9.235-20.338 21.633 2.464L163.498 0z" fill="#E2E1E1"/>
    <path d="M129.468 15.402L163.498 0l-10.172 17.122a3.771 3.771 0 01-3.907 1.788l-19.951-3.508z" fill="#919191"/>
    <path d="M22.733 135.167l4.852 13.005-21.75 8.102-4.86-13.005 13.309 2.448 8.449-10.55z" fill="#E2E1E1"/>
    <path d="M.975 143.269l21.758-8.102-7.035 10.182a2.353 2.353 0 01-2.502.944L.975 143.269zM336.026 55.401L329.2 80.935l-42.722-11.376 6.826-25.542 17.943 18.459 24.779-7.075z" fill="#919191"/>
    <path d="M293.304 44.017l42.722 11.384-22.177 8.052a4.47 4.47 0 01-4.919-1.286l-15.626-18.15z" fill="#18A0FB"/>
    <path d="M293.304 44.017l42.722 11.384-22.177 8.052a4.47 4.47 0 01-4.919-1.286l-15.626-18.15zM87.514 184.005l24.41-13.815-22.268 1.311 1.715 3.759-4.602 5.086.745 3.659z" fill="#E2E1E1"/>
    <path d="M111.925 170.19l-25.58 4.677-18.639 12.921 44.219-17.598z" fill="#fff"/>
    <path d="M89.657 171.501l22.269-1.311-23.298-6.824 1.029 8.135z" fill="#fff"/>
    <path d="M106.212 225.449H79.376c-4.844 0-8.759-3.917-8.759-8.745 0-4.836 3.924-8.745 8.759-8.745h26.836c4.843 0 8.758 3.917 8.758 8.745.009 4.828-3.915 8.745-8.758 8.745z" fill="#E2E1E1"/>
    <path d="M103.735 212.294H75.936a.56.56 0 110-1.119h27.799a.56.56 0 01.56.56.554.554 0 01-.56.559zM80.871 214.725h-4.927a.56.56 0 110-1.12h4.927a.56.56 0 110 1.12zM96.397 214.725H82.82a.56.56 0 110-1.12h13.577c.31 0 .56.251.56.56a.555.555 0 01-.56.56zM103.736 219.227H75.937a.56.56 0 110-1.119h27.799c.309 0 .56.25.56.56a.554.554 0 01-.56.559zM86.025 221.657H75.936a.56.56 0 110-1.119h10.09c.309 0 .56.25.56.559a.55.55 0 01-.56.56zM98.305 221.657H88.217a.56.56 0 110-1.119h10.088a.56.56 0 110 1.119z" fill="#919191"/>
    <path d="M86.77 172.536s-.745.133-2.058.351" stroke="#919191" stroke-linecap="round" stroke-linejoin="round"/>
    <path d="M80.562 173.522c-10.699 1.528-32.357 3.817-41.634-.986-10.658-5.529-6.475-13.873.602-17.156" stroke="#919191" stroke-linecap="round" stroke-linejoin="round" stroke-dasharray="5.02 5.02"/>
    <path d="M41.497 154.62a14.24 14.24 0 012.033-.476" stroke="#919191" stroke-linecap="round" stroke-linejoin="round"/>
</svg>
