<svg width="34" height="21" fill="none" xmlns="http://www.w3.org/2000/svg">
    <path d="M21.212 2.219h-8.987V18.53h8.987V2.22z" fill="#FF5F00"/>
    <path d="M12.796 10.376c0-3.315 1.54-6.255 3.908-8.157A10.146 10.146 0 0010.371 0C4.693 0 .101 4.64.101 10.376S4.693 20.75 10.37 20.75c2.397 0 4.593-.836 6.333-2.218-2.368-1.874-3.908-4.844-3.908-8.157z" fill="#EB001B"/>
    <path d="M33.339 10.376c0 5.736-4.593 10.375-10.271 10.375-2.396 0-4.593-.836-6.333-2.218 2.396-1.903 3.908-4.842 3.908-8.157 0-3.315-1.541-6.255-3.91-8.157A10.15 10.15 0 0123.069 0c5.677 0 10.27 4.669 10.27 10.376z" fill="#F79E1B"/>
</svg>
