<svg width="77" height="20" fill="none" xmlns="http://www.w3.org/2000/svg">
    <path fill-rule="evenodd" clip-rule="evenodd" d="M64.097 15.993l-.175-.16c-.425-.385-.5-1.087-.113-1.538l4.544-5.515c.363-.451 1.024-.53 1.449-.12l.175.16c.424.384.499 1.087.112 1.538l-4.544 5.515c-.363.451-1 .506-1.448.12z" fill="#76A62D"/>
    <path opacity=".4" fill-rule="evenodd" clip-rule="evenodd" d="M67.742 9.735l-.089-.106-.7.85.075.091c1.2 1.274.688 2.56.413 3.01l.1-.118c.163-.199.413-.503.675-.835.275-.505.662-1.7-.474-2.892zM69.238 11.393l.187-.226c.012-.027.037-.054.05-.08-.2.239-.411.492-.612.744.151-.173.275-.32.375-.438z" fill="#76A62D"/>
    <path fill-rule="evenodd" clip-rule="evenodd" d="M70.113 8.953l-4.545-5.514c-.361-.453-1.024-.532-1.448-.119l-.175.159c-.425.384-.5 1.087-.112 1.538l3.831 4.614.087.107c1.136 1.206.749 2.399.462 2.904.224-.278.45-.558.66-.808.201-.253.413-.504.612-.744l.511-.61c.442-.454.505-1.076.117-1.527zM69.863 15.993l-.175-.16c-.425-.385-.5-1.087-.112-1.538l4.543-5.515c.362-.451 1.024-.53 1.449-.12l.175.16c.424.384.5 1.087.112 1.538l-4.545 5.515c-.362.451-.997.506-1.447.12z" fill="#76A62D"/>
    <path opacity=".4" fill-rule="evenodd" clip-rule="evenodd" d="M73.558 9.683l-.086-.107-.7.85.075.092c1.199 1.273.688 2.56.41 3.01l.101-.119c.161-.198.411-.505.674-.835.276-.505.663-1.7-.474-2.891zM74.992 11.393l.186-.226c.012-.027.038-.054.05-.08-.199.239-.41.492-.611.744.15-.173.288-.32.375-.438z" fill="#76A62D"/>
    <path fill-rule="evenodd" clip-rule="evenodd" d="M75.865 8.953l-4.543-5.514c-.362-.453-1.024-.532-1.449-.119l-.175.159c-.424.386-.5 1.087-.112 1.538l3.832 4.614.086.107c1.137 1.206.75 2.399.462 2.904a54.8 54.8 0 01.661-.808c.199-.253.413-.504.612-.744l.51-.61c.44-.452.504-1.076.116-1.527zM20.164 3c1.186 0 2.235.278 3.108.808.887.557 1.561 1.34 2.035 2.334.476 1.008.712 2.2.712 3.568 0 1.471-.275 2.757-.837 3.804-.55 1.06-1.35 1.829-2.385 2.321.537.186.973.61 1.337 1.232l.625.994c.125.225.198.438.198.663a.844.844 0 01-.312.69 1.158 1.158 0 01-1.337.118 1.448 1.448 0 01-.462-.463l-1.024-1.804a1.508 1.508 0 00-.637-.636c-.262-.134-.6-.211-1.024-.211-1.211 0-2.247-.278-3.134-.808-.886-.556-1.56-1.339-2.035-2.334-.474-1.021-.711-2.215-.711-3.566 0-1.366.25-2.547.711-3.568a5.45 5.45 0 012.035-2.334C17.916 3.253 18.951 3 20.164 3zm29.902.013c.299 0 .536.133.749.41l3.584 4.721 3.57-4.72c.21-.265.474-.399.773-.399.261 0 .499.107.711.332.212.226.313.464.313.783 0 .238-.087.49-.262.716l-3.983 5.157v5.158c0 .384-.1.677-.312.902-.213.224-.474.317-.8.317-.337 0-.624-.106-.836-.317-.212-.213-.312-.503-.312-.902v-5.158l-3.958-5.171a1.143 1.143 0 01-.261-.716c0-.293.1-.558.312-.783.21-.224.46-.33.712-.33zm-16.207.106c1.323 0 2.347.345 3.084 1.06.738.69 1.111 1.685 1.111 2.944 0 1.26-.375 2.253-1.11 2.956-.738.716-1.762 1.061-3.085 1.061h-3.134v4.004c0 .384-.1.677-.312.888-.212.225-.488.331-.837.331-.337-.012-.624-.119-.812-.344-.213-.225-.313-.518-.313-.89V4.247c0-.357.099-.636.299-.835.2-.186.462-.292.8-.292h4.309zm-23.035-.106c.337 0 .637.106.836.332.212.225.313.503.313.862v10.925c0 .357-.1.663-.313.887-.212.225-.488.332-.836.332-.324 0-.6-.107-.812-.332-.212-.225-.312-.518-.312-.887V4.207c0-.357.1-.637.313-.862.212-.226.475-.332.811-.332zM43.885 3c.25 0 .474.067.688.186.21.133.374.319.486.57L49.916 14.8c.05.173.087.319.087.49 0 .278-.112.518-.325.73-.212.186-.461.291-.748.291a.986.986 0 01-.525-.159 1.056 1.056 0 01-.388-.49l-1.061-2.493h-6.144l-1.061 2.493c-.1.225-.224.384-.387.49a.947.947 0 01-.537.16c-.262 0-.525-.107-.737-.293-.224-.186-.325-.438-.325-.73 0-.16.038-.332.1-.491L42.71 3.754a1.16 1.16 0 01.487-.57A1.26 1.26 0 0143.885 3zm-42.76.025c.336 0 .636.107.835.332.212.226.313.503.313.862v10.063h4.906c.7 0 1.062.332 1.062.981 0 .65-.362.981-1.062.981H1.062c-.337 0-.6-.104-.787-.304C.1 15.754 0 15.476 0 15.132V4.219c0-.357.1-.636.313-.862.212-.224.473-.332.811-.332zm19.012 1.858c-1.148 0-2.035.411-2.672 1.234-.637.835-.961 2.002-.961 3.566 0 1.563.324 2.73.961 3.566.637.835 1.536 1.246 2.672 1.246 1.136 0 2.023-.411 2.66-1.246.637-.836.961-2.028.961-3.566 0-1.564-.324-2.731-.961-3.566s-1.51-1.234-2.66-1.234zm23.748.915l-2.31 5.515h4.632l-2.322-5.515zm-10.313-.81h-2.847v4.309l2.847.012c1.547 0 2.335-.73 2.335-2.16 0-1.43-.786-2.16-2.335-2.161z" fill="#76A62D"/>
</svg>
