<svg width="454" height="193" fill="none" xmlns="http://www.w3.org/2000/svg">
    <g clip-path="url(#clip0)">
        <path d="M361.927 182.738H92V13.18a6.385 6.385 0 016.382-6.385h257.163a6.385 6.385 0 016.382 6.385v169.558z" fill="#E2E1E1"/>
        <path d="M361.927 18.772H92V10.62a3.827 3.827 0 013.824-3.826H358.09a3.827 3.827 0 013.824 3.826v8.15h.013zM327.536 94.267H126.392c-1.868 0-3.39 1.446-3.39 3.237 0 1.792 1.522 3.238 3.39 3.238h201.144c1.867 0 3.389-1.446 3.389-3.238 0-1.791-1.522-3.237-3.389-3.237zM327.536 116.711H126.392c-1.868 0-3.39 1.446-3.39 3.237 0 1.792 1.522 3.238 3.39 3.238h201.144c1.867 0 3.389-1.446 3.389-3.238 0-1.778-1.522-3.237-3.389-3.237zM327.536 139.168H126.392c-1.868 0-3.39 1.446-3.39 3.237 0 1.792 1.522 3.237 3.39 3.237h201.144c1.867 0 3.389-1.445 3.389-3.237 0-1.791-1.522-3.237-3.389-3.237zM328.239 161.625H125.688a2.686 2.686 0 00-2.686 2.687v1.113a2.687 2.687 0 002.686 2.687h202.551a2.686 2.686 0 002.686-2.687v-1.113a2.685 2.685 0 00-2.686-2.687zM330.925 32.297H207.056V77.99h123.869V32.297z" fill="#919191"/>
        <path d="M334.007 29.213H210.139v45.694h123.868V29.213z" stroke="#fff" stroke-miterlimit="10"/>
        <path d="M193.23 32.297h-70.586V77.99h70.586V32.297z" fill="#919191"/>
        <path d="M196.3 29.213h-70.586v45.694H196.3V29.213z" stroke="#fff" stroke-miterlimit="10"/>
        <path d="M368.079 176.57H98.152V7.025A6.385 6.385 0 01104.534.64h257.163a6.385 6.385 0 016.382 6.385V176.57z" stroke="#fff" stroke-miterlimit="10"/>
        <path opacity=".21" d="M369.287 143.797c21.527-21.537 21.527-56.456 0-77.993-21.527-21.537-56.429-21.537-77.956 0s-21.527 56.456 0 77.993c21.527 21.537 56.429 21.537 77.956 0z" fill="#fff"/>
        <path opacity=".76" d="M288.642 116.89a3.472 3.472 0 01-4.08-2.764c-5.283-27.319 12.649-53.832 39.955-59.117a3.472 3.472 0 014.08 2.764 3.473 3.473 0 01-2.763 4.082c-23.533 4.556-38.983 27.409-34.43 50.953.371 1.881-.87 3.711-2.762 4.082z" fill="#fff"/>
        <path d="M387.558 133.985c.064-.089.14-.179.217-.256 6.177-12.271 8.505-26.602 5.704-41.138-6.74-34.907-40.479-57.722-75.37-50.979-34.89 6.743-57.694 40.499-50.954 75.406 6.74 34.907 40.48 57.722 75.37 50.979 14.465-2.803 26.846-10.25 35.914-20.499l5.896-8.727 3.223-4.786zm-46.785 24.965c-29.89 5.784-58.807-13.781-64.588-43.685-5.781-29.904 13.774-58.835 43.664-64.62 29.889-5.783 58.807 13.782 64.588 43.686 5.781 29.917-13.775 58.835-43.664 64.619z" fill="#18A0FB"/>
        <path d="M387.903 144.158l-2.929-1.983a2.466 2.466 0 01-.665-3.417l-5.896 8.727-.102.141a2.465 2.465 0 00.665 3.416l3.542 2.406c.678-1.83 2.929-5.605 5.385-9.29z" fill="#919191"/>
        <path d="M384.322 138.771a2.466 2.466 0 00.665 3.417l2.929 1.983c2.379-3.557 4.949-7.025 6.471-8.548l-3.402-2.303a2.458 2.458 0 00-3.197.397c-.077.089-.154.166-.218.256l-3.248 4.798z" fill="#919191"/>
        <path d="M448.782 171.221l-53.167-36.391c-.192-.128-.64.179-1.241.793-1.522 1.523-4.093 4.978-6.471 8.548-2.456 3.685-4.707 7.46-5.372 9.29-.218.601-.269.998-.102 1.1l53.166 36.392a11.701 11.701 0 0016.371-3.161c3.658-5.464 2.226-12.873-3.184-16.571z" fill="#18A0FB"/>
    </g>
    <defs>
        <clipPath id="clip0">
            <path fill="#fff" d="M0 0h454v193H0z"/>
        </clipPath>
    </defs>
</svg>
