<svg width="34" height="35" fill="none" xmlns="http://www.w3.org/2000/svg">
    <path d="M1.8 9.74c1.076-2.256 2.597-4.163 4.514-5.75C8.91 1.833 11.89.534 15.23.136c3.924-.469 7.61.279 11.02 2.333.848.51 1.64 1.09 2.396 1.718.188.154.167.245.007.399a731.235 731.235 0 00-4.632 4.666c-.18.182-.277.168-.472.021-4.5-3.486-11.062-2.543-14.416 2.068-.59.81-1.07 1.684-1.403 2.634-.027.083-.083.16-.125.244-.895-.684-1.798-1.37-2.687-2.06C3.876 11.353 2.835 10.55 1.8 9.74z" fill="#E94335"/>
    <path d="M7.605 20.77c.299.664.549 1.356.924 1.977 1.576 2.6 3.826 4.269 6.791 4.863 2.674.538 5.243.174 7.639-1.174.083-.042.167-.084.243-.126.042.042.076.091.118.126 1.792 1.397 3.59 2.794 5.382 4.192-.861.859-1.84 1.55-2.882 2.151-3.02 1.733-6.291 2.431-9.736 2.166-4.291-.335-7.993-2.04-11.048-5.114-1.34-1.348-2.444-2.871-3.243-4.61.743-.573 1.486-1.14 2.23-1.712 1.194-.915 2.388-1.823 3.582-2.739z" fill="#34A853"/>
    <path d="M28.71 30.628c-1.793-1.397-3.591-2.794-5.383-4.191a1.012 1.012 0 01-.118-.126c.618-.482 1.25-.95 1.757-1.565a8.143 8.143 0 001.701-3.465c.035-.16.007-.217-.152-.21-.084.007-.16 0-.243 0-2.833 0-5.674-.007-8.507.007-.312 0-.382-.083-.375-.384.014-2.026.014-4.052 0-6.078 0-.258.07-.328.326-.328 5.195.007 10.389.007 15.59 0 .222 0 .313.056.368.293.424 1.922.396 3.85.14 5.792a19.018 19.018 0 01-1.16 4.506 16.033 16.033 0 01-3.764 5.623c-.063.05-.125.084-.18.126z" fill="#4285F3"/>
    <path d="M7.605 20.77c-1.194.916-2.388 1.824-3.583 2.74-.743.565-1.486 1.138-2.229 1.71-.576-1.075-.951-2.214-1.257-3.387-.583-2.27-.673-4.576-.354-6.888.25-1.817.77-3.563 1.611-5.198 1.042.803 2.076 1.614 3.118 2.417.896.692 1.792 1.376 2.688 2.061-.153.748-.369 1.481-.438 2.25-.125 1.397.007 2.759.403 4.1.028.056.034.126.041.196z" fill="#FABB06"/>
</svg>
