<svg width="40" height="12" fill="none" xmlns="http://www.w3.org/2000/svg">
    <path d="M14.91.212L9.768 11.817H6.413l-2.53-9.263c-.153-.568-.286-.777-.752-1.018C2.367 1.144 1.107.776 0 .549L.075.212h5.4c.687 0 1.305.432 1.463 1.183L8.275 8.11l3.3-7.898h3.335zM19.444.212L16.82 11.817h-3.172L16.27.212h3.173zM28.05 8.028c.014-3.063-4.474-3.233-4.445-4.601.01-.417.43-.86 1.347-.973.454-.055 1.709-.1 3.13.52L28.635.51A9.028 9.028 0 0025.668 0c-3.137 0-5.344 1.576-5.36 3.836-.02 1.67 1.575 2.602 2.776 3.16 1.236.569 1.652.933 1.646 1.44-.01.779-.988 1.124-1.898 1.137-1.595.025-2.522-.408-3.26-.733l-.575 2.545c.743.322 2.111.602 3.528.615 3.335-.002 5.516-1.559 5.525-3.972zM36.705.212h-2.708c-.61 0-1.122.335-1.351.85l-4.761 10.755h3.333l.661-1.734h4.071l.383 1.734h2.935L36.705.212zm-3.913 7.493l1.672-4.358.958 4.358h-2.63z" fill="#1A1F71"/>
</svg>
