<svg width="356" height="337" fill="none" xmlns="http://www.w3.org/2000/svg">
    <g clip-path="url(#clip0)">
        <path d="M320.456 110.437c1.548-13.539 6.051-25.32.891-42.542-8.227-27.444-32.853-41.552-34.439-42.43-1.732-.96-6.506-3.268-14.377-5.362-28.766-7.657-40.769 3.749-65.464 2.461-36.227-1.888-45.734-28.28-78.411-21.433-3.479.73-9.767 2.43-17.156 6.42-30.505 16.465-24.121 43.821-51.767 69.42-19.343 17.913-28.678 10.267-43.2 28.15C-.475 126.069-.111 151.878.03 161.874c.75 53.046 41.354 87.582 47.895 92.97 14.9 12.281 34.713 23.145 65.777 30.019 99.94 22.117 234.534-15.166 241.976-68.697 4.565-32.809-41.269-52.852-35.222-105.729z" fill="#E2E1E1"/>
        <path d="M211.097 124.407a2.139 2.139 0 01-.226.012c-1.196 0-2.217-.975-2.331-2.278-2.053-23.13-9.076-45.105-19.779-61.877-9.48-14.86-20.765-23.73-30.192-23.73h-.03c-34.343.073-41.526 84.728-41.595 85.584-.111 1.387-1.242 2.411-2.538 2.293-1.289-.118-2.248-1.337-2.137-2.725.294-3.679 7.649-90.108 46.258-90.188h.042c11.14 0 23.552 9.442 34.06 25.92 11.144 17.466 18.449 40.283 20.578 64.246.126 1.379-.818 2.609-2.11 2.743zM116.049 330.642l-50.673-27.544c-2.535-1.375-4.568-3.504-5.891-6.152a15 15 0 01-1.475-8.391l19.805-177.224 17.317-4.211.267 1.093-16.548 4.024-19.718 176.444a13.896 13.896 0 001.365 7.765c1.216 2.441 3.093 4.402 5.42 5.667l49.462 26.886 29.24-96.333 1.078.329-29.649 97.647z" fill="#fff"/>
        <path d="M67.8 298.647l45.21 24.574 27.394-90.249-45.139-120.991-12.798 3.37-19.42 173.766c-.439 3.932 1.457 7.741 4.752 9.53z" fill="#18A0FB"/>
        <path opacity=".2" d="M140.4 232.972L95.265 111.981l-7.55 1.987c-1.047 16.152-.588 29.45.123 39.129 3.024 41.193 13.074 52.656 8.207 81.395-4.048 23.894-12.886 27.139-12.114 43.214.841 17.509 12.218 32.171 25.738 43.7l3.338 1.811 27.393-90.245z" fill="#000"/>
        <path d="M95.265 111.981l170.252 9.266 54.102 184.098-206.612 17.876-17.742-211.24z" fill="#18A0FB"/>
        <path d="M112.777 323.832l-.046-.561L94.65 107.067l174.009 9.511 55.273 188.905-211.155 18.349zM95.881 108.263l17.925 214.35 208.658-18.131-54.665-186.823-171.918-9.396z" fill="#fff"/>
        <path d="M147.483 128.553c-1.062 0-2.026-.783-2.282-1.945-.478-2.193-11.556-54.005 4.064-79.435 4.476-7.287 10.73-11.739 18.586-13.225 40.367-7.639 65.223 85.454 66.262 89.42.352 1.337-.374 2.728-1.624 3.103-1.246.378-2.542-.405-2.89-1.743-.245-.928-24.71-92.687-60.934-85.82-6.629 1.253-11.694 4.864-15.486 11.04-14.515 23.637-3.524 74.994-3.41 75.514.295 1.353-.485 2.709-1.747 3.026a2.177 2.177 0 01-.539.065z" fill="#fff"/>
        <path d="M147.499 135.97c3.618 0 6.552-3.15 6.552-7.035 0-3.885-2.934-7.035-6.552-7.035-3.619 0-6.552 3.15-6.552 7.035 0 3.885 2.933 7.035 6.552 7.035zM232.955 135.317c3.619 0 6.552-3.15 6.552-7.035 0-3.885-2.933-7.035-6.552-7.035-3.619 0-6.552 3.15-6.552 7.035 0 3.885 2.933 7.035 6.552 7.035zM278.545 209.131l-52.857-51.521c-1.112-1.086-2.71-1.391-4.105-.784l-28.208 12.312c-2.378 1.036-3.196 4.211-1.655 6.412l46.036 65.889c1.273 1.823 3.666 2.224 5.394.906l35.028-26.676c2.037-1.555 2.217-4.734.367-6.538zM218.1 175.722c-1.781 1.284-4.587.149-6.269-2.533-1.682-2.687-1.602-5.904.18-7.192 1.781-1.284 4.587-.149 6.269 2.534 1.682 2.686 1.601 5.903-.18 7.191z" fill="#fff"/>
        <path d="M244.989 240.297c-.218 0-.436-.015-.654-.05-1.15-.179-2.171-.818-2.867-1.792l-47.642-66.711a4.727 4.727 0 01-.696-4.042c.379-1.349 1.308-2.427 2.554-2.958l29.19-12.465c1.56-.665 3.368-.328 4.614.856l54.699 52.163a4.664 4.664 0 011.422 3.684c-.084 1.387-.753 2.644-1.835 3.451l-36.251 27.008a4.19 4.19 0 01-2.534.856zm-18.468-87.678c-.466 0-.936.092-1.383.283l-29.19 12.465c-1.056.451-1.843 1.368-2.168 2.518a4.061 4.061 0 00.593 3.47l47.642 66.706a3.658 3.658 0 002.42 1.517 3.535 3.535 0 002.683-.676l36.251-27.008c.921-.688 1.491-1.762 1.563-2.946a4.013 4.013 0 00-1.215-3.157l-54.699-52.163a3.618 3.618 0 00-2.497-1.009zm-6.861 19.977c-.26 0-.528-.026-.799-.08-1.571-.309-3.154-1.498-4.232-3.179-1.835-2.866-1.709-6.336.275-7.738.765-.539 1.713-.718 2.737-.52 1.571.31 3.154 1.498 4.232 3.18 1.835 2.866 1.709 6.335-.275 7.738a3.31 3.31 0 01-1.938.599zm-2.814-10.921c-.577 0-1.108.161-1.552.474-1.693 1.196-1.739 4.257-.095 6.821.978 1.532 2.396 2.606 3.792 2.881.841.165 1.605.023 2.217-.409 1.693-1.196 1.739-4.256.095-6.82-.978-1.533-2.396-2.606-3.792-2.882a3.626 3.626 0 00-.665-.065z" fill="#fff"/>
        <path d="M207.117 163.07a.43.43 0 01-.397-.264c-1.831-4.314-4.301-8.043-7.34-11.077-8.329-8.319-19.086-9.626-29.488-10.891-10.352-1.257-20.126-2.449-25.968-10.68-1.479-2.082-3.773-5.85-2.542-7.665.493-.726 1.48-1.063 2.932-.994a.433.433 0 01.413.455.428.428 0 01-.455.413c-.776-.035-1.781.038-2.171.615-.654.963.34 3.584 2.534 6.676 5.62 7.921 15.211 9.086 25.364 10.321 10.547 1.284 21.453 2.609 29.997 11.138 3.119 3.115 5.65 6.936 7.527 11.353a.437.437 0 01-.23.57.63.63 0 01-.176.03z" fill="#828282"/>
        <path d="M211.632 171.786a.431.431 0 01-.306-.737c.039-.038 3.655-3.699 3.64-8.583-.012-2.999-1.377-5.854-4.056-8.487-5.685-5.582-20.773-12.044-34.084-17.749-8.123-3.481-15.799-6.771-20.837-9.607a46.562 46.562 0 00-3.593-1.815c-.218-.099-.314-.355-.218-.573.099-.218.355-.317.573-.218a47.278 47.278 0 013.662 1.85c5 2.812 12.653 6.091 20.754 9.564 13.379 5.732 28.548 12.232 34.35 17.929 2.856 2.805 4.309 5.87 4.316 9.11.016 5.251-3.735 9.034-3.895 9.19a.445.445 0 01-.306.126zM231.113 191.592c2.893 4.788 2.297 8.758-.012 10.363-2.431 1.693-5.917.424-8.517-3.867-2.469-4.081-2.599-8.395.122-10.295 2.753-1.914 6.044-.107 8.407 3.799zm-5.838 4.425c1.449 2.392 3.055 3.725 4.136 2.969 1.056-.738.635-2.645-.921-5.212-1.407-2.324-2.932-3.81-4.086-3.004-1.105.768-.512 2.958.871 5.247zm11.816 15.376l-5.153-30.031 2.011-1.402 5.13 30.05-1.988 1.383zm11.254-18.307c2.894 4.788 2.298 8.758-.011 10.367-2.405 1.677-5.895.409-8.517-3.871-2.47-4.081-2.6-8.395.122-10.294 2.753-1.915 6.044-.107 8.406 3.798zm-5.814 4.406c1.422 2.411 3.031 3.741 4.109 2.988 1.055-.738.635-2.644-.921-5.212-1.407-2.324-2.909-3.825-4.06-3.023-1.127.787-.512 2.958.872 5.247zM238.196 228.008c-.707 0-1.399-.386-1.793-1.082-.6-1.062-.287-2.445.704-3.091l25.455-16.592c.99-.645 2.278-.305 2.878.757.6 1.062.287 2.446-.703 3.091l-25.455 16.592a1.976 1.976 0 01-1.086.325z" fill="#828282"/>
        <path d="M207.232 324.058c0 2.323-1.647 4.318-3.673 4.44l-143.37 8.494c-2.7.161-4.92-1.918-4.92-4.616v-99.714a4.695 4.695 0 014.92-4.704l143.37 5.942c2.022.084 3.673 2.052 3.673 4.372v85.786z" fill="#E2E1E1"/>
        <path d="M207.232 300.679l-151.963 7.796v18.261l151.963-8.918v-17.139z" fill="#828282"/>
        <path d="M101.443 260.404c-.172 11.334-7.263 17.222-15.157 17.192-8.601-.035-15.497-6.626-15.333-17.448.157-10.291 6.64-17.623 16.277-16.905 9.35.699 14.35 7.914 14.213 17.161zm-20.421-.218c-.088 5.912 1.846 10.21 5.627 10.279 3.64.069 5.451-3.638 5.547-9.839.084-5.606-1.353-10.031-5.329-10.268-3.865-.233-5.76 4.177-5.845 9.828zm7.982 36.435l27.393-49.58a2.777 2.777 0 012.634-1.425c2.011.149 3.192 2.323 2.225 4.092l-27.091 49.569a2.772 2.772 0 01-2.31 1.441l-.301.011c-2.164.096-3.598-2.212-2.55-4.108zm46.874-13.974c-.161 10.497-6.247 16.24-12.997 16.535-7.264.317-13.124-5.472-13.051-15.446.145-9.488 5.673-16.538 13.895-16.316 8.001.218 12.279 6.664 12.153 15.227zm-17.401.692c-.157 5.457 1.491 9.343 4.717 9.247 3.112-.092 4.668-3.592 4.755-9.327.081-5.186-1.078-9.209-4.472-9.251-3.376-.043-4.92 4.115-5 9.331z" fill="#fff"/>
        <path opacity=".3" d="M205.237 279.285l-3.46-3.279-3.28 3.458-3.459-3.278-3.28 3.458-3.46-3.279-3.279 3.458-3.46-3.278-3.28 3.458-3.459-3.279-3.28 3.459-3.46-3.279-3.28 3.458-3.459-3.278-3.28 3.458-3.46-3.279-3.28 3.458-4.419-4.192v51.778s-.179 2.965-3.765 3.745l61.159-4.483a4.972 4.972 0 001.938-.554 4.8 4.8 0 00.998-2.938v-46.898l-1.995 2.106z" fill="#828282"/>
        <path d="M215.069 277.565v47.165c0 2.633-2.099 4.819-4.721 5.014l-19.393 1.421-41.904 3.065c3.585-.78 3.666-3.745 3.666-3.745v-51.777l4.507 4.191 2.358-2.441.986-1.017 3.468 3.279 3.287-3.458 3.46 3.278 3.283-3.458 3.46 3.279 3.28-3.459 3.459 3.279 3.28-3.458 3.46 3.278 3.283-3.458 3.46 3.279 3.28-3.458 3.459 3.282 3.28-3.458 3.525 3.282 3.777-3.905z" fill="#fff"/>
        <path d="M208.008 304.959l-7.565.34a.955.955 0 00-.91.952v3.469c0 .547.459.983 1.006.952l7.565-.428a.952.952 0 00.898-.952v-3.385a.951.951 0 00-.994-.948zM207.997 311.665l-7.565.428a.952.952 0 00-.899.952v3.622c0 .551.463.986 1.013.952l7.565-.482a.95.95 0 00.891-.951v-3.565a.954.954 0 00-1.005-.956zM209.002 295.341v-6.209a.953.953 0 00-.986-.952l-7.565.272a.952.952 0 00-.918.951v6.278c0 .543.451.975.994.952l7.565-.34a.954.954 0 00.91-.952zM192.293 305.666l-30.796 1.387a.954.954 0 00-.909.952v3.909c0 .546.458.982 1.005.951l30.796-1.734a.952.952 0 00.898-.952v-3.561a.952.952 0 00-.994-.952zM192.282 312.552l-30.796 1.735a.951.951 0 00-.898.951v3.913c0 .551.462.986 1.013.952l30.795-1.964a.951.951 0 00.891-.952v-3.683a.95.95 0 00-1.005-.952zM193.287 296.048v-6.351a.952.952 0 00-.986-.951l-30.796 1.108a.953.953 0 00-.917.952v6.629c0 .543.451.975.993.952L192.377 297a.952.952 0 00.91-.952z" fill="#E2E1E1"/>
        <path d="M273.617 324.405l-2.523.199a7.957 7.957 0 01-1.957-.08l-10.008-1.632-.164-.026-11.629-1.9-.073-.003-9.113-1.475V268.23l9.171-.004h.019l11.628.577.173.088 14.067.543.409 54.971z" fill="#828282"/>
        <path d="M309.008 271.493v47.842a3.199 3.199 0 01-3.017 3.21l-33.379 1.983c-1.35.08-2.504-1.04-2.504-2.431v-49.84c0-1.391 1.093-2.545 2.446-2.583l33.621-.936a2.743 2.743 0 012.833 2.755z" fill="#919191"/>
        <path d="M238.219 268.23l31.889 1.509 36.067-1.001-36.977-1.207-30.979.699z" fill="#919191"/>
        <path d="M282.367 323.955l11.82-.704v-54.18l-11.82.328v54.556zM258.796 268.967v53.925l-11.338-1.922v-52.308l3.613-.069 7.725.374z" fill="#E2E1E1"/>
        <path d="M259.959 267.741l34.499 1.96h-12.4l-30.165-1.777 8.066-.183zM276.748 266.086c.803-4.918 1.391-8.513 4.602-11.834 1.357-1.399 2.837-2.927 5.264-3.336 2.791-.466 6.353.634 7.328 2.912.925 2.163-1.257 3.573-.329 6.056.933 2.499 3.651 2.446 3.945 4.464.253 1.708-1.418 3.645-3.1 4.554-2.909 1.571-4.56-.638-10.241-.282-3.914.244-6.173 1.486-7.236.233-.505-.593-.455-1.418-.233-2.767z" fill="#E2E1E1"/>
        <path opacity=".3" d="M292.299 264.16c-3.51-1.341-5.306-4.26-6.858-3.569-1.38.615-.539 3.176-2.16 5.262-1.483 1.903-4.201 2.358-6.617 2.358.061.244.16.458.321.646 1.059 1.249 3.322.011 7.236-.234 5.681-.355 7.332 1.85 10.241.283 1.545-.833 3.074-2.533 3.119-4.127-1.639.172-3.463.077-5.282-.619z" fill="#828282"/>
        <path d="M255.559 253.923c2.358-1.861 4.847.214 7.752-1.83 2.944-2.071 2.087-5.396 4.369-6.339 2.653-1.097 6.579 2.246 8.456 4.367 4.775 5.388 7.015 14.953 3.242 18.315-1.415 1.261-5.425.741-13.387-.351-9.098-1.25-10.409-2.144-11.281-3.313-2.343-3.157-1.823-8.743.849-10.849z" fill="#E2E1E1"/>
        <path opacity=".3" d="M270.498 257.962c-1.312-.412-1.908 1.086-4.603 1.689-.493.111-5.248 1.105-7.798-1.88-1.013-1.184-1.487-2.774-1.434-4.463-.37.13-.741.321-1.104.611-2.672 2.11-3.192 7.696-.845 10.849.871 1.169 2.179 2.063 11.281 3.313 7.962 1.093 11.968 1.612 13.387.351.191-.168.359-.359.52-.557-1.912-.062-3.915-.524-5.36-1.93-2.794-2.709-1.816-7.283-4.044-7.983z" fill="#828282"/>
        <path d="M271.064 268.757l-12.099.459-11.648-.554 3.765-.069 16.488-.294 3.494.458z" fill="#E2E1E1"/>
        <path d="M54.527 330.141h-1.128v-93.704c0-2.483 1.025-4.811 2.886-6.549 1.843-1.72 4.293-2.667 6.897-2.667.133 0 .275.003.412.007l143.371 5.587a8.909 8.909 0 016.257 2.961 8.907 8.907 0 012.275 5.938v80.613h-1.128v-80.613c0-1.91-.707-3.752-1.988-5.189a7.773 7.773 0 00-5.462-2.587l-143.37-5.586a11.46 11.46 0 00-.371-.008c-2.32 0-4.496.841-6.128 2.365-1.632 1.525-2.53 3.558-2.53 5.728v93.704h.007z" fill="#fff"/>
    </g>
    <defs>
        <clipPath id="clip0">
            <path fill="#fff" d="M0 0h356v337H0z"/>
        </clipPath>
    </defs>
</svg>
