<svg width="219" height="231" fill="none" xmlns="http://www.w3.org/2000/svg">
    <g clip-path="url(#clip0)">
        <path d="M161.749 8.781c-6.239-4.967-12.819-6.38-18.721-7.653-22.263-4.798-32.873 6.904-58.44 12.678-38.015 8.585-53.66-8.457-70.182 5.891C3.148 29.477 1.124 45.463.41 51.116-1.83 68.802 5.818 74.998 6.31 96.448c.393 17.145-4.304 21.338-5.824 35.761-3.728 35.396 16.882 62.381 19.18 65.547 6.598 9.083 18.67 25.702 39.202 31.59 22.091 6.334 28.832-6.964 72.547-15.496 41.635-8.126 63.453-1.513 76.743-18.846 6.148-8.017 8.436-18.505 8.945-20.939 3.548-16.934-1.617-30.461-3.348-34.82-7.491-18.862-18.743-19.412-29.5-34.281-24.847-34.342 2.977-75.902-22.507-96.183z" fill="#E2E1E1"/>
        <path d="M131.871 197.646a84.15 84.15 0 001.479 4.195L13.703 218.444c-24.046-56.885 23.244-119.504.025-177.796 4.548-.034 9.067-.061 13.557-.092 37.34-.254 72.64-.492 106.062-.721 18.796 51.782-17.874 106.944-1.476 157.811z" fill="#18A0FB"/>
        <path d="M26.578 213.607l-1.008-2.434c-3.013-7.274-5.04-14.755-6.198-22.875-1.024-7.194-1.335-14.72-.947-23.008.712-15.248 3.736-30.799 6.66-45.839 5.672-29.162 11.538-59.316.455-87.897l-1.872-4.826.576.02 123.518 3.993.772 2.226c2.28 6.577 3.8 13.314 4.648 20.605.75 6.452.949 13.184.612 20.58-.621 13.604-3.014 27.363-5.326 40.672-4.75 27.322-9.233 53.129.044 78.361l1.476 4.01-123.41 16.412zm-.302-2.722l.784 1.892 121.887-16.207-1.146-3.12c-9.35-25.425-4.847-51.329-.081-78.753 2.31-13.284 4.697-27.019 5.315-40.576.335-7.354.135-14.044-.61-20.458-.841-7.232-2.348-13.92-4.611-20.441l-.601-1.732-122.415-3.96 1.456 3.753c11.164 28.785 5.276 59.048-.418 88.317-2.919 15.012-5.94 30.536-6.65 45.728-.384 8.239-.074 15.718.942 22.864 1.147 8.057 3.157 15.477 6.148 22.693z" fill="#fff"/>
        <path d="M145.297 194.368L28.741 209.867c-24.022-57.977 23.006-120.22 0-179.544l116.556 3.767c18.372 53.008-19.098 108.338 0 160.278z" fill="#fff"/>
        <path d="M129.564 61.086l-62.788-.276c-.188-3.167-.51-6.34-.983-9.512 21.84.294 42.79.578 62.901.85.419 2.98.704 5.96.87 8.938z" fill="#555"/>
        <path d="M53.912 77.675c-3.046.036-6.109.07-9.189.105.183-2.782.294-5.562.319-8.341l9.183-.033a147.41 147.41 0 01-.313 8.269zM143.176 72.946c-27.035.21-55.618.428-85.885.663.055-1.405.089-2.812.103-4.217 30.26-.114 58.838-.222 85.87-.321a147.317 147.317 0 01-.088 3.875zM142.724 80.526l-85.97 1.333a166.6 166.6 0 00.327-4.223c30.277-.348 58.871-.68 85.917-.99a163.156 163.156 0 01-.274 3.88z" fill="#E2E1E1"/>
        <path d="M47.568 76.943a.428.428 0 01-.294-.108 371.205 371.205 0 00-2.6-2.365c-.164-.15-.158-.392.016-.547a.464.464 0 01.61-.011c.764.691 1.526 1.38 2.279 2.068a351.883 351.883 0 005.96-6.648.454.454 0 01.595-.067.36.36 0 01.066.54 359.99 359.99 0 01-6.286 6.988.486.486 0 01-.319.15h-.027z" fill="#555"/>
        <path d="M51.42 98.714c-3.06.097-6.137.19-9.233.287.454-2.799.872-5.598 1.24-8.388l9.211-.216c-.362 2.769-.772 5.54-1.218 8.317zM141.434 92.192c-27.135.747-55.823 1.535-86.21 2.37.209-1.413.405-2.826.59-4.24 30.35-.713 59.011-1.385 86.115-2.024a239.223 239.223 0 01-.495 3.894zM140.312 99.82c-27.198.96-55.956 1.975-86.417 3.048.244-1.419.48-2.835.707-4.254l86.305-2.7c-.191 1.3-.39 2.603-.595 3.906z" fill="#E2E1E1"/>
        <path d="M45.125 98.102a.383.383 0 01-.282-.102c-.784-.774-1.57-1.549-2.363-2.326-.15-.146-.113-.393.075-.553.188-.158.462-.169.612-.025.692.678 1.382 1.355 2.069 2.033a772.77 772.77 0 006.727-6.798c.169-.172.437-.208.606-.078.166.128.166.371 0 .542a776.082 776.082 0 01-7.081 7.147.552.552 0 01-.333.158c-.01.002-.022.002-.03.002z" fill="#555"/>
        <path d="M47.573 119.921l-9.3.476c.543-2.824 1.089-5.645 1.62-8.46 3.11-.136 6.201-.269 9.273-.401-.524 2.79-1.058 5.586-1.593 8.385zM138.337 111.572c-27.309 1.288-56.19 2.655-86.782 4.098.272-1.427.54-2.851.806-4.275 30.547-1.322 59.385-2.57 86.655-3.748-.224 1.308-.451 2.616-.679 3.925zM136.994 119.255c-27.386 1.507-56.349 3.1-87.031 4.79.268-1.43.543-2.86.814-4.287l86.904-4.436-.687 3.933z" fill="#E2E1E1"/>
        <path d="M41.256 119.432a.368.368 0 01-.282-.097c-.762-.763-1.523-1.527-2.288-2.29-.144-.144-.1-.393.1-.556.196-.163.473-.18.617-.036l2 2.002c2.376-2.334 4.738-4.657 7.084-6.969.18-.174.451-.216.612-.091.16.124.15.367-.03.544a4327.857 4327.857 0 01-7.442 7.327.603.603 0 01-.34.166h-.03z" fill="#555"/>
        <path d="M43.748 141.278c-3.104.218-6.225.44-9.366.664a412.68 412.68 0 011.44-8.513l9.344-.589a405.226 405.226 0 00-1.418 8.438zM135.039 131.083c-27.497 1.842-56.582 3.792-87.394 5.855.241-1.435.49-2.868.742-4.303 30.771-1.939 59.817-3.77 87.278-5.498a398.364 398.364 0 00-.626 3.946zM133.94 138.802c-27.559 2.061-56.712 4.243-87.6 6.552.203-1.435.416-2.87.64-4.306 30.852-2.185 59.972-4.245 87.5-6.195a233.771 233.771 0 00-.54 3.949z" fill="#E2E1E1"/>
        <path d="M37.36 140.915a.373.373 0 01-.288-.091c-.795-.749-1.585-1.499-2.377-2.248-.146-.141-.11-.39.086-.559.197-.169.474-.191.623-.05l2.072 1.967c2.326-2.387 4.663-4.763 7.004-7.13.177-.18.454-.227.617-.106.164.122.153.368-.025.545a1351.724 1351.724 0 00-7.344 7.495.588.588 0 01-.338.172c-.011.005-.022.005-.03.005z" fill="#555"/>
        <path d="M41.364 162.657l-9.41.852c.16-2.827.393-5.662.69-8.497l9.396-.777c-.291 2.81-.52 5.617-.676 8.422zM132.716 150.645c-27.631 2.398-56.859 4.932-87.829 7.62.114-1.433.246-2.865.396-4.301l87.768-7.263a175.21 175.21 0 00-.335 3.944zM132.328 158.337c-27.653 2.613-56.903 5.379-87.901 8.311.039-1.427.1-2.855.177-4.284 30.987-2.808 60.229-5.454 87.873-7.957a172.64 172.64 0 00-.149 3.93z" fill="#E2E1E1"/>
        <path d="M34.864 162.43a.407.407 0 01-.299-.083 414.94 414.94 0 01-2.62-2.185c-.163-.138-.146-.387.036-.559.183-.171.463-.199.623-.06.757.638 1.518 1.275 2.28 1.913a532.01 532.01 0 016.463-7.24c.167-.183.44-.235.615-.116.172.119.18.362.017.544a512.868 512.868 0 00-6.76 7.606.538.538 0 01-.324.177c-.014 0-.02 0-.03.003z" fill="#555"/>
        <path d="M41.846 183.812c-3.116.343-6.248.688-9.402 1.037-.319-2.777-.527-5.57-.635-8.372 3.155-.324 6.292-.644 9.413-.965.106 2.779.308 5.545.624 8.3zM132.563 170.066l-87.856 9.356c-.106-1.41-.186-2.826-.241-4.242l87.895-9.011c.047 1.3.113 2.6.202 3.897zM133.361 177.63c-27.592 3.153-56.781 6.491-87.707 10.026a101.977 101.977 0 01-.568-4.201l87.799-9.686c.133 1.289.293 2.578.476 3.861z" fill="#E2E1E1"/>
        <path d="M35.213 183.729a.473.473 0 01-.318-.078 400.893 400.893 0 01-3.016-2.091c-.189-.13-.21-.376-.053-.55a.49.49 0 01.623-.075c.867.611 1.742 1.223 2.62 1.831a282.49 282.49 0 015.442-7.263.483.483 0 01.607-.127c.193.114.235.354.094.537a282.189 282.189 0 00-5.675 7.628.476.476 0 01-.299.182c-.003.003-.014.003-.025.006z" fill="#555"/>
        <path d="M206.592 160.132c-.042 2.262-.917 4.134-2.626 5.617l-77.883-36.32 2.625-5.617 77.884 36.32z" fill="#18A0FB"/>
        <path d="M128.708 123.814c.219 2.356-.645 4.234-2.625 5.617l-16.404-10.847c-.185-.133-.049-.42.172-.365l18.857 5.595z" fill="#E2E1E1"/>
        <path d="M109.681 118.58l6.378 4.217a5.425 5.425 0 001.127-2.406l-7.334-2.177c-.221-.055-.354.236-.171.366z" fill="#18A0FB"/>
    </g>
    <defs>
        <clipPath id="clip0">
            <path fill="#fff" d="M0 0h218.323v231H0z"/>
        </clipPath>
    </defs>
</svg>
