<svg width="357" height="217" fill="none" xmlns="http://www.w3.org/2000/svg">
    <path d="M320.634 200.901a31.926 31.926 0 001.567 10.294c.211.64 1.432 2.948 1.686 3.571-3.545.026-29.625-.022-33.443 0-24.391.147-32.166.394-64.716.434-9.127.009-19.141 0-28.666 0-1.653 0-3.144-1.736-4.793-1.736-44.867-.009-84.495 1.945-115.517 1.736-9.131-.063-18.772.071-26.06 0-.89-.009-.01-.421-.868-.434-.705-.459-1.303-1.095-3.627-3.344-5.06-4.9-9.055-9.644-10.866-16.106-3.243-11.565.585-25.014 9.304-32.721 3.69-3.258 8.121-5.541 11.47-9.194 6.592-7.183 7.752-18.299 6.501-28.25-1.245-9.955-4.508-19.558-5.356-29.562-2.429-28.54 17.938-57.23 44.379-62.516 19.164-3.836 39.061 3.386 58.325.16 14.57-2.438 27.625-10.64 40.551-18.205C213.431 7.462 227.21.222 241.957.004c14.746-.218 30.628 8.66 34.432 23.84 3.584 14.302-2.17 25.746 0 40.369 2.468 16.63 22.441 21.839 35.463 31.376 13.027 9.536 19.853 20.688 23.762 41.514 1.303 20.392-3.903 25.759-7.415 35.05-3.502 9.292-7.426 18.736-7.565 28.748z" fill="#E2E1E1"/>
    <path d="M303.399 173.028c-6.084 14.948-16.13 28.121-28.853 37.992a74.244 74.244 0 01-2.199 1.654l-2.324.014c-2.668.019-5.408.029-8.22.048-4.168.024-8.494.043-12.964.063-1.48.004-2.98.014-4.489.019-11.828.052-24.614.096-38.181.134-2.017.005-4.053.01-6.103.019-1.255.005-2.515.005-3.78.01l-5.471.014c.087-.201.182-.398.288-.594.321-.59.718-1.16 1.164-1.707.838-1.031 1.849-1.975 2.822-2.819 13.365-11.596 24.513-31.419 41.798-35.207 21.826-4.789 44.725-4.664 66.512.36z" fill="#DADADA"/>
    <path d="M303.49 177.255c-21.297-4.733-43.624-4.769-64.92-.096h0c-8.336 1.827-15.27 7.539-21.862 14.391-2.387 2.482-4.705 5.085-7.023 7.688-.881.989-1.761 1.977-2.645 2.959-3.199 3.554-6.436 7.005-9.827 9.947l-.655-.755.655.755c-.958.831-1.917 1.731-2.701 2.695l-.001.001a11.64 11.64 0 00-.505.664l3.746-.01s0 0 0 0l1.888-.004h.007l1.884-.005m101.959-38.23l-101.959 38.23m101.959-38.23c-6.056 14.333-15.812 26.965-28.088 36.489l-.003.002c-.63.492-1.267.973-1.911 1.444l-2.002.012h-.001c-1.39.01-2.791.017-4.213.025-1.316.007-2.648.014-4.006.023h-.001l40.225-37.995zm-101.959 38.23s0 0 0 0l.004 1-.003-1h-.001zm-8.14 1.021l.061-.116-.002.002-.059.114zm0 0l-1.106.003 1.106-.003z" fill="#919191" stroke="#fff" stroke-width="2"/>
    <path opacity=".5" d="M292.693 181.037c.038.398-1.174.926-3.383 1.535a59.93 59.93 0 01-1.839.474c-.671.173-1.399.374-2.185.566-1.566.402-3.353.776-5.313 1.299-.982.249-2.007.499-3.08.757-.536.12-1.078.283-1.629.427-.551.149-1.116.297-1.691.451-.575.148-1.154.302-1.748.455-.297.077-.594.149-.896.235-.297.086-.599.173-.901.264-1.212.35-2.462.704-3.741 1.064-5.098 1.52-10.659 3.308-16.413 5.422-5.739 2.148-11.124 4.42-15.977 6.592a412.638 412.638 0 01-4.383 2.023c-.283.134-.556.273-.829.407-.551.269-1.092.532-1.624.796l-1.571.762c-.513.249-1.03.48-1.514.738-.977.504-1.921.983-2.826 1.434-1.826.882-3.426 1.764-4.872 2.478-.719.365-1.404.686-2.022.997-.618.317-1.183.6-1.706.844-2.074.978-3.339 1.371-3.564 1.045-.23-.326.604-1.342 2.319-2.914.431-.394.915-.82 1.451-1.28.542-.451 1.15-.916 1.802-1.415 1.308-.992 2.793-2.138 4.527-3.269.857-.575 1.763-1.175 2.707-1.793.469-.316.967-.604 1.465-.911.503-.302 1.016-.609 1.538-.925a462.27 462.27 0 011.596-.949c.273-.159.541-.326.819-.48l.848-.465c1.14-.623 2.314-1.256 3.521-1.903a152.998 152.998 0 0116.297-7.224 152.168 152.168 0 0117.065-5.154 404.276 404.276 0 014.852-1.055c.312-.062.628-.115.935-.172.618-.11 1.231-.216 1.83-.321.598-.101 1.188-.202 1.767-.302.58-.096 1.145-.202 1.706-.269 1.121-.148 2.194-.283 3.224-.407 2.05-.274 3.923-.374 5.562-.475.819-.043 1.581-.086 2.285-.101.704 0 1.351.005 1.93.024 2.324.067 3.617.298 3.661.695z" fill="#fff"/>
    <path d="M223.319 168.234c18.506-29.612 23.46-67.35 13.222-100.74-11.684 4.708-27.086 12.733-41.764 26.62-37.065 35.054-41.832 81.234-42.733 95.06 11.895-10.11 22.243-13.361 29.702-14.382 6.036-.829 9.165-.062 19.014-1.356 9.725-1.285 19.301.009 22.559-5.202z" fill="#979797"/>
    <path d="M191.12 93.105h.001c14.143-13.382 28.966-21.28 40.437-26.007 9.731 32.853 4.729 69.813-13.43 98.87-1.36 2.175-4.118 3.123-8.127 3.61-1.802.219-3.773.338-5.877.465l-.598.036c-2.316.141-4.77.303-7.239.629-4.88.641-8.087.771-10.834.844l-.883.023c-2.386.059-4.554.112-7.303.49-7.254.993-17.111 4.042-28.399 13.111 1.289-16.041 7.332-59.045 42.252-92.07z" stroke="#fff" stroke-width="2"/>
    <path opacity=".5" d="M230.232 78.985c.379.12.388 1.313.072 3.384a51.37 51.37 0 01-.297 1.716c-.124.624-.282 1.29-.455 2.009-.35 1.433-.752 3.073-1.303 4.847a314.51 314.51 0 01-.857 2.79c-.149.484-.321.973-.494 1.472-.172.498-.35 1.006-.527 1.52-.182.517-.369 1.04-.556 1.572-.095.263-.186.537-.287.805-.105.268-.206.537-.311.81a819.03 819.03 0 01-1.308 3.346 170.88 170.88 0 01-6.755 14.507 172.68 172.68 0 01-8.144 13.773 397.341 397.341 0 01-2.017 2.972c-.163.24-.33.479-.489.714-.162.235-.335.465-.498.695-.33.456-.661.907-.982 1.348l-.953 1.294c-.316.422-.618.844-.934 1.237-.628.8-1.232 1.563-1.816 2.287-1.15 1.457-2.276 2.713-3.258 3.815-.498.547-.958 1.055-1.398 1.511-.446.45-.863.858-1.246 1.212-1.528 1.434-2.52 2.1-2.831 1.856-.312-.245.076-1.381 1.044-3.217.24-.46.517-.959.829-1.505.306-.547.637-1.141 1.001-1.774.724-1.266 1.6-2.666 2.52-4.248.465-.786.958-1.601 1.475-2.449.264-.422.513-.863.777-1.309.263-.446.531-.896.804-1.357.273-.46.556-.925.839-1.4.143-.234.287-.474.431-.714.139-.244.283-.489.421-.733.571-.988 1.16-1.999 1.768-3.035a458.47 458.47 0 007.56-13.663c2.572-4.904 4.905-9.631 6.994-13.96a438.487 438.487 0 011.5-3.173c.124-.259.244-.513.368-.767.115-.254.235-.508.35-.758.23-.503.46-.997.68-1.481.226-.484.451-.963.666-1.428.216-.47.441-.926.642-1.381.407-.906.805-1.779 1.188-2.603.786-1.65 1.447-3.164 2.079-4.478.312-.657.618-1.266.896-1.826.273-.566.527-1.079.772-1.534.943-1.856 1.662-2.82 2.04-2.7z" fill="#fff"/>
    <path d="M256.106 175.846c-11.588 15.144-27.114 27.206-44.552 34.891a109.787 109.787 0 01-5.394 2.214c-3.253.01-6.549.02-9.888.024-16.671.044-34.406.072-52.898.087-8.704.004-17.572.009-26.583.009a7.79 7.79 0 01-.493-2.478c-.077-1.865.436-3.797 1.322-5.461 1.442-2.698 3.741-4.832 6.026-6.869 21.204-18.936 54.661-26.549 72.698-48.525 20.642-25.149 50.411-42.632 82.422-48.404 1.394 26.64-6.458 53.342-22.66 74.512z" fill="#18A0FB"/>
    <path d="M147.269 213.989c-8.47.005-17.094.01-25.854.01a7.076 7.076 0 01-.223-1.518v-.002c-.068-1.661.39-3.417 1.205-4.948 1.347-2.521 3.515-4.547 5.81-6.594l.001-.001c9.263-8.272 20.895-14.364 32.667-20.53 1.556-.815 3.115-1.631 4.671-2.454 13.261-7.013 26.305-14.49 35.466-25.651 20.251-24.672 49.355-41.915 80.705-47.848 1.103 26.034-6.689 52.042-22.509 72.713l.794.608-.794-.608c-11.484 15.007-26.874 26.965-44.162 34.583l-.001.001a109.375 109.375 0 01-5.175 2.13c-3.194.009-6.428.018-9.704.023h-.001c-16.671.043-34.405.072-52.896.086zm0 0l.001 1m-.001-1l.001 1m0 0c18.491-.014 36.226-.043 52.897-.086l-79.974-2.382a7.82 7.82 0 00.494 2.478c9.011 0 17.878-.005 26.583-.01z" stroke="#fff" stroke-width="2"/>
    <path opacity=".5" d="M270.512 112.752c.172.101.081.624-.249 1.53-.168.45-.393 1.002-.676 1.639-.143.321-.297.662-.469 1.026-.173.365-.369.743-.575 1.146-.412.805-.882 1.697-1.409 2.665-.531.964-1.14 1.995-1.791 3.102-.642 1.117-1.389 2.268-2.166 3.504-.771 1.242-1.643 2.512-2.548 3.855-.23.335-.46.676-.69 1.016-.235.34-.484.681-.728 1.026-.494.69-1.001 1.39-1.519 2.109-.512.724-1.068 1.434-1.624 2.167-.56.729-1.121 1.482-1.71 2.229-.599.743-1.202 1.501-1.82 2.268-.312.383-.618.772-.939 1.155-.321.384-.647.767-.978 1.156-.661.771-1.317 1.567-2.007 2.353-.695.782-1.399 1.573-2.113 2.373-.709.806-1.461 1.592-2.208 2.397-.752.801-1.504 1.621-2.3 2.417-.79.8-1.585 1.61-2.39 2.425-.824.796-1.658 1.601-2.496 2.416a195.929 195.929 0 01-10.841 9.579 195.205 195.205 0 01-11.56 8.701c-.963.661-1.921 1.313-2.865 1.96-.962.624-1.911 1.242-2.855 1.856-.939.618-1.892 1.193-2.826 1.769-.939.57-1.854 1.155-2.788 1.682-.93.537-1.845 1.069-2.745 1.597-.911.513-1.816 1.002-2.707 1.495-.446.245-.886.485-1.327.724-.441.235-.886.461-1.322.686l-2.587 1.328c-.853.426-1.701.824-2.53 1.227-.828.393-1.638.801-2.448 1.155-.804.365-1.595.719-2.371 1.065-.388.172-.766.345-1.15.508a145.4 145.4 0 00-1.135.474c-1.495.619-2.913 1.223-4.283 1.726-1.365.513-2.644 1.017-3.866 1.419-1.217.413-2.347.806-3.396 1.132-1.054.316-2.022.599-2.889.843-.436.12-.848.235-1.236.331-.393.096-.757.177-1.097.254-.68.149-1.265.259-1.739.331-.953.144-1.485.125-1.548-.062-.067-.187.336-.542 1.16-1.036a25.25 25.25 0 011.542-.848c.618-.312 1.327-.672 2.127-1.074.8-.403 1.691-.834 2.674-1.299.977-.475 2.031-1.007 3.166-1.554 1.145-.537 2.343-1.165 3.622-1.802 1.288-.623 2.62-1.338 4.033-2.062.355-.182.71-.364 1.069-.551.359-.187.718-.388 1.087-.58.733-.393 1.481-.791 2.242-1.203.767-.398 1.528-.844 2.314-1.28.786-.441 1.586-.877 2.395-1.342l2.453-1.429c.417-.245.839-.479 1.255-.734.417-.254.839-.508 1.26-.767.848-.517 1.711-1.03 2.578-1.562a983.19 983.19 0 002.62-1.654c.891-.547 1.768-1.141 2.664-1.726.891-.59 1.806-1.17 2.702-1.798.9-.618 1.815-1.241 2.735-1.869l2.755-1.961a247.793 247.793 0 0011.171-8.553 243.938 243.938 0 0010.621-9.233c.834-.776 1.658-1.543 2.472-2.306.8-.776 1.595-1.543 2.381-2.306.795-.752 1.547-1.529 2.304-2.286.752-.762 1.509-1.501 2.228-2.263.723-.753 1.437-1.5 2.146-2.234.699-.743 1.375-1.486 2.05-2.21.336-.364.671-.724 1.006-1.083.331-.36.647-.724.968-1.084.642-.719 1.274-1.424 1.892-2.119.614-.7 1.203-1.4 1.792-2.08.585-.686 1.174-1.343 1.72-2.014.556-.666 1.097-1.318 1.629-1.956.263-.321.531-.633.79-.949.254-.316.508-.628.752-.94.992-1.236 1.96-2.401 2.831-3.537.877-1.132 1.735-2.177 2.492-3.188.766-1.007 1.494-1.932 2.155-2.795.652-.868 1.256-1.654 1.811-2.359.556-.705 1.049-1.328 1.481-1.87.435-.537.814-.987 1.14-1.342.632-.695 1.058-1.016 1.231-.916z" fill="#fff"/>
    <path d="M356.462 213.224c0 .144-2.342.278-6.73.408-1.418.043-3.057.086-4.892.124-.364.01-.737.015-1.121.024-.838.019-1.715.034-2.63.053l-3.133.058-.92.014c-.186.005-.378.005-.57.01-.464.004-.934.014-1.413.019l-.838.014c-.484.005-.973.014-1.471.024-.498.005-1.001.014-1.514.019-1.169.015-2.371.034-3.612.048-2.414.029-4.963.063-7.641.091-3.703.043-7.65.077-11.818.12-2.032.019-4.115.034-6.252.053-3.483.029-7.105.057-10.851.081-23.972.168-53.151.278-85.143.322-8.968.009-18.161.014-27.522.014h-4.863c-44.097-.01-84.2-.153-114.682-.388-8.977-.067-17.117-.144-24.279-.226-.876-.009-1.734-.024-2.577-.033l-1.332-.015c-.575-.004-1.14-.014-1.696-.019l-.996-.014c-1.49-.019-2.932-.043-4.316-.063-1.035-.014-2.041-.028-3.018-.043-.81-.009-1.59-.028-2.357-.038-.45-.01-.891-.014-1.323-.024l-.9-.014-2.089-.044c-.532-.009-1.054-.023-1.557-.033l-1.26-.029c-.053 0-.105 0-.153-.005h-.072c-6.87-.158-10.611-.326-10.611-.508 0-.172 3.43-.335 9.753-.489l.149-.005h.014c.772-.019 1.581-.033 2.439-.052.282-.005.57-.015.862-.019.407-.01.82-.02 1.24-.024.403-.01.81-.015 1.227-.024l1.505-.029c.819-.015 1.667-.029 2.543-.043.978-.015 1.988-.034 3.033-.048 1.24-.019 2.53-.034 3.861-.053l1.998-.029h.033c.326-.005.652-.009.982-.009.934-.015 1.888-.024 2.86-.039 7.656-.091 16.485-.177 26.315-.249 30.253-.23 69.914-.369 113.542-.383h5.715c9.136 0 18.114.004 26.88.019 32.39.043 61.919.153 86.116.321l9.845.072c2.663.024 5.25.043 7.756.067 3.823.033 7.454.072 10.875.11 2.472.029 4.828.053 7.08.086 1.375.015 2.707.034 3.995.053l2.913.043h.01c.349.01.699.015 1.044.02l1.044.014c.556.009 1.097.019 1.634.024l.786.014c1.24.019 2.419.043 3.54.067l2.074.044c.388.009.767.014 1.131.023 1.768.039 3.339.082 4.709.12 4.331.12 6.649.259 6.649.398zM226.065 101.085l-10.204-.624-2.29-.139-38.268-2.325-1.437-.086-33.664-2.042-28.346-1.721-3.463-12.718c-1.634-5.993-7.105-10.178-13.318-10.178h-9.447a1.295 1.295 0 000 2.589h9.447c5.045 0 9.49 3.399 10.817 8.27l24.681 90.634c-3.712 2.119-16.891 10.551-13.773 21.86l.264.954h100.521c.719 0 1.294-.58 1.294-1.294 0-.719-.58-1.295-1.294-1.295h-98.499c-1.696-9.612 11.305-17.167 13.337-18.279h59.355a1.295 1.295 0 000-2.589h-58.694l-1.706-6.261h88.923l5.764-28.749 3.937-19.641 3.196-15.93-7.133-.436zm-14.19 1.73l-4.638 31.372-16.791-.436 3.124-32.048 18.305 1.112zm-7.799 52.825l-1.126 7.608h-15.373l.742-7.608.546-5.619 1.308-13.394 16.648.431-1.917 12.963-.828 5.619zm-19.393 7.608H167.6l-.503-21.578-.129-5.647 6.893.177 1.437.039 10.636.278 1.351.033-1.313 13.471-.034.365-.512 5.254-.743 7.608zm-40.279-27.81l8.35.216 11.334.292.135 5.719.503 21.578h-15.843l-3.473-21.578-1.006-6.227zm29.457-34.933l1.437.086 15.402.935-3.138 32.148-1.628-.043-10.636-.273-1.437-.039-6.96-.182-.326-14.027-.441-19.075 7.727.47zm-33.663-2.043l23.052 1.4.446 19.253.258 11.131.067 2.819-11.267-.292-8.82-.226-.369-2.301-3.367-20.93-1.763-10.964 1.763.11zm-27.623-1.678l22.918 1.39 4.709 29.253.456 2.819.354 2.225-.81-.02-9.557-.249-8.484-.22-9.586-35.198zm11.565 42.47l-1.193-4.372 7.698.197 9.557.249 1.28.033 1.015 6.304 3.469 21.578h-15.292l-.029-.105-6.505-23.884zm94.791 20.245l-.752 3.749h-12.326l1.126-7.608.833-5.619 1.907-12.886 3.852.096 9.772.254-4.412 22.014zm8.427-42.053l-1.293 6.463-2.147 10.714-10.347-.268-3.43-.091 3.43-23.208 1.192-8.063 1.098.067 10.204.618 4.004.24-2.711 13.528z" fill="#555"/>
    <path d="M130.52 210.668c4.45 0 8.058-3.61 8.058-8.064 0-4.453-3.608-8.063-8.058-8.063-4.45 0-8.058 3.61-8.058 8.063 0 4.454 3.608 8.064 8.058 8.064z" fill="#555"/>
    <path d="M134.045 203.395a3.616 3.616 0 10-7.061-1.572 3.617 3.617 0 107.061 1.572z" fill="#fff"/>
    <path d="M203.395 210.668c4.45 0 8.057-3.61 8.057-8.064 0-4.453-3.607-8.063-8.057-8.063s-8.058 3.61-8.058 8.063c0 4.454 3.608 8.064 8.058 8.064z" fill="#555"/>
    <path d="M205.951 205.167a3.62 3.62 0 000-5.119 3.616 3.616 0 00-5.115 0 3.623 3.623 0 000 5.119 3.616 3.616 0 005.115 0z" fill="#fff"/>
    <path d="M90.926 75.868l-15.565.781a3.144 3.144 0 01-.316-6.28l15.564-.781a3.144 3.144 0 01.317 6.28z" fill="#18A0FB"/>
</svg>
