<svg width="277" height="52" fill="none" xmlns="http://www.w3.org/2000/svg">
    <g clip-path="url(#clip0)" fill="#00A4B5">
        <path d="M270.872 6.275l1.508 2.22h1.386l-1.632-2.22c.477 0 .878-.185 1.185-.57.308-.386.462-.818.462-1.327 0-.477-.123-.863-.385-1.187-.384-.478-1-.724-1.893-.724h-1.771v6.028h1.14v-2.22zm-.016-2.73h.662c.431.001.739.109.924.31.138.153.2.354.2.585a.86.86 0 01-.215.586c-.185.2-.478.293-.909.293h-.662V3.546z"/>
        <path d="M271.549 10.9c1.494 0 2.787-.525 3.849-1.588 1.062-1.064 1.601-2.36 1.601-3.87 0-1.495-.539-2.775-1.601-3.854C274.336.524 273.043 0 271.549 0c-1.524 0-2.801.524-3.864 1.588-1.062 1.064-1.585 2.343-1.585 3.854 0 1.51.538 2.806 1.601 3.87 1.047 1.063 2.34 1.588 3.848 1.588zm-3.14-8.572c.862-.863 1.924-1.295 3.14-1.295 1.217 0 2.263.432 3.126 1.295.862.863 1.308 1.912 1.308 3.13 0 1.248-.431 2.297-1.308 3.16-.863.863-1.909 1.28-3.126 1.28-1.247 0-2.293-.432-3.156-1.296-.862-.863-1.293-1.911-1.293-3.145 0-1.233.431-2.266 1.309-3.13zM33.422 2.374v38.85h-5.434V7.199H5.48v34.025H0V2.374h33.422zM65.12 13.428a13.714 13.714 0 015.295 5.272c1.278 2.25 1.91 4.872 1.91 7.832s-.632 5.58-1.91 7.847c-1.277 2.281-3.032 4.039-5.295 5.303-2.248 1.264-4.804 1.88-7.652 1.88-2.109 0-4.033-.4-5.788-1.217a12.175 12.175 0 01-4.465-3.546v15.2H41.89V11.81h5.095v4.656a11.23 11.23 0 014.496-3.685c1.816-.832 3.802-1.249 5.988-1.249 2.848 0 5.404.632 7.652 1.896zm-3.018 22.168c1.494-.863 2.679-2.096 3.541-3.669.862-1.572 1.308-3.376 1.308-5.41 0-2.036-.43-3.84-1.308-5.412a9.25 9.25 0 00-3.54-3.638c-1.494-.848-3.188-1.28-5.066-1.28-1.847 0-3.525.432-5.018 1.31-1.494.864-2.68 2.082-3.541 3.639-.862 1.557-1.309 3.345-1.309 5.38 0 2.035.431 3.839 1.278 5.411a9.225 9.225 0 003.54 3.67c1.51.878 3.203 1.31 5.05 1.31 1.878-.015 3.572-.447 5.065-1.31zM106.471 28.29H82.639c.339 2.59 1.463 4.67 3.403 6.243 1.94 1.572 4.356 2.359 7.235 2.359 3.51 0 6.343-1.187 8.483-3.546l2.94 3.438c-1.324 1.557-2.986 2.744-4.957 3.546-1.97.817-4.187 1.218-6.62 1.218-3.11 0-5.85-.633-8.251-1.912-2.402-1.28-4.265-3.068-5.573-5.35-1.309-2.297-1.97-4.887-1.97-7.77 0-2.852.63-5.426 1.908-7.708 1.278-2.297 3.033-4.085 5.265-5.35 2.232-1.279 4.757-1.911 7.559-1.911 2.802 0 5.311.632 7.513 1.912 2.201 1.28 3.91 3.067 5.157 5.35 1.232 2.296 1.863 4.917 1.863 7.877-.016.4-.046.94-.123 1.603zM85.657 18.36c-1.724 1.557-2.725 3.592-3.018 6.105h18.844c-.293-2.482-1.309-4.502-3.018-6.074-1.724-1.573-3.848-2.359-6.404-2.359s-4.68.77-6.404 2.328zM140.555 33.13c0 2.59-.97 4.594-2.91 5.997-1.939 1.403-4.834 2.112-8.682 2.112H114.83v-29.43h13.64c3.479 0 6.189.663 8.144 1.973s2.94 3.176 2.94 5.58c0 1.558-.415 2.899-1.247 4.024-.831 1.126-1.986 1.99-3.464 2.575 3.803.971 5.712 3.345 5.712 7.169zm-20.506-8.664h7.974c2.033 0 3.572-.37 4.634-1.11 1.047-.74 1.586-1.82 1.586-3.223 0-2.805-2.063-4.224-6.204-4.224h-7.975v8.557h-.015zm13.517 11.593c1.108-.71 1.662-1.788 1.662-3.268 0-1.511-.508-2.652-1.524-3.392-1.016-.74-2.617-1.11-4.788-1.11h-8.867v8.818h8.529c2.217.016 3.879-.339 4.988-1.048zM152.225 39.62c-2.325-1.295-4.157-3.083-5.465-5.35-1.309-2.28-1.971-4.855-1.971-7.738s.662-5.473 1.971-7.74c1.308-2.281 3.125-4.054 5.465-5.334 2.324-1.279 4.957-1.911 7.867-1.911 2.909 0 5.526.632 7.836 1.912 2.309 1.28 4.125 3.052 5.434 5.334 1.308 2.281 1.97 4.856 1.97 7.739s-.662 5.473-1.97 7.739c-1.309 2.282-3.125 4.054-5.434 5.35-2.31 1.294-4.927 1.942-7.836 1.942-2.91 0-5.543-.648-7.867-1.943zm12.931-4.023c1.494-.864 2.664-2.097 3.526-3.67.847-1.572 1.278-3.376 1.278-5.41 0-2.036-.431-3.84-1.278-5.412s-2.017-2.775-3.526-3.638c-1.493-.848-3.186-1.28-5.064-1.28-1.879 0-3.572.432-5.065 1.28-1.494.848-2.679 2.066-3.541 3.638-.862 1.573-1.309 3.376-1.309 5.411 0 2.035.431 3.84 1.309 5.412.862 1.572 2.047 2.79 3.541 3.669 1.493.863 3.186 1.31 5.065 1.31 1.878-.015 3.571-.447 5.064-1.31zM215.544 11.809v29.414h-4.818V19.748l-10.977 18.145h-2.324l-10.869-18.207v21.537h-4.88V11.81h5.48l11.531 19.871 11.87-19.871h4.987zM228.522 11.809h-5.327v29.414h5.327V11.81zM262.128 16.48h-10.745v24.759h-5.327v-24.76h-10.745v-4.67h26.817v4.67z"/>
    </g>
    <defs>
        <clipPath id="clip0">
            <path fill="#fff" d="M0 0h277v52H0z"/>
        </clipPath>
    </defs>
</svg>
