<svg width="165" height="30" fill="none" xmlns="http://www.w3.org/2000/svg">
    <g clip-path="url(#clip0)" fill="#555">
        <path d="M161.35 3.62l.899 1.28h.825l-.972-1.28a.876.876 0 00.707-.33c.183-.222.275-.47.275-.764a1.02 1.02 0 00-.23-.685c-.229-.276-.596-.418-1.128-.418h-1.054V4.9h.678V3.62zm-.009-1.575h.395c.256 0 .44.063.55.178a.481.481 0 01.119.338.488.488 0 01-.128.338c-.11.116-.285.17-.541.17h-.395V2.044z"/>
        <path d="M161.754 6.288c.89 0 1.66-.302 2.293-.916.632-.614.953-1.36.953-2.232 0-.863-.321-1.601-.953-2.224-.633-.614-1.403-.916-2.293-.916-.908 0-1.669.302-2.302.916-.632.614-.944 1.352-.944 2.224 0 .871.321 1.618.954 2.232.623.614 1.393.916 2.292.916zm-1.871-4.945a2.605 2.605 0 011.871-.747c.725 0 1.348.249 1.862.747.513.498.779 1.103.779 1.806 0 .72-.257 1.325-.779 1.823-.514.498-1.137.738-1.862.738-.743 0-1.366-.249-1.88-.747a2.435 2.435 0 01-.77-1.814c0-.712.257-1.308.779-1.806zM19.909 1.37v22.413h-3.237V4.154H3.265v19.63H0V1.37h19.909zM38.791 7.747a8.047 8.047 0 013.155 3.042c.76 1.299 1.137 2.81 1.137 4.518 0 1.708-.376 3.22-1.137 4.527a7.913 7.913 0 01-3.155 3.06c-1.339.73-2.861 1.085-4.558 1.085-1.256 0-2.402-.231-3.448-.703a7.22 7.22 0 01-2.659-2.045V30h-3.173V6.813h3.035V9.5a6.649 6.649 0 012.678-2.125c1.082-.48 2.265-.72 3.567-.72 1.697 0 3.22.364 4.558 1.093zm-1.797 12.79a5.465 5.465 0 002.109-2.117c.513-.907.78-1.948.78-3.122s-.258-2.214-.78-3.121a5.419 5.419 0 00-2.11-2.1c-.889-.489-1.898-.738-3.016-.738-1.1 0-2.1.25-2.99.756a5.48 5.48 0 00-2.109 2.1c-.514.898-.78 1.93-.78 3.103 0 1.175.257 2.215.762 3.122a5.404 5.404 0 002.109 2.117c.898.507 1.907.756 3.008.756 1.118-.009 2.127-.258 3.017-.756zM63.422 16.321H49.226c.202 1.494.871 2.695 2.027 3.602 1.155.908 2.595 1.361 4.31 1.361 2.09 0 3.778-.685 5.053-2.046l1.751 1.984c-.788.898-1.779 1.583-2.953 2.045-1.173.472-2.494.703-3.943.703-1.852 0-3.484-.364-4.915-1.103-1.43-.738-2.54-1.77-3.32-3.086-.78-1.325-1.173-2.82-1.173-4.483 0-1.645.375-3.13 1.137-4.447a7.99 7.99 0 013.136-3.086c1.33-.738 2.833-1.103 4.502-1.103 1.67 0 3.164.365 4.475 1.103a7.948 7.948 0 013.072 3.086c.734 1.325 1.11 2.837 1.11 4.545-.01.231-.027.543-.073.925zm-12.398-5.728c-1.028.899-1.623 2.073-1.798 3.522h11.225c-.175-1.431-.78-2.597-1.798-3.504-1.027-.907-2.292-1.36-3.815-1.36-1.522 0-2.787.444-3.814 1.342zM83.724 19.114c0 1.494-.578 2.65-1.733 3.46-1.156.81-2.88 1.218-5.172 1.218H68.4V6.813h8.125c2.073 0 3.687.383 4.851 1.139 1.165.756 1.752 1.832 1.752 3.22 0 .898-.248 1.672-.743 2.321-.495.65-1.183 1.147-2.063 1.485 2.265.56 3.402 1.93 3.402 4.136zm-12.215-4.998h4.75c1.21 0 2.128-.214 2.76-.64.624-.428.945-1.05.945-1.86 0-1.618-1.229-2.437-3.695-2.437h-4.75v4.937h-.01zm8.052 6.688c.66-.41.99-1.032.99-1.886 0-.871-.303-1.53-.908-1.956-.605-.427-1.559-.64-2.852-.64H71.51v5.087h5.08c1.32.009 2.311-.196 2.972-.605zM90.675 22.858c-1.384-.747-2.476-1.779-3.255-3.086-.78-1.316-1.174-2.802-1.174-4.465 0-1.663.394-3.157 1.174-4.465.78-1.316 1.861-2.339 3.255-3.077 1.385-.738 2.953-1.103 4.686-1.103s3.292.365 4.668 1.103c1.375.738 2.458 1.761 3.237 3.077.78 1.317 1.174 2.802 1.174 4.465 0 1.663-.394 3.158-1.174 4.465-.779 1.316-1.862 2.34-3.237 3.086-1.376.747-2.934 1.121-4.668 1.121-1.733 0-3.301-.373-4.686-1.12zm7.703-2.321c.89-.498 1.587-1.21 2.1-2.117.505-.907.761-1.948.761-3.122s-.256-2.214-.761-3.121a5.276 5.276 0 00-2.1-2.1c-.89-.489-1.898-.738-3.017-.738-1.118 0-2.127.25-3.017.739a5.361 5.361 0 00-2.109 2.099c-.513.907-.78 1.947-.78 3.121s.257 2.215.78 3.122a5.527 5.527 0 002.11 2.117c.889.498 1.898.756 3.016.756 1.12-.009 2.128-.258 3.017-.756zM128.393 6.813v16.97h-2.87V11.394l-6.538 10.468H117.6l-6.474-10.504v12.425h-2.907V6.814h3.264l6.869 11.465 7.07-11.465h2.971zM136.122 6.813h-3.173v16.97h3.173V6.813zM156.143 9.508h-6.401v14.284h-3.173V9.508h-6.401V6.813h15.975v2.695z"/>
    </g>
    <defs>
        <clipPath id="clip0">
            <path fill="#fff" d="M0 0h165v30H0z"/>
        </clipPath>
    </defs>
</svg>
