<svg width="346" height="282" fill="none" xmlns="http://www.w3.org/2000/svg">
    <path d="M337.021 231.68c1.544 0 3.025.404 4.443 1.146 1.418.776 2.529 1.893 3.333 3.347a9.117 9.117 0 011.203 4.528c0 1.58-.399 3.069-1.173 4.493-.804 1.425-1.882 2.513-3.333 3.318-1.418.805-2.9 1.21-4.473 1.21-1.545 0-3.055-.405-4.474-1.21-1.418-.805-2.529-1.893-3.303-3.318a8.958 8.958 0 01-1.174-4.493c0-1.581.4-3.099 1.204-4.528.803-1.458 1.914-2.571 3.333-3.347 1.422-.742 2.869-1.146 4.414-1.146zm.029 1.766c-1.233 0-2.407.312-3.547.931-1.141.62-2.037 1.518-2.685 2.698-.648 1.147-.989 2.357-.989 3.629 0 1.273.308 2.479.956 3.63.648 1.15 1.51 2.044 2.655 2.697 1.14.65 2.344.961 3.581.961 1.266 0 2.436-.311 3.58-.961a6.754 6.754 0 002.655-2.697 7.243 7.243 0 00.956-3.63 6.965 6.965 0 00-.989-3.629c-.648-1.18-1.544-2.044-2.685-2.698a6.937 6.937 0 00-3.488-.931zm-4.073 12.094v-9.582h1.914c1.822 0 2.841 0 3.055.03.619.03 1.141.185 1.482.371.37.215.648.497.896.931.248.405.34.869.34 1.366 0 .683-.214 1.273-.677 1.766-.463.498-1.082.806-1.881.898.307.123.525.249.677.371.156.123.371.372.648.746.063.093.308.498.711 1.177l1.111 1.922h-2.407l-.77-1.551c-.556-1.054-.989-1.707-1.326-1.952-.37-.278-.803-.405-1.325-.405h-.526v3.938h-1.915v-.026h-.007zm1.914-5.459h.804c1.111 0 1.822-.03 2.066-.122a1.27 1.27 0 00.648-.464 1.23 1.23 0 00.248-.713c0-.278-.092-.497-.248-.712a1.073 1.073 0 00-.648-.434c-.278-.093-.989-.123-2.066-.123h-.804v2.568z" fill="#000"/>
    <path d="M21.478 281.999c-2.13 0-3.733-1.611-3.733-3.752v-2.327C7.499 273.968 0 265.04 0 254.375c0-5.61 2.192-11.036 6.11-15.314l.063-.063c3.918-3.938 9.506-6.201 15.305-6.201 5.924 0 11.23 2.137 15.334 6.201l.063.063c4.103 4.434 6.358 9.859 6.358 15.314 0 5.737-2.285 11.192-6.388 15.411-3.147 3.099-7.22 5.24-11.635 6.108v2.357c0 2.293-1.481 3.748-3.732 3.748zm0-22.447c2.129 0 3.732 1.61 3.732 3.752v4.805c2.315-.59 4.444-1.8 6.173-3.503 2.714-2.698 4.137-6.23 4.137-10.201 0-3.752-1.452-7.284-4.137-9.952l-.063-.064c-2.377-2.541-6.047-4.093-9.842-4.093-3.674 0-7.192 1.459-9.906 4.157-2.622 2.697-4.103 6.23-4.103 9.922 0 6.542 4.258 12.031 10.276 13.641v-4.742c-.004-1.956 1.726-3.722 3.733-3.722zM64.614 276.231c-9.042 0-16.137-7.039-16.137-15.967v-12.402c0-2.015 1.759-3.815 3.795-3.815 2.159 0 4.01 1.737 4.01 3.815v12.402c0 4.683 3.674 8.371 8.332 8.371 4.692 0 8.332-3.688 8.332-8.371l.215-12.68c0-2.108 1.637-3.752 3.796-3.752 2.036 0 3.795 1.737 3.795 3.781v12.651c0 8.961-7.095 15.967-16.138 15.967zM112.998 276.636c-1.544 0-3.177-1.084-3.703-2.821-2.563 1.644-5.525 2.542-8.58 2.542-9.102 0-16.23-7.162-16.23-16.309 0-8.806 7.283-15.997 16.23-15.997 8.917 0 16.201 7.162 16.201 15.997v12.558c-.03 2.323-1.667 4.03-3.918 4.03zm-12.28-25.052c-4.691 0-8.394 3.722-8.394 8.434 0 4.836 3.766 8.777 8.394 8.777 4.352 0 8.118-3.596 8.395-8.031v-.712c-.003-4.654-3.769-8.468-8.395-8.468zM138.3 276.296c-8.58 0-15.863-7.285-15.863-15.938v-23.627c0-2.201 1.696-3.815 4.01-3.815 2.1 0 3.733 1.674 3.733 3.815v7.381h8.609c2.192 0 3.796 1.707 3.796 4.03 0 2.141-1.637 3.751-3.796 3.751h-8.609v8.713c0 4.435 3.736 8.153 8.117 8.153 2.221 0 4.01 1.707 4.01 3.815.004 2.048-1.814 3.722-4.007 3.722zM152.031 276.358c-2.221 0-4.073-1.767-4.073-3.874v-24.681c0-2.045 1.852-3.815 4.073-3.815 1.545 0 2.992 1.117 3.548 2.576 2.562-1.644 5.584-2.576 8.854-2.576 2.129 0 4.103.371 6.017 1.147l1.73.59.862.434.463.342c.648.404 1.667 1.302 1.667 3.287 0 .405 0 1.24-.648 2.138-.771 1.054-1.974 1.707-3.241 1.707a3.78 3.78 0 01-2.007-.557l-.711-.404-.185-.186-.526-.249c-1.325-.434-2.284-.619-3.362-.619-4.814 0-8.61 3.844-8.61 8.713v12.186c-.085 1.978-1.873 3.841-3.851 3.841zM192.361 276.324c-3.733 0-7.251-1.273-10.15-3.659-3.118-2.542-5.155-6.293-5.74-10.542v-.156c-.278-4.557 1.048-8.713 3.703-11.752 2.529-3.347 6.325-5.362 10.646-5.704 4.073-.527 8.021.62 11.602 3.411l.214.185.341.341c.678.65 1.359 1.333 1.944 2.142l.122.215c.215.341.678 1.024.678 2.137 0 .961-.555 1.952-.863 2.357l-.155.185-.185.156c-.123.093-9.999 8.435-14.872 12.587a8.72 8.72 0 002.685.434c2.47 0 4.814-1.054 6.417-2.913a3.52 3.52 0 012.9-1.488c.803 0 1.603.249 2.344.713l.277.215c1.359 1.21 1.73 3.473.771 5.054l-.093.186-.155.156c-3.174 3.666-7.71 5.74-12.431 5.74zm-.123-24.306c-.277 0-.585 0-.862.03-2.008.156-4.103 1.332-5.433 3.039l-.092.093c-1.267 1.458-1.852 3.069-1.852 5.117 0 .776.122 1.551.37 2.356a539.36 539.36 0 018.61-7.284c1.111-.931 2.129-1.8 2.992-2.512-1.048-.56-2.314-.839-3.733-.839zM214.024 276.233c-1.759 0-3.888-1.674-3.888-3.752v-23.964c0-8.465 7.313-15.597 15.956-15.597 1.915 0 3.733 1.829 3.733 3.752 0 1.985-1.789 3.814-3.733 3.814-3.025 0-5.554 1.396-6.913 3.629h6.417c2.129 0 3.796 1.737 3.796 3.967 0 2.078-1.696 3.815-3.796 3.815h-7.776v20.617c-.03 2.045-1.73 3.719-3.796 3.719zM246.917 276.359c-9.039 0-16.415-7.381-16.415-16.432 0-8.928 7.376-16.216 16.415-16.216 4.507 0 8.484 1.644 11.539 4.713l.063.063c3.055 3.347 4.692 7.284 4.692 11.411-.004 9.08-7.314 16.461-16.294 16.461zm0-25.022c-4.721 0-8.546 3.874-8.546 8.587 0 4.961 3.766 8.805 8.546 8.805 4.722 0 8.732-4.03 8.732-8.805 0-2.045-.988-4.309-2.622-5.89l-.122-.155c-1.451-1.644-3.551-2.542-5.988-2.542zM271.88 276.139c-2.159 0-3.825-1.644-3.825-3.752v-35.779c0-2.264 1.544-3.815 3.825-3.815 2.192 0 3.825 1.644 3.825 3.815v35.779c0 1.986-1.788 3.752-3.825 3.752zM285.982 276.45c-2.192 0-3.888-1.707-3.888-3.844v-25.081c0-2.294 1.603-3.908 3.888-3.908a3.857 3.857 0 013.796 3.908v25.081c-.03 2.015-1.822 3.844-3.796 3.844zM310.392 276.295c-8.858 0-16.079-7.225-16.079-16.154 0-8.898 7.221-16.153 16.079-16.153 5.184 0 9.965 2.479 12.805 6.635.585.713.896 1.611.863 2.572a3.668 3.668 0 01-1.418 2.668l-.123.093a4.37 4.37 0 01-2.377.712c-1.296 0-2.407-.59-3.085-1.61-1.544-2.141-4.073-3.503-6.635-3.503-4.629 0-8.551 3.937-8.551 8.62 0 4.59 3.859 8.308 8.551 8.308 3.303 0 5.925-1.58 7.25-4.341l.122-.249a3.892 3.892 0 013.303-1.829c.678 0 1.326.185 1.882.497a3.36 3.36 0 011.759 1.922c.399 1.054.248 2.234-.341 3.225-2.929 5.392-8.173 8.587-14.005 8.587z" fill="#AD7C59"/>
    <path d="M244.652 168.326s-13.971 45.161-46.288 12.691c0 0-29.776-30.273-15.663-74.583l61.951 61.892z" fill="#309B42"/>
    <path d="M244.511 168.541L182.7 106.433c44.1-14.25 74.372 15.596 74.372 15.596 32.316 32.474-12.561 46.512-12.561 46.512z" fill="#43B02A"/>
    <path d="M255.872 70.771s-30.128 29.917-74.227 15.738l61.666-62.245s44.947 14.038 12.561 46.507z" fill="#309B42"/>
    <path d="M243.452 24.405l-61.811 62.108c-14.112-44.31 15.523-74.725 15.523-74.725 32.32-32.543 46.288 12.617 46.288 12.617z" fill="#046A38"/>
    <path d="M165.907 106.789l-61.666 62.245s-44.948-14.038-12.561-46.578c0 0 30.128-29.916 74.227-15.667z" fill="#309B42"/>
    <path d="M150.454 181.514c-32.387 32.469-46.358-12.691-46.358-12.691l61.811-62.034c14.182 44.237-15.453 74.725-15.453 74.725z" fill="#046A38"/>
    <path d="M101.345 24.546s13.971-45.16 46.288-12.69c0 0 29.776 30.272 15.663 74.583l-61.951-61.893z" fill="#43B02A"/>
    <path d="M101.485 24.334l61.811 62.104c-44.099 14.25-74.371-15.596-74.371-15.596-32.313-32.47 12.56-46.508 12.56-46.508z" fill="#309B42"/>
</svg>
