<svg width="179" height="26" fill="none" xmlns="http://www.w3.org/2000/svg">
    <g clip-path="url(#clip0)">
        <path d="M141.392 19.871c-.835.68-2.005 1.045-3.526 1.097v.955h-1.2v-.955c-1.52-.06-2.698-.433-3.533-1.104-.835-.672-1.252-1.612-1.252-2.798 0-1.194.417-2.127 1.252-2.806.835-.68 2.013-1.045 3.533-1.104v-.918h1.2v.918c1.513.06 2.683.432 3.518 1.111.835.68 1.252 1.62 1.252 2.799 0 1.194-.41 2.126-1.244 2.805zm-7.342-.753c.611.492 1.483.776 2.616.843v-5.798c-1.148.067-2.027.35-2.631.836-.604.492-.909 1.179-.909 2.06.007.88.313 1.566.924 2.059zm6.447 0c.604-.493.91-1.187.91-2.067 0-.866-.306-1.545-.917-2.045-.611-.492-1.483-.776-2.616-.843v5.798c1.14-.067 2.02-.35 2.623-.843zM161.8 13.402c.671.56 1.006 1.328 1.006 2.306 0 .977-.335 1.746-1.006 2.305-.671.56-1.588.836-2.751.836h-2.228v2.731h-1.29v-9.014h3.511c1.17 0 2.087.284 2.758.836zm-.925 3.813c.433-.35.642-.85.642-1.5s-.217-1.15-.642-1.5c-.432-.35-1.05-.522-1.863-.522h-2.184v4.044h2.184c.813-.007 1.431-.179 1.863-.522zM170.498 13.685h-3.086v7.895h-1.259v-7.895h-3.079v-1.119h7.424v1.12zM178.607 20.468v1.12h-6.537v-9.022h6.358v1.12h-5.068v2.768h4.517v1.097h-4.517v2.91h5.247v.007z" fill="#000"/>
        <path d="M5.55 20.32c-1.708-.941-3.05-2.24-4.018-3.889-.97-1.649-1.454-3.5-1.454-5.566 0-2.06.485-3.918 1.454-5.567.969-1.65 2.31-2.947 4.032-3.888C7.286.47 9.201 0 11.326 0c1.654 0 3.175.276 4.546.836a9.389 9.389 0 013.518 2.47l-1.967 1.917c-1.595-1.679-3.585-2.522-5.97-2.522-1.573 0-3.004.351-4.272 1.06-1.267.709-2.28 1.686-2.996 2.932-.715 1.247-1.073 2.635-1.073 4.172s.358 2.932 1.073 4.171a7.687 7.687 0 002.989 2.932c1.275.71 2.698 1.06 4.27 1.06 2.364 0 4.354-.85 5.971-2.552l1.968 1.91a9.36 9.36 0 01-3.533 2.485c-1.386.567-2.907.85-4.562.85-2.116.008-4.032-.462-5.739-1.402zM36.885 14.417H23.848c.18 1.417.805 2.552 1.864 3.417 1.058.858 2.377 1.291 3.958 1.291 1.923 0 3.465-.649 4.636-1.94l1.61 1.88a7 7 0 01-2.713 1.94c-1.081.448-2.289.672-3.623.672-1.7 0-3.205-.35-4.517-1.044-1.312-.702-2.333-1.672-3.048-2.933-.716-1.254-1.074-2.671-1.074-4.246 0-1.56.35-2.962 1.044-4.216.7-1.254 1.655-2.231 2.877-2.933 1.222-.694 2.601-1.044 4.137-1.044 1.535 0 2.907.35 4.107 1.044a7.358 7.358 0 012.817 2.933c.678 1.254 1.014 2.694 1.014 4.313.007.209-.015.5-.052.866zM25.503 8.984c-.94.851-1.49 1.963-1.655 3.336h10.309c-.164-1.358-.716-2.463-1.655-3.32-.94-.859-2.11-1.292-3.503-1.292-1.394 0-2.557.426-3.496 1.276zM57.53 18.939v6.283h-2.727V21.49H41.37v3.73h-2.758V18.94h.85c1.029-.06 1.737-.791 2.124-2.187.38-1.395.649-3.373.79-5.917l.246-5.433h12.463V18.94h2.445zM44.54 16.073c-.254 1.328-.716 2.284-1.379 2.866h9.004V7.954h-6.977l-.149 3.097c-.082 2.022-.246 3.694-.5 5.022zM64.223 5.402h-2.907v16.089h2.907V5.402zM69.897 5.402h2.906v6.828h9.154V5.402h2.906v16.089h-2.906v-6.739H72.81v6.739h-2.907V5.402h-.007zM101.381 6.887c1.185 1.09 1.774 2.724 1.774 4.888v9.716h-2.758v-2.127c-.484.746-1.178 1.32-2.08 1.716-.901.396-1.967.59-3.197.59-1.797 0-3.243-.433-4.323-1.306-1.081-.873-1.625-2.015-1.625-3.433 0-1.417.514-2.552 1.543-3.417 1.028-.858 2.668-1.291 4.912-1.291h4.606v-.575c0-1.253-.365-2.216-1.088-2.88-.73-.672-1.796-1-3.213-1a8.51 8.51 0 00-2.787.47c-.91.314-1.677.731-2.303 1.261l-1.216-2.186c.828-.664 1.82-1.18 2.974-1.53a12.56 12.56 0 013.668-.53c2.228 0 3.935.545 5.113 1.634zm-2.892 11.798c.805-.493 1.394-1.201 1.759-2.112v-2.246h-4.487c-2.467 0-3.697.828-3.697 2.485 0 .813.313 1.448.939 1.91.626.463 1.498.702 2.609.702 1.11 0 2.065-.247 2.877-.74zM122.198 5.402v16.089h-2.907V7.954h-6.909l-.179 3.582c-.104 2.164-.291 3.97-.574 5.418-.283 1.447-.745 2.604-1.394 3.477-.648.873-1.543 1.306-2.698 1.306-.529 0-1.118-.09-1.789-.276l.179-2.455c.261.06.507.09.73.09.805 0 1.417-.352 1.819-1.06.403-.71.671-1.545.79-2.523.119-.97.231-2.357.336-4.156l.275-5.947h12.321v-.008z" fill="#403F3F"/>
        <path d="M150.447 15.41c.425-.389.82-.717 1.185-1a7.845 7.845 0 00-1.185 1z" fill="url(#paint0_linear)"/>
        <path d="M154.025 12.41c-1.148.081-2.11.23-2.93.432a4.649 4.649 0 00-1.796-.366c-2.549 0-4.621 2.082-4.621 4.634 0 1.515.73 2.866 1.856 3.701-.112.247-.216.486-.306.717.186.12.373.246.559.366.082-.21.179-.456.298-.717a4.606 4.606 0 002.214.567 4.64 4.64 0 004.629-4.634c0-.611-.12-1.201-.343-1.73.432-1.553.44-2.97.44-2.97zm-8.348 4.7a3.628 3.628 0 013.577-3.626c-3.63 1.753-1.997 4.902-1.997 4.902 2.206-3.641 4.375-3.977 4.375-3.977-.365.284-.76.612-1.185 1-.015.015-.037.03-.06.06a16.827 16.827 0 00-2.661 3.156c-.276.425-.521.85-.738 1.261a3.567 3.567 0 01-1.311-2.776zm3.622 3.627a3.552 3.552 0 01-1.767-.47c.202-.366.433-.754.716-1.157 2.452.642 3.861-.492 4.673-2 0 2-1.624 3.627-3.622 3.627zM126.156 4.38l.663.97h.604l-.715-.97c.208 0 .38-.082.514-.246a.9.9 0 00.201-.575.81.81 0 00-.164-.522c-.164-.209-.44-.313-.827-.313h-.768V5.35h.492v-.97zm0-1.194h.291c.186 0 .32.045.402.135.06.067.09.149.09.26 0 .105-.03.187-.09.262-.074.09-.209.127-.395.127h-.291v-.784h-.007z" fill="#403F3F"/>
        <path d="M126.454 6.402c.656 0 1.215-.23 1.677-.693.462-.463.701-1.03.701-1.687a2.29 2.29 0 00-.701-1.679 2.283 2.283 0 00-1.677-.694 2.29 2.29 0 00-1.685.694 2.289 2.289 0 00-.693 1.68c0 .656.231 1.223.701 1.686a2.27 2.27 0 001.677.693zm-1.372-3.745c.381-.381.835-.568 1.372-.568.529 0 .984.194 1.364.568.38.38.566.835.566 1.365 0 .545-.193 1-.566 1.373-.38.373-.835.56-1.364.56a1.84 1.84 0 01-1.372-.567 1.89 1.89 0 01-.559-1.373 1.823 1.823 0 01.559-1.358z" fill="#403F3F"/>
    </g>
    <defs>
        <linearGradient id="paint0_linear" x1="150.445" y1="14.908" x2="151.63" y2="14.908" gradientUnits="userSpaceOnUse">
            <stop offset="0" stop-color="#018037"/>
            <stop offset=".398" stop-color="#6CB649"/>
            <stop offset=".724" stop-color="#018037"/>
            <stop offset=".797" stop-color="#0F8338"/>
            <stop offset=".865" stop-color="#298C3B"/>
            <stop offset=".931" stop-color="#469B40"/>
            <stop offset=".995" stop-color="#69B448"/>
            <stop offset="1" stop-color="#6CB649"/>
        </linearGradient>
        <clipPath id="clip0">
            <path fill="#fff" transform="translate(.078)" d="M0 0h178.529v25.222H0z"/>
        </clipPath>
    </defs>
</svg>
