<svg width="333" height="47" fill="none" xmlns="http://www.w3.org/2000/svg">
    <g clip-path="url(#clip0)">
        <path d="M263.335 37.03c-1.556 1.265-3.737 1.947-6.57 2.044v1.78h-2.236v-1.78c-2.834-.111-5.029-.807-6.584-2.058-1.556-1.252-2.334-3.004-2.334-5.215 0-2.224.778-3.963 2.334-5.228 1.555-1.265 3.75-1.947 6.584-2.058v-1.71h2.236v1.71c2.819.111 5 .807 6.556 2.072 1.555 1.265 2.333 3.017 2.333 5.214 0 2.225-.764 3.963-2.319 5.229zm-13.682-1.405c1.139.918 2.764 1.447 4.876 1.572V26.392c-2.14.125-3.778.654-4.904 1.558-1.125.917-1.694 2.197-1.694 3.838.014 1.64.583 2.92 1.722 3.837zm12.015 0c1.125-.917 1.694-2.21 1.694-3.851 0-1.613-.569-2.879-1.708-3.81-1.139-.918-2.764-1.447-4.875-1.572v10.805c2.125-.125 3.764-.654 4.889-1.572zM301.365 24.974c1.25 1.043 1.875 2.475 1.875 4.297 0 1.821-.625 3.254-1.875 4.297-1.25 1.042-2.959 1.557-5.125 1.557h-4.153v5.09h-2.403V23.416h6.542c2.18 0 3.889.528 5.139 1.557zm-1.722 7.106c.805-.654 1.194-1.586 1.194-2.795 0-1.21-.403-2.142-1.194-2.795-.806-.654-1.959-.974-3.473-.974h-4.07v7.537h4.07c1.514-.014 2.667-.334 3.473-.973zM317.574 25.502h-5.75v14.712h-2.347V25.502h-5.737v-2.085h13.834v2.085zM332.687 38.142v2.086h-12.181V23.417h11.848v2.085h-9.445v5.16h8.417v2.043h-8.417v5.424h9.778v.013z" fill="#000"/>
        <path d="M10.195 37.864c-3.18-1.752-5.68-4.171-7.487-7.244C.903 27.546 0 24.097 0 20.245c0-3.838.903-7.3 2.708-10.373C4.514 6.8 7.014 4.38 10.223 2.628 13.43.876 17 0 20.96 0c3.083 0 5.917.514 8.472 1.557 2.556 1.043 4.75 2.573 6.556 4.603l-3.667 3.574c-2.972-3.129-6.68-4.7-11.125-4.7-2.931 0-5.598.653-7.96 1.974-2.36 1.321-4.25 3.143-5.583 5.465-1.333 2.322-2 4.909-2 7.773 0 2.865.667 5.465 2 7.773 1.334 2.322 3.195 4.144 5.57 5.465 2.375 1.321 5.028 1.975 7.959 1.975 4.403 0 8.111-1.586 11.125-4.756l3.667 3.56c-1.805 2.03-4 3.587-6.583 4.63-2.584 1.057-5.417 1.585-8.5 1.585-3.946.014-7.515-.862-10.696-2.614zM68.587 26.865H44.294c.333 2.642 1.5 4.756 3.472 6.369 1.973 1.599 4.431 2.405 7.376 2.405 3.583 0 6.458-1.21 8.64-3.615l3 3.504c-1.362 1.585-3.042 2.795-5.056 3.616-2.014.834-4.265 1.25-6.75 1.25-3.168 0-5.973-.653-8.418-1.946-2.445-1.307-4.347-3.115-5.68-5.465-1.334-2.336-2.001-4.978-2.001-7.912 0-2.906.653-5.52 1.944-7.856 1.306-2.336 3.084-4.158 5.362-5.465 2.278-1.293 4.847-1.947 7.709-1.947 2.861 0 5.417.654 7.653 1.947 2.236 1.307 3.986 3.115 5.25 5.465 1.264 2.336 1.89 5.02 1.89 8.037.013.39-.029.932-.098 1.613zm-21.21-10.123c-1.75 1.585-2.778 3.657-3.083 6.216h19.21c-.306-2.531-1.334-4.59-3.084-6.188-1.75-1.6-3.93-2.406-6.528-2.406-2.598 0-4.764.793-6.515 2.378zM107.063 35.292V47h-5.084v-6.953h-25.03V47h-5.138V35.292h1.583c1.917-.111 3.236-1.474 3.959-4.075.708-2.6 1.208-6.285 1.472-11.026l.458-10.123h23.224v25.224h4.556zm-24.21-5.34c-.472 2.475-1.334 4.255-2.57 5.34h16.779V14.823h-13l-.278 5.77c-.153 3.77-.459 6.884-.931 9.36zM119.534 10.068h-5.417v29.98h5.417v-29.98zM130.105 10.068h5.417V22.79h17.057V10.068h5.417v29.98h-5.417V27.49h-17.043v12.556h-5.417v-29.98h-.014zM188.775 12.835c2.208 2.03 3.306 5.075 3.306 9.108v18.104h-5.14v-3.963c-.903 1.39-2.194 2.461-3.875 3.198-1.681.738-3.667 1.099-5.959 1.099-3.347 0-6.042-.806-8.056-2.433-2.014-1.627-3.028-3.755-3.028-6.397 0-2.642.959-4.755 2.876-6.368 1.916-1.6 4.972-2.406 9.153-2.406h8.584v-1.07c0-2.337-.681-4.13-2.028-5.368-1.361-1.252-3.348-1.864-5.987-1.864-1.764 0-3.5.292-5.194.876-1.695.584-3.126 1.363-4.292 2.35l-2.264-4.074c1.541-1.237 3.389-2.197 5.542-2.85 2.153-.654 4.431-.988 6.833-.988 4.153 0 7.334 1.015 9.529 3.046zm-5.389 21.984c1.5-.918 2.597-2.239 3.278-3.935v-4.186h-8.362c-4.598 0-6.889 1.544-6.889 4.63 0 1.516.583 2.698 1.75 3.56 1.166.863 2.792 1.308 4.861 1.308 2.07 0 3.848-.46 5.362-1.377zM227.569 10.068v29.98h-5.417V14.822h-12.876l-.333 6.675c-.195 4.032-.542 7.397-1.07 10.095-.528 2.698-1.389 4.853-2.597 6.48-1.209 1.627-2.876 2.433-5.028 2.433-.987 0-2.084-.167-3.334-.514l.333-4.575c.487.111.945.167 1.362.167 1.5 0 2.639-.654 3.389-1.975.75-1.32 1.25-2.878 1.472-4.7.222-1.807.431-4.394.625-7.745l.514-11.083h22.96v-.013z" fill="#009640"/>
        <path d="M280.211 28.715a36.245 36.245 0 012.208-1.864 14.521 14.521 0 00-2.208 1.864z" fill="url(#paint0_linear)"/>
        <path d="M286.879 23.125c-2.139.152-3.931.43-5.459.806a8.674 8.674 0 00-3.347-.681c-4.751 0-8.612 3.88-8.612 8.635a8.582 8.582 0 003.458 6.897c-.208.459-.402.904-.569 1.335.347.222.694.459 1.042.681.153-.39.333-.848.555-1.335a8.583 8.583 0 004.126 1.057c4.75 0 8.625-3.88 8.625-8.635 0-1.14-.222-2.239-.639-3.226.806-2.892.82-5.534.82-5.534zm-15.557 8.76c0-3.699 2.986-6.716 6.667-6.758-6.764 3.268-3.722 9.136-3.722 9.136 4.111-6.786 8.153-7.412 8.153-7.412a35.65 35.65 0 00-2.208 1.864c-.028.027-.07.055-.112.11a31.322 31.322 0 00-4.958 5.883 30.24 30.24 0 00-1.375 2.35 6.649 6.649 0 01-2.445-5.173zm6.751 6.758c-1.195 0-2.32-.32-3.292-.876a22.87 22.87 0 011.333-2.156c4.57 1.196 7.195-.917 8.709-3.726 0 3.726-3.028 6.758-6.75 6.758zM234.944 8.162l1.236 1.808h1.125l-1.333-1.808c.389 0 .708-.153.958-.459.25-.32.375-.667.375-1.07 0-.39-.097-.71-.305-.974-.306-.389-.82-.584-1.542-.584h-1.431V9.97h.917V8.162zm0-2.225h.542c.347 0 .597.084.75.25a.69.69 0 01.166.487.74.74 0 01-.166.487c-.139.167-.389.237-.736.237h-.542v-1.46h-.014z" fill="#009640"/>
        <path d="M235.499 11.93c1.222 0 2.264-.43 3.125-1.293.862-.862 1.306-1.918 1.306-3.142 0-1.21-.431-2.253-1.306-3.129-.861-.862-1.903-1.293-3.125-1.293-1.236 0-2.278.431-3.139 1.293-.861.862-1.292 1.905-1.292 3.129s.431 2.28 1.306 3.142c.847.863 1.903 1.294 3.125 1.294zm-2.556-6.98c.709-.709 1.556-1.057 2.556-1.057.986 0 1.834.362 2.542 1.057.708.71 1.056 1.558 1.056 2.545 0 1.015-.361 1.863-1.056 2.558a3.502 3.502 0 01-2.542 1.043c-1.014 0-1.861-.347-2.556-1.056a3.52 3.52 0 01-1.041-2.559c-.014-.973.333-1.822 1.041-2.53z" fill="#009640"/>
    </g>
    <defs>
        <linearGradient id="paint0_linear" x1="280.207" y1="27.781" x2="282.415" y2="27.781" gradientUnits="userSpaceOnUse">
            <stop offset="0" stop-color="#018037"/>
            <stop offset=".398" stop-color="#6CB649"/>
            <stop offset=".724" stop-color="#018037"/>
            <stop offset=".797" stop-color="#0F8338"/>
            <stop offset=".865" stop-color="#298C3B"/>
            <stop offset=".931" stop-color="#469B40"/>
            <stop offset=".995" stop-color="#69B448"/>
            <stop offset="1" stop-color="#6CB649"/>
        </linearGradient>
        <clipPath id="clip0">
            <path fill="#fff" d="M0 0h332.686v47H0z"/>
        </clipPath>
    </defs>
</svg>
