<svg width="298" height="48" fill="none" xmlns="http://www.w3.org/2000/svg">
    <g clip-path="url(#clip0)">
        <path d="M205.534 6.12l.968 1.444h.878l-1.036-1.444c.315 0 .563-.115.743-.367.203-.252.293-.527.293-.871 0-.321-.09-.573-.248-.78-.248-.32-.653-.48-1.216-.48h-1.125v3.942h.72l.023-1.444zm-.023-1.788h.428c.27 0 .473.068.585.206.09.092.135.23.135.39s-.045.275-.135.39c-.112.114-.315.183-.585.183h-.428V4.33z" fill="#2A4B9B"/>
        <path d="M205.961 9.146c.945 0 1.778-.344 2.453-1.054.675-.688 1.013-1.536 1.013-2.522 0-.986-.338-1.81-1.013-2.521-.675-.688-1.486-1.055-2.453-1.055-.968 0-1.779.344-2.454 1.032-.675.687-1.013 1.535-1.013 2.521s.338 1.834 1.013 2.522c.675.733 1.486 1.077 2.454 1.077zm-2.004-5.616c.54-.573 1.216-.848 2.004-.848.765 0 1.44.275 1.98.848.563.573.833 1.238.833 2.04 0 .825-.27 1.513-.833 2.063a2.629 2.629 0 01-1.98.848c-.788 0-1.464-.275-2.004-.848a2.902 2.902 0 01-.81-2.063c-.023-.78.248-1.467.81-2.04zM9.341 35.622c-2.903-1.65-5.2-3.92-6.842-6.808C.833 25.925 0 22.67 0 19.049c0-3.622.833-6.877 2.476-9.765 1.666-2.889 3.962-5.158 6.888-6.808C12.29.826 15.576 0 19.2 0c2.837 0 5.425.481 7.766 1.467 2.341.986 4.344 2.43 6.01 4.332l-3.354 3.347C26.9 6.212 23.5 4.722 19.425 4.722c-2.7 0-5.132.619-7.293 1.857A13.645 13.645 0 007 11.736c-1.215 2.178-1.823 4.63-1.823 7.313 0 2.705.608 5.134 1.846 7.312a13.313 13.313 0 005.087 5.135c2.183 1.238 4.614 1.856 7.293 1.856 4.03 0 7.428-1.49 10.197-4.47l3.353 3.347a15.984 15.984 0 01-6.032 4.355c-2.363.986-4.952 1.49-7.788 1.49-3.624.023-6.888-.802-9.792-2.452zM44.23 9.467h-4.974v28.195h4.974V9.467zM53.91 9.467h4.975v11.965h15.621V9.467h4.975v28.195h-4.975V25.857H58.885v11.805H53.91V9.467zM107.617 12.08c2.026 1.926 3.016 4.768 3.016 8.573v17.032h-4.704v-3.737c-.833 1.307-2.004 2.316-3.534 3.003-1.531.688-3.354 1.032-5.447 1.032-3.062 0-5.538-.757-7.361-2.292-1.846-1.536-2.769-3.53-2.769-6.006 0-2.476.878-4.47 2.634-5.983 1.756-1.513 4.547-2.27 8.373-2.27h7.856v-1.008c0-2.2-.63-3.874-1.868-5.066-1.238-1.169-3.061-1.765-5.492-1.765-1.621 0-3.197.275-4.75.825-1.553.55-2.858 1.284-3.939 2.2l-2.048-3.781c1.418-1.17 3.106-2.063 5.064-2.682 1.959-.62 4.052-.94 6.258-.94 3.804 0 6.708.94 8.711 2.865zm-4.93 20.676c1.373-.87 2.386-2.108 2.994-3.69v-3.943h-7.653c-4.21 0-6.303 1.444-6.303 4.355 0 1.422.54 2.545 1.599 3.347 1.058.825 2.543 1.215 4.456 1.215 1.914 0 3.512-.413 4.907-1.284zM140.029 13.937H129.99v23.725h-4.974V13.937h-10.039v-4.47h25.03v4.47h.022zM166.77 11.026c2.093 1.215 3.759 2.888 4.93 5.066 1.193 2.154 1.778 4.676 1.778 7.495 0 2.843-.585 5.341-1.778 7.542-1.193 2.177-2.837 3.874-4.93 5.089-2.093 1.215-4.479 1.81-7.135 1.81-1.959 0-3.759-.39-5.403-1.169-1.643-.779-3.016-1.925-4.164-3.415v14.579h-4.974V9.467h4.749v4.47c1.103-1.559 2.499-2.75 4.187-3.53 1.688-.802 3.556-1.192 5.582-1.192 2.679 0 5.065.596 7.158 1.81zm-2.814 21.249c1.396-.825 2.499-1.994 3.309-3.507.811-1.513 1.216-3.232 1.216-5.18 0-1.95-.405-3.691-1.216-5.181-.81-1.513-1.913-2.66-3.309-3.484-1.395-.826-2.971-1.215-4.726-1.215-1.734 0-3.287.412-4.682 1.26-1.396.826-2.499 1.995-3.309 3.485-.811 1.49-1.216 3.209-1.216 5.157 0 1.949.405 3.69 1.193 5.18.788 1.514 1.891 2.683 3.309 3.508a9.222 9.222 0 004.705 1.26c1.755-.022 3.331-.458 4.726-1.283zM198.914 12.08c2.026 1.926 3.016 4.768 3.016 8.573v17.032h-4.704v-3.737c-.833 1.307-2.004 2.316-3.534 3.003-1.531.688-3.354 1.032-5.448 1.032-3.061 0-5.537-.757-7.36-2.292-1.846-1.536-2.769-3.53-2.769-6.006 0-2.476.878-4.47 2.634-5.983 1.756-1.513 4.547-2.27 8.373-2.27h7.856v-1.008c0-2.2-.63-3.874-1.868-5.066-1.238-1.169-3.062-1.765-5.493-1.765-1.62 0-3.196.275-4.749.825-1.553.55-2.859 1.284-3.939 2.2l-2.048-3.781c1.418-1.17 3.106-2.063 5.064-2.682 1.958-.62 4.052-.94 6.258-.94 3.804 0 6.707.94 8.711 2.865zm-4.93 20.676c1.373-.87 2.386-2.108 2.994-3.69v-3.943h-7.653c-4.209 0-6.303 1.444-6.303 4.355 0 1.422.54 2.545 1.598 3.347 1.058.825 2.544 1.215 4.457 1.215 1.914 0 3.534-.413 4.907-1.284z" fill="#2A4B9B"/>
        <path d="M236.099 34.682c-1.396 1.169-3.377 1.81-5.92 1.902v1.651h-2.004v-1.65c-2.543-.115-4.524-.734-5.942-1.926-1.418-1.192-2.116-2.774-2.116-4.837 0-2.063.698-3.69 2.116-4.86 1.396-1.168 3.376-1.81 5.942-1.925V21.48h2.004v1.581c2.543.115 4.502.757 5.92 1.926 1.395 1.169 2.116 2.796 2.116 4.836-.023 2.063-.721 3.69-2.116 4.86zm-12.335-1.307c1.035.849 2.498 1.33 4.411 1.467V24.825c-1.935.115-3.398.596-4.434 1.444-1.013.849-1.53 2.04-1.53 3.553s.517 2.705 1.553 3.553zm10.827 0c1.013-.848 1.53-2.04 1.53-3.576 0-1.49-.517-2.681-1.553-3.53-1.035-.848-2.498-1.33-4.412-1.467V34.82c1.959-.091 3.422-.573 4.435-1.444zM270.427 23.52c1.125.962 1.688 2.291 1.688 3.988 0 1.696-.563 3.025-1.688 3.988-1.126.963-2.679 1.444-4.637 1.444h-3.737v4.722h-2.16V22.075h5.897c1.958-.023 3.511.481 4.637 1.444zm-1.553 6.578c.72-.596 1.08-1.467 1.08-2.59 0-1.124-.36-1.995-1.08-2.59-.721-.597-1.778-.895-3.129-.895h-3.669v6.992h3.669c1.351-.023 2.408-.321 3.129-.917zM285.057 24h-5.2v13.638h-2.115V24h-5.178v-1.948h12.493v1.948zM298 35.713v1.925h-10.984V22.051h10.691v1.925h-8.53v4.791h7.585v1.903h-7.585v5.02H298v.023z" fill="#000"/>
        <path d="M256.448 15.977a563.947 563.947 0 00-3.737 1.926c-.18.114-.36.183-.54.275-.225.115-.405.23-.54.481-.09.207-.135.528-.045.757.157.435.72.848 1.193.596.563-.298 1.148-.596 1.711-.894l-2.274 3.713-.022.046a7.584 7.584 0 00-4.345-.985 7.78 7.78 0 00-5.402 2.773c-.135.16-.248.321-.383.482l-.405.618a8.137 8.137 0 00-1.013 4.54c.293 4.377 4.007 7.678 8.261 7.38 4.254-.298 7.473-4.126 7.181-8.481-.113-1.628-.698-3.14-1.621-4.333-.113-.137-.225-.298-.36-.435a2.357 2.357 0 00-.405-.413l2.251-3.69c.022.298.022.619.045.917.022.206.022.412.022.619.045.504.495.962 1.013.893.518-.068.9-.48.878-1.031-.068-1.421-.135-2.865-.225-4.287-.023-.206-.023-.412-.023-.618 0-.55-.675-1.124-1.215-.849zm-2.319 13.387c.225 3.232-2.183 6.075-5.334 6.281-3.152.23-5.898-2.223-6.123-5.479-.225-3.232 2.161-6.074 5.312-6.28 3.174-.207 5.92 2.223 6.145 5.478z" fill="#2A4B9B"/>
    </g>
    <defs>
        <clipPath id="clip0">
            <path fill="#fff" d="M0 0h298v48H0z"/>
        </clipPath>
    </defs>
</svg>
