<svg width="190" height="30" fill="none" xmlns="http://www.w3.org/2000/svg">
    <g clip-path="url(#clip0)" fill="#555">
        <path d="M131.045 3.821l.612.906h.565l-.667-.906a.59.59 0 00.483-.233.853.853 0 00.184-.542.767.767 0 00-.157-.487c-.156-.2-.408-.295-.768-.295h-.715v2.47h.463V3.82zm-.007-1.111h.265c.17 0 .3.04.375.13a.356.356 0 01.081.24.328.328 0 01-.088.24c-.075.083-.198.124-.368.124h-.265V2.71z"/>
        <path d="M131.316 5.715c.612 0 1.13-.22 1.565-.652.436-.432.653-.96.653-1.578 0-.61-.217-1.14-.653-1.571a2.129 2.129 0 00-1.565-.652c-.619 0-1.136.22-1.572.652-.429.432-.646.96-.646 1.578 0 .617.217 1.146.653 1.578.429.432.953.645 1.565.645zm-1.272-3.506a1.722 1.722 0 011.272-.536c.497 0 .919.179 1.272.536.354.356.531.782.531 1.276 0 .508-.177.94-.531 1.29-.353.35-.775.528-1.272.528-.504 0-.932-.178-1.279-.528a1.775 1.775 0 01-.524-1.283c0-.501.177-.933.531-1.283zM5.954 22.267a11.319 11.319 0 01-4.369-4.255C.531 16.201 0 14.17 0 11.905c0-2.264.53-4.295 1.585-6.1C2.64 4 4.103 2.58 5.975 1.551 7.838.515 9.928 0 12.235 0c1.803 0 3.45.302 4.947.913 1.497.61 2.77 1.516 3.824 2.71l-2.143 2.093c-1.736-1.84-3.906-2.759-6.499-2.759-1.715 0-3.266.392-4.648 1.167a8.378 8.378 0 00-3.245 3.211c-.783 1.366-1.17 2.89-1.17 4.57 0 1.688.387 3.212 1.17 4.577a8.424 8.424 0 003.245 3.212c1.389.775 2.933 1.166 4.648 1.166 2.572 0 4.736-.933 6.498-2.793l2.144 2.093a10.222 10.222 0 01-3.845 2.724c-1.504.618-3.164.933-4.96.933-2.307-.006-4.39-.521-6.247-1.55zM28.2 5.922h-3.165V23.55H28.2V5.922zM34.363 5.922h3.165v7.486h9.968V5.922h3.164V23.55h-3.164v-7.383h-9.962v7.383h-3.17V5.922zM68.619 7.548c1.286 1.194 1.932 2.985 1.932 5.352v10.643h-3v-2.326c-.531.823-1.28 1.448-2.26 1.88-.98.432-2.136.652-3.477.652-1.96 0-3.525-.48-4.702-1.434s-1.762-2.21-1.762-3.76c0-1.552.558-2.8 1.68-3.74 1.123-.94 2.9-1.414 5.342-1.414h5.015v-.631c0-1.373-.395-2.43-1.19-3.157-.79-.734-1.96-1.098-3.498-1.098a9.187 9.187 0 00-3.035.515c-.987.343-1.824.803-2.504 1.38l-1.32-2.396c.898-.734 1.98-1.29 3.232-1.68a13.54 13.54 0 013.987-.584c2.423.007 4.274.604 5.56 1.798zm-3.15 12.92c.877-.541 1.517-1.31 1.911-2.312v-2.463h-4.879c-2.68 0-4.021.906-4.021 2.724 0 .885.34 1.585 1.02 2.093.68.508 1.627.761 2.838.761 1.204.014 2.252-.253 3.13-.802zM89.283 8.715h-6.396V23.55h-3.164V8.715h-6.397V5.922H89.29v2.793h-.007zM106.33 6.883a8.108 8.108 0 013.151 3.163c.755 1.352 1.136 2.917 1.136 4.687 0 1.777-.381 3.342-1.136 4.707a8.053 8.053 0 01-3.151 3.177c-1.34.755-2.858 1.133-4.552 1.133-1.252 0-2.402-.247-3.45-.735a7.085 7.085 0 01-2.654-2.127v9.113H92.51V5.922h3.035v2.793a6.657 6.657 0 012.674-2.21c1.075-.5 2.266-.747 3.559-.747 1.694 0 3.212.377 4.552 1.125zm-1.796 13.292c.891-.522 1.592-1.256 2.109-2.196.517-.94.776-2.024.776-3.246 0-1.221-.259-2.299-.776-3.245-.517-.94-1.218-1.668-2.109-2.176-.892-.508-1.899-.761-3.015-.761-1.102 0-2.096.26-2.987.782a5.662 5.662 0 00-2.11 2.175c-.517.933-.775 2.004-.775 3.225s.251 2.299.755 3.246a5.487 5.487 0 002.11 2.196c.898.521 1.905.782 3 .782 1.13 0 2.13-.26 3.022-.782zM126.832 7.548c1.286 1.194 1.932 2.985 1.932 5.352v10.643h-3.001v-2.326c-.53.823-1.279 1.448-2.259 1.88-.98.432-2.137.652-3.477.652-1.96 0-3.525-.48-4.702-1.434s-1.763-2.21-1.763-3.76c0-1.552.558-2.8 1.681-3.74 1.123-.94 2.899-1.414 5.342-1.414h5.015v-.631c0-1.373-.395-2.43-1.191-3.157-.789-.734-1.96-1.098-3.497-1.098a9.182 9.182 0 00-3.035.515c-.987.343-1.824.803-2.504 1.38l-1.321-2.396c.899-.734 1.981-1.29 3.233-1.68a13.537 13.537 0 013.987-.584c2.423.007 4.274.604 5.56 1.798zm-3.151 12.92c.878-.541 1.517-1.31 1.912-2.312v-2.463h-4.879c-2.681 0-4.021.906-4.021 2.724 0 .885.34 1.585 1.02 2.093.681.508 1.627.761 2.838.761 1.204.014 2.252-.253 3.13-.802zM150.539 21.676c-.891.734-2.15 1.125-3.783 1.18v1.03h-1.286v-1.03c-1.627-.062-2.892-.467-3.791-1.194-.898-.734-1.347-1.736-1.347-3.02 0-1.29.449-2.298 1.347-3.032.899-.734 2.157-1.132 3.791-1.194v-.988h1.286v.988c1.619.069 2.878.466 3.776 1.2.898.735 1.348 1.75 1.348 3.027-.007 1.29-.45 2.299-1.341 3.033zm-7.873-.817c.66.535 1.592.837 2.81.913v-6.265c-1.231.075-2.17.377-2.824.906-.646.528-.973 1.27-.973 2.223 0 .954.327 1.695.987 2.223zm6.914 0c.646-.535.973-1.276.973-2.237 0-.933-.327-1.674-.987-2.203-.66-.535-1.592-.837-2.81-.912v6.265c1.231-.076 2.177-.378 2.824-.913zM172.424 14.69c.715.605 1.075 1.435 1.075 2.492 0 1.056-.36 1.887-1.075 2.49-.714.604-1.701.906-2.953.906h-2.388v2.951h-1.382v-9.744h3.77c1.252 0 2.232.302 2.953.906zm-.993 4.111c.462-.377.687-.912.687-1.62 0-.706-.231-1.241-.687-1.619-.463-.377-1.13-.562-2.001-.562h-2.347v4.37h2.347c.871-.006 1.538-.191 2.001-.569zM181.746 15h-3.314v8.53h-1.354V15h-3.301v-1.207h7.962v1.208h.007zM190.001 22.314v1.208h-7.009v-9.737h6.818v1.208h-5.436v2.992h4.844v1.18h-4.844v3.143h5.627v.006zM163.51 9.99c-.796.406-1.586.81-2.382 1.202-.115.061-.224.123-.34.178-.15.075-.265.151-.34.302a.634.634 0 00-.021.473c.109.275.463.529.763.378.36-.185.728-.364 1.088-.556l-1.449 2.326-.014.028a4.87 4.87 0 00-2.769-.611 4.971 4.971 0 00-3.681 2.038c-.089.13-.177.254-.252.391a5.07 5.07 0 00-.647 2.834c.191 2.73 2.552 4.803 5.26 4.611 2.722-.192 4.764-2.573 4.573-5.304a5.047 5.047 0 00-1.027-2.717c-.082-.09-.15-.186-.239-.268-.081-.09-.163-.185-.258-.268l1.436-2.305c.013.192.02.384.034.576.006.13.02.254.02.384.02.316.32.597.64.563.326-.041.578-.309.558-.645-.048-.892-.089-1.784-.136-2.683-.007-.13-.021-.254-.021-.384-.027-.364-.449-.72-.796-.542zm-1.477 8.359c.143 2.024-1.388 3.787-3.395 3.931-2.008.144-3.756-1.393-3.899-3.417-.143-2.024 1.381-3.788 3.388-3.932a3.672 3.672 0 013.906 3.418z"/>
    </g>
    <defs>
        <clipPath id="clip0">
            <path fill="#fff" d="M0 0h190v30H0z"/>
        </clipPath>
    </defs>
</svg>
