<?xml version="1.0" encoding="utf-8"?><svg viewBox="0 0 2000 648.58" xmlns="http://www.w3.org/2000/svg" xmlns:xlink="http://www.w3.org/1999/xlink"><style>:root>svg{display:none}:root>svg:target{display:block}</style><svg viewBox="0 0 1440 618" id="about_us__our_mission-bg" xmlns="http://www.w3.org/2000/svg"><path d="M485.326 18C293.705 32.392 115.34 100 0 158.5v352C401.942 636 595.673 644.835 849.32 572c275.12-79 390.96-84 590.68 0V0c-143.8 0-123.83 66-315.56 100C932.705 134 724.993 0 485.326 18z"/></svg><svg viewBox="0 0 3844 618" id="about_us__our_mission-bg-test" xmlns="http://www.w3.org/2000/svg"><path d="M1688.33 18C1496.7 32.392 1318.34 100 1203 158.5 1087.66 217 .5 314.5.5 314.5S801.058 385 1203 510.5c401.94 125.5 595.67 134.335 849.32 61.5 275.12-79 390.96-84 590.68 0 199.72 84 1200.5-291 1200.5-291S2786.8 0 2643 0c-143.8 0-123.83 66-315.56 100-191.74 34-399.45-100-639.11-82z"/></svg><svg viewBox="0 0 3765 477" id="cantacts-bg" xmlns="http://www.w3.org/2000/svg"><path d="M1125.5 238.5c-167-79.5-469-143-708.5-189.001C177.5 3.498.5-.001.5-.001h3764s-948 511.5-1163.5 475-238-164.206-394-201.875c-178.5-43.102-236.59 32.086-549.64 54.537C1455.5 342.138 1292.5 318 1125.5 238.5z"/></svg><svg viewBox="0 0 23 23" id="cart" xmlns="http://www.w3.org/2000/svg"><path fill-rule="evenodd" clip-rule="evenodd" d="M22.772.598c-.094-.477-.544-.667-.99-.576l-4.23 1.712c-.266.09-.445.286-.54.576l-3.05 10.535H3.794c-.36-1.143-2.156-7.976-2.156-7.976-.18-.47-.63-.757-.99-.576-.453.106-.723.576-.63 1.046l2.344 8.543a.86.86 0 00.81.666h10.253c-.185.765-.45 1.812-.635 2.378H3.08c-.45 0-.809.38-.809.85 0 .486.36.766.81.766h10.345c.35 0 .624-.19.8-.567l1.081-4.09c.18-.47 2.966-9.969 3.145-10.626.63-.28 3.87-1.612 3.87-1.612.359-.1.544-.38.544-.757 0-.103 0-.202-.094-.292zm-19.25 18.6c-.989 0-1.79.863-1.79 1.909 0 .94.801 1.893 1.79 1.893.99 0 1.806-.953 1.806-1.893 0-1.043-.816-1.908-1.805-1.908zm9.715 0c-.99 0-1.799.863-1.799 1.909 0 .94.81 1.893 1.8 1.893.989 0 1.799-.953 1.799-1.893 0-1.043-.81-1.908-1.8-1.908z"/></svg><svg viewBox="0 0 92 92" id="categogy-1" xmlns="http://www.w3.org/2000/svg"><path d="M45.998 92a1.182 1.182 0 01-1.184-1.184c0-.655.529-1.184 1.184-1.184 11.7 0 21.218-9.524 21.218-21.231 0-11.7-9.518-21.218-21.218-21.218-13.01 0-23.598-10.584-23.598-23.597C22.4 10.582 32.987 0 45.998 0 71.363 0 92 20.634 92 45.999 92 71.363 71.363 92 45.998 92zm0-89.632c-11.706 0-21.23 9.518-21.23 21.218 0 11.705 9.524 21.229 21.23 21.229 13.005 0 23.586 10.581 23.586 23.586 0 7.714-3.717 14.575-9.455 18.884C77.275 81.4 89.632 65.117 89.632 46c0-24.06-19.574-43.631-43.634-43.631z"/><path d="M77.34 63.331a1.183 1.183 0 01-1.16-.952C73.328 48.038 60.636 37.627 46 37.627c-7.74 0-14.04-6.298-14.04-14.041 0-7.737 6.3-14.03 14.04-14.03 20.098 0 36.45 16.348 36.45 36.44a36.448 36.448 0 01-4.055 16.693c-.21.4-.618.642-1.055.642zM45.997 11.923c-6.435 0-11.67 5.233-11.67 11.663 0 6.438 5.235 11.673 11.67 11.673 14.613 0 27.428 9.635 31.667 23.347 1.605-3.996 2.415-8.224 2.415-12.61 0-18.787-15.289-34.073-34.082-34.073z"/><path d="M45.997 92C20.635 92 0 71.363 0 45.999 0 20.634 20.635 0 45.997 0c.656 0 1.184.529 1.184 1.184 0 .655-.528 1.184-1.184 1.184-11.705 0-21.229 9.518-21.229 21.218 0 11.705 9.524 21.229 21.23 21.229 13.004 0 23.586 10.581 23.586 23.586C69.584 81.413 59.002 92 45.997 92zM31.848 4.722C14.712 10.613 2.368 26.89 2.368 46c0 24.06 19.572 43.633 43.63 43.633 11.7 0 21.218-9.524 21.218-21.231 0-11.7-9.519-21.218-21.219-21.218-13.01 0-23.597-10.584-23.597-23.597 0-7.703 3.715-14.557 9.448-18.864z"/><path d="M45.997 82.447C25.902 82.447 9.556 66.097 9.556 46c0-5.873 1.36-11.482 4.04-16.678a1.188 1.188 0 012.216.311C18.682 43.965 31.377 54.37 46 54.37c7.738 0 14.031 6.296 14.031 14.03-.003 7.746-6.296 14.047-14.034 14.047zM14.328 33.404c-1.6 3.994-2.407 8.217-2.407 12.595 0 18.792 15.286 34.08 34.074 34.08 6.43 0 11.663-5.238 11.663-11.678 0-6.433-5.233-11.663-11.663-11.663-14.597-.003-27.412-9.63-31.667-23.334z"/></svg><svg viewBox="0 0 86 126" id="categogy-10" xmlns="http://www.w3.org/2000/svg"><path d="M84.505 71.58h-4.731v-6.233c0-.835-.669-1.51-1.495-1.51H55.461c-.826 0-1.495.675-1.495 1.51v6.234h-4.731c-.826 0-1.495.676-1.495 1.51v44.39c0 4.698 3.782 8.519 8.43 8.519h21.4c4.648 0 8.43-3.821 8.43-8.519v-44.39c0-.83-.67-1.51-1.495-1.51zm-27.55-4.723h19.83v4.724h-19.83v-4.724zM83.01 117.48c0 3.032-2.44 5.498-5.44 5.498h-21.4c-.167 0-.332-.011-.496-.026-2.818-.257-4.944-2.61-4.944-5.472V74.6h32.28v42.88zM36.765 78.272h-4.731v-43.02c0-.834-.67-1.51-1.495-1.51h-1.67V11.856c0-.113-.012-2.809-.703-5.547C26.843 1.095 24.156 0 22.13 0c-2.063 0-4.582 2.232-8.166 7.24-2.364 3.301-4.281 6.59-4.364 6.726a1.54 1.54 0 00-.205.767v19.008H7.72c-.822 0-1.495.676-1.495 1.51v43.02h-4.73c-.826 0-1.495.675-1.495 1.51v37.699c0 4.698 3.782 8.52 8.43 8.52h21.4c4.649 0 8.434-3.822 8.434-8.519V79.782a1.51 1.51 0 00-1.498-1.51zm-24.38-63.127l.186-.313c2.915-4.898 7.108-10.648 9.145-11.657l.415-.207.452.102c1.446.336 2.463 2.216 3.016 5.592a21.23 21.23 0 01.28 3.187v21.893H12.384V15.145zm-3.17 21.618h19.83v41.509H9.214v-41.51zM35.27 117.48c0 3.032-2.44 5.498-5.441 5.498H8.43c-.168 0-.333-.011-.497-.026-2.818-.257-4.944-2.613-4.944-5.472V81.292h32.28v36.189z"/></svg><svg viewBox="0 0 72 87" id="categogy-2" xmlns="http://www.w3.org/2000/svg"><path d="M32.072 87C14.386 87 0 72.586 0 54.868c0-17.72 14.386-32.135 32.072-32.135 17.686 0 32.072 14.414 32.072 32.135C64.141 72.586 49.755 87 32.072 87zm0-60.334c-15.518 0-28.147 12.65-28.147 28.202 0 15.549 12.626 28.202 28.147 28.202 15.521 0 28.147-12.65 28.147-28.202-.003-15.552-12.629-28.202-28.147-28.202z"/><path d="M50.238 32.673a1.966 1.966 0 01-1.654-3.019L66.797.914a1.958 1.958 0 012.708-.605 1.966 1.966 0 01.604 2.713l-18.215 28.74a1.96 1.96 0 01-1.657.911z"/><path d="M49.813 11.041a1.968 1.968 0 01-.701-3.805L67.755.127a1.965 1.965 0 012.533 1.137 1.97 1.97 0 01-1.135 2.538l-18.643 7.11c-.23.087-.465.13-.697.13z"/><path d="M70.034 23.883a1.962 1.962 0 01-1.953-1.81L66.499 2.152a1.967 1.967 0 011.8-2.118 1.964 1.964 0 012.112 1.803l1.582 19.923a1.967 1.967 0 01-1.799 2.118c-.054.006-.106.006-.16.006z"/></svg><svg viewBox="0 0 65 99" id="categogy-3" xmlns="http://www.w3.org/2000/svg"><path d="M32.502 65.323C14.579 65.323 0 50.672 0 32.663 0 14.65 14.579 0 32.502 0c17.92 0 32.501 14.651 32.501 32.663-.003 18.009-14.582 32.66-32.502 32.66zm0-61.433C16.713 3.89 3.87 16.797 3.87 32.663S16.713 61.436 32.5 61.436c15.785 0 28.631-12.907 28.631-28.773S48.286 3.89 32.502 3.89z"/><path d="M32.502 99a1.94 1.94 0 01-1.936-1.945V63.378a1.94 1.94 0 011.936-1.945 1.94 1.94 0 011.935 1.945v33.677A1.94 1.94 0 0132.502 99z"/><path d="M48.614 82.162H16.387a1.94 1.94 0 01-1.936-1.946 1.94 1.94 0 011.936-1.945h32.227a1.94 1.94 0 011.936 1.945 1.94 1.94 0 01-1.936 1.946z"/></svg><svg viewBox="0 0 108 95" id="categogy-4" xmlns="http://www.w3.org/2000/svg"><path d="M98.623 9.682C92.58 3.437 84.559 0 76.036 0a31.156 31.156 0 00-16.66 4.836l-.027.015c-.827.454-8.064 4.634-6.962 12.181.4 2.742 1.868 4.74 3.285 6.673 2.03 2.765 4.129 5.625 3.574 11.232l-.072.74-.655-.342-.065-.038a5.8 5.8 0 00-4.508-.365 5.875 5.875 0 00-3.233 2.6l-.322.547-.455-.443a7.5 7.5 0 00-1.728-1.26 7.379 7.379 0 00-3.568-.865l-.462.008-.042-.464c-.103-1.126-.043-1.872.02-2.666.077-.975.165-2.084-.068-3.82-.447-3.326-2.34-6.237-5.33-8.193-3.64-2.381-8.534-3.079-12.77-1.822-7.69 2.279-12.136 10.446-9.91 18.207a14.791 14.791 0 003.49 6.109c.976 1.023 1.503 2.38 1.448 3.724a28.304 28.304 0 001.372 9.936c2.243 6.91 7.12 12.623 13.732 16.088 4.084 2.14 8.598 3.268 13.052 3.268 2.678 0 5.333-.398 7.891-1.184a28.374 28.374 0 004.162-1.653 16.844 16.844 0 008.036-8.543 17.101 17.101 0 001.359-6.537l.007-.597.582.108a5.831 5.831 0 002.863-.189c3.058-.995 4.754-4.367 3.782-7.517l-1.633-5.292c-1.035-3.351-3.655-5.904-7.013-6.829a9.964 9.964 0 00-6.355.333l-.834.328.16-.888c1.506-8.328-1.484-12.403-3.887-15.676-1.286-1.754-2.398-3.269-2.68-5.199-.807-5.516 5.06-8.686 5.31-8.82.046-.022.088-.048.128-.073a27.9 27.9 0 0114.988-4.372c15.828 0 28.705 13.343 28.705 29.743 0 17.892-13.872 32.883-25.51 42.308-10.861 8.797-21.89 14.54-25.013 16.09l-.22.11-.222-.11c-2.925-1.452-13.284-6.834-23.734-15.067a1.62 1.62 0 00-2.286.282 1.656 1.656 0 00.28 2.308c12.683 9.992 24.768 15.665 25.278 15.901.427.2.937.2 1.366 0 .542-.252 13.432-6.307 26.522-16.894 7.729-6.251 13.9-12.783 18.333-19.416C105.153 50.145 108 41.561 108 33.03c0-8.81-3.329-17.103-9.377-23.347zM43.94 39.127l.115-.28.3-.027a4.184 4.184 0 014.222 2.5l.094.216-1.136 2.253-7.71-.153.907-.85c.258-.242.515-.468.767-.69.942-.837 1.916-1.701 2.44-2.969zm16.13 6.018l.022-.058.742-1.456a6.893 6.893 0 011.08-1.258 6.815 6.815 0 016.434-1.55 6.888 6.888 0 014.761 4.637l1.632 5.292c.444 1.436-.305 2.966-1.672 3.412-1.283.418-2.7-.237-3.224-1.49l-.018-.045-1.244-4.032a1.629 1.629 0 00-.797-.967 1.609 1.609 0 00-1.244-.114 1.65 1.65 0 00-1.072 2.057l1.28 4.14c2 6.517-.925 13.406-6.96 16.382a24.622 24.622 0 01-3.68 1.462 23.36 23.36 0 01-6.87 1.028c-10.401 0-20.418-6.794-23.758-17.078a24.981 24.981 0 01-1.212-8.777c.093-2.232-.767-4.47-2.355-6.138a11.333 11.333 0 01-2.708-4.743c-1.729-6.028 1.726-12.37 7.696-14.142a12.063 12.063 0 013.438-.489c2.393 0 4.753.68 6.642 1.915 1.544 1.01 3.47 2.848 3.874 5.877.188 1.383.123 2.187.05 3.117-.085 1.066-.182 2.276.113 4.314.207 1.452-.175 1.857-1.674 3.185-.387.346-.817.726-1.257 1.16l-.08.08a3.569 3.569 0 00-.819 3.848 3.487 3.487 0 003.18 2.22l7.307.146a2.92 2.92 0 002.663-1.607l3.082-6.099a2.611 2.611 0 013.535-1.156c.625.32 1.09.87 1.307 1.542a2.65 2.65 0 01-.16 2.023l-.13.255a10.192 10.192 0 00-.857 1.698l-.02.04-2.073 4.106a8.267 8.267 0 01-4.884 4.133 8.177 8.177 0 01-2.568.37l-9.208-.189c-.892-.028-1.644.706-1.66 1.61a1.642 1.642 0 001.595 1.678l9.208.187a11.277 11.277 0 003.602-.52 11.516 11.516 0 005.281-3.482l.587-.68 1.766 5.723a1.63 1.63 0 002.041 1.08 1.653 1.653 0 001.072-2.059L59.96 49.59a7.032 7.032 0 01.11-4.445z"/><path d="M49.196 7.144a1.618 1.618 0 01-2.245.514 27.9 27.9 0 00-14.989-4.372c-15.827 0-28.705 13.343-28.705 29.743 0 10.697 4.874 21.465 14.481 32.004.295.325.448.743.43 1.181a1.64 1.64 0 01-.524 1.142 1.621 1.621 0 01-2.304-.096C5.16 56.094 0 44.576 0 33.03 0 14.816 14.339 0 31.962 0a31.134 31.134 0 0116.724 4.879c.76.483.99 1.499.51 2.265z"/></svg><svg viewBox="0 0 95 99" id="categogy-5" xmlns="http://www.w3.org/2000/svg"><path d="M47.5 99c-.215 0-.403-.054-.591-.134-13.265-6.572-30.96-18.83-40.062-39.911C-3.84 34.118 1.127 5.552 1.342 4.345c.08-.429.376-.804.779-.992a1.403 1.403 0 011.262.107c.08.054 8.727 5.31 23.898 3.406C42.29 4.99 46.479.483 46.506.456c.269-.295.537-.43 1.02-.456.377 0 .752.16.994.456.054.08 4.27 4.56 19.226 6.41 15.17 1.905 23.817-3.352 23.897-3.406a1.32 1.32 0 011.262-.08c.403.187.698.563.779.992.215 1.207 5.182 29.772-5.504 54.583-9.076 21.082-26.798 33.34-40.063 39.91A1.69 1.69 0 0147.5 99zM3.705 6.652c-.913 6.705-3.249 30.657 5.612 51.23 8.62 20.01 25.401 31.838 38.183 38.275C60.28 89.72 77.063 77.89 85.682 57.882c8.861-20.573 6.525-44.525 5.612-51.23-3.41 1.556-11.6 4.426-23.897 2.897-12.272-1.53-17.83-4.802-19.897-6.41-2.068 1.608-7.653 4.88-19.897 6.41C15.305 11.078 7.115 8.208 3.705 6.652z"/><path d="M47.5 88.298a1.54 1.54 0 01-.672-.16C36.544 82.37 22.77 71.962 15.547 55.2 9.854 41.976 9.183 27.224 9.586 17.193c.027-.376.188-.751.51-.992.322-.242.698-.35 1.074-.269 5.45.966 11.304 1.073 17.265.349 7.465-.939 13.695-2.575 18.474-4.882a1.253 1.253 0 011.155 0c4.78 2.307 11.009 3.943 18.473 4.882 5.961.751 11.815.644 17.239-.349.376-.053.779.027 1.074.269.295.24.483.616.51.992.43 10.085-.268 24.864-5.934 38.007-7.223 16.763-20.998 27.144-31.282 32.937a1.28 1.28 0 01-.644.161zM12.217 18.802c-.268 9.683.564 23.201 5.8 35.325C24.784 69.844 37.645 79.769 47.5 85.4c9.854-5.632 22.716-15.556 29.483-31.274 5.182-12.043 6.041-25.588 5.773-35.325-5.263.778-10.848.805-16.514.108-7.465-.94-13.748-2.575-18.715-4.855-4.968 2.28-11.278 3.916-18.743 4.855-5.692.724-11.277.697-16.567-.108z"/></svg><svg viewBox="0 0 118 92" id="categogy-6" xmlns="http://www.w3.org/2000/svg"><path d="M117.804 43.737c-.393-2.243-1.422-4.31-2.899-5.993a12.454 12.454 0 00-5.58-3.67 12.53 12.53 0 00-5.615-.483c-.237.038-.452-.111-.522-.36-2.708-9.393-8.5-17.85-16.306-23.811C78.816 3.257 69.174 0 59 0 48.826 0 39.184 3.257 31.117 9.42c-7.805 5.962-13.597 14.418-16.305 23.813a.475.475 0 01-.524.358 12.514 12.514 0 00-5.611.483C4.312 35.46.983 39.254.196 43.737c-.652 3.714.342 7.474 2.732 10.32a12.504 12.504 0 0011.352 4.354.475.475 0 01.531.348c2.71 9.403 8.501 17.86 16.306 23.824C39.181 88.743 48.825 92 59 92c10.176 0 19.819-3.258 27.882-9.417 7.806-5.962 13.598-14.419 16.306-23.814a.471.471 0 01.532-.358 12.506 12.506 0 0011.351-4.354c2.391-2.846 3.385-6.606 2.733-10.32zm-4.845 8.546a9.745 9.745 0 01-8.848 3.397 3.218 3.218 0 00-3.576 2.323c-2.547 8.829-7.989 16.778-15.328 22.385C77.629 86.178 68.565 89.24 59 89.24c-9.563 0-18.626-3.062-26.207-8.852-7.34-5.61-12.784-13.559-15.326-22.382-.408-1.413-1.656-2.362-3.104-2.362-.162 0-.317.012-.471.034a9.748 9.748 0 01-8.851-3.395c-1.888-2.255-2.644-5.12-2.127-8.068.613-3.482 3.204-6.43 6.598-7.512a9.738 9.738 0 014.384-.376c1.613.229 3.115-.751 3.571-2.33 2.543-8.824 7.987-16.773 15.326-22.382A42.945 42.945 0 0146.75 4.513a.363.363 0 01.374.587c-1.588 1.825-2.465 3.938-2.465 5.947 0 2.456 1.292 4.62 3.64 6.092 2.488 1.563 6.087 2.355 10.701 2.355 3.757 0 6.697-.445 8.742-1.321 2.883-1.234 3.312-3.062 3.312-4.04 0-3.692-5.407-6.696-12.054-6.696-.76 0-1.381.62-1.381 1.381S58.239 10.2 59 10.2c5.765 0 9.293 2.547 9.293 3.933 0 .51-.597 1.055-1.637 1.502-1.169.502-3.446 1.099-7.656 1.099-4.025 0-7.216-.67-9.235-1.932-1.554-.976-2.344-2.238-2.344-3.755 0-3.832 5.058-8.285 11.579-8.285 9.565 0 18.629 3.062 26.207 8.853 7.337 5.604 12.781 13.553 15.328 22.381.454 1.58 1.956 2.562 3.568 2.328a9.774 9.774 0 014.385.38c3.397 1.081 5.985 4.03 6.598 7.511.517 2.951-.237 5.815-2.127 8.068z"/><path d="M75.731 59.03h-33.46c-.76 0-1.38.618-1.38 1.378 0 8.964 8.124 16.256 18.11 16.256 9.985 0 18.108-7.292 18.108-16.256a1.38 1.38 0 00-1.378-1.379zm-1.519 3.177C73.201 68.874 66.661 73.902 59 73.902c-7.66 0-14.2-5.028-15.212-11.695l-.063-.418h30.55l-.063.418zM45.511 46c0 .76-.62 1.381-1.38 1.381-.761 0-1.382-.62-1.382-1.381a2.34 2.34 0 00-2.337-2.337A2.34 2.34 0 0038.075 46c0 .76-.62 1.381-1.38 1.381-.761 0-1.382-.62-1.382-1.381a5.103 5.103 0 015.1-5.097A5.103 5.103 0 0145.51 46zm37.176 0c0 .76-.62 1.381-1.381 1.381-.76 0-1.381-.62-1.381-1.381a2.34 2.34 0 00-2.337-2.337A2.34 2.34 0 0075.25 46c0 .76-.618 1.381-1.379 1.381-.76 0-1.38-.62-1.38-1.381a5.103 5.103 0 015.096-5.097 5.103 5.103 0 015.1 5.097z"/></svg><svg viewBox="0 0 88 91" id="categogy-7" xmlns="http://www.w3.org/2000/svg"><path d="M12.053 91c-4.134 0-6.818-1.217-8.517-2.537-2.85-2.22-3.685-5.349-3.516-7.535 1.566-20.196 39.97-21.01 41.602-21.032h1.175c1.656.026 40.059.839 41.617 21.034.171 2.187-.66 5.315-3.511 7.536-2.794 2.175-8.263 4.067-18.47.714-8.545-2.807-15.393-6.711-20.213-10.021-4.82 3.31-11.668 7.214-20.214 10.02-4.003 1.312-7.28 1.82-9.953 1.82zm32.66-13.63c4.603 3.071 10.924 6.58 18.618 9.106 7.025 2.309 12.64 2.218 15.81-.254 1.962-1.527 2.537-3.625 2.425-5.075-1.36-17.64-38.414-18.405-38.789-18.41h-1.132c-.352.005-37.408.785-38.775 18.407-.111 1.453.466 3.549 2.428 5.078 3.173 2.472 8.788 2.56 15.813.254 7.694-2.526 14.015-6.035 18.618-9.106-3.476-2.602-5.412-4.53-5.592-4.715a1.415 1.415 0 01.014-2.01 1.433 1.433 0 012.022.014c.045.046 2.173 2.161 6.05 4.976 3.873-2.812 6-4.928 6.046-4.976a1.436 1.436 0 012.022-.014c.56.552.569 1.45.014 2.01-.18.185-2.113 2.113-5.592 4.715zm21.909-23.113c-.79 0-1.43-.637-1.43-1.422v-9.051c0-11.759-9.617-21.328-21.443-21.328-11.825 0-21.443 9.566-21.443 21.328v9.051c0 .785-.64 1.422-1.43 1.422a1.427 1.427 0 01-1.429-1.422v-9.051c0-13.328 10.902-24.171 24.302-24.171s24.302 10.843 24.302 24.17v9.052c0 .785-.64 1.422-1.43 1.422z"/><path d="M11.153 63.928C5.003 63.928 0 58.952 0 52.835v-3.134c0-.785.64-1.422 1.43-1.422.789 0 1.43.637 1.43 1.422v3.134c0 4.55 3.719 8.25 8.293 8.25 4.575 0 8.294-3.7 8.294-8.25v-3.134c0-.785.64-1.422 1.43-1.422.789 0 1.43.637 1.43 1.422v3.134c0 6.117-5.004 11.093-11.154 11.093zm65.193 0c-6.15 0-11.15-4.976-11.15-11.093v-3.134c0-.785.64-1.422 1.429-1.422s1.43.637 1.43 1.422v3.134c0 4.55 3.719 8.25 8.29 8.25 4.575 0 8.298-3.7 8.298-8.25v-3.134c0-.785.64-1.422 1.43-1.422.788 0 1.429.637 1.429 1.422v3.134c-.003 6.117-5.006 11.093-11.156 11.093zM44.455 22.456c-6.227 0-11.293-5.036-11.293-11.226C33.162 5.035 38.228 0 44.455 0c6.227 0 11.29 5.039 11.29 11.23 0 6.19-5.065 11.226-11.29 11.226zm0-19.612c-4.651 0-8.434 3.762-8.434 8.386 0 4.62 3.783 8.383 8.434 8.383 4.65 0 8.432-3.76 8.432-8.383 0-4.624-3.783-8.386-8.432-8.386zm-.269 51.609c-.151 0-.303 0-.457-.003a1.43 1.43 0 01-1.373-1.743c.032-.134.787-3.304 3.32-6.387 2.356-2.863 6.736-6.196 14.232-5.804.395.02.767.205 1.021.506.255.302.372.697.323 1.087-.017.13-.423 3.253-2.825 6.33-2.147 2.76-6.358 6.014-14.24 6.014zM58 43.343c-7.734.301-11.008 5.414-12.229 8.215 4.618-.295 8.111-1.928 10.401-4.862A11.757 11.757 0 0058 43.343z"/><path d="M43.318 54.453c-7.886 0-12.097-3.253-14.25-6.011-2.399-3.077-2.808-6.2-2.825-6.33a1.412 1.412 0 01.323-1.087 1.43 1.43 0 011.021-.506c7.505-.39 11.882 2.943 14.235 5.804 2.536 3.08 3.291 6.253 3.322 6.387.098.418 0 .859-.268 1.197a1.443 1.443 0 01-1.104.546c-.151-.003-.306 0-.454 0zm-13.835-11.11c.909 2.633 3.75 7.655 12.245 8.215-1.22-2.804-4.5-7.916-12.245-8.215z"/><path d="M40.881 48.857c-.603 0-1.16-.381-1.358-.981-3.11-9.487 3.334-15.151 3.608-15.387a1.435 1.435 0 012.076.224c4.392 5.83 4.157 11.164 3.185 14.614a1.43 1.43 0 01-1.761.987 1.42 1.42 0 01-.992-1.752c1.02-3.623.434-7.217-1.736-10.706-1.404 1.84-3.45 5.701-1.667 11.141a1.418 1.418 0 01-1.355 1.86z"/></svg><svg viewBox="0 0 117 65" id="categogy-8" xmlns="http://www.w3.org/2000/svg"><path d="M56.305 64.78c-1.628 0-3.251-.07-4.875-.21-16.345-1.414-29.343-9.867-37.365-16.711C5.389 40.46.627 33.49.427 33.195a1.244 1.244 0 010-1.387c.2-.292 4.962-7.263 13.638-14.663C22.09 10.3 35.084 1.845 51.43.434c21.543-1.861 43.418 8.641 65.015 31.215.453.474.453 1.23 0 1.704-19.97 20.874-40.177 31.427-60.14 31.427zM2.883 32.502c1.424 1.94 5.87 7.664 12.768 13.536 7.754 6.6 20.295 14.752 36 16.103 20.524 1.766 41.47-8.207 62.269-29.641C93.12 11.067 72.175 1.096 51.653 2.86c-15.707 1.352-28.245 9.503-36 16.104-6.9 5.874-11.343 11.597-12.77 13.538z"/><path d="M56.306 65a57.28 57.28 0 01-4.895-.21c-16.401-1.42-29.438-9.899-37.487-16.764C5.236 40.615.449 33.615.25 33.32a1.475 1.475 0 010-1.64c.2-.295 4.986-7.294 13.676-14.706C21.973 10.108 35.01 1.628 51.413.21c21.612-1.865 43.544 8.657 65.189 31.282a1.472 1.472 0 010 2.014C96.608 54.404 76.322 65 56.306 65zM56.303.443c-1.621 0-3.236.069-4.855.21-16.289 1.407-29.245 9.836-37.245 16.66C5.56 24.687.805 31.64.605 31.933a1.02 1.02 0 000 1.134c.198.293 4.954 7.245 13.598 14.62 8.002 6.824 20.956 15.252 37.247 16.66 1.608.139 3.243.21 4.858.21 19.895 0 40.077-10.552 59.986-31.36a1.018 1.018 0 000-1.393C96.366 10.974 76.206.443 56.304.443zm-.008 62.117a54.58 54.58 0 01-4.66-.199c-15.763-1.356-28.344-9.534-36.122-16.155C8.684 40.392 4.283 34.778 2.71 32.633l-.097-.133.097-.133c1.574-2.145 5.974-7.762 12.803-13.573 7.778-6.621 20.36-14.8 36.121-16.155 20.59-1.768 41.595 8.225 62.44 29.706l.152.155-.152.155C94.798 52.519 75.384 62.56 56.294 62.56zM3.157 32.5c1.645 2.224 5.978 7.7 12.636 13.367 7.73 6.58 20.229 14.708 35.878 16.055 20.4 1.755 41.241-8.142 61.943-29.42-20.7-21.28-41.542-31.177-61.943-29.422-15.65 1.345-28.15 9.472-35.88 16.053C9.134 24.8 4.8 30.274 3.156 32.5z"/><path d="M58.507 64.365c-17.194 0-31.18-14.293-31.18-31.864 0-17.57 13.988-31.866 31.18-31.866 17.188 0 31.17 14.296 31.17 31.866s-13.982 31.864-31.17 31.864zm0-61.293c-15.879 0-28.796 13.201-28.796 29.43 0 16.225 12.917 29.426 28.796 29.426 15.872 0 28.786-13.201 28.786-29.427 0-16.228-12.914-29.429-28.786-29.429z"/><path d="M58.507 64.586c-17.314 0-31.398-14.394-31.398-32.086C27.11 14.807 41.195.412 58.507.412c17.307 0 31.387 14.395 31.387 32.088 0 17.692-14.08 32.086-31.387 32.086zm0-63.73C41.434.855 27.543 15.05 27.543 32.5c0 17.449 13.89 31.642 30.964 31.642 17.067 0 30.953-14.196 30.953-31.642C89.46 15.05 75.576.855 58.507.855zm0 61.292c-15.998 0-29.013-13.3-29.013-29.648 0-16.35 13.015-29.65 29.013-29.65C74.5 2.85 87.51 16.15 87.51 32.5c0 16.347-13.01 29.648-29.002 29.648zm0-58.856c-15.76 0-28.58 13.102-28.58 29.208 0 16.104 12.823 29.205 28.58 29.205 15.753 0 28.569-13.101 28.569-29.205 0-16.106-12.816-29.208-28.569-29.208z"/><path d="M58.508 48.271c-8.51 0-15.437-7.075-15.437-15.771 0-8.697 6.926-15.77 15.437-15.77 8.504 0 15.421 7.075 15.421 15.77 0 8.694-6.917 15.771-15.421 15.771zm0-29.103c-7.197 0-13.052 5.98-13.052 13.332 0 7.351 5.855 13.334 13.052 13.334 7.188 0 13.037-5.983 13.037-13.334 0-7.352-5.849-13.332-13.037-13.332z"/><path d="M58.508 48.49c-8.632 0-15.654-7.174-15.654-15.992 0-8.819 7.022-15.991 15.654-15.991 8.623 0 15.638 7.174 15.638 15.99 0 8.821-7.015 15.994-15.638 15.994zm0-31.54c-8.392 0-15.22 6.975-15.22 15.548 0 8.574 6.829 15.55 15.22 15.55 8.385 0 15.204-6.976 15.204-15.55 0-8.573-6.82-15.548-15.204-15.548zm0 29.103c-7.316 0-13.269-6.08-13.269-13.555 0-7.474 5.953-13.554 13.269-13.554 7.307 0 13.253 6.08 13.253 13.554 0 7.475-5.944 13.555-13.253 13.555zm0-26.666c-7.078 0-12.835 5.883-12.835 13.11 0 7.23 5.757 13.113 12.835 13.113 7.069 0 12.82-5.883 12.82-13.112 0-7.228-5.751-13.11-12.82-13.11z"/></svg><svg viewBox="0 0 87 98" id="categogy-9" xmlns="http://www.w3.org/2000/svg"><path d="M87 54.553C87 78.509 67.488 98 43.5 98 19.515 98 0 78.508 0 54.553c0-18.191 11.527-34.588 28.695-40.808a1.58 1.58 0 012.019.936c.295.826-.13 1.743-.94 2.04-15.909 5.78-26.6 20.983-26.6 37.832 0 22.21 18.09 40.276 40.326 40.276 22.237 0 40.326-18.067 40.326-40.276 0-16.88-10.691-32.083-26.612-37.835a1.541 1.541 0 01-.88-.807 1.57 1.57 0 01-.045-1.23c.14-.392.426-.702.806-.881a1.58 1.58 0 011.222-.049C75.473 19.974 87 36.371 87 54.553z"/><path d="M45.078 55.82c0 .88-.709 1.594-1.578 1.594-.882 0-1.575-.69-1.575-1.573V1.573C41.925.693 42.618 0 43.5 0a1.56 1.56 0 011.578 1.573v54.246z"/><path d="M45.078 1.573v54.246c0 .881-.709 1.595-1.578 1.595-.882 0-1.575-.69-1.575-1.573V1.573C41.925.693 42.618 0 43.5 0a1.56 1.56 0 011.578 1.573z"/></svg><svg viewBox="0 0 82 99" id="categogy-el-1" xmlns="http://www.w3.org/2000/svg"><path d="M42.444 1.165c-30.717-6.373-36.288 14.5-32.78 35.9C13.17 58.463.7 60.432.018 71.767c-.851 14.168 27.373 30.16 57.579 25.914C97.266 92.105 75.41 34.373 75.41 34.373S73.161 7.538 42.444 1.165z"/></svg><svg viewBox="0 0 114 138" id="categogy-el-10" xmlns="http://www.w3.org/2000/svg"><path d="M104.5 66C128.747 16.58 65.145-9.763 46.14 4.272 27.138 18.307 23.768 23.569 12.429 28.576c-14.173 6.259-21.938 85.216 11.035 85.216 14.5 0 40.538 38.708 76.537 17.708 36-21-12-44.5 4.5-65.5z"/></svg><svg viewBox="0 0 103 102" id="categogy-el-2" xmlns="http://www.w3.org/2000/svg"><path d="M22.024 3.54c-31.542 12.22-24.32 34.69-8.571 52.3C29.2 73.452 19.07 82.604 25.115 93.426c7.555 13.527 42.496 11.618 67.337-10.065 32.624-28.477-21.078-68.693-21.078-68.693S53.568-8.682 22.024 3.539z"/></svg><svg viewBox="0 0 103 101" id="categogy-el-3" xmlns="http://www.w3.org/2000/svg"><path d="M100.57 25.12C91.348-7.427 68.302-2.335 49.297 11.7c-19.004 14.035-27.17 3.096-38.51 8.103-14.173 6.259-15.535 41.225 3.735 67.983 25.307 35.14 70.36-14.573 70.36-14.573s24.91-15.547 15.688-48.094z"/></svg><svg viewBox="0 0 112 97" id="categogy-el-4" xmlns="http://www.w3.org/2000/svg"><path d="M110.875 49.15c2.364-33.745-20.06-53.639-42.7-46.882-22.638 6.757-27.592 10.564-39.957 11.428C12.761 14.776-14.828 68.57 10.7 89.441c27.914 22.821 59.848-15.627 59.848-15.627s37.963 9.082 40.327-24.664z"/></svg><svg viewBox="0 0 123 115" id="categogy-el-5" xmlns="http://www.w3.org/2000/svg"><path d="M117.963 59.291C142.21 9.871 65.145-8.763 46.141 5.271 27.137 19.308 23.767 24.57 12.428 29.577-1.745 35.835-9.51 114.79 23.463 114.79c14.5 0 36.74-23.709 53-36 22.5-2.5 36.021-11.86 41.5-19.5z"/></svg><svg viewBox="0 0 110 95" id="categogy-el-6" xmlns="http://www.w3.org/2000/svg"><path d="M32.605 3.65C1.06 15.87-7.364 55.56 8.385 73.17c15.748 17.612 32.72-14.52 51.72 9.98 7.367 9.5 26.275 23.051 44.125-4.674C124.386 47.171 85.104 23.65 85.104 23.65s-20.956-32.22-52.5-20z"/></svg><svg viewBox="0 0 110 103" id="categogy-el-7" xmlns="http://www.w3.org/2000/svg"><path d="M33.417 2.484C1.873 14.705-7.749 59.39 8 77c15.748 17.61 22.464 4.549 28.508 15.371 7.555 13.527 49.487 17.659 67.337-10.065C124 51 85.5 30.5 85.5 30.5S64.961-9.736 33.417 2.484z"/></svg><svg viewBox="0 0 102 106" id="categogy-el-8" xmlns="http://www.w3.org/2000/svg"><path d="M96.005 43.088c4.545-31.53-38.821-51.163-55.283-39.006-16.461 12.157-19.38 16.715-29.201 21.052C-.756 30.555-7.433 82.494 19.5 92c29.45 10.394 59.12 24.298 76.504 0 14.23-19.89-4.545-17.383 0-48.912z"/></svg><svg viewBox="0 0 100 109" id="categogy-el-9" xmlns="http://www.w3.org/2000/svg"><path d="M88.557 32.249C93.102.719 56.451-5.564 39.99 6.593 23.528 18.75 20.61 23.307 10.788 27.645c-12.277 5.421-18.953 57.36 7.98 66.866 29.45 10.394 59.12 24.298 76.504 0 14.23-19.89-11.26-30.733-6.715-62.262z"/></svg><svg viewBox="0 0 17 30" id="facebook" xmlns="http://www.w3.org/2000/svg"><path d="M15.38 16.702l.823-5.346h-5.148V7.887c0-1.462.72-2.888 3.025-2.888h2.34V.448S14.296.087 12.265.087c-4.24 0-7.01 2.56-7.01 7.195v4.075H.543v5.346h4.713v12.923a18.79 18.79 0 005.8 0V16.702h4.324z"/></svg><svg viewBox="0 0 269 231" id="footer-logo" xmlns="http://www.w3.org/2000/svg"><path d="M137.897 183.911c-13.43 36.876-54.21 55.897-91.104 42.473l-.056-.021c-.022-.007-.022-.007-.036-.014-36.836-13.467-55.81-54.206-42.394-91.039.835-2.3 3.986-9.893 4.566-11.492C23.656 83.234 38.432 42.65 53.215 2.059 56.153 3.128 71.658 9.1 79.686 26.303c5.077 10.877 5.997 23.685 1.565 35.857l-32.475 89.185c-4.489 12.32 1.876 25.95 14.202 30.436 12.326 4.487 25.948-1.882 30.43-14.202l16.687-44.427c2.166-5.944 5.402-11.195 9.416-15.589 12.333-13.502 31.987-19.057 50.26-12.603-10.025 27.86-20.043 55.72-30.068 83.58l-1.806 5.371zm58.969 1.217c-24.603-8.951-37.29-36.146-28.334-60.737l9.622-26.431c24.602 8.952 37.289 36.147 28.333 60.738l-9.621 26.43zm71.379-113.783c-8.956 24.591-36.164 37.272-60.766 28.32l-26.444-9.617c8.956-24.59 36.164-37.271 60.767-28.327l26.443 9.624zM154.415 0c24.602 8.952 37.289 36.147 28.34 60.738l-9.621 26.43c-24.603-8.951-37.29-36.146-28.341-60.737L154.415 0z"/></svg><svg viewBox="0 0 30 30" id="instagram" xmlns="http://www.w3.org/2000/svg"><path d="M22.673 5.681a1.712 1.712 0 10-.001 3.425 1.712 1.712 0 00.001-3.425zm-7.615 2.195c-3.968 0-7.196 3.226-7.196 7.193 0 3.965 3.229 7.193 7.196 7.193 3.968 0 7.196-3.228 7.196-7.193 0-3.966-3.229-7.193-7.196-7.193zm0 11.8a4.613 4.613 0 01-4.61-4.607 4.614 4.614 0 014.61-4.608 4.614 4.614 0 014.61 4.608 4.614 4.614 0 01-4.61 4.607z"/><path d="M20.77 29.672H9.105c-4.84 0-8.777-3.935-8.777-8.773V9.24C.328 4.4 4.265.466 9.105.466h11.666c4.839 0 8.777 3.936 8.777 8.773V20.9c-.001 4.837-3.938 8.772-8.778 8.772zM9.105 3.214a6.033 6.033 0 00-6.028 6.025v11.66a6.033 6.033 0 006.028 6.026h11.666a6.033 6.033 0 006.028-6.026V9.24a6.033 6.033 0 00-6.028-6.025H9.105z"/></svg><svg viewBox="0 0 24 26" id="logo" xmlns="http://www.w3.org/2000/svg"><path d="M15.046 18.319c0 4.028-3.367 7.294-7.522 7.294h-.01C3.363 25.607 0 22.343 0 18.319c0-.252.038-1.095.038-1.269V3.75c.331 0 2.09.032 3.511 1.41a4.728 4.728 0 011.454 3.403v9.741c0 1.346 1.126 2.438 2.514 2.438 1.389 0 2.513-1.092 2.513-2.438l.05-4.87c0-.65.133-1.27.372-1.834.738-1.735 2.491-2.96 4.542-2.98l.036 9.117.016.582zm5.909-1.952c-2.772 0-5.018-2.179-5.018-4.865V8.615c2.771 0 5.018 2.178 5.018 4.864v2.888zm2.978-13.48c0 2.687-2.247 4.865-5.018 4.865h-2.978c0-2.687 2.246-4.865 5.018-4.865h2.978zM10.027 0c2.772 0 5.019 2.178 5.019 4.865v2.887c-2.772 0-5.019-2.178-5.019-4.865V0z"/></svg><svg viewBox="0 0 4000 128" id="popular_products-bg-el" xmlns="http://www.w3.org/2000/svg"><path d="M1605.62 45.734c-235.44-34.066-521.69 14.193-635.387 42.581-273.288 71.873-760.692 29.947-970.233 0V0h4000v88.315C3703.8 44.174 3022.07-26.14 2664.76 45.734c-443.17 89.144-759.9 43.306-1052.29.992l-6.85-.992z"/></svg><svg viewBox="0 0 621 34" id="popular_products-bg-el-mobile" xmlns="http://www.w3.org/2000/svg"><path d="M0 .38h620.879H605C404.594 90.95 223.094-36.1 0 16.731V.38z"/></svg><svg viewBox="0 0 58 65" id="product-info-icon-1" xmlns="http://www.w3.org/2000/svg"><path d="M15.643 41.27l-.017-.032v-.017l-.051-.244c0-.032-.017-.065-.017-.098l-.051-.276c-.017-.114-.034-.229-.051-.326-.017-.065-.017-.114-.017-.18L12.518 42.9c.05.456.084.896.084 1.352l3.075-2.948c-.034-.016-.034-.016-.034-.033zM45.465 12.2c-.408.048-.798.13-1.206.211l-3.482 3.339h.085c.459 0 .9.032 1.325.081l3.838-3.68c-.17 0-.373.016-.56.048z"/><path d="M29.28 0C13.504 0 .665 12.313.665 27.443s12.84 27.444 28.617 27.444c15.777 0 28.617-12.313 28.617-27.444C57.915 12.313 45.058 0 29.28 0zm0 53.877c-7.387 0-14.112-2.801-19.071-7.362l3.94-3.778v-.017c0-.456-.034-.911-.068-1.351l-4.62 4.43c-4.789-4.756-7.727-11.222-7.727-18.34 0-14.576 12.364-26.433 27.564-26.433 7.421 0 14.164 2.834 19.123 7.41l-5.554 5.326c.255-.048.493-.081.748-.114.322-.032.628-.048.95-.065l4.62-4.43c4.755 4.756 7.677 11.206 7.677 18.29C56.845 42.02 44.48 53.877 29.28 53.877z"/><path d="M40.268 18.453c0 .065 0 .13-.017.212 0 .081-.017.163-.017.244 0 .065-.017.13-.017.18a27.5 27.5 0 00-.051.407c-.017.081-.017.146-.034.228-.017.065-.017.13-.034.195-.017.049-.017.114-.034.163-.017.065-.017.114-.034.179l-.05.195c-.018.098-.052.196-.069.294-.017.065-.034.13-.05.179-.018.081-.052.163-.069.228-.102.31-.22.619-.34.928-.033.065-.067.147-.101.212-.034.081-.068.146-.102.228-.068.13-.136.277-.204.407-.05.082-.102.18-.153.26a1.167 1.167 0 01-.119.196c-.034.065-.085.13-.136.212-.05.065-.084.13-.135.195-.034.05-.068.114-.12.163-.016.016-.033.049-.05.065-.034.05-.085.114-.119.163l-.153.196c-.05.065-.102.13-.136.179l-.017.016c-.05.065-.102.114-.153.18-.05.064-.101.113-.152.178-.272.31-.56.603-.884.88-.05.049-.119.098-.17.146-.05.05-.101.082-.152.13-.085.066-.153.131-.238.196-.068.049-.119.098-.187.147l-.204.146-.203.147a1.427 1.427 0 01-.204.13c-.068.05-.136.082-.204.13l-.153.098c-.187.114-.39.228-.594.326-.051.033-.12.049-.17.081-.085.05-.187.082-.272.13-.05.033-.119.05-.17.082-.17.082-.34.147-.51.212-.05.016-.118.049-.186.065-.323.114-.662.212-1.002.31a19.06 19.06 0 01-.442.097h-.034c-.085.016-.152.033-.237.05-.34.064-.68.113-1.02.146-.067 0-.135.016-.203.016-.102.016-.204.016-.323.016a8.9 8.9 0 01-.102-1.352v-.228c0-.081 0-.146.017-.228v-.374c0-.05 0-.082.017-.13 0-.066.017-.147.034-.212s.017-.147.034-.212.017-.147.034-.212c0-.032.017-.065.017-.114v-.016c0-.016 0-.033.017-.065 0-.017.017-.049.017-.065v-.049c0-.017 0-.033.017-.049.017-.081.034-.18.068-.26.017-.05.017-.098.034-.13.017-.034.017-.066.034-.099.017-.049.034-.114.05-.163.035-.114.086-.244.12-.358.05-.163.119-.31.187-.456.034-.065.068-.146.102-.212v-.016c.034-.081.067-.146.101-.228.034-.049.051-.114.085-.163a.771.771 0 00.051-.114c.034-.049.051-.114.085-.163.034-.065.085-.146.136-.211.051-.065.085-.147.136-.212a5.99 5.99 0 01.289-.407l.152-.196.153-.195.153-.196c.12-.13.221-.244.34-.358.05-.065.119-.114.17-.18l.153-.146.407-.342c.051-.049.119-.081.17-.13.34-.26.713-.505 1.087-.733.068-.032.136-.081.204-.114l.203-.098c.017-.016.035-.016.051-.016.051-.033.12-.049.17-.081.034-.017.051-.033.085-.033.136-.065.272-.114.408-.18h.017c.153-.064.322-.13.475-.178a2.47 2.47 0 01.374-.114c.119-.033.255-.065.374-.098.101-.032.203-.049.305-.065.051-.016.102-.016.153-.033.289-.065.594-.097.883-.13.051 0 .12-.016.17-.016.051 0 .102-.017.153-.017.05 0 .102 0 .153-.016.102 0 .187-.016.288-.016h.238a5.31 5.31 0 011.359.016zm-11.701 8.796c0 .456-.034.912-.102 1.352a11.97 11.97 0 01-2.293-.342c-4.552-1.173-7.931-5.098-8.084-9.789a10.27 10.27 0 011.223-.081c4.687 0 8.542 3.338 9.154 7.655.068.39.102.798.102 1.205zm0 9.431c0 .455-.034.911-.102 1.35a11.191 11.191 0 01-6.131-2.182 10.896 10.896 0 01-2.038-1.97c-1.325-1.678-2.14-3.746-2.208-5.994a10.27 10.27 0 011.223-.081 9.52 9.52 0 015.502 1.742 9.085 9.085 0 012.021 1.971 8.519 8.519 0 011.733 5.163zm11.701-8.796c-.17 5.456-4.705 9.87-10.377 10.146a8.887 8.887 0 01-.102-1.352c0-4.902 4.144-8.86 9.239-8.86.425 0 .832.017 1.24.066zm-11.701 17.98a8.9 8.9 0 01-.102 1.352c-.153 0-.323-.017-.475-.033-.051 0-.12-.016-.187-.016-.051 0-.12-.016-.17-.016-.051 0-.102-.017-.136-.017a9.522 9.522 0 01-.985-.179l-.204-.049-.203-.048c-.085-.017-.17-.05-.255-.066-.12-.032-.255-.081-.374-.114-.068-.016-.136-.048-.204-.065a1.207 1.207 0 01-.17-.065c-.152-.065-.322-.114-.475-.195a6.712 6.712 0 01-.34-.147 1.845 1.845 0 01-.186-.098c-.069-.032-.12-.065-.187-.097-.051-.033-.102-.05-.153-.082-.272-.146-.544-.31-.815-.472-.068-.049-.136-.082-.187-.13a10.807 10.807 0 01-1.817-1.548.817.817 0 00-.12-.13c-.033-.033-.067-.081-.101-.114a1.149 1.149 0 01-.136-.163c-.102-.13-.204-.244-.306-.374-.05-.066-.102-.13-.153-.196a5.413 5.413 0 01-.271-.39c-.051-.066-.085-.131-.136-.196-.085-.13-.17-.26-.238-.407-.034-.05-.05-.098-.085-.13a.481.481 0 01-.068-.131 1.755 1.755 0 00-.102-.18c-.034-.048-.05-.113-.085-.162a9.672 9.672 0 01-.407-.961c-.034-.065-.051-.147-.068-.212-.034-.081-.051-.146-.085-.228-.017-.081-.051-.163-.068-.228-.034-.097-.05-.195-.085-.293v-.016c-.017-.082-.05-.163-.068-.26 0-.033-.017-.05-.017-.082-.017-.082-.034-.18-.05-.26-.018-.098-.035-.213-.052-.31-.017-.098-.034-.196-.05-.31-.018-.081-.018-.146-.035-.228 0-.049-.017-.114-.017-.179 0-.081-.017-.147-.017-.228v-.016c0-.114-.017-.212-.017-.31a10.29 10.29 0 011.223-.081h.476c.085 0 .153.016.238.016.05 0 .118 0 .17.016.05 0 .118.017.17.017.084.016.169.016.237.032.05 0 .119.017.17.033.068.016.136.016.204.032a.843.843 0 00.203.033c.306.065.595.13.883.212a.855.855 0 01.187.065c.085.032.153.049.238.081.051.017.119.05.17.066.153.048.306.114.458.179l.204.097.204.098.204.098c.068.032.136.065.187.098a.7.7 0 01.186.114c.068.032.12.081.187.114.068.032.12.081.187.114.255.163.493.342.73.52l.306.245c.119.098.22.196.34.31.085.081.186.179.271.276.068.066.12.13.187.196.051.049.085.098.136.146l.034.033a.9.9 0 01.119.147c.05.048.085.114.136.162.05.05.085.114.136.163.136.18.254.359.373.538.034.065.085.13.12.179.033.065.067.13.101.18l.102.195a182.573 182.573 0 00.204.39c.153.326.288.668.407 1.026.017.05.034.114.051.18 0 .016 0 .016.017.032l.051.196c.017.065.034.146.051.211.068.261.12.538.153.815.017.065.017.13.034.195 0 .065.017.114.017.18 0 .048.017.097.017.146 0 .065.017.147.017.212v.146c-.034.114-.034.228-.034.326zm11.701-8.794c-.17 5.456-4.705 9.87-10.377 10.146a8.886 8.886 0 01-.102-1.352c0-4.902 4.144-8.86 9.239-8.86.425-.016.832.017 1.24.065zm-7.471-22.184c0 3.095-1.444 5.799-3.6 7.248-2.158-1.45-3.601-4.153-3.601-7.248 0-3.094 1.443-5.798 3.6-7.247 2.14 1.45 3.6 4.153 3.6 7.247zM.63 59.82h4.4v1.108H2.091v.814h1.358c1.274 0 1.97.538 1.97 1.515 0 1.026-.798 1.628-2.173 1.628H.613V59.82H.63zm2.53 4.023c.493 0 .765-.195.765-.554 0-.358-.255-.537-.764-.537H2.09v1.091h1.07zm7.27-.081v1.107H6.201V59.82h4.144v1.108h-2.65v.847h2.344v1.075H7.696v.928h2.734v-.016zm5.044-.31c0 .96-1.121 1.53-2.463 1.53-.696 0-1.46-.162-2.14-.488l.442-.993a3.551 3.551 0 001.528.358c.629 0 1.121-.196 1.121-.586 0-.31-.306-.44-.73-.44H11.89V61.79h1.223c.408 0 .628-.163.628-.424 0-.342-.39-.505-.917-.505a3.19 3.19 0 00-1.392.342l-.442-1.075c.577-.26 1.24-.39 1.851-.39 1.274 0 2.412.537 2.412 1.465 0 .472-.272.863-.73 1.059.594.179.95.619.95 1.189zm6.86-2.509h-2.377v3.909h-1.46v-5.05h3.854l-.017 1.14zm4.943-1.124v5.049h-1.46v-3.909h-1.512l-.034.814c-.068 1.971-.34 3.176-1.681 3.176-.204 0-.425-.032-.68-.081l.085-1.173a.86.86 0 00.204.017c.611 0 .73-.75.764-1.89l.068-2.02h4.246v.017zm8.764 2.527c0 1.514-1.205 2.622-2.836 2.622-1.443 0-2.53-.847-2.785-2.069h-.543v1.955h-1.461v-5.05h1.46v1.89h.561c.289-1.189 1.376-1.987 2.768-1.987 1.63.016 2.837 1.124 2.837 2.639zm-1.494 0c0-.88-.577-1.45-1.325-1.45-.747 0-1.341.57-1.341 1.45 0 .879.577 1.433 1.341 1.433.73 0 1.325-.554 1.325-1.434zm6.469-1.403h-1.614v3.909h-1.46v-3.91h-1.614v-1.14h4.688v1.14zm4.926 2.819v1.107h-4.23V59.82h4.128v1.108h-2.65v.847h2.344v1.075H43.19v.928h2.752v-.016zm5.859-3.942v5.05h-1.495v-1.971h-2.02v1.97H46.79V59.82h1.495v1.89h2.02v-1.89H51.8zm6.131-.001l-2.174 3.909c-.475.847-1.154 1.27-1.936 1.27-.305 0-.611-.065-.934-.195l.357-1.059c.204.049.373.082.526.082.29 0 .51-.114.697-.391l-2.038-3.632h1.58l1.222 2.443 1.274-2.443h1.426v.016z"/></svg><svg viewBox="0 0 58 65" id="product-info-icon-2" xmlns="http://www.w3.org/2000/svg"><path d="M29.456 0C13.73 0 .932 12.32.932 27.457c0 15.139 12.798 27.458 28.524 27.458 15.727 0 28.525-12.32 28.525-27.457C57.981 12.319 45.183 0 29.456 0zm0 53.905c-7.363 0-14.067-2.803-19.01-7.382l10.63-10.233h-1.489l-9.886 9.516c-4.774-4.758-7.703-11.227-7.703-18.348 0-14.585 12.324-26.448 27.476-26.448 7.397 0 14.118 2.836 19.061 7.415L38.005 18.56h1.49l9.785-9.418c4.74 4.758 7.669 11.21 7.669 18.3-.017 14.6-12.341 26.463-27.492 26.463z"/><path d="M18.298 24.117h-5.654v9.321H9.156V21.412h9.159l-.017 2.705zm12.832 9.337l-.017-6.372-3.216 5.182h-1.575l-3.216-5.052v6.242h-3.25V21.428h2.911l4.385 6.941 4.283-6.941h2.911l.034 12.026h-3.25zm5.145-6.013c0-3.601 2.946-6.257 6.941-6.257 3.995 0 6.94 2.64 6.94 6.257 0 3.617-2.945 6.257-6.94 6.257-3.995 0-6.94-2.656-6.94-6.257zm10.31 0c0-2.086-1.473-3.438-3.369-3.438-1.896 0-3.369 1.352-3.369 3.438 0 2.086 1.473 3.438 3.37 3.438 1.895 0 3.368-1.369 3.368-3.438zm-34.67 32.051H16.3V60.6h-2.93v.815h1.354c1.27 0 1.964.538 1.964 1.516 0 1.026-.795 1.63-2.167 1.63h-2.624v-5.069h.017zm2.523 4.025c.49 0 .761-.195.761-.554 0-.358-.253-.538-.761-.538H13.37v1.092h1.067zm7.246-.081v1.108H17.47v-5.052h4.113V60.6h-2.64v.848h2.336v1.075h-2.336v.929h2.742v-.016zm5.026-.311c0 .962-1.117 1.532-2.454 1.532a5.025 5.025 0 01-2.133-.489l.44-.994a3.53 3.53 0 001.524.359c.626 0 1.117-.196 1.117-.587 0-.31-.305-.44-.728-.44H23.14v-1.043h1.219c.406 0 .626-.163.626-.423 0-.343-.39-.505-.914-.505a3.17 3.17 0 00-1.388.342l-.44-1.076a4.574 4.574 0 011.845-.39c1.27 0 2.404.537 2.404 1.466 0 .472-.271.863-.728 1.059.592.18.948.62.948 1.19zm6.823-2.508h-2.37v3.911h-1.456v-5.051h3.843l-.017 1.14zm5.418 3.928v-2.672l-1.354 2.183h-.66l-1.355-2.118v2.623h-1.371V59.51h1.219l1.845 2.917 1.795-2.917h1.218l.017 5.051h-1.354v-.016zM41.1 62.02c0-1.516 1.235-2.623 2.911-2.623s2.912 1.108 2.912 2.623c0 1.515-1.236 2.623-2.912 2.623S41.1 63.536 41.1 62.02zm4.333 0c0-.88-.626-1.45-1.422-1.45-.795 0-1.422.57-1.422 1.45s.627 1.434 1.422 1.434c.796 0 1.422-.57 1.422-1.434z"/></svg><svg viewBox="0 0 72 62" id="product-info-icon-3" xmlns="http://www.w3.org/2000/svg"><path d="M18.527 20.227c.365.106.716.227 1.067.348-.35-.121-.702-.242-1.067-.348z"/><path d="M18.015 29.329a.955.955 0 00.03 1.304l5.463 5.43c-.073.061-.16.137-.234.198a.806.806 0 01-.131.106l-.19.152c-.044.03-.103.076-.146.106-.278.197-.57.38-.862.531-.22.121-.453.227-.672.319-.088.03-.176.075-.263.106a.814.814 0 01-.176.06l-.263.091c-.116.03-.219.061-.336.107-.35.106-.7.166-1.051.212-.03 0-.044 0-.073.015-.103.015-.205.03-.307.03a7.57 7.57 0 01-.584.03h-.161c-.263 0-.526-.014-.79-.03-.262-.03-.525-.06-.773-.12-.263-.046-.512-.122-.775-.183-.131-.03-.248-.076-.365-.121-.014 0-.014 0-.03-.015l-.35-.137a2.71 2.71 0 01-.365-.167 10.843 10.843 0 01-.716-.379c-.117-.076-.233-.137-.35-.212a10.949 10.949 0 01-.672-.486 7.53 7.53 0 01-.628-.576 7.963 7.963 0 01-1.067-1.29c-.044-.06-.073-.12-.117-.182a4.791 4.791 0 01-.321-.546c-.03-.06-.059-.106-.088-.166C7.803 28.252 7 18.377 7 18.377h.058c.044 0 .103 0 .176.015h.175c.132.015.307.015.497.03.073 0 .146.016.219.016.263.015.57.045.906.076.102.015.19.015.292.03.044 0 .102.015.16.015l.103.015a.995.995 0 00.204.015c.278.03.555.061.848.091.204.03.423.046.657.076.409.046.833.106 1.256.167.234.03.482.076.716.106.453.076.906.152 1.373.243.103.015.205.03.307.06.044 0 .073.016.117.016.204.045.409.076.614.121.102.015.204.046.306.06.132.031.263.061.38.092.278.06.555.136.833.197.014 0 .014 0 .029.015.19.046.38.106.57.152.058.015.131.03.19.045.175.046.35.107.511.152.365.106.716.228 1.066.349.76.273 1.476.576 2.119.91l.16.091c.19.106.366.197.54.303.06.03.118.076.176.122a9.46 9.46 0 011.3 1.046c3.156 3.125 3.463 8.177.848 11.68l-5.464-5.43a.896.896 0 00-.614-.258 1.238 1.238 0 00-.613.334z"/><path d="M64.85 26.446c0 14.122-11.073 25.62-24.674 25.62-8.488 0-15.997-4.474-20.438-11.285.322-.046.643-.121.95-.197 4.31 6.37 11.439 10.557 19.488 10.557 13.104 0 23.783-11.073 23.783-24.695 0-13.606-10.665-24.695-23.783-24.695-9.978 0-18.539 6.417-22.06 15.473a18.36 18.36 0 00-.876-.213C20.863 7.546 29.775.826 40.176.826c13.6 0 24.674 11.498 24.674 25.62z"/><path d="M47.29 34.804c-4.12 4.217-10.576 4.46-14.959.728l7.144-7.326c.467-.47.467-1.26.014-1.744a1.164 1.164 0 00-1.68-.016l-7.143 7.327c-3.535-4.596-3.243-11.3.876-15.533a10.818 10.818 0 011.695-1.426c.073-.045.16-.106.234-.152.233-.151.467-.288.7-.424.074-.046.147-.076.22-.122 6.837-3.716 19.488-4.444 19.488-4.444s-.847 13.136-4.514 20.174l-.117.228c-.131.243-.278.485-.409.728-.044.076-.102.167-.146.243-.41.637-.877 1.213-1.402 1.76zM.98 56.223h3.755v1.016H2.222v.758h1.169c1.095 0 1.694.501 1.694 1.396 0 .94-.686 1.502-1.855 1.502H.98v-4.672zm2.177 3.731c.424 0 .657-.182.657-.516 0-.333-.219-.5-.657-.5h-.92v1.001h.92v.015zm6.209-.076v1.017H5.758v-4.672h3.535v1.016H7.029v.789h2v.986h-2v.85h2.337v.014zm4.31-.288c0 .896-.964 1.411-2.104 1.411a4.016 4.016 0 01-1.826-.455l.38-.925a2.86 2.86 0 001.315.334c.54 0 .964-.182.964-.546 0-.288-.263-.41-.614-.41h-1.154v-.97h1.052c.35 0 .54-.152.54-.395 0-.319-.335-.47-.788-.47a2.62 2.62 0 00-1.198.318l-.38-1a3.64 3.64 0 011.578-.365c1.095 0 2.06.5 2.06 1.365 0 .44-.234.79-.614.986.482.197.789.607.789 1.123zm4.382-.485h-.584v1.79h-1.27v-4.672h1.27v1.82h.614l1.066-1.82h1.344l-1.402 2.26 1.417 2.412H19.08l-1.023-1.79zm2.557-.549c0-1.396 1.067-2.427 2.498-2.427 1.432 0 2.498 1.031 2.498 2.427 0 1.396-1.066 2.427-2.498 2.427-1.431 0-2.498-1.016-2.498-2.427zm3.71 0c0-.804-.525-1.335-1.212-1.335-.686 0-1.212.531-1.212 1.335 0 .804.54 1.335 1.212 1.335.687 0 1.213-.516 1.213-1.335zm6.252-2.333v4.672h-1.27v-1.82h-1.74v1.82h-1.27v-4.672h1.27v1.76h1.74v-1.76h1.27zm.687 2.333c0-1.426 1.052-2.427 2.468-2.427.833 0 1.505.319 1.929.88l-.804.758c-.277-.349-.628-.546-1.066-.546-.745 0-1.256.531-1.256 1.335 0 .804.51 1.335 1.256 1.335.424 0 .774-.197 1.066-.546l.804.758c-.439.561-1.11.88-1.929.88-1.416.015-2.468-1.001-2.468-2.427zm8.604 1.322v1.017H36.26v-4.672h3.535v1.016h-2.264v.789h2.001v.986h-2.001v.85h2.337v.014zm4.792-1.925c0 1.061-.773 1.729-2 1.729h-.79v1.228H40.6v-4.67h2.06c1.227-.016 2 .652 2 1.714zm-1.285 0c0-.44-.263-.683-.789-.683h-.7v1.365h.7c.526 0 .79-.242.79-.682zm5.945 1.607c0 .819-.627 1.335-1.781 1.335H45.23v-4.672h2.192c1.066 0 1.709.44 1.709 1.213 0 .455-.22.82-.614 1.017.512.181.804.546.804 1.107zm-2.833-1.456h.803c.366 0 .54-.152.54-.456 0-.303-.174-.455-.54-.455h-.803v.91zm1.563 1.365c0-.319-.19-.47-.555-.47h-1.008v.955h1.008c.365 0 .555-.167.555-.485zm5.084.531h-1.9l-.35.91h-1.3l1.987-4.672h1.256l1.987 4.672h-1.33l-.35-.91zm-.38-.986l-.584-1.502-.585 1.502h1.169zm6.851-2.791v4.672h-1.271v-1.82h-1.739v1.82h-1.27v-4.672h1.27v1.76h1.739v-1.76h1.27zm4.588 1.047H62.82v3.625h-1.256v-3.626h-1.388v-1.046h4.017v1.046zm.598-1.047h1.256v4.672h-1.256v-4.672zm6.311 3.337c0 .819-.628 1.335-1.782 1.335h-2.308v-4.672h2.191c1.066 0 1.71.44 1.71 1.213 0 .455-.22.82-.614 1.017.511.181.803.546.803 1.107zm-2.834-1.456h.804c.365 0 .54-.152.54-.456 0-.303-.175-.455-.54-.455h-.804v.91zm1.549 1.365c0-.319-.19-.47-.556-.47h-1.007v.955h1.007c.366 0 .556-.167.556-.485z"/></svg><svg viewBox="0 0 63 65" id="product-info-icon-4" xmlns="http://www.w3.org/2000/svg"><path d="M62.102 33.141c0 .024-.025.073-.025.097a8.835 8.835 0 01-.275 1.985c-.125.532-.275 1.09-.425 1.622-.3.944-.725 1.84-1.35 2.614-.326.436-.751.8-1.176 1.186-.35.315-.75.581-1.15.848-.526.339-1.101.605-1.676.847-.425.194-.85.363-1.326.46-.75.17-1.475.339-2.226.46-.475.072-.95.12-1.45.145-.6.024-1.176.048-1.776.024-.45 0-.925-.072-1.376-.12-.7-.073-1.375-.194-2.05-.388-.6-.17-1.226-.387-1.801-.605a12.02 12.02 0 01-2.276-1.21c-.475-.34-.95-.678-1.35-1.09a8.66 8.66 0 01-1.151-1.55c-.35-.604-.65-1.21-.825-1.863-.175-.581-.3-1.186-.426-1.792a7.712 7.712 0 01-.125-1.307c-.025-.556-.05-1.09-.025-1.646.025-.605.125-1.21.2-1.815.125-.896.3-1.768.6-2.59a8.466 8.466 0 011.426-2.518c.225-.266.45-.533.7-.775.576-.557 1.226-.992 1.951-1.38.75-.387 1.551-.726 2.376-.968.7-.218 1.4-.387 2.151-.484.5-.073 1.026-.121 1.526-.145a28.981 28.981 0 012.05-.024c.55.024 1.126.12 1.676.193a13.49 13.49 0 012.726.654c.976.314 1.901.75 2.752 1.283.65.411 1.225.944 1.75 1.5.525.533.926 1.162 1.25 1.816.326.654.526 1.356.701 2.058.125.532.225 1.09.3 1.646.05.363.075.726.1 1.09 0 .023.025.048.025.072v1.67zM53.6 32.124h-.025c0-.726.025-1.452 0-2.178 0-.412-.075-.823-.125-1.259-.15-.944-.726-1.55-1.626-1.888-.775-.29-1.576-.34-2.376-.267a4.42 4.42 0 00-1.676.46c-.5.267-.875.654-1.025 1.187-.125.484-.225.992-.3 1.476-.075.533-.125 1.09-.125 1.646-.025.46.025.896.025 1.356 0 .29.025.581.025.871.025.388.025.8.075 1.187.05.484.125.992.3 1.452.175.46.45.896.875 1.162.726.46 1.551.605 2.376.654a4.784 4.784 0 001.55-.194c.401-.121.801-.266 1.101-.557.476-.46.726-.992.826-1.622.1-.702.15-1.428.15-2.13-.025-.46-.025-.896-.025-1.356zM.102 38.346c0-.121.025-.242.025-.363v-.17c.025 0 .05 0 .075-.024.75 0 1.5-.024 2.25-.024.276 0 .55-.024.8-.024.05 0 .1-.049.126-.097.025-.024 0-.073 0-.121V26.944c0-.17-.05-.218-.2-.218-1-.024-2.001-.048-3.026-.096v-5.302h14.405c.025.145.05.29.05.436.025 1.38.025 2.76.025 4.14 0 .266-.025.508-.05.798h-2.425c-.25 0-.5.024-.75.024-.05 0-.1.049-.1.097-.026.024 0 .073 0 .121v.993c0 3.17-.026 6.366-.026 9.537v.218c.225.025.425.049.65.049h1.701c.325 0 .65.024.975.048v5.156H.177c-.05-.17-.05-.339-.075-.508v-4.091zM31.39 7.771c.05 0 .075.025.125.025.55.048 1.1.072 1.65.145.826.097 1.651.218 2.452.363.65.121 1.3.29 1.95.484.85.266 1.701.557 2.552.847.425.146.85.364 1.275.533 1.326.581 2.551 1.283 3.752 2.082.55.363 1.075.75 1.6 1.162.425.387.876.799 1.35 1.186.351.315.726.63 1.051.992.45.46.876.945 1.3 1.453.476.58.926 1.186 1.376 1.791.025.024.025.073.05.097-.275.145-.575.049-.85.049-.225 0-.325-.146-.425-.291-.475-.581-.925-1.162-1.426-1.719a23.34 23.34 0 00-1.75-1.743c-.526-.484-1.126-.92-1.676-1.38-.175-.145-.325-.024-.475.049-.726.387-1.426.799-2.126 1.186-.125.073-.15.145-.05.266.475.509.95 1.017 1.35 1.598.35.508.75.968 1.1 1.477.126.17.226.339.326.532-.1.025-.175.073-.25.073h-.726c-.025 0-.075-.024-.1-.073-.35-.46-.7-.944-1.05-1.38-.3-.387-.625-.75-.925-1.113-.25-.29-.5-.557-.75-.847a34.31 34.31 0 01-2.026.75c-.676.242-1.351.436-2.051.654-.375.097-.375.072-.225.387.225.484.45.968.65 1.453.025.024 0 .072.025.096-.3.146-.6.049-.925.049-.026 0-.075-.049-.075-.073-.25-.484-.526-.944-.776-1.428-.05-.121-.15-.145-.275-.121-.625.12-1.225.242-1.85.339-.576.097-1.151.17-1.726.218-.35.048-.676.048-1.026.072-.35.024-.7.049-1.1.073-.025.29-.025.605-.05.92h-.85c-.026 0-.1-.097-.1-.146-.026-.169 0-.314 0-.484 0-.266-.076-.314-.35-.339a45.297 45.297 0 01-1.802-.096c-.5-.049-.975-.097-1.475-.17-.75-.097-1.55-.242-2.401-.387-.1.194-.225.436-.35.653-.15.29-.275.606-.425.896-.025.049-.15.097-.225.097h-.826c.15-.339.3-.654.425-.968a7.33 7.33 0 00.35-.775c.076-.17-.075-.194-.175-.218a47.08 47.08 0 00-1.725-.532c-.75-.242-1.5-.533-2.251-.8-.075-.024-.125-.048-.175.025-.45.508-.926.992-1.35 1.5-.45.558-.851 1.138-1.301 1.671-.075.073-.25.121-.375.121-.226.024-.45 0-.726-.024.826-1.38 1.851-2.566 2.851-3.752-.25-.146-.475-.267-.7-.412-.6-.339-1.2-.678-1.8-.992-.026-.024-.126-.024-.15 0-.376.266-.776.532-1.126.823-.55.484-1.126.992-1.65 1.525-.426.411-.826.896-1.226 1.356-.375.435-.7.87-1.05 1.33a.421.421 0 01-.376.122c-.25 0-.525-.024-.8-.048.2-.291.4-.582.625-.872.35-.46.7-.896 1.05-1.356.2-.242.426-.508.65-.726.476-.484.976-.992 1.476-1.452.426-.388.876-.75 1.326-1.138a29.588 29.588 0 012.476-1.719c.6-.339 1.2-.702 1.826-1.016.85-.412 1.725-.823 2.6-1.162.901-.34 1.826-.581 2.727-.848a24.29 24.29 0 011.926-.435c.45-.097.9-.146 1.35-.194.525-.073 1.076-.121 1.6-.17.501-.048 1.001-.048 1.501-.072.05 0 .1-.024.175-.024.526-.025 1.05-.025 1.576-.025zm-1.7 4.116c-.15-.024-.25-.024-.376-.049l-1.575-.217c-.075 0-.15-.025-.226.072-.1.145-.225.242-.325.387-.45.581-.9 1.138-1.325 1.72-.375.507-.7 1.04-1.05 1.597-.2.339-.4.678-.626 1.04.05.025.1.05.125.05.325.072.625.144.95.217.4.073.776.121 1.176.17.325.048.675.072 1 .096.5.049.976.097 1.476.121.225.024.45-.024.65-.024.1 0 .1-.073.1-.145 0-.75.025-1.477.025-2.227 0-.509-.025-.993-.025-1.501.025-.412.025-.847.025-1.307zm1.025 5.18c1.25.073 4.927-.363 5.377-.63-.225-.387-.425-.774-.675-1.161a74.942 74.942 0 00-1.6-2.276c-.301-.435-.651-.823-.976-1.234-.075-.097-.175-.121-.3-.097-.276.048-.55.072-.826.12-.325.05-.65.098-1 .122v5.156zm3.126-5.737c.425.58.875 1.138 1.276 1.743.625.92 1.225 1.864 1.85 2.784.225.339.225.339.576.266h.025a26.377 26.377 0 003.3-1.114c.1-.048.226-.096.376-.169-.575-.484-1.1-.968-1.626-1.404-.475-.387-.975-.75-1.475-1.114-.85-.605-1.776-1.113-2.701-1.597-.05-.024-.15-.049-.2-.024-.476.217-.95.411-1.4.629zm-14.68 3.607l.05.048c.424.17.875.363 1.325.509.8.242 1.65.484 2.476.726.05.024.175-.024.2-.073.325-.532.65-1.065.975-1.573.6-.944 1.226-1.864 1.926-2.736.125-.17.25-.339.4-.532-.05-.024-.075-.049-.1-.049-.425-.17-.825-.314-1.25-.484a.4.4 0 00-.25.024c-.626.34-1.251.678-1.851 1.041-.6.412-1.2.823-1.801 1.26-.35.265-.7.556-1.05.846-.25.218-.526.436-.776.678-.1.073-.175.194-.275.315zm5.526-5.616c1.476 1.04 3.152 1.549 4.952 1.622 2.176.072 4.202-.388 6.003-1.622-3.652-.872-7.303-.8-10.955 0zm-9.003 3.825c.05.048.075.072.075.096.725.484 1.475.92 2.326 1.21.05.025.125 0 .175-.048l.9-.799c.425-.363.85-.75 1.326-1.089a83.163 83.163 0 012.376-1.694c.35-.242.725-.46 1.125-.702-.15-.121-.3-.194-.425-.315-.175-.17-.35-.17-.575-.097-.1.024-.55.145-.676.194-1 .314-1.975.678-2.926 1.138-.65.314-1.3.653-1.926.992-.6.339-1.175.726-1.775 1.114zm20.708-3.05c.7.435 1.4.847 2.05 1.307.751.508 1.477 1.065 2.202 1.621.5.388.95.848 1.425 1.284.1.096.2.12.325.048.2-.121.426-.218.626-.339.5-.266 1-.533 1.475-.799.125-.072.125-.145.025-.218-.625-.387-1.25-.774-1.9-1.162-.85-.508-1.751-.92-2.676-1.283-.85-.339-1.751-.58-2.627-.871-.1-.024-.25-.097-.325-.049-.25.097-.475.218-.6.46zM29.013 56.55c-.026 0-.076-.025-.1-.025-.55-.048-1.076-.072-1.626-.12a18.67 18.67 0 01-3.476-.63 53.307 53.307 0 01-2.802-.848c-.625-.217-1.225-.484-1.85-.75-.175-.073-.35-.145-.526-.242-.4-.266-.85-.412-1.25-.654-.4-.266-.85-.484-1.25-.75a36.438 36.438 0 01-1.601-1.065c-.375-.267-.75-.581-1.126-.872a18.924 18.924 0 01-2.076-1.888c-.5-.532-1-1.065-1.45-1.622-.475-.556-.9-1.162-1.35-1.743 0-.024.024-.048.024-.072.225 0 .45.024.676 0 .275-.024.45.096.6.314.35.485.75.945 1.125 1.429.65.798 1.376 1.5 2.126 2.178.5.46 1.05.848 1.576 1.283.05.025.075.073.15.121l2.626-1.452c-1.026-1.235-2.076-2.445-2.876-3.85.3-.023.55-.023.825-.023.15 0 .275.072.35.218.35.484.675.968 1.05 1.452.426.508.851 1.017 1.301 1.525.05.073.125.121.175.194.075.096.15.096.25.048 1.126-.411 2.276-.799 3.402-1.186.25-.073.5-.145.725-.218.1-.024.15-.072.1-.194-.25-.58-.5-1.137-.775-1.742.1-.025.2-.049.275-.049.2 0 .425 0 .625.024.05 0 .1.073.125.121.25.484.525.969.775 1.477 0 .024.025.024.025.048.45-.072.876-.145 1.326-.218.35-.048.675-.096 1.025-.145.45-.048.876-.096 1.326-.17.125-.023.275-.023.4-.023l1.176-.073c.175 0 .375-.024.55-.048.05 0 .125-.049.125-.097.025-.17.05-.315.05-.484 0-.121 0-.242-.025-.364h.925c.025.315.025.606.05.92 2.026.121 4.027.34 6.028.75.275-.507.55-1.04.825-1.548.05-.073.075-.122.175-.122h.8c-.15.654-.525 1.187-.775 1.816.1.218.35.194.55.242.7.242 1.4.436 2.101.678.575.194 1.126.412 1.726.63.25-.267.525-.557.8-.848.3-.363.6-.726.876-1.114.35-.435.65-.895 1-1.355a.138.138 0 01.125-.073h1c-.15.242-.275.484-.425.678-.575.75-1.15 1.525-1.725 2.276-.2.242-.426.484-.626.726-.05.048-.05.097.025.145.275.145.55.315.8.46.55.315 1.076.605 1.626.92.1.048.175.072.275-.024.576-.484 1.15-.969 1.701-1.453.4-.339.775-.702 1.126-1.09.75-.798 1.475-1.621 2.1-2.517.025-.048.125-.097.175-.097h1.026c-.225.315-.4.581-.6.848l-.9 1.162c-.276.339-.551.653-.851.944-.45.484-.9.968-1.4 1.404a20.85 20.85 0 01-1.801 1.5 45.405 45.405 0 01-2.226 1.55c-.5.315-1.026.605-1.55.896-.476.242-.951.484-1.452.702-.675.29-1.375.58-2.075.823-.95.314-1.926.58-2.901.823-.55.145-1.101.218-1.676.314-.55.097-1.1.17-1.65.218-.376.049-.751.049-1.126.073-.05 0-.1.024-.15.024-.85-.097-1.751-.097-2.651-.097zm1.85-9.369c-.025.242-.05.46-.05.678-.025.605-.025 1.21-.025 1.84 0 .145.025.29.025.435.025.75.025 1.501.025 2.252v.048c.1.024.2.024.3.049.5.072 1 .145 1.526.217.15.025.3.073.425-.097a72.3 72.3 0 001.25-1.67 28.37 28.37 0 001.776-2.711c.075-.121.125-.266.2-.412a25.78 25.78 0 00-5.452-.629zm-1.05 5.253v-5.229c-.35 0-.675-.024-.976 0-.5.025-1 .073-1.5.121-.3.024-.6.073-.9.097-.45.073-.926.145-1.376.218-.225.048-.5 0-.675.218l.15.218c.375.63.75 1.259 1.15 1.864.6.944 1.3 1.815 2.026 2.687.025.048.125.048.175.048.375-.048.725-.097 1.1-.145.276-.024.576-.073.826-.097zm-3.176.581c-.025-.048-.05-.073-.075-.121-.326-.46-.676-.92-1-1.404-.526-.775-1.051-1.574-1.577-2.348-.2-.29-.375-.605-.55-.944-.075-.145-.15-.218-.325-.145-.425.145-.875.217-1.3.363-.8.29-1.601.605-2.401.895-.2.073-.2.097-.05.242.3.29.6.557.925.823.6.485 1.226.969 1.85 1.429.926.678 1.952 1.258 2.977 1.743.025.024.1.024.125 0 .475-.121.95-.315 1.4-.533zm7.428 0c.05.024.075.048.1.048.375.17.75.315 1.125.485.15.072.25.024.375-.025.9-.484 1.801-.968 2.626-1.549.6-.436 1.2-.871 1.751-1.355.4-.34.75-.703 1.125-1.066.05-.048.1-.12.15-.193-.325-.145-.6-.29-.9-.412a19.383 19.383 0 00-2.626-.823c-.125-.024-.275-.097-.4-.072-.1.048-.175.193-.225.29-.4.63-.75 1.259-1.15 1.888-.426.654-.901 1.283-1.351 1.937-.2.29-.4.557-.6.847zm-9.254 2.01c1.826.46 3.651.629 5.527.629 1.85 0 3.702-.194 5.527-.63-1.4-1.017-2.976-1.5-4.702-1.597-2.276-.146-4.426.29-6.352 1.597zm11.705-.824c.175.145.3.242.425.34.1.072.25.144.35.12.5-.12 1-.242 1.476-.436.875-.339 1.775-.677 2.626-1.065.925-.411 1.8-.895 2.626-1.452l.825-.581a13.43 13.43 0 00-2.476-1.332c-.9.848-1.826 1.647-2.801 2.373-.95.774-1.976 1.428-3.051 2.033zm-18.308-4.357c-.325.17-.625.315-.925.46-.45.242-.9.508-1.35.774-.1.049-.126.097 0 .194.825.581 1.7 1.09 2.6 1.55.676.338 1.376.653 2.076.944.9.387 1.85.677 2.826.92.025 0 .1 0 .125-.025.2-.12.376-.266.6-.436-2.175-1.258-4.176-2.687-5.952-4.381zm2.752-8.376l-.076 1.477h-4.952c-.075-2.615-.05-5.253 0-7.916h2.876c.476 0 .951-.024 1.426-.024.1 0 .175.024.225.12.15.267.326.533.526.775.225.267.475.509.725.702.5.412 1.05.75 1.65 1.017.7.315 1.426.533 2.176.654.7.12 1.426.145 2.151.12a8.399 8.399 0 001.901-.29c.25-.072.5-.193.625-.46.1-.242-.05-.484-.225-.63-.325-.29-.775-.338-1.15-.483a20.957 20.957 0 00-1.326-.388c-.775-.217-1.575-.435-2.35-.677-1.426-.436-2.852-.848-4.277-1.283-.976-.315-1.851-.8-2.677-1.404-.6-.46-1.125-.969-1.55-1.598a5.14 5.14 0 01-.776-1.96 6.529 6.529 0 01-.125-1.84c.026-.485.126-.945.25-1.429.15-.63.45-1.21.826-1.767.475-.678 1.1-1.21 1.8-1.646a9.69 9.69 0 012.127-.92c.6-.17 1.2-.315 1.825-.387.75-.097 1.5-.146 2.251-.121.5.024 1 .072 1.5.12 1.101.122 2.177.388 3.227.727.55.194 1.05.484 1.576.75.15.073.3.146.45.242.175-.411 0-.847.125-1.258h4.752c.025.193.05.411.05.605v1.331c0 .605.025 1.235.025 1.84.025 1.04.025 2.082.025 3.099a2.9 2.9 0 01-.05.484l-.025.024c-1.526.024-3.051.024-4.552.024-.05 0-.125-.048-.15-.072-.65-.945-1.55-1.622-2.601-2.107-.725-.338-1.5-.556-2.276-.702-.5-.096-.975-.193-1.5-.193-.35 0-.7-.073-1.051-.049-.45.025-.9.073-1.25.363-.15.121-.276.243-.35.412-.15.17-.026.363.074.533.1.169.275.242.45.338.65.315 1.376.436 2.051.654.526.17 1.05.29 1.576.436l2.626.726c.625.17 1.25.363 1.876.533a10.4 10.4 0 011.725.629 7.32 7.32 0 011.476.968c.25.194.475.388.7.605.726.75 1.326 1.598 1.676 2.615.175.484.275.968.275 1.5 0 .34.025.654 0 .993-.05.387-.125.775-.225 1.162-.175.678-.5 1.283-.9 1.864-.45.63-1 1.162-1.651 1.598-.925.63-1.976.992-3.076 1.234-.576.121-1.15.218-1.726.242-.4.025-.825.073-1.225.049-.576-.024-1.15-.073-1.751-.121-1.1-.097-2.176-.363-3.226-.702-.65-.218-1.25-.509-1.851-.823a4.3 4.3 0 00-.676-.315zM23.887.072v4.212h-1V2.566H20.91v1.718h-1V.072h1v1.67h1.975V.073h1zm3.901 3.317h-2.026l-.375.895H24.36L26.287.072h1l1.951 4.212h-1.05l-.4-.895zm-.3-.75l-.7-1.623-.701 1.622h1.4zm1.875-.46c0-1.26 1-2.179 2.351-2.179.75 0 1.376.266 1.801.75l-.65.581c-.3-.314-.65-.484-1.1-.484-.826 0-1.401.557-1.401 1.356s.575 1.355 1.4 1.355c.425 0 .8-.169 1.1-.508l.651.581c-.4.484-1.05.75-1.8.75-1.351-.024-2.352-.944-2.352-2.202zm4.453 0c0-1.26 1-2.179 2.351-2.179.75 0 1.376.266 1.801.75l-.65.581c-.3-.314-.65-.484-1.1-.484-.826 0-1.401.557-1.401 1.356s.575 1.355 1.4 1.355c.425 0 .8-.169 1.1-.508l.651.581c-.4.484-1.05.75-1.8.75-1.326-.024-2.352-.944-2.352-2.202zm8.604-.582c0 .944-.726 1.525-1.902 1.525h-.875v1.162h-1V.072h1.875c1.176 0 1.901.581 1.901 1.525zm-1.026 0c0-.46-.3-.726-.926-.726h-.825v1.453h.825c.626 0 .926-.267.926-.727zM12.482 63.615v.968H8.455v-.774l2.051-1.889c.475-.436.55-.702.55-.944 0-.411-.3-.63-.85-.63-.45 0-.85.17-1.1.51l-.9-.558c.4-.58 1.15-.968 2.125-.968 1.2 0 1.976.581 1.976 1.525 0 .509-.15.968-.9 1.622l-1.226 1.114 2.3.024zm4.502-.024v.969h-4.027v-.775l2.051-1.888c.475-.436.55-.702.55-.944 0-.412-.3-.654-.85-.654-.45 0-.85.17-1.1.508l-.901-.532c.4-.581 1.15-.968 2.126-.968 1.2 0 1.976.58 1.976 1.525 0 .508-.15.968-.9 1.622l-1.226 1.113 2.3.024zm.5-1.598c0-1.695.976-2.663 2.276-2.663 1.326 0 2.276.968 2.301 2.663 0 1.694-.975 2.663-2.276 2.663-1.325 0-2.3-.969-2.3-2.663zm3.327 0c0-1.162-.425-1.67-1.05-1.67-.6 0-1.026.484-1.026 1.67 0 1.162.425 1.67 1.025 1.67.625 0 1.05-.508 1.05-1.67zm1.849 0c0-1.695.976-2.663 2.276-2.663 1.326 0 2.276.968 2.301 2.663 0 1.694-.975 2.663-2.276 2.663-1.325 0-2.3-.969-2.3-2.663zm3.326 0c0-1.162-.425-1.67-1.05-1.67-.6 0-1.025.484-1.025 1.67 0 1.162.425 1.67 1.025 1.67.625 0 1.05-.508 1.05-1.67zm1.852 0c0-1.695.975-2.663 2.276-2.663 1.325 0 2.276.968 2.3 2.663 0 1.694-.975 2.663-2.275 2.663-1.326 0-2.301-.969-2.301-2.663zm3.326 0c0-1.162-.425-1.67-1.05-1.67-.6 0-1.026.484-1.026 1.67 0 1.162.426 1.67 1.026 1.67.625-.024 1.05-.508 1.05-1.67zm1.801-.725c0-.435.325-.702.75-.702.4 0 .75.29.75.702a.72.72 0 01-.725.727c-.45 0-.775-.315-.775-.727zm0 2.639c0-.436.325-.702.75-.702.4 0 .75.29.75.702s-.325.726-.75.726-.75-.314-.75-.726zm6.028-.315v.968h-4.026v-.774l2.05-1.888c.476-.436.55-.702.55-.945 0-.411-.3-.653-.85-.653-.45 0-.85.17-1.1.508l-.9-.556c.4-.582 1.15-.969 2.126-.969 1.2 0 1.975.581 1.975 1.525 0 .509-.15.969-.9 1.622l-1.225 1.114 2.3.048zm.499-1.599c0-1.695.976-2.663 2.276-2.663 1.326 0 2.276.968 2.301 2.663 0 1.694-.975 2.663-2.276 2.663-1.325 0-2.3-.969-2.3-2.663zm3.327 0c0-1.162-.426-1.67-1.05-1.67-.601 0-1.026.484-1.026 1.67 0 1.162.425 1.67 1.025 1.67.625-.024 1.05-.508 1.05-1.67zm1.851 0c0-1.695.975-2.663 2.276-2.663 1.325 0 2.276.968 2.3 2.663 0 1.694-.975 2.663-2.275 2.663-1.326 0-2.301-.969-2.301-2.663zm3.326 0c0-1.162-.425-1.67-1.05-1.67-.6 0-1.026.484-1.026 1.67 0 1.162.426 1.67 1.026 1.67.625-.024 1.05-.508 1.05-1.67zm6.003-2.589v.775l-1.976 4.382h-1.35l1.9-4.188h-1.775v.847h-1.1v-1.816h4.301z"/></svg><svg viewBox="0 0 2211 717" id="reviews-bg-el" xmlns="http://www.w3.org/2000/svg"><path d="M361.321 65.679c220.906 0 1016.569-166.451 1439.389 30.611 422.82 197.062 658.72 730.85 0 585.445-658.72-145.405-750.68 128.186-1439.389 0-688.707-128.186-220.906-616.057 0-616.056z"/></svg><svg viewBox="0 0 22 21" id="search" xmlns="http://www.w3.org/2000/svg"><path d="M14.892 8.188c0 3.788-3.101 6.874-6.946 6.874C4.101 15.063 1 11.976 1 8.189 1 4.4 4.101 1.313 7.946 1.313c3.845 0 6.946 3.087 6.946 6.875zM13.554 12.6l7.156 7.092"/></svg><svg viewBox="0 0 1440 450" id="similar_products-el" xmlns="http://www.w3.org/2000/svg"><path d="M227 .858C108.994 7.092 23.934 29.628 0 57.653V450c190.139-43.372 608.23-82.717 816-33.972 226 53.022 499.01 15.956 624-28.083V57.653c-257.29-56.05-353.02 22.02-498.615 34.03C754.272 107.118 454.368-11.152 227 .858z"/></svg><svg viewBox="0 0 602 62" id="universe-one" xmlns="http://www.w3.org/2000/svg"><g clip-path="url(#blclip0)"><path d="M349.248 44.823c0 8.94-7.355 16.55-22.573 16.55-6.151 0-12.365-1.332-17.057-3.488-.127-.063-.317-.127-.444-.19a5.083 5.083 0 01-2.853-4.566c0-.507.063-.95.254-1.395l.57-1.395c0-.063.064-.063.064-.063.887-1.395 2.473-2.283 4.248-2.283.634 0 1.205.127 1.775.317.191.064.381.127.508.254 3.868 1.775 8.496 2.917 12.998 2.917 7.292 0 10.272-2.473 10.272-5.707 0-9.955-30.943-3.17-30.943-22.89 0-9.067 7.292-16.613 22.447-16.613 4.438 0 8.94.698 12.935 2.156.126 0 .19 0 .253.064.381.126.761.253 1.142.443h.063c1.585.888 2.663 2.537 2.663 4.502 0 .634-.127 1.205-.317 1.776-.063.127-.127.317-.19.444a5.163 5.163 0 01-4.629 2.916c-.507 0-1.078-.063-1.522-.253a4.374 4.374 0 00-.824-.317c-3.297-1.205-6.594-1.84-9.701-1.84-7.292 0-10.082 2.727-10.082 6.088 0 9.828 30.943 3.044 30.943 22.573zm77.736-11.033c0-15.852 12.301-27.519 29.104-27.519 16.74 0 29.104 11.604 29.104 27.52 0 15.914-12.364 27.518-29.104 27.518-16.803.063-29.104-11.667-29.104-27.519zm45.78 0c0-10.145-7.165-17.056-16.676-17.056s-16.676 6.974-16.676 17.056 7.165 17.057 16.676 17.057 16.676-6.912 16.676-17.057zM48.253 13.373v23.65c0 15.662-9.004 24.35-24.095 24.35C9.004 61.372 0 52.684 0 37.022v-23.65c0-3.424 2.79-6.15 6.214-6.15 3.36 0 6.15 2.726 6.15 6.15V36.58c0 10.082 4.375 14.267 11.858 14.267 7.545 0 11.857-4.185 11.857-14.267V13.373a6.089 6.089 0 016.087-6.087 6.089 6.089 0 016.087 6.087zm19.783-6.151H66.64c.253-.063.444-.063.697-.063.254 0 .444 0 .698.063zm66.197 6.088v40.96a6.117 6.117 0 01-6.151 6.151 6.116 6.116 0 01-6.15-6.15V13.31c0-2.98 2.092-5.517 4.882-6.088.444-.063.824-.126 1.268-.126.444 0 .824.063 1.268.126 2.79.571 4.883 3.107 4.883 6.088zm60.617-.444a5.89 5.89 0 01-.317 1.838l-.38.888c-.064.127-.191.254-.254.444L177.35 54.334c-.064.254-.19.507-.317.697-1.459 3.17-4.692 5.327-8.433 5.327a9.245 9.245 0 01-8.56-5.707l-16.677-38.615-.38-.824a7.248 7.248 0 01-.317-2.093c.063-2.916 2.219-5.326 4.946-5.897.444-.063.887-.126 1.331-.126.254 0 .571.063.825.126 2.029.317 3.804 1.649 4.628 3.488.064.127.127.19.127.317l13.125 30.752 1.459 3.424 1.458-3.36 13.062-30.119c0-.126.063-.19.063-.317l.761-1.712a5.85 5.85 0 014.756-2.473 5.656 5.656 0 015.643 5.644zm-85.599.444v40.263a6.82 6.82 0 01-6.848 6.848c-2.282 0-4.311-1.078-5.516-2.79-.064-.063-.127-.19-.254-.253L72.602 28.084v26.25a6.089 6.089 0 01-6.087 6.087 6.089 6.089 0 01-6.087-6.087V14.07c0-3.55 2.726-6.53 6.214-6.848h1.395c1.648.127 3.107.888 4.184 1.966.317.317.571.634.825 1.015l24.031 29.294V13.31a6.089 6.089 0 016.087-6.088 6.088 6.088 0 016.087 6.088zm434.086 0v40.263a6.82 6.82 0 01-6.848 6.848c-2.282 0-4.311-1.078-5.516-2.79-.064-.063-.127-.19-.254-.253l-24.031-29.294v26.25a6.089 6.089 0 01-6.087 6.087 6.088 6.088 0 01-6.087-6.087V14.07c0-3.55 2.726-6.53 6.214-6.848h1.395c1.648.127 3.106.888 4.184 1.966.317.317.571.634.825 1.015l24.031 29.294V13.31a6.089 6.089 0 016.087-6.088 6.088 6.088 0 016.087 6.088zM243.421 55.475a4.952 4.952 0 01-4.946 4.946h-30.626a5.656 5.656 0 01-5.643-5.643V12.866a5.655 5.655 0 015.643-5.644h29.612a4.952 4.952 0 014.945 4.946 4.952 4.952 0 01-4.945 4.946h-23.017v11.54h19.91c2.663 0 4.819 2.156 4.819 4.756a4.817 4.817 0 01-4.819 4.819h-19.91v12.3h24.031a4.952 4.952 0 014.946 4.946zm353.811 0a4.952 4.952 0 01-4.945 4.946h-30.626a5.656 5.656 0 01-5.643-5.643V12.866a5.655 5.655 0 015.643-5.644h29.611a4.952 4.952 0 014.946 4.946 4.952 4.952 0 01-4.946 4.946h-23.017v11.54h19.91c2.663 0 4.819 2.156 4.819 4.756a4.817 4.817 0 01-4.819 4.819h-19.91v12.3h24.032a4.952 4.952 0 014.945 4.946zm-198.273 0a4.952 4.952 0 01-4.946 4.946h-30.626a5.656 5.656 0 01-5.643-5.643V12.866a5.655 5.655 0 015.643-5.644h29.612a4.952 4.952 0 014.945 4.946 4.952 4.952 0 01-4.945 4.946h-23.017v11.54h19.91c2.663 0 4.819 2.156 4.819 4.756a4.817 4.817 0 01-4.819 4.819h-19.91v12.3h24.031a4.952 4.952 0 014.946 4.946zm-138.925 4.946c-.191.063-.444.064-.634.064-.191 0-.444 0-.634-.064h1.268z"/><path d="M288.439 43.301c6.912-2.916 10.97-8.813 10.97-16.803 0-11.92-8.877-19.276-23.144-19.276H258.13a6.13 6.13 0 00-4.882 6.024v41.088c0 3.17 2.41 5.77 5.516 6.087h1.269c3.107-.317 5.516-2.917 5.516-6.087v-8.75h11.35l8.37 12.047c.19.444.507.825.824 1.205 1.015.951 2.346 1.585 3.868 1.585a5.413 5.413 0 005.453-5.453c0-1.141-.317-2.22-.951-3.043l-6.024-8.624zm-12.808-7.482h-10.082V17.241h10.082c7.482 0 11.286 3.424 11.286 9.257 0 5.77-3.804 9.321-11.286 9.321zM260.604 7.222h-2.473c.444-.063.824-.126 1.268-.126.444 0 .824.063 1.205.126z"/></g><g clip-path="url(#blclip1)"><path d="M330.918 56.81c-6.125 0-12.444-1.302-17.367-3.57l-.192-.081c-.096-.049-.192-.08-.273-.13-2.004-.964-3.287-3.04-3.287-5.292 0-.676.096-1.207.321-1.722l.497-1.239v-.643l.417-.033c1.074-1.464 2.806-2.316 4.682-2.316.658 0 1.299.112 2.021.354.192.064.449.144.689.337 3.961 1.802 8.419 2.8 12.54 2.8 6.094 0 9.461-1.738 9.461-4.907 0-3.508-5.067-4.698-10.952-6.066-8.884-2.075-19.949-4.682-19.949-16.861C309.526 6.854 318.651 0 332.746 0c4.635 0 9.157.74 13.07 2.156.128.016.304.048.465.145.32.112.641.225.946.37h.032l.24.096c1.925 1.078 3.079 3.025 3.079 5.213 0 .66-.112 1.303-.353 2.027l-.112.274c-.048.096-.08.193-.128.274a5.954 5.954 0 01-5.34 3.362c-.497 0-1.219-.048-1.844-.322a4.106 4.106 0 00-.706-.273c-3.335-1.207-6.494-1.818-9.493-1.818-5.981 0-9.269 1.882-9.269 5.293 0 3.443 5.068 4.602 10.921 5.953 8.9 2.043 19.98 4.585 19.98 16.669.016 8.028-6.093 17.392-23.316 17.392zm-18.842-11.374l-.497 1.223c-.144.321-.192.643-.192 1.094 0 1.64.946 3.153 2.389 3.845l.176.064c.096.049.193.08.273.13 4.698 2.155 10.776 3.41 16.677 3.41 13.214 0 21.745-6.194 21.745-15.783 0-10.812-9.958-13.081-18.73-15.092-6.527-1.496-12.171-2.784-12.171-7.514 0-2.075 1.058-6.902 10.872-6.902 3.191 0 6.543.644 9.958 1.882.209.049.578.193.914.354.241.097.674.177 1.155.177a4.35 4.35 0 003.897-2.461l.064-.177c.048-.097.08-.193.128-.274.144-.466.241-.933.241-1.416a4.316 4.316 0 00-2.117-3.732l-.16-.065c-.337-.177-.69-.29-1.043-.402l-.272-.064c-3.769-1.4-8.131-2.124-12.637-2.124-15.939 0-21.616 8.19-21.616 15.832 0 10.908 9.942 13.241 18.714 15.3 6.542 1.529 12.187 2.864 12.187 7.643 0 1.963-1.074 6.516-11.065 6.516-4.394 0-9.124-1.062-13.309-2.993l-.225-.16c-.016 0-.112-.033-.192-.065-.578-.193-1.043-.273-1.524-.273-1.475 0-2.806.708-3.56 1.914l-.08.113zm148.076 11.343c-17.319 0-29.891-11.938-29.891-28.382 0-16.443 12.572-28.38 29.891-28.38 17.318 0 29.874 11.937 29.874 28.38 0 16.46-12.572 28.382-29.874 28.382zm0-55.154c-16.389 0-28.288 11.262-28.288 26.772 0 15.51 11.899 26.773 28.288 26.773 16.388 0 28.271-11.263 28.271-26.773S476.54 1.625 460.152 1.625zm0 44.648c-10.103 0-17.431-7.514-17.431-17.876 0-10.361 7.328-17.875 17.431-17.875 10.102 0 17.43 7.514 17.43 17.875 0 10.362-7.344 17.876-17.43 17.876zm0-34.126c-9.173 0-15.828 6.838-15.828 16.267 0 9.428 6.655 16.266 15.828 16.266 9.172 0 15.827-6.838 15.827-16.267 0-9.428-6.655-16.266-15.827-16.266zM28.803 56.81c-15.828 0-24.92-9.186-24.92-25.195v-23.7C3.883 4.072 7.026.95 10.89.95c3.833 0 6.944 3.122 6.944 6.967v23.249c0 9.074 3.608 13.483 11.033 13.483 7.537 0 11.032-4.28 11.032-13.483V7.915c0-3.812 3.08-6.901 6.88-6.901s6.88 3.089 6.88 6.902v23.7c.015 16.008-9.045 25.195-24.856 25.195zM10.89 2.559c-2.982 0-5.404 2.414-5.404 5.358v23.7c0 14.994 8.5 23.586 23.317 23.586 14.785 0 23.252-8.592 23.252-23.587v-23.7c0-2.911-2.374-5.292-5.276-5.292-2.903 0-5.276 2.38-5.276 5.293v23.249c0 10.023-4.25 15.091-12.636 15.091-8.387 0-12.637-5.068-12.637-15.091V7.915c0-2.943-2.389-5.357-5.34-5.357zm121.697 53.303c-3.897 0-6.943-3.057-6.943-6.967V7.852c0-3.33 2.325-6.227 5.516-6.887l.208-.032c.818-.112 1.604-.129 2.422 0l.16.016c3.239.66 5.565 3.556 5.565 6.903v41.043c.016 3.91-3.031 6.967-6.928 6.967zm0-53.433c-.353 0-.657.049-.978.097l-.177.032c-2.405.499-4.185 2.735-4.185 5.31V48.91c0 3.009 2.341 5.358 5.34 5.358 2.999 0 5.34-2.35 5.34-5.358V7.851c0-2.574-1.78-4.81-4.233-5.309l-.129-.016c-.32-.048-.625-.097-.978-.097zm40.474 53.368a10.034 10.034 0 01-9.285-6.21l-17.03-39.483c-.272-.901-.385-1.657-.385-2.43.064-3.217 2.422-6.033 5.581-6.693.882-.128 1.411-.273 2.501 0 2.229.354 4.234 1.867 5.164 3.942.064.097.144.242.176.435l13.791 32.42 13.711-31.712c.016-.097.048-.161.064-.21l.064-.225.754-1.721c1.283-1.883 3.351-2.96 5.484-2.96 3.544 0 6.43 2.895 6.43 6.451 0 .676-.128 1.384-.352 2.092l-.401.949c-.064.113-.112.193-.161.29l-.08.16-16.565 38.39c-.064.305-.272.659-.385.82-1.555 3.427-5.147 5.695-9.076 5.695zM153.417 2.43c-.401 0-.786.065-1.187.113-2.421.515-4.233 2.67-4.281 5.133 0 .595.096 1.206.289 1.85l.336.724 16.662 38.71a8.413 8.413 0 007.809 5.23c3.319 0 6.334-1.915 7.697-4.876.161-.257.241-.418.273-.563L197.58 10.25c.048-.161.16-.322.24-.435l.401-.9a4.99 4.99 0 00.257-1.53c0-2.67-2.165-4.842-4.827-4.842a5.05 5.05 0 00-4.089 2.14l-.641 1.464c-.017.097-.049.16-.065.21l-.048.224-15.234 35.268-15.442-36.265c-.706-1.593-2.245-2.751-4.009-3.025-.433-.112-.626-.129-.706-.129zm4.811 3.33c.016 0 .016.017 0 0zm-51.283 50.102c-2.469 0-4.779-1.175-6.158-3.122l-.16-.08-.064-.129-22.579-27.625v24.037c0 3.814-3.078 6.903-6.879 6.903-3.8 0-6.88-3.09-6.88-6.903V8.623c0-3.957 3.047-7.32 6.944-7.658.433-.128.93-.16 1.668.016 1.587.097 3.255.87 4.554 2.173.385.418.657.74.914 1.142l22.53 27.544V7.868c0-3.814 3.079-6.903 6.88-6.903 3.8 0 6.879 3.09 6.879 6.903v40.335c0 4.216-3.431 7.659-7.649 7.659zm-5.211-4.457c.144.113.24.225.288.306a5.989 5.989 0 004.923 2.542c3.384 0 6.046-2.655 6.046-6.05V7.868c0-2.913-2.374-5.294-5.276-5.294-2.903 0-5.276 2.381-5.276 5.294v28.478l-25.433-31.1a5.733 5.733 0 00-.786-.966c-1.01-1.014-2.309-1.625-3.656-1.722-.304-.064-.417-.064-.641-.064-.257 0-.353 0-.513.048-3.191.29-5.597 2.944-5.597 6.066v40.335c0 2.913 2.373 5.294 5.276 5.294 2.902 0 5.276-2.382 5.276-5.294V20.417l25.369 30.988zm438.709 4.457c-2.485 0-4.778-1.175-6.158-3.138l-.16-.08-.064-.129-22.579-27.609V48.96c0 3.813-3.078 6.903-6.879 6.903-3.8 0-6.879-3.09-6.879-6.903V8.624c0-3.942 3.046-7.305 6.927-7.659h1.459c1.796.13 3.464.917 4.747 2.205.337.337.625.691.93 1.142l22.531 27.56V7.853c0-3.814 3.078-6.903 6.879-6.903 3.8 0 6.879 3.09 6.879 6.903v40.335c.016 4.232-3.415 7.675-7.633 7.675zm-5.211-4.457c.144.113.24.225.288.29a5.97 5.97 0 004.939 2.558c3.336 0 6.046-2.72 6.046-6.05V7.852c0-2.913-2.374-5.294-5.276-5.294-2.903 0-5.276 2.381-5.276 5.294v28.494l-25.449-31.1a4.902 4.902 0 00-.769-.95c-1.011-1.014-2.31-1.625-3.673-1.738h-1.331c-2.998.274-5.404 2.945-5.404 6.05v40.335c0 2.912 2.374 5.294 5.276 5.294 2.903 0 5.276-2.382 5.276-5.294V20.417l25.353 30.988zm-292.399 4.457h-30.58c-3.544 0-6.431-2.896-6.431-6.452V7.417c0-3.556 2.887-6.452 6.431-6.452h29.57c3.159 0 5.741 2.59 5.741 5.76s-2.582 5.76-5.741 5.76h-22.178v9.96h19.083c3.095 0 5.612 2.493 5.612 5.566 0 3.105-2.517 5.631-5.612 5.631h-19.083v10.716h23.204c3.159 0 5.741 2.59 5.741 5.76s-2.598 5.744-5.757 5.744zm-30.58-53.304c-2.662 0-4.827 2.172-4.827 4.843v41.993c0 2.67 2.165 4.843 4.827 4.843h30.58c2.277 0 4.137-1.867 4.137-4.151 0-2.285-1.86-4.151-4.137-4.151h-24.807V32.017h20.686a4.017 4.017 0 004.009-4.022c0-2.188-1.796-3.958-4.009-3.958h-20.686V10.86h23.781c2.277 0 4.137-1.866 4.137-4.15 0-2.285-1.86-4.152-4.137-4.152h-29.554zm383.898 53.304h-30.58c-3.544 0-6.43-2.896-6.43-6.452V7.417c0-3.556 2.886-6.452 6.43-6.452h29.57c3.159 0 5.741 2.59 5.741 5.76s-2.582 5.76-5.741 5.76h-22.177v9.96h19.082c3.095 0 5.613 2.493 5.613 5.566 0 3.105-2.518 5.631-5.613 5.631h-19.082v10.716h23.203c3.159 0 5.741 2.59 5.741 5.76s-2.598 5.744-5.757 5.744zM565.555 2.558c-2.662 0-4.827 2.172-4.827 4.843v41.993c0 2.67 2.165 4.843 4.827 4.843h30.58c2.277 0 4.138-1.867 4.138-4.151 0-2.285-1.861-4.151-4.138-4.151h-24.807V32.017h20.686a4.017 4.017 0 004.009-4.022c0-2.188-1.796-3.958-4.009-3.958h-20.686V10.86h23.781c2.277 0 4.137-1.866 4.137-4.15 0-2.285-1.86-4.152-4.137-4.152h-29.554zm-167.43 53.304h-30.58c-3.544 0-6.431-2.896-6.431-6.452V7.417c0-3.556 2.887-6.452 6.431-6.452h29.57c3.159 0 5.741 2.59 5.741 5.76s-2.582 5.76-5.741 5.76h-22.178v9.96h19.083c3.095 0 5.612 2.493 5.612 5.566 0 3.105-2.517 5.631-5.612 5.631h-19.083v10.716h23.188c3.159 0 5.741 2.59 5.741 5.76a5.741 5.741 0 01-5.741 5.744zm-30.58-53.304c-2.662 0-4.827 2.172-4.827 4.843v41.993c0 2.67 2.165 4.843 4.827 4.843h30.58c2.277 0 4.137-1.867 4.137-4.151 0-2.285-1.86-4.151-4.137-4.151h-24.791V32.017h20.686a4.017 4.017 0 004.009-4.022c0-2.188-1.796-3.958-4.009-3.958h-20.686V10.86h23.781c2.277 0 4.137-1.866 4.137-4.15 0-2.285-1.86-4.152-4.137-4.152h-29.57zm-73.301 53.304c-1.604 0-3.159-.644-4.394-1.802-.417-.5-.786-.934-1.026-1.465l-8.034-11.584h-10.119v7.948a6.9 6.9 0 01-6.222 6.903h-1.347c-3.64-.354-6.318-3.315-6.318-6.903V7.803c0-3.314 2.325-6.178 5.517-6.822l.192-.032a8.918 8.918 0 012.566.032l15.506-.016c14.753 0 23.91 7.707 23.91 20.112 0 7.867-3.736 13.933-10.536 17.167l5.452 7.835c.706.95 1.091 2.172 1.091 3.524.016 3.507-2.726 6.259-6.238 6.259zM263.728 2.446c-.337 0-.658.048-.995.096-2.565.515-4.345 2.72-4.345 5.261V48.96a5.294 5.294 0 004.794 5.294h1.187c2.646-.274 4.699-2.542 4.699-5.294v-9.557h12.556l8.595 12.405c.224.467.497.788.786 1.142.593.564 1.716 1.304 3.239 1.304 2.614 0 4.65-2.044 4.65-4.65 0-.982-.272-1.899-.785-2.574l-6.591-9.477.914-.386c6.751-2.848 10.455-8.56 10.455-16.09 0-11.406-8.547-18.502-22.306-18.502H264.93c-.465-.08-.801-.128-1.202-.128zm16.212 28.767h-10.872V10.989h10.872c7.681 0 12.075 3.684 12.075 10.088 0 6.435-4.41 10.136-12.075 10.136zm-9.269-1.609h9.269c6.751 0 10.471-3.025 10.471-8.527 0-7.015-5.692-8.48-10.471-8.48h-9.269v17.007z"/></g><defs><clipPath id="blclip0"><path transform="translate(0 6.271)" d="M0 0h597.233v55.101H0z"/></clipPath><clipPath id="blclip1"><path transform="translate(3.883)" d="M0 0h598.01v56.811H0z"/></clipPath></defs></svg><svg viewBox="0 0 71 74" id="universe_advantages-icon-1" xmlns="http://www.w3.org/2000/svg"><path d="M48.583 12.487l-.983-.537a22.615 22.615 0 00-3.497-1.54l-.858-.295.243-.856a1.87 1.87 0 00-.272-1.604 1.952 1.952 0 00-1.258-.799c-1.061-.194-2.087.493-2.285 1.533a1.249 1.249 0 00-.018.119l-.1.887-.912-.041a23.282 23.282 0 00-3.838.142l-1.126.136.033-1.108a7.65 7.65 0 013.422-6.144 7.98 7.98 0 015.908-1.224 7.852 7.852 0 015.06 3.22 7.528 7.528 0 011.25 5.775 7.557 7.557 0 01-.37 1.306l-.399 1.03zm-3.08-3.6c.66.252 1.313.533 1.952.84A5.68 5.68 0 0046.5 5.45a5.913 5.913 0 00-3.812-2.426 6.017 6.017 0 00-4.45.92 5.76 5.76 0 00-2.44 3.543c.709-.05 1.422-.07 2.134-.06.639-1.718 2.482-2.79 4.385-2.444a3.884 3.884 0 012.506 1.593c.48.688.715 1.493.68 2.31zM43.1 74c-.712 0-1.428-.064-2.148-.194-5.513-1.003-9.552-5.706-9.605-11.185l-.011-1.155 1.162.21 14.24 2.592 7.725 1.405-.435 1.074C52.234 71.179 47.84 74 43.099 74zm-9.723-10.227c.552 4.057 3.728 7.397 7.932 8.163 4.206.765 8.398-1.235 10.402-4.826l-5.33-.969c-5.112-.93-10.151-1.847-13.004-2.368z"/><path d="M58.865 45.916l-47.47-8.64.503-1.103c1.248-2.74 2.143-5.75 3.008-8.66.372-1.25.755-2.54 1.155-3.765 1.76-5.383 4.597-9.523 8.433-12.303 2.883-2.087 6.272-3.38 10.073-3.84a25.378 25.378 0 014.167-.155c1.588.074 2.639.276 2.833.316.214.035 1.449.247 3.182.846a24.642 24.642 0 013.797 1.675c5.4 2.95 11.679 9.053 10.94 21.367a150.305 150.305 0 01-.308 3.923c-.264 3.018-.534 6.14-.379 9.133l.066 1.206zm-44.71-10.075l42.661 7.766c-.049-2.735.191-5.503.425-8.191.117-1.344.228-2.614.302-3.873.681-11.329-5.033-16.908-9.945-19.594a22.702 22.702 0 00-3.496-1.541c-1.684-.583-2.85-.763-2.86-.765l-.062-.01c-.01-.002-.99-.208-2.538-.28a23.08 23.08 0 00-3.837.143c-5.721.692-13.294 3.826-16.892 14.833-.393 1.2-.755 2.422-1.14 3.716-.77 2.591-1.564 5.26-2.618 7.796zm42.148 31.871c-.865 0-1.774-.088-2.757-.268l-.607-.11-6.558-1.195-14.24-2.59-1.15-.21-22.553-4.107c-1.22-.223-2.278-.532-3.235-.948-3.647-1.584-5.654-4.72-5.117-7.99.503-3.06 2.933-4.537 4.885-5.724a15.108 15.108 0 002.57-1.972l.361-.344L60.29 51.79l.21.448a14.75 14.75 0 001.673 2.745c1.385 1.794 3.11 4.027 2.453 7.06-.702 3.24-3.73 5.459-7.714 5.652-.2.013-.404.016-.609.016zM8.53 44.304a17.04 17.04 0 01-2.531 1.884c-2.193 1.331-3.654 2.36-3.992 4.409-.477 2.903 1.746 4.977 3.985 5.949.815.355 1.731.62 2.801.816l22.554 4.107 1.148.21 14.24 2.59 6.563 1.194c.207.038.405.075.603.11 1.067.196 2.018.269 2.913.224 2.337-.114 5.283-1.268 5.91-4.148.44-2.031-.547-3.505-2.103-5.52a16.663 16.663 0 01-1.67-2.648L8.53 44.304z"/><path d="M61.282 53.906L6.2 43.878l1.34-1.28c1.014-.967 1.906-2.07 2.726-3.375.168-.261.331-.533.504-.837.071-.121.138-.24.202-.36l.004-.012.044-.08.115-.212v-.01l.113-.207a25.35 25.35 0 00.435-.873l.196-.422.335-.725 46.553 8.474.035.755c.007.143.016.288.025.432l.005.087c.021.325.048.624.078.91l.01.098c.015.144.03.277.048.412l.004.03v-.003l.007.047a8.9 8.9 0 00.058.43l.004.018a18.14 18.14 0 00.23 1.303c.288 1.377.69 2.603 1.23 3.755l.782 1.673zM10.131 42.658l47.927 8.726c-.28-.796-.51-1.63-.695-2.515a20.481 20.481 0 01-.253-1.428c-.025-.16-.048-.321-.065-.48l-.01-.075c-.019-.152-.038-.303-.052-.456l-.01-.084a29.268 29.268 0 01-.07-.787l-43.55-7.927c-.044.093-.09.185-.136.278l-.134.268v.01l-.106.196c-.068.13-.135.258-.205.386v.002l-.045.08a20.61 20.61 0 01-.806 1.375 20.7 20.7 0 01-1.79 2.431zm.883-4.712l-.002.006.002-.006z"/><path d="M61.137 53.588h-1.611l-.089-.016L7.98 44.203 6.383 43.7l1.153-1.104c1.01-.96 1.903-2.063 2.73-3.373.178-.28.347-.564.505-.839l.201-.36.002-.007.044-.08c.04-.07.078-.141.115-.212v-.009l.108-.199c.076-.145.15-.292.223-.439.075-.15.147-.296.216-.443l.196-.422.335-.725 46.553 8.475.035.754c.007.144.016.289.025.432l.005.087c.023.32.05.623.078.917l.01.093c.014.135.03.273.048.412l.004.03v-.003l.005.039a35.39 35.39 0 00.11.771c.053.332.113.663.182.995a17.185 17.185 0 001.234 3.752l.637 1.346zm-51.008-10.93l47.936 8.727a20.042 20.042 0 01-.7-2.515 23.445 23.445 0 01-.319-1.904l-.01-.08c-.02-.147-.036-.296-.052-.444l-.01-.096c-.027-.257-.05-.515-.07-.787l-43.55-7.927-.137.278c-.044.088-.088.178-.135.267v.012l-.106.195c-.067.13-.134.258-.205.386v.002l-.05.088a25.147 25.147 0 01-.798 1.36 20.48 20.48 0 01-1.794 2.438zm.884-4.712l-.002.004.002-.004zm5.048-21.596c-.201 0-.405-.052-.59-.16a1.123 1.123 0 01-.41-1.558c2.316-3.826 5.876-6.92 10.024-8.71a1.175 1.175 0 011.535.581 1.13 1.13 0 01-.594 1.502c-3.71 1.602-6.89 4.366-8.96 7.788-.22.356-.607.557-1.005.557zm-5.97-1.877a.876.876 0 01-.396-.094.844.844 0 01-.378-1.149C12.555 7.043 18.02 2.362 24.707.05a.878.878 0 011.115.52.85.85 0 01-.532 1.09c-6.266 2.167-11.385 6.552-14.42 12.349a.885.885 0 01-.78.463zm53.482 10.2c.19.064.4.08.612.04a1.141 1.141 0 00.91-1.341c-.9-4.358-3.222-8.423-6.54-11.448a1.183 1.183 0 00-1.645.055c-.438.46-.412 1.18.057 1.609 2.964 2.704 5.04 6.34 5.845 10.235.087.409.386.722.76.85zm6.268.145a.888.888 0 00.407.04.859.859 0 00.744-.963c-.978-6.885-4.568-13.062-10.106-17.397a.887.887 0 00-1.227.133c-.3.368-.24.904.136 1.2 5.187 4.06 8.551 9.848 9.468 16.299a.86.86 0 00.578.688z"/></svg><svg viewBox="0 0 86 86" id="universe_advantages-icon-2" xmlns="http://www.w3.org/2000/svg"><g clip-path="url(#bnclip0)"><path d="M83.266 23.427l-.261-.147.034-.3c.028-.236.04-.478.04-.718-.012-2.508-1.814-4.714-4.282-5.237-2.816-.534-5.6 1.216-6.326 3.986l-.011.034-6.492 18.595-.196.077c-.077.03-.151.067-.223.107l-12.9 7.522c-3.861 2.257-6.265 6.43-6.272 10.885v14.145h-.457c-.553 0-1.004.448-1.004.999V85c0 .55.451.999 1.004.999h20.444c.553 0 1.004-.449 1.004-1V73.376c0-.55-.451-1-1.004-1h-.457v-3.65a4.869 4.869 0 011.61-3.592l9.875-8.738a6.69 6.69 0 002.08-3.337L85.81 29.47c.126-.456.19-.923.19-1.393a5.398 5.398 0 00-2.734-4.649zm-8.886-1.8c.433-1.766 2.18-2.927 3.983-2.647l.024.004a3.383 3.383 0 012.685 3.277v.476l-.448.009c-2.465.045-4.623 1.735-5.247 4.107l-.007.025-4.235 13.006-.47-.222a5.638 5.638 0 00-1.81-.51l-.57-.064 6.095-17.461zm-9.02 62.375H46.924v-9.628H65.36v9.628zm18.514-55.049l-6.352 23.598a4.762 4.762 0 01-1.452 2.343l-9.885 8.735a6.888 6.888 0 00-2.286 5.097v3.65H48.385V58.23c.014-3.747 2.037-7.26 5.276-9.168l12.896-7.515a3.366 3.366 0 012.56-.346 3.352 3.352 0 012.058 1.557l.011.02c.438.776.558 1.679.336 2.543a3.342 3.342 0 01-1.588 2.04l-8.356 4.805a.994.994 0 00-.302 1.374c.276.432.85.587 1.306.354l8.358-4.807a5.314 5.314 0 002.517-3.253 5.301 5.301 0 00-.531-4.048l-.201-.301 4.574-14.042c.432-1.766 2.18-2.93 3.984-2.65l.024.003a3.383 3.383 0 012.685 3.277c.006.292-.035.592-.118.88zM40.08 72.376h-.457V58.23c-.007-4.456-2.411-8.629-6.273-10.885l-12.892-7.533c-.028-.015-.059-.024-.088-.037a2.583 2.583 0 01-.179-.074l-.166-.084-6.452-18.509c-.71-2.818-3.514-4.609-6.383-4.082-2.455.521-4.257 2.727-4.27 5.237 0 .238.013.48.04.716l.035.3-.26.147A5.399 5.399 0 000 28.077c.002.47.062.941.177 1.401l6.348 23.563a6.674 6.674 0 002.081 3.352l9.859 8.736a4.833 4.833 0 011.628 3.593v3.654h-.457c-.553 0-1.003.448-1.003.999V85c0 .55.45.999 1.003.999H40.08c.553 0 1.004-.449 1.004-1V73.376c0-.55-.451-1-1.005-1zM4.928 22.26a3.382 3.382 0 012.669-3.276l.029-.005c1.85-.267 3.62.94 4.04 2.75l6.048 17.358-.57.064a5.638 5.638 0 00-1.81.51l-.469.222-4.213-12.958c-.622-2.398-2.792-4.117-5.278-4.18l-.446-.011v-.474zm14.873 41.368L9.93 54.894a4.738 4.738 0 01-1.453-2.361L2.112 28.949a3.536 3.536 0 01-.104-.877c.003-1.566 1.126-2.945 2.668-3.273l.028-.006c1.843-.276 3.608.921 4.026 2.727l4.545 13.966-.2.301a5.31 5.31 0 00-.532 4.048 5.32 5.32 0 002.514 3.253l8.361 4.807c.49.249 1.092.058 1.347-.427a.989.989 0 00-.343-1.3l-8.358-4.805a3.341 3.341 0 01-1.584-2.033 3.421 3.421 0 01.334-2.55 3.39 3.39 0 014.61-1.249l12.913 7.53c3.241 1.91 5.264 5.423 5.278 9.169v14.146H22.1v-3.652a6.853 6.853 0 00-2.3-5.096zm19.275 20.373H20.64v-9.628h18.436v9.628zM63.336 4.13a14.133 14.133 0 00-4.582-3.062A14.18 14.18 0 0053.342 0h-.013c-3.77 0-7.317 1.46-9.988 4.113l-.34.34-.324-.322A14.076 14.076 0 0032.687 0h-.016c-3.77 0-7.314 1.459-9.983 4.11l-.022.021c-5.5 5.486-5.5 14.413 0 19.9l19.626 19.531a1.01 1.01 0 001.42 0L63.337 24.03c5.5-5.486 5.498-14.415-.002-19.9zm-1.42 18.485L43 41.442 24.085 22.617a11.975 11.975 0 01-3.55-8.544 11.967 11.967 0 013.56-8.54A12.092 12.092 0 0132.674 2h.043a12.12 12.12 0 018.54 3.546l1.034 1.03a1.01 1.01 0 001.42 0l1.039-1.035a12.083 12.083 0 018.573-3.543h.011c3.236 0 6.277 1.252 8.568 3.528l.014.015c4.724 4.707 4.724 12.365 0 17.074z"/></g><defs><clipPath id="bnclip0"><path d="M0 0h86v86H0z"/></clipPath></defs></svg><svg viewBox="0 0 109 95" id="universe_advantages-icon-3" xmlns="http://www.w3.org/2000/svg"><g clip-path="url(#boclip0)"><path d="M5.356 63.377L0 58.021l29.268-29.269 10.553 10.553 17.994-17.994 12.32 12.32L91.34 12.534l-3.606-3.607a2.555 2.555 0 01-.668-2.495 2.555 2.555 0 011.825-1.826L105.747.09l.223.836-.223-.836a2.558 2.558 0 012.495.668c.661.661.91 1.594.668 2.496l-4.517 16.855a2.555 2.555 0 01-1.825 1.826 2.56 2.56 0 01-2.496-.668l-3.374-3.374L70.12 44.33 57.815 32.025 39.82 50.019 29.268 39.466 5.356 63.377zm-2.909-5.356l2.909 2.91 23.91-23.912L39.82 47.572l17.994-17.994 12.31 12.31L96.7 15.446l4.597 4.597a.83.83 0 00.823.22.835.835 0 00.603-.603l4.516-16.855a.84.84 0 00-.219-.824.838.838 0 00-.824-.22L89.34 6.278a.836.836 0 00-.603.602.837.837 0 00.222.824l4.833 4.833-23.661 23.537-12.316-12.316L39.82 41.754 29.268 31.2 2.447 58.021z"/><path d="M29.391 95h-14.32c-2.132 0-3.868-1.706-3.868-3.804V63.075c0-2.15 1.736-3.897 3.868-3.897h14.32c2.148 0 3.963 1.784 3.963 3.897v28.121c0 2.098-1.777 3.804-3.963 3.804zm-14.32-34.092c-1.158 0-2.137.992-2.137 2.167v28.121c0 1.163.938 2.073 2.137 2.073h14.32c1.21 0 2.233-.95 2.233-2.073V63.075c0-1.154-1.044-2.167-2.233-2.167h-14.32zM62.676 95h-14.32c-2.165 0-3.927-1.706-3.927-3.804V52.792c0-2.11 1.762-3.825 3.927-3.825h14.32c2.153 0 3.904 1.715 3.904 3.825v38.404c0 2.098-1.751 3.804-3.904 3.804zm-14.32-44.302c-1.19 0-2.196.959-2.196 2.094v38.404c0 1.144.985 2.073 2.196 2.073h14.32c1.2 0 2.173-.929 2.173-2.073V52.792c0-1.154-.974-2.094-2.173-2.094h-14.32zM95.959 95h-14.32c-2.196 0-3.984-1.706-3.984-3.804V41.967c0-2.114 1.824-3.902 3.984-3.902h14.32c2.121 0 3.847 1.751 3.847 3.902v49.23c0 2.133-1.69 3.803-3.847 3.803zm-14.32-55.204c-1.201 0-2.253 1.014-2.253 2.171v49.23c0 1.122 1.031 2.072 2.253 2.072h14.32c1.187 0 2.116-.91 2.116-2.073V41.967c0-1.176-.969-2.171-2.116-2.171h-14.32z"/></g><defs><clipPath id="boclip0"><path d="M0 0h109v95H0z"/></clipPath></defs></svg><svg viewBox="0 0 74 85" id="universe_advantages-icon-4" xmlns="http://www.w3.org/2000/svg"><path d="M22 43.746c-12.13 0-22-9.815-22-21.881C0 9.809 9.87 0 22 0s21.998 9.816 21.998 21.882c0 12.056-9.869 21.864-21.999 21.864zm0-41.842c-11.075 0-20.084 8.954-20.084 19.96 0 11.016 9.009 19.978 20.083 19.978 11.075 0 20.083-8.953 20.083-19.96 0-11.016-9.008-19.978-20.083-19.978zm-.186 35.226c-.343 0-.686-.005-1.026-.014-1.097-.033-1.804-.765-1.804-1.87 0-.453 0-.88-.017-1.314v-.02a54.746 54.746 0 01-.006-.237l-.198-.033c-1.068-.165-2.474-.44-3.834-1.103-1.254-.587-1.57-1.28-1.207-2.642l.002-.008c.226-.818.41-1.46.599-2.081.103-.336.313-1.027.965-1.297.65-.27 1.29.064 1.599.225 1.081.552 2.276.905 3.645 1.075.774.09 1.478 0 2.085-.27.432-.187.704-.506.756-.874.053-.372-.125-.757-.487-1.055a5.356 5.356 0 00-1.25-.725 47.876 47.876 0 00-1.236-.505c-.97-.386-1.973-.785-2.931-1.35-2.625-1.557-3.872-3.686-3.707-6.331.188-3.072 1.93-5.282 5.04-6.394l.04-.015c.144-.054.3-.111.412-.156.007-.123.009-.294.012-.454V8.534c.028-1.348.568-1.897 1.928-1.952h.824c1.096 0 1.756 0 2.263.504.507.503.507 1.16.507 2.248 0 .156 0 .326.003.457.138.026.31.05.453.073a12.35 12.35 0 013.05.902c.935.417 1.338 1.241 1.078 2.207l-.005.02c-.052.18-.105.36-.155.54-.17.597-.347 1.215-.556 1.822-.156.468-.393.982-.949 1.217-.554.234-1.087.05-1.536-.162a8.009 8.009 0 00-3.994-.793c-.387.015-.627.062-.841.16-.347.151-.558.383-.593.64-.033.247.101.507.378.727.429.35.963.644 1.69.931l.16.066c1.146.469 2.332.954 3.478 1.575 2.028 1.118 3.423 3.004 3.836 5.175a7.036 7.036 0 01-1.517 5.823c-1.045 1.255-2.393 2.11-4.006 2.547a.881.881 0 00-.148.053.6.6 0 000 .082c.024.45.017.883.008 1.302-.003.199-.007.4-.007.602 0 1.07-.693 1.783-1.764 1.818a52.05 52.05 0 01-1.037.012zm-.912-1.916a38.32 38.32 0 001.794 0c0-.186.003-.37.007-.554.007-.402.014-.781-.007-1.162-.042-.736.193-1.691 1.547-2.076 1.236-.334 2.257-.98 3.043-1.925 1.008-1.213 1.402-2.726 1.11-4.255-.306-1.613-1.354-3.02-2.877-3.86-1.048-.568-2.184-1.034-3.285-1.484l-.151-.062c-.904-.359-1.598-.746-2.176-1.217-.8-.637-1.191-1.534-1.071-2.453.122-.92.76-1.716 1.709-2.132.555-.25 1.087-.304 1.53-.322a10.013 10.013 0 014.796.92c.178-.53.33-1.063.49-1.624.048-.168.095-.338.144-.506-.84-.368-1.68-.618-2.564-.76-1.726-.258-2.078-.664-2.078-2.411 0-.31 0-.627-.014-.834-.202-.014-.52-.014-.832-.014h-.763c-.027.001-.05.001-.072.003l-.002.076v1.133c-.022 1.51-.273 1.864-1.673 2.38l-.05.017c-2.405.862-3.64 2.406-3.782 4.723-.12 1.93.76 3.384 2.774 4.577.828.49 1.72.843 2.663 1.219.422.168.858.34 1.288.526a7.302 7.302 0 011.7.997c.883.726 1.318 1.766 1.174 2.793-.145 1.023-.847 1.9-1.88 2.35-.921.41-1.963.553-3.091.42-1.554-.195-2.923-.593-4.183-1.22-.169.565-.34 1.16-.545 1.905a3.89 3.89 0 00-.071.306c.054.03.132.071.249.127.005.001.01.005.016.007 1.128.552 2.353.789 3.293.934 1.516.243 1.796.764 1.822 2.109.018.459.018.91.018 1.349z"/><path d="M52.847 85H41.804a2.764 2.764 0 01-2.77-2.753v-1.532c-.958.076-1.91.113-2.891.113a38.25 38.25 0 01-3.937-.211v1.63A2.764 2.764 0 0129.436 85H18.429a2.784 2.784 0 01-2.767-2.56c-.002-.023-.002-.047-.002-.071v-.913c-.08-1.674-.618-5.875-3.876-9.21-2.09-2.124-3.948-4.91-5.521-8.278a25.798 25.798 0 01-2.153-5.689 1.315 1.315 0 01-.038-.173 25.251 25.251 0 011.662-16.631.964.964 0 011.454-.355c4.286 3.269 9.41 4.996 14.814 4.996 11.303 0 21.046-7.624 23.697-18.539a8.824 8.824 0 012.775-4.546c2.26-1.96 5.156-3.171 8.61-3.602a2.93 2.93 0 012.846 1.326 2.91 2.91 0 01.02 3.15c-1.565 2.492-2.027 4.907-1.373 7.183l.014.056.04.197c4.101 3.372 7.13 7.588 8.8 12.248h1.772c2.347 0 4.292 1.91 4.338 4.258v8.206c0 2.358-1.93 4.276-4.303 4.276h-1.62c-1.527 4.498-4.314 8.623-8.094 11.97-.049.044-.09.077-.118.098l-.014.012-.357.303c-3.172 2.851-3.406 6.18-3.42 6.843v2.69A2.761 2.761 0 0152.847 85zm-12.855-6.284a.951.951 0 01.958.952v2.58c0 .467.383.848.854.848h11.043c.47 0 .853-.381.853-.849v-2.72c.021-1.095.376-4.93 4.06-8.236l.02-.016.348-.296c.043-.04.082-.069.108-.088 0 0 .002 0 .002-.002 3.711-3.282 6.397-7.359 7.768-11.79a.956.956 0 01.916-.672h2.317a2.383 2.383 0 002.386-2.372v-8.178c-.03-1.314-1.113-2.382-2.42-2.382h-2.457a.958.958 0 01-.91-.656c-1.539-4.685-4.552-8.924-8.713-12.262a.952.952 0 01-.358-.741c0-.059-.026-.185-.041-.253-.784-2.768-.232-5.77 1.597-8.681a1.02 1.02 0 00-.007-1.117 1.01 1.01 0 00-.995-.464c-3.067.382-5.62 1.442-7.589 3.149a6.901 6.901 0 00-2.172 3.558c-1.36 5.6-4.62 10.677-9.179 14.295-4.7 3.73-10.364 5.701-16.38 5.701-5.422 0-10.582-1.612-14.995-4.674a23.335 23.335 0 00-1.726 8.844c0 1.848.224 3.707.668 5.523a.696.696 0 01.016.083v.003a23.926 23.926 0 002.012 5.312c.007.012.012.024.017.036 1.48 3.178 3.22 5.792 5.163 7.768 3.73 3.819 4.332 8.597 4.417 10.473l.002.044v.893a.864.864 0 00.854.768h11.008c.47 0 .853-.38.853-.848v-2.7c0-.274.119-.535.326-.715a.967.967 0 01.756-.229c1.642.213 3.248.32 4.77.32 1.272 0 2.497-.066 3.746-.202a.706.706 0 01.104-.007zm19.453-6.353l-.004.003c.002-.002.002-.004.004-.004zm-1.247-1.437l-.002.001.002-.001zm-2.773-24.843c-2.037 0-3.693-1.646-3.693-3.67 0-2.023 1.656-3.67 3.693-3.67 2.036 0 3.692 1.647 3.692 3.67 0 2.024-1.656 3.67-3.692 3.67zm0-5.435c-.98 0-1.777.792-1.777 1.765 0 .973.798 1.766 1.777 1.766.979 0 1.776-.793 1.776-1.766 0-.972-.797-1.765-1.776-1.765z"/></svg><svg viewBox="0 0 95 51" id="universe_advantages-icon-5" xmlns="http://www.w3.org/2000/svg"><path d="M91.016 11.86a12.097 12.097 0 00-1.987-1.734 12.54 12.54 0 00-2.332-1.279c-1.666-.696-3.481-1.05-5.396-1.05H70.206V1.293C70.206.58 69.626 0 68.914 0h-47.64c-.711 0-1.292.58-1.292 1.293V10.7H9.604c-.712 0-1.293.581-1.293 1.293s.58 1.293 1.293 1.293h11.69c.712 0 1.293-.58 1.293-1.293V2.586h45.054v39.602h-23.56c-.033 0-.074 0-.1.002l-.871.173-.342-.837c-1.07-2.644-3.59-4.35-6.422-4.35-2.845 0-5.364 1.718-6.42 4.38l-.344.871-.91-.207a1.311 1.311 0 00-.28-.032h-5.805V32.76c0-.712-.58-1.293-1.292-1.293H9.604c-.712 0-1.293.581-1.293 1.293s.58 1.293 1.293 1.293h10.378v9.408c0 .712.58 1.293 1.293 1.293h8.136l.187.858c.694 3.12 3.53 5.388 6.748 5.388a6.89 6.89 0 006.748-5.394l.193-.852h30.337l.193.852C74.533 48.73 77.37 51 80.565 51a6.89 6.89 0 006.749-5.394l.192-.852h6.202c.712 0 1.292-.58 1.292-1.293v-19.83c0-4.868-1.378-8.938-3.984-11.77zm-54.67 36.574a4.34 4.34 0 01-4.335-4.336 4.34 4.34 0 014.335-4.336 4.34 4.34 0 014.334 4.336 4.34 4.34 0 01-4.334 4.336zm44.22 0a4.34 4.34 0 01-4.335-4.336 4.34 4.34 0 014.334-4.336 4.34 4.34 0 014.335 4.336c-.026 2.393-1.97 4.336-4.335 4.336zm11.85-6.246h-5.17l-.276-.682c-1.058-2.59-3.633-4.33-6.405-4.33a6.887 6.887 0 00-6.402 4.328l-.278.684h-3.659V10.383h11.095c3.412 0 6.245 1.255 8.194 3.63 1.896 2.31 2.9 5.643 2.9 9.637v18.538z"/><path d="M49.005 22.327c.002.024 0 .046-.002.07-.014.06-.024.115-.028.173a.984.984 0 00-.014.096c-.006.027-.011.06-.017.093-.016.04-.028.078-.038.111l-.044.1a1.094 1.094 0 00-.066.12 1.426 1.426 0 00-.117.17c-.022.026-.048.054-.074.086l-6.098 6.098c-.268.257-.59.392-.932.392a1.29 1.29 0 01-1.296-1.293c0-.346.135-.672.387-.923l3.788-4.05H1.292C.581 23.57 0 22.99 0 22.279c0-.712.58-1.293 1.292-1.293h43.301l-3.636-3.638a1.29 1.29 0 01-.38-.917c0-.346.135-.672.38-.917a1.29 1.29 0 011.833 0l5.816 5.82c.025.03.05.056.071.08l.052.1.061.063a.94.94 0 00.066.117l.004.006a.897.897 0 00.052.127l.032.09c.003.023.01.05.013.08.004.035.01.069.014.097v.167l.034.067z"/></svg><svg viewBox="0 0 59 74" id="universe_advantages-icon-6" xmlns="http://www.w3.org/2000/svg"><path d="M58.133.154a1.514 1.514 0 00-1.623.19c-3.59 2.93-8.308 4.393-13.025 4.393-4.717.001-9.434-1.464-13.026-4.394a1.525 1.525 0 00-1.919.001c-3.591 2.93-8.308 4.393-13.025 4.393C10.796 4.738 6.08 3.273 2.488.343A1.52 1.52 0 00.867.153 1.56 1.56 0 000 1.554V44.09c0 13.322 10.868 24.48 29.073 29.85.276.08.577.08.855-.002C48.131 68.57 59 57.412 59 44.09V1.552a1.56 1.56 0 00-.867-1.398zM3.06 4.549l1.161.591c4.73 2.41 10.333 3.213 15.777 2.257l2.315-.405L3.06 28.286V4.55zm24.91 65.797l-1.06-.368c-7.347-2.552-13.397-6.236-17.496-10.65-4.158-4.478-6.355-9.746-6.355-15.238v-5.538H27.97v31.794zm0-34.896H14.26l13.71-15.64v15.64zm0-20.31L10.165 35.45H3.06v-2.572L27.97 5.325v9.816zm3.06 23.412h9.13L31.03 49.35V38.552zm0 15.566l13.159-15.566H53.8L31.03 63.837v-9.72zM55.94 44.09c0 5.492-2.196 10.76-6.354 15.237-4.1 4.415-10.15 8.099-17.496 10.651l-1.06.368v-1.919l24.91-27.653v3.316zm0-8.64H31.03V4.503l1.162.596c6.88 3.527 15.745 3.544 22.586.044l1.163-.595V35.45z"/></svg><svg viewBox="0 0 20 23" id="user" xmlns="http://www.w3.org/2000/svg"><path d="M9.685 10.29c3.008 0 5.447-2.304 5.447-5.145C15.132 2.303 12.693 0 9.685 0 6.676 0 4.237 2.303 4.237 5.145c0 2.841 2.44 5.145 5.448 5.145zm-.001 3.026C4.336 13.316 0 17.652 0 23h19.368c0-5.348-4.335-9.684-9.684-9.684z"/></svg></svg>