<svg width="1140" height="424" fill="none" xmlns="http://www.w3.org/2000/svg">
    <rect width="1140" height="424" rx="6" fill="#F1F1F1"/>
    <path d="M610.719 249h-80.438c-5.126 0-9.281-4.141-9.281-9.25v-55.5c0-5.109 4.155-9.25 9.281-9.25h80.438c5.126 0 9.281 4.141 9.281 9.25v55.5c0 5.109-4.155 9.25-9.281 9.25zm-68.063-63.208c-5.98 0-10.828 4.831-10.828 10.791s4.848 10.792 10.828 10.792c5.98 0 10.828-4.832 10.828-10.792s-4.848-10.791-10.828-10.791zm-9.281 50.875h74.25v-21.584l-16.922-16.865a2.326 2.326 0 00-3.281 0l-26.203 26.115-10.735-10.698a2.326 2.326 0 00-3.281 0l-13.828 13.782v9.25z" fill="#fff"/>
</svg>
