<svg width="190" height="166" fill="none" xmlns="http://www.w3.org/2000/svg">
    <rect width="190" height="166" rx="6" fill="#F1F1F1"/>
    <path d="M125.156 110H65.844c-3.78 0-6.844-3.078-6.844-6.875v-41.25C59 58.078 62.064 55 65.844 55h59.312c3.78 0 6.844 3.078 6.844 6.875v41.25c0 3.797-3.064 6.875-6.844 6.875zM74.969 63.02c-4.41 0-7.985 3.592-7.985 8.022s3.575 8.02 7.985 8.02 7.984-3.59 7.984-8.02-3.575-8.021-7.984-8.021zm-6.844 37.813h54.75V84.792l-12.478-12.535a1.705 1.705 0 00-2.419 0l-19.322 19.41-7.915-7.952a1.706 1.706 0 00-2.42 0L68.125 93.958v6.875z" fill="#fff"/>
</svg>
