<svg width="326" height="47" fill="none" xmlns="http://www.w3.org/2000/svg">
    <g clip-path="url(#clip0)" fill="#770095">
        <path d="M35.846 32.097v12.884h-4.782v-8.329H.017L0 0h5.097v32.097h20.09V0h5.097v32.097h5.562zM40.578 8.902h4.948v20.204L62.262 8.902h4.482v27.75h-4.947V16.448L45.11 36.652h-4.533V8.902zM79.478 35.122a13.346 13.346 0 01-5.13-5.06c-1.229-2.138-1.86-4.572-1.86-7.302 0-2.73.615-5.164 1.86-7.303a13.037 13.037 0 015.13-5.025c2.175-1.2 4.666-1.808 7.438-1.808 2.474 0 4.682.504 6.625 1.513 1.943 1.008 3.437 2.486 4.5 4.399l-3.753 2.469c-.863-1.322-1.926-2.313-3.188-2.991-1.278-.643-2.69-.974-4.233-.974-1.794 0-3.388.4-4.815 1.2-1.428.8-2.54 1.947-3.354 3.425-.814 1.478-1.212 3.182-1.212 5.112 0 1.947.398 3.669 1.212 5.164.813 1.478 1.926 2.626 3.354 3.425 1.427.8 3.021 1.2 4.814 1.2 1.545 0 2.956-.33 4.218-.99 1.261-.662 2.34-1.653 3.187-2.992l3.753 2.4a10.938 10.938 0 01-4.5 4.416c-1.942 1.026-4.15 1.548-6.624 1.548-2.756.017-5.247-.609-7.422-1.826zM124.988 13.301h-9.995v23.351h-4.948v-23.35h-9.995v-4.4h24.921v4.4h.017zM131.944 35.122a13.224 13.224 0 01-5.081-5.06c-1.212-2.138-1.826-4.572-1.826-7.302 0-2.73.614-5.164 1.826-7.303a12.978 12.978 0 015.064-5.025c2.159-1.2 4.599-1.808 7.306-1.808 2.706 0 5.147.608 7.288 1.808a13.044 13.044 0 015.048 5.025c1.212 2.139 1.826 4.573 1.826 7.303 0 2.73-.614 5.164-1.826 7.302-1.212 2.14-2.906 3.826-5.048 5.06-2.141 1.217-4.582 1.826-7.288 1.826-2.69.017-5.131-.609-7.289-1.826zm12.021-3.79c1.394-.817 2.473-1.965 3.27-3.46.797-1.478 1.179-3.182 1.179-5.112 0-1.913-.398-3.617-1.179-5.112-.797-1.478-1.876-2.626-3.27-3.425-1.395-.8-2.956-1.2-4.716-1.2-1.743 0-3.32.4-4.715 1.2-1.395.8-2.49 1.947-3.287 3.425-.814 1.478-1.212 3.182-1.212 5.112 0 1.912.398 3.616 1.212 5.112.813 1.478 1.909 2.643 3.287 3.46 1.378.817 2.955 1.234 4.715 1.234 1.744 0 3.321-.417 4.716-1.234zM180.856 10.415c2.092 1.182 3.736 2.852 4.915 4.973 1.179 2.121 1.776 4.59 1.776 7.39 0 2.799-.597 5.268-1.776 7.407a12.78 12.78 0 01-4.915 5.007c-2.092 1.182-4.466 1.773-7.106 1.773-1.959 0-3.752-.382-5.379-1.147-1.627-.765-3.005-1.878-4.151-3.356v14.345h-4.948V8.902h4.732v4.4a10.556 10.556 0 014.168-3.478c1.677-.782 3.536-1.182 5.562-1.182 2.656 0 5.03.59 7.122 1.773zm-2.806 20.917c1.395-.817 2.491-1.965 3.304-3.46.814-1.478 1.213-3.182 1.213-5.112 0-1.913-.399-3.617-1.213-5.112-.813-1.478-1.909-2.625-3.304-3.425-1.394-.8-2.955-1.2-4.715-1.2-1.71 0-3.271.418-4.665 1.235-1.395.817-2.491 1.965-3.304 3.425-.814 1.46-1.212 3.165-1.212 5.077 0 1.913.398 3.617 1.179 5.112.797 1.478 1.892 2.643 3.304 3.46 1.411.817 2.972 1.234 4.682 1.234 1.776 0 3.337-.417 4.731-1.234zM217.981 24.447h-22.149c.316 2.434 1.362 4.399 3.172 5.894 1.809 1.478 4.034 2.225 6.724 2.225 3.254 0 5.894-1.112 7.886-3.355l2.723 3.251c-1.228 1.46-2.773 2.59-4.615 3.356-1.843.765-3.886 1.148-6.16 1.148-2.889 0-5.446-.609-7.671-1.809-2.225-1.2-3.951-2.886-5.18-5.06-1.212-2.155-1.826-4.607-1.826-7.32 0-2.695.597-5.111 1.776-7.267a12.99 12.99 0 014.898-5.06c2.076-1.2 4.417-1.808 7.023-1.808 2.607 0 4.931.608 6.973 1.808 2.043 1.2 3.637 2.886 4.782 5.06 1.146 2.156 1.727 4.642 1.727 7.441.016.366-.017.87-.083 1.496zm-19.343-9.372c-1.594 1.46-2.523 3.39-2.806 5.755h17.517c-.283-2.33-1.212-4.242-2.806-5.738-1.594-1.478-3.587-2.225-5.944-2.225-2.374.017-4.35.747-5.961 2.208zM224.473 8.902h4.947v11.771h15.557V8.903h4.948v27.75h-4.948V25.037H229.42v11.614h-4.947V8.902zM276.656 11.458c2.009 1.878 3.005 4.695 3.005 8.433v16.744h-4.682v-3.669c-.83 1.287-1.992 2.278-3.52 2.956-1.527.678-3.337 1.026-5.429 1.026-3.055 0-5.495-.748-7.338-2.243-1.843-1.495-2.756-3.477-2.756-5.911 0-2.435.88-4.4 2.623-5.895 1.743-1.478 4.532-2.225 8.335-2.225h7.82v-.991c0-2.157-.615-3.826-1.86-4.973-1.229-1.148-3.055-1.722-5.462-1.722a14.27 14.27 0 00-4.732.818c-1.544.539-2.856 1.269-3.919 2.173l-2.058-3.773c1.411-1.148 3.088-2.034 5.047-2.643a20.876 20.876 0 016.226-.921c3.802 0 6.691.939 8.7 2.816zm-4.914 20.344c1.378-.852 2.374-2.07 2.988-3.634V24.29h-7.621c-4.184 0-6.276 1.426-6.276 4.295 0 1.39.532 2.504 1.594 3.303 1.063.8 2.541 1.2 4.433 1.2 1.876 0 3.504-.434 4.882-1.287zM310.725 8.902v27.75h-4.948v-23.35h-11.738l-.315 6.172c-.166 3.738-.498 6.85-.98 9.337-.481 2.503-1.278 4.486-2.374 5.998-1.096 1.496-2.623 2.243-4.583 2.243-.896 0-1.909-.156-3.038-.47l.315-4.242c.449.105.864.157 1.229.157 1.378 0 2.408-.609 3.088-1.826.681-1.217 1.129-2.677 1.345-4.347.216-1.669.399-4.068.565-7.163l.465-10.259h20.969zM320.703 8.172l1.312 2.017h1.195l-1.411-2.017c.415 0 .747-.174 1.029-.522a1.92 1.92 0 00.399-1.2c0-.434-.116-.782-.332-1.077-.332-.435-.864-.644-1.644-.644h-1.527v5.46h.979V8.172zm-.016-2.47h.564c.365 0 .631.105.797.28.116.138.166.312.166.538a.87.87 0 01-.183.54c-.149.173-.415.277-.78.277h-.564V5.703z"/>
        <path d="M321.285 12.362c1.295 0 2.407-.486 3.32-1.443.93-.956 1.378-2.138 1.378-3.495 0-1.356-.465-2.503-1.378-3.477-.913-.956-2.025-1.443-3.32-1.443-1.312 0-2.424.487-3.338 1.443-.913.956-1.378 2.121-1.378 3.477 0 1.357.465 2.539 1.378 3.495.914.957 2.026 1.443 3.338 1.443zm-2.707-7.754c.747-.783 1.661-1.183 2.707-1.183 1.046 0 1.959.4 2.706 1.183a3.942 3.942 0 011.129 2.816c0 1.13-.382 2.07-1.129 2.852s-1.644 1.165-2.706 1.165c-1.08 0-1.993-.383-2.723-1.165-.747-.783-1.113-1.739-1.113-2.834 0-1.113.366-2.07 1.129-2.834z"/>
    </g>
    <defs>
        <clipPath id="clip0">
            <path fill="#fff" d="M0 0h326v46.807H0z"/>
        </clipPath>
    </defs>
</svg>
