<svg width="202" height="29" fill="none" xmlns="http://www.w3.org/2000/svg">
    <g clip-path="url(#clip0)" fill="#403F3F">
        <path d="M22.21 19.886v7.983h-2.963v-5.16H.01L0 0h3.158v19.886h12.447V0h3.158v19.886h3.446zM25.14 5.516h3.066v12.518l10.37-12.518h2.776v17.193h-3.065V10.19L27.95 22.709H25.14V5.516zM49.243 21.76a8.269 8.269 0 01-3.179-3.134c-.761-1.325-1.152-2.833-1.152-4.525 0-1.69.38-3.199 1.152-4.524a8.077 8.077 0 013.179-3.113c1.347-.744 2.89-1.12 4.608-1.12 1.533 0 2.901.312 4.105.936a6.629 6.629 0 012.787 2.726l-2.324 1.53c-.535-.819-1.194-1.433-1.975-1.853a5.755 5.755 0 00-2.624-.603c-1.11 0-2.098.247-2.983.743-.884.495-1.574 1.206-2.078 2.122-.504.916-.75 1.971-.75 3.167 0 1.207.246 2.273.75 3.2.504.915 1.194 1.626 2.078 2.122.885.495 1.872.743 2.983.743.957 0 1.831-.204 2.613-.614.782-.41 1.45-1.023 1.975-1.853l2.325 1.487a6.776 6.776 0 01-2.788 2.736c-1.203.636-2.571.959-4.104.959-1.708.01-3.25-.377-4.598-1.131zM77.438 8.241h-6.193V22.71H68.18V8.24h-6.193V5.516h15.44V8.24h.011zM81.749 21.76a8.189 8.189 0 01-3.148-3.134c-.75-1.325-1.131-2.833-1.131-4.525 0-1.69.38-3.199 1.131-4.524a8.039 8.039 0 013.138-3.113c1.337-.744 2.85-1.12 4.526-1.12 1.677 0 3.189.376 4.516 1.12a8.082 8.082 0 013.127 3.113c.75 1.325 1.132 2.833 1.132 4.524 0 1.692-.381 3.2-1.132 4.525a8.286 8.286 0 01-3.127 3.135c-1.327.754-2.84 1.13-4.516 1.13-1.667.012-3.179-.376-4.516-1.13zm7.448-2.348c.864-.506 1.532-1.217 2.026-2.143.494-.916.73-1.972.73-3.168 0-1.185-.246-2.24-.73-3.167-.494-.915-1.162-1.626-2.026-2.122-.865-.495-1.831-.743-2.922-.743-1.08 0-2.057.248-2.921.743-.864.496-1.543 1.207-2.037 2.122-.504.916-.751 1.972-.751 3.167 0 1.185.247 2.241.751 3.168.504.915 1.183 1.637 2.037 2.143.853.507 1.83.765 2.921.765 1.08 0 2.057-.258 2.922-.765zM112.053 6.453a7.853 7.853 0 013.045 3.08c.731 1.315 1.101 2.845 1.101 4.58 0 1.734-.37 3.263-1.101 4.588a7.909 7.909 0 01-3.045 3.103c-1.296.732-2.767 1.099-4.402 1.099-1.214 0-2.325-.237-3.333-.711a6.967 6.967 0 01-2.572-2.08V29h-3.065V5.516h2.931V8.24a6.54 6.54 0 012.582-2.154c1.039-.485 2.191-.733 3.446-.733 1.646 0 3.117.366 4.413 1.099zm-1.738 12.96c.864-.507 1.543-1.218 2.047-2.144.504-.916.751-1.972.751-3.168 0-1.185-.247-2.24-.751-3.167-.504-.915-1.183-1.626-2.047-2.122-.864-.496-1.831-.743-2.921-.743-1.06 0-2.027.258-2.891.765-.864.506-1.543 1.217-2.047 2.122-.504.905-.751 1.96-.751 3.145s.247 2.241.73 3.168c.494.915 1.173 1.637 2.047 2.143a5.692 5.692 0 002.901.765c1.101 0 2.068-.258 2.932-.765zM135.055 15.146h-13.723c.195 1.508.844 2.726 1.965 3.652 1.121.916 2.499 1.38 4.166 1.38 2.016 0 3.652-.69 4.886-2.08l1.687 2.015a7.385 7.385 0 01-2.86 2.079c-1.141.474-2.407.71-3.816.71-1.79 0-3.374-.376-4.752-1.12a7.934 7.934 0 01-3.21-3.134c-.751-1.336-1.131-2.855-1.131-4.536 0-1.67.37-3.167 1.1-4.503a8.05 8.05 0 013.035-3.135c1.286-.743 2.736-1.12 4.351-1.12 1.615 0 3.055.377 4.321 1.12 1.265.744 2.252 1.789 2.962 3.135.71 1.336 1.07 2.877 1.07 4.61.01.227-.01.54-.051.927zM123.071 9.34c-.988.905-1.564 2.1-1.739 3.566h10.853c-.175-1.444-.751-2.629-1.739-3.555-.987-.916-2.222-1.38-3.683-1.38-1.471.012-2.695.464-3.692 1.369zM139.077 5.516h3.066v7.293h9.638V5.516h3.066v17.193h-3.066v-7.196h-9.638v7.196h-3.066V5.516zM171.408 7.1c1.245 1.163 1.862 2.908 1.862 5.224v10.374h-2.901v-2.273c-.514.797-1.234 1.411-2.181 1.831-.946.42-2.067.636-3.363.636-1.893 0-3.405-.463-4.547-1.39-1.142-.926-1.708-2.154-1.708-3.662 0-1.509.546-2.726 1.626-3.652 1.08-.916 2.808-1.38 5.164-1.38h4.845v-.613c0-1.336-.381-2.37-1.152-3.081-.762-.711-1.893-1.067-3.385-1.067-.998 0-1.975.173-2.932.506-.956.334-1.769.787-2.427 1.347l-1.276-2.338c.875-.71 1.914-1.26 3.127-1.637 1.214-.377 2.5-.571 3.858-.571 2.356 0 4.145.582 5.39 1.745zm-3.045 12.603c.854-.528 1.471-1.282 1.852-2.251v-2.403h-4.722c-2.592 0-3.888.884-3.888 2.661 0 .862.329 1.552.987 2.047.659.496 1.574.743 2.747.743 1.162 0 2.17-.269 3.024-.797zM192.516 5.516v17.193h-3.066V8.24h-7.272l-.196 3.824c-.103 2.317-.308 4.245-.607 5.785-.298 1.552-.792 2.78-1.471 3.717-.679.926-1.625 1.39-2.839 1.39-.555 0-1.183-.097-1.882-.291l.195-2.629c.278.065.535.097.761.097.854 0 1.492-.377 1.914-1.131.421-.754.699-1.659.833-2.693s.247-2.521.35-4.438l.288-6.356h12.992zM198.698 5.063l.812 1.25h.741l-.874-1.25c.257 0 .463-.108.637-.323.165-.215.247-.463.247-.743 0-.27-.072-.485-.205-.668-.206-.27-.535-.399-1.019-.399h-.946v3.383h.607v-1.25zm-.011-1.53h.35c.226 0 .391.065.494.173a.495.495 0 01.103.334c0 .129-.041.237-.113.334-.093.107-.258.172-.484.172h-.35V3.533z"/>
        <path d="M199.058 7.66c.802 0 1.492-.302 2.057-.895.577-.592.854-1.325.854-2.165 0-.84-.288-1.551-.854-2.155-.565-.592-1.255-.894-2.057-.894-.813 0-1.502.302-2.067.894a3.015 3.015 0 00-.854 2.155c0 .84.288 1.573.854 2.165.565.593 1.254.894 2.067.894zm-1.677-4.805c.463-.485 1.029-.733 1.677-.733.648 0 1.214.248 1.677.733.463.485.699 1.066.699 1.745 0 .7-.236 1.282-.699 1.767a2.225 2.225 0 01-1.677.721c-.669 0-1.234-.237-1.687-.721-.463-.485-.689-1.078-.689-1.756 0-.69.226-1.282.699-1.756z"/>
    </g>
    <defs>
        <clipPath id="clip0">
            <path fill="#fff" d="M0 0h201.98v29H0z"/>
        </clipPath>
    </defs>
</svg>
