<svg width="168" height="30" fill="none" xmlns="http://www.w3.org/2000/svg">
    <g clip-path="url(#clip0)" fill="#555">
        <path d="M17.462 13.937c.783.952 1.169 2.171 1.169 3.658 0 1.997-.715 3.542-2.134 4.634-1.42 1.091-3.497 1.637-6.21 1.637H0V.871h9.662c2.463 0 4.382.511 5.767 1.533 1.385 1.022 2.078 2.485 2.078 4.39 0 1.243-.307 2.311-.92 3.182S15.111 11.51 14 11.951c1.521.371 2.68 1.033 3.463 1.986zM3.179 10.998h6.267c1.567 0 2.759-.313 3.576-.952.83-.639 1.238-1.568 1.238-2.787 0-1.22-.42-2.16-1.249-2.81-.84-.651-2.02-.965-3.565-.965H3.179v7.514zm12.205 6.341c0-1.312-.431-2.287-1.306-2.903-.863-.627-2.157-.94-3.871-.94H3.179v7.78h7.04c3.44 0 5.165-1.312 5.165-3.937zM38 16.213H24.181c.193 1.533.852 2.764 1.976 3.693 1.124.93 2.52 1.394 4.19 1.394 2.031 0 3.666-.697 4.915-2.102l1.703 2.032a7.422 7.422 0 01-2.872 2.102c-1.147.488-2.43.72-3.838.72-1.794 0-3.394-.383-4.79-1.138a7.942 7.942 0 01-3.225-3.17c-.76-1.36-1.136-2.892-1.136-4.6 0-1.684.375-3.205 1.113-4.564s1.76-2.415 3.054-3.17c1.295-.755 2.76-1.139 4.383-1.139 1.623 0 3.076.384 4.348 1.139 1.272.755 2.27 1.811 2.986 3.17.715 1.359 1.079 2.915 1.079 4.669-.012.255-.035.58-.069.964zm-12.07-5.877c-.998.918-1.578 2.126-1.748 3.612h10.922c-.17-1.463-.76-2.671-1.748-3.6-1-.93-2.237-1.394-3.713-1.394s-2.713.465-3.712 1.382zM42.043 6.457h3.088v7.398h9.696V6.457h3.088v17.409h-3.088v-7.293H45.13v7.293h-3.088V6.457zM65.838 22.926a8.24 8.24 0 01-3.167-3.17c-.761-1.348-1.136-2.881-1.136-4.588 0-1.707.375-3.24 1.136-4.588a8.211 8.211 0 013.167-3.159c1.351-.755 2.873-1.138 4.564-1.138 1.692 0 3.202.383 4.541 1.138a8.151 8.151 0 013.145 3.16c.761 1.347 1.136 2.88 1.136 4.587 0 1.707-.375 3.24-1.136 4.587a8.26 8.26 0 01-3.144 3.17c-1.34.767-2.85 1.15-4.542 1.15-1.692 0-3.213-.383-4.564-1.15zm7.505-2.393c.863-.51 1.544-1.23 2.043-2.172.489-.929.738-1.997.738-3.205s-.25-2.276-.738-3.205c-.488-.93-1.17-1.65-2.043-2.149-.863-.5-1.85-.755-2.94-.755-1.09 0-2.067.256-2.941.755-.863.5-1.556 1.22-2.055 2.149-.5.929-.75 1.997-.75 3.205s.25 2.276.75 3.205c.5.93 1.192 1.65 2.055 2.172.862.511 1.85.778 2.94.778 1.09 0 2.067-.255 2.94-.778zM97.798 19.081c0 1.533-.568 2.718-1.692 3.554-1.124.836-2.804 1.254-5.03 1.254h-8.185V6.457h7.902c2.01 0 3.587.383 4.723 1.161 1.135.779 1.703 1.882 1.703 3.299 0 .917-.239 1.719-.727 2.38-.477.674-1.147 1.173-2.01 1.534 2.214.58 3.316 1.986 3.316 4.25zM85.91 13.948h4.62c1.181 0 2.067-.22 2.68-.662.613-.441.92-1.069.92-1.905 0-1.66-1.204-2.497-3.6-2.497h-4.62v5.064zm7.845 6.875c.647-.418.965-1.057.965-1.94 0-.893-.295-1.567-.886-2.008-.59-.442-1.51-.662-2.781-.662H85.91v5.226h4.95c1.283 0 2.248-.21 2.895-.616zM104.905 6.457h-3.089v17.409h3.089V6.457zM122.789 9.221h-6.233v14.657h-3.089V9.22h-6.233V6.457h15.543v2.764h.012zM137.752 8.072c1.249 1.184 1.885 2.95 1.885 5.284v10.51h-2.918v-2.3c-.511.814-1.249 1.43-2.202 1.859-.954.43-2.078.639-3.395.639-1.908 0-3.429-.476-4.576-1.417-1.146-.94-1.714-2.183-1.714-3.716 0-1.534.545-2.765 1.635-3.694 1.09-.929 2.827-1.393 5.2-1.393h4.882v-.627c0-1.36-.386-2.393-1.158-3.125-.772-.72-1.908-1.08-3.406-1.08a8.87 8.87 0 00-2.952.511c-.965.337-1.783.79-2.441 1.36l-1.283-2.37c.874-.72 1.93-1.278 3.145-1.66a12.94 12.94 0 013.883-.582c2.361.024 4.166.616 5.415 1.8zm-3.065 12.763c.851-.534 1.476-1.3 1.862-2.288V16.12h-4.757c-2.612 0-3.917.894-3.917 2.694 0 .871.329 1.568.999 2.068.658.499 1.589.755 2.759.755 1.169 0 2.191-.268 3.054-.802zM158.993 6.457v17.409h-3.088V9.221h-7.323l-.193 3.88c-.102 2.345-.306 4.296-.613 5.864-.295 1.568-.795 2.822-1.476 3.763-.681.94-1.635 1.417-2.861 1.417-.556 0-1.192-.093-1.896-.29l.193-2.66c.272.07.534.093.772.093.852 0 1.499-.384 1.93-1.15.432-.767.704-1.672.84-2.73.136-1.056.25-2.554.352-4.505l.284-6.434h13.079v-.012zM163.685 3.554l.84 1.254h.772l-.908-1.254a.799.799 0 00.658-.325c.171-.221.25-.465.25-.744 0-.267-.068-.487-.216-.673-.204-.267-.556-.407-1.044-.407h-.976V4.82h.624V3.554zm0-1.545h.363c.239 0 .409.058.511.174a.545.545 0 01.114.337c0 .14-.046.244-.114.337-.102.116-.261.174-.499.174h-.364V2.01h-.011z"/>
        <path d="M164.059 6.178c.828 0 1.544-.301 2.134-.905a3.015 3.015 0 00.886-2.184c0-.848-.295-1.58-.886-2.183-.59-.604-1.294-.906-2.134-.906a2.89 2.89 0 00-2.146.906 3 3 0 00-.886 2.183c0 .86.296 1.591.886 2.184.602.604 1.317.905 2.146.905zm-1.737-4.866a2.355 2.355 0 011.737-.731c.67 0 1.249.244 1.737.731a2.45 2.45 0 01.726 1.766c0 .708-.238 1.3-.726 1.788a2.339 2.339 0 01-1.737.732 2.346 2.346 0 01-1.749-.732 2.447 2.447 0 01-.715-1.777c0-.697.25-1.289.727-1.777z"/>
    </g>
    <defs>
        <clipPath id="clip0">
            <path fill="#fff" d="M0 0h167.077v24.133H0z"/>
        </clipPath>
    </defs>
</svg>
