<svg width="273" height="39" fill="none" xmlns="http://www.w3.org/2000/svg">
    <g clip-path="url(#clip0)" fill="#CC569B">
        <path d="M28.443 22.521c1.276 1.54 1.905 3.51 1.905 5.912 0 3.228-1.165 5.724-3.477 7.489-2.311 1.764-5.696 2.646-10.116 2.646H0V1.408h15.738c4.013 0 7.139.825 9.395 2.477 2.256 1.651 3.384 4.016 3.384 7.094 0 2.008-.499 3.735-1.498 5.142-.998 1.408-2.404 2.478-4.216 3.19 2.478.602 4.364 1.671 5.64 3.21zM5.178 17.773h10.209c2.552 0 4.494-.507 5.825-1.539 1.35-1.032 2.016-2.534 2.016-4.504 0-1.971-.684-3.491-2.034-4.542-1.369-1.051-3.292-1.558-5.807-1.558H5.178v12.143zM25.06 28.02c0-2.12-.703-3.697-2.127-4.692-1.405-1.013-3.513-1.52-6.306-1.52H5.178v12.575h11.466c5.604 0 8.415-2.121 8.415-6.363zM61.9 26.2H39.393c.314 2.477 1.387 4.466 3.218 5.967 1.83 1.502 4.105 2.253 6.824 2.253 3.31 0 5.973-1.126 8.008-3.397l2.774 3.284a12.083 12.083 0 01-4.68 3.397c-1.867.788-3.957 1.164-6.25 1.164-2.922 0-5.53-.62-7.804-1.84-2.275-1.22-4.014-2.927-5.253-5.123-1.239-2.196-1.85-4.674-1.85-7.432 0-2.722.611-5.18 1.813-7.376 1.202-2.196 2.867-3.904 4.975-5.124 2.108-1.22 4.494-1.84 7.139-1.84 2.644 0 5.011.62 7.083 1.84 2.071 1.22 3.699 2.928 4.864 5.124 1.165 2.196 1.757 4.71 1.757 7.544-.019.413-.056.939-.111 1.558zm-19.66-9.497c-1.627 1.482-2.57 3.434-2.847 5.837h17.79c-.277-2.365-1.238-4.317-2.847-5.819-1.628-1.501-3.644-2.252-6.048-2.252s-4.42.75-6.047 2.234zM68.482 10.435h5.03V22.39h15.794V10.435h5.03v28.133h-5.03V26.782H73.513v11.786h-5.03V10.435zM107.245 37.048c-2.2-1.239-3.92-2.947-5.159-5.124-1.239-2.177-1.85-4.654-1.85-7.413 0-2.759.611-5.236 1.85-7.413 1.239-2.178 2.959-3.867 5.159-5.105 2.201-1.22 4.679-1.84 7.435-1.84 2.756 0 5.215.62 7.397 1.84 2.183 1.22 3.884 2.927 5.123 5.104 1.239 2.178 1.85 4.655 1.85 7.414 0 2.759-.611 5.236-1.85 7.413a13.396 13.396 0 01-5.123 5.124c-2.182 1.239-4.641 1.858-7.397 1.858-2.756 0-5.234-.62-7.435-1.858zm12.225-3.866c1.405-.826 2.515-1.99 3.329-3.51.795-1.501 1.202-3.228 1.202-5.18 0-1.952-.407-3.678-1.202-5.18-.796-1.501-1.905-2.665-3.329-3.472-1.406-.807-3.015-1.22-4.79-1.22s-3.366.413-4.79 1.22c-1.405.807-2.534 1.97-3.347 3.472-.814 1.502-1.221 3.228-1.221 5.18 0 1.952.407 3.679 1.221 5.18a9.056 9.056 0 003.347 3.51c1.406.825 3.015 1.257 4.79 1.257s3.366-.413 4.79-1.257zM159.306 30.835c0 2.478-.925 4.392-2.756 5.743-1.831 1.352-4.568 2.027-8.193 2.027h-13.334v-28.17h12.872c3.273 0 5.844.619 7.694 1.876 1.849 1.258 2.774 3.04 2.774 5.33 0 1.483-.389 2.778-1.184 3.848-.777 1.088-1.868 1.895-3.273 2.477 3.606.939 5.4 3.21 5.4 6.87zm-19.363-8.295h7.527c1.923 0 3.366-.357 4.364-1.07.999-.713 1.498-1.726 1.498-3.078 0-2.684-1.96-4.035-5.862-4.035h-7.527v8.183zm12.779 11.11c1.054-.675 1.572-1.707 1.572-3.134 0-1.445-.481-2.533-1.443-3.246-.961-.714-2.459-1.07-4.531-1.07h-8.377v8.445h8.063c2.09 0 3.662-.338 4.716-.994zM170.882 10.435h-5.03v28.133h5.03V10.435zM200.01 14.901h-10.153v23.686h-5.03V14.9h-10.153v-4.466h25.318V14.9h.018zM224.386 13.043c2.034 1.914 3.07 4.767 3.07 8.54v16.984h-4.753v-3.716c-.832 1.314-2.034 2.309-3.588 3.003-1.553.695-3.384 1.032-5.53 1.032-3.107 0-5.585-.769-7.453-2.29-1.867-1.52-2.792-3.528-2.792-6.005s.888-4.467 2.663-5.968c1.775-1.502 4.605-2.252 8.47-2.252h7.952v-1.014c0-2.196-.628-3.866-1.886-5.049-1.258-1.163-3.107-1.745-5.548-1.745-1.646 0-3.236.282-4.808.826-1.572.544-2.904 1.276-3.977 2.196l-2.089-3.829c1.424-1.164 3.144-2.065 5.122-2.684a21.242 21.242 0 016.325-.938c3.847.037 6.787.995 8.822 2.909zm-4.994 20.626c1.387-.863 2.405-2.102 3.033-3.697v-3.923h-7.748c-4.254 0-6.381 1.445-6.381 4.354 0 1.408.537 2.534 1.628 3.341 1.072.807 2.589 1.22 4.494 1.22 1.904 0 3.569-.432 4.974-1.295zM258.987 10.435v28.133h-5.03V14.9h-11.928l-.315 6.269c-.166 3.791-.499 6.944-.998 9.478-.481 2.533-1.295 4.56-2.405 6.08-1.109 1.52-2.663 2.29-4.66 2.29-.906 0-1.942-.15-3.089-.469l.315-4.298c.444.113.869.15 1.257.15 1.388 0 2.442-.619 3.144-1.858.703-1.238 1.147-2.702 1.369-4.41.222-1.708.407-4.13.573-7.282l.463-10.398h21.304v-.018zM266.625 5.743l1.368 2.027h1.258l-1.48-2.027c.426 0 .795-.17 1.073-.526.277-.356.407-.75.407-1.201 0-.432-.111-.788-.352-1.089-.333-.431-.906-.656-1.701-.656h-1.591v5.517h1.018V5.743zm0-2.497h.591c.389 0 .666.094.833.282.111.15.185.319.185.544a.875.875 0 01-.185.545c-.167.187-.426.281-.814.281h-.592V3.246h-.018z"/>
        <path d="M267.235 9.985c1.35 0 2.515-.488 3.477-1.464.961-.976 1.442-2.159 1.442-3.529s-.481-2.552-1.442-3.528C269.75.488 268.603 0 267.235 0c-1.369 0-2.534.488-3.496 1.464-.961.976-1.442 2.14-1.442 3.528 0 1.39.481 2.572 1.442 3.529.981.976 2.146 1.464 3.496 1.464zm-2.83-7.864a3.855 3.855 0 012.83-1.183c1.091 0 2.034.395 2.829 1.183.777.788 1.184 1.745 1.184 2.853 0 1.144-.389 2.102-1.184 2.89-.776.788-1.72 1.182-2.829 1.182-1.128 0-2.072-.394-2.848-1.182-.777-.788-1.165-1.746-1.165-2.872s.406-2.083 1.183-2.871z"/>
    </g>
    <defs>
        <clipPath id="clip0">
            <path fill="#fff" d="M0 0h272.154v39H0z"/>
        </clipPath>
    </defs>
</svg>
