<svg width="335" height="45" fill="none" xmlns="http://www.w3.org/2000/svg">
    <g clip-path="url(#clip0)" fill="#2A4B9B">
        <path d="M330.7 5.394l1.07 1.583h.978l-1.144-1.583c.332 0 .609-.132.83-.415.222-.282.314-.584.314-.942 0-.34-.092-.622-.277-.848-.258-.34-.701-.51-1.328-.51h-1.237v4.317h.794V5.394zm0-1.941h.461c.295 0 .517.075.646.226a.63.63 0 01.148.414.63.63 0 01-.148.415c-.129.15-.332.207-.627.207h-.462V3.453h-.018z"/>
        <path d="M331.18 8.711c1.052 0 1.956-.377 2.694-1.15.757-.753 1.126-1.677 1.126-2.77 0-1.075-.369-1.98-1.126-2.752-.738-.754-1.642-1.15-2.694-1.15-1.07 0-1.974.377-2.713 1.13a3.814 3.814 0 00-1.125 2.753c0 1.074.369 1.998 1.125 2.77.739.792 1.661 1.17 2.713 1.17zm-2.196-6.145a2.964 2.964 0 012.196-.923c.849 0 1.587.32 2.196.923.609.622.923 1.358.923 2.243 0 .886-.314 1.64-.923 2.262a2.964 2.964 0 01-2.196.924c-.867 0-1.605-.301-2.214-.924-.609-.622-.905-1.376-.905-2.243 0-.886.296-1.64.923-2.262zM26.499 20.04c1.18 1.452 1.771 3.3 1.771 5.561 0 3.016-1.088 5.354-3.247 7.013-2.16 1.658-5.315 2.488-9.43 2.488H0V.248h14.67c3.728 0 6.662.773 8.747 2.319 2.085 1.545 3.137 3.75 3.137 6.654 0 1.885-.461 3.506-1.384 4.825-.922 1.32-2.233 2.319-3.93 2.979 2.325.565 4.06 1.564 5.259 3.016zM4.835 15.593h9.503c2.38 0 4.189-.471 5.444-1.452 1.255-.96 1.882-2.375 1.882-4.24 0-1.867-.627-3.28-1.9-4.26-1.274-.981-3.064-1.471-5.407-1.471H4.835v11.423zm18.508 9.595c0-1.998-.664-3.469-1.974-4.411-1.31-.943-3.266-1.414-5.868-1.414H4.835v11.8H15.5c5.222 0 7.842-1.98 7.842-5.975zM58.385 23.49H37.441c.295 2.318 1.292 4.184 2.99 5.598 1.697 1.414 3.82 2.111 6.366 2.111 3.082 0 5.573-1.055 7.455-3.185l2.583 3.091c-1.162 1.395-2.62 2.45-4.355 3.186-1.734.735-3.672 1.093-5.83 1.093-2.732 0-5.15-.566-7.271-1.715-2.122-1.15-3.746-2.752-4.89-4.807-1.163-2.055-1.735-4.373-1.735-6.975 0-2.563.553-4.863 1.68-6.918 1.125-2.054 2.656-3.656 4.63-4.806 1.975-1.15 4.19-1.716 6.663-1.716 2.472 0 4.668.566 6.606 1.716 1.937 1.15 3.45 2.752 4.54 4.806 1.088 2.055 1.623 4.411 1.623 7.07 0 .376-.037.866-.11 1.45zM40.08 14.592c-1.513 1.395-2.4 3.224-2.657 5.486h16.57c-.258-2.225-1.144-4.034-2.657-5.448-1.513-1.414-3.395-2.111-5.628-2.111-2.233-.019-4.115.678-5.628 2.073zM85.679 10.163a12.067 12.067 0 014.65 4.732c1.126 2.017 1.68 4.373 1.68 7.012 0 2.658-.555 4.995-1.68 7.05-1.126 2.035-2.676 3.619-4.65 4.75-1.975 1.13-4.226 1.696-6.736 1.696-1.845 0-3.543-.358-5.093-1.093-1.55-.735-2.842-1.79-3.93-3.186v13.648h-4.688V8.712h4.485v4.184a10.128 10.128 0 013.949-3.317c1.587-.754 3.34-1.112 5.259-1.112 2.546 0 4.78.565 6.754 1.696zM83.02 30.05c1.31-.773 2.362-1.866 3.119-3.28.757-1.414 1.144-3.035 1.144-4.863 0-1.829-.388-3.45-1.144-4.863a8.206 8.206 0 00-3.119-3.261c-1.31-.773-2.805-1.15-4.465-1.15-1.624 0-3.1.396-4.41 1.168-1.31.773-2.363 1.867-3.12 3.261-.756 1.395-1.143 2.997-1.143 4.826 0 1.828.369 3.45 1.125 4.863a8.014 8.014 0 003.119 3.28c1.329.773 2.805 1.169 4.429 1.169 1.679.019 3.155-.377 4.465-1.15zM115.499 11.143c1.9 1.79 2.841 4.467 2.841 8.01v15.929h-4.428v-3.487c-.775 1.225-1.901 2.168-3.34 2.808-1.44.641-3.156.98-5.149.98-2.897 0-5.204-.716-6.938-2.148-1.735-1.433-2.602-3.299-2.602-5.618 0-2.318.83-4.184 2.491-5.598 1.661-1.414 4.281-2.111 7.898-2.111h7.4v-.943c0-2.054-.591-3.638-1.753-4.731-1.163-1.093-2.897-1.64-5.167-1.64-1.532 0-3.027.264-4.484.773-1.458.509-2.695 1.206-3.71 2.073l-1.956-3.581c1.33-1.094 2.916-1.942 4.78-2.507 1.845-.585 3.82-.867 5.905-.867 3.561-.02 6.311.867 8.212 2.658zM110.83 30.5c1.292-.81 2.233-1.96 2.823-3.468v-3.676h-7.215c-3.967 0-5.942 1.358-5.942 4.09 0 1.32.498 2.376 1.513 3.13 1.015.773 2.399 1.15 4.189 1.15 1.79-.02 3.34-.415 4.632-1.226zM150.228 8.71V35.1h-4.687V12.897h-14.578V35.1h-4.688V8.71h23.953zM179.218 10.163a12.069 12.069 0 014.65 4.732c1.126 2.017 1.679 4.373 1.679 7.012 0 2.658-.553 4.995-1.679 7.05-1.126 2.035-2.676 3.619-4.65 4.75-1.975 1.13-4.226 1.696-6.736 1.696-1.845 0-3.543-.358-5.093-1.093-1.55-.735-2.842-1.79-3.93-3.186v13.648h-4.688V8.712h4.485v4.184a10.126 10.126 0 013.949-3.317c1.587-.754 3.34-1.112 5.259-1.112 2.528 0 4.779.565 6.754 1.696zM176.56 30.05c1.311-.773 2.362-1.866 3.119-3.28.757-1.414 1.144-3.035 1.144-4.863 0-1.829-.387-3.45-1.144-4.863a8.205 8.205 0 00-3.119-3.261c-1.31-.773-2.804-1.15-4.465-1.15-1.624 0-3.1.396-4.411 1.168-1.31.773-2.362 1.867-3.118 3.261-.757 1.395-1.144 2.997-1.144 4.826 0 1.828.369 3.45 1.125 4.863a8.013 8.013 0 003.119 3.28c1.329.773 2.805 1.169 4.429 1.169 1.661.019 3.155-.377 4.465-1.15zM195.991 33.65c-2.048-1.168-3.653-2.77-4.797-4.806-1.163-2.036-1.735-4.355-1.735-6.937 0-2.583.572-4.901 1.735-6.937a12.335 12.335 0 014.797-4.788c2.049-1.15 4.355-1.715 6.92-1.715 2.565 0 4.872.565 6.902 1.715a12.405 12.405 0 014.779 4.788c1.163 2.036 1.735 4.354 1.735 6.937 0 2.582-.572 4.9-1.735 6.937a12.713 12.713 0 01-4.779 4.806c-2.03 1.17-4.337 1.735-6.902 1.735-2.565 0-4.871-.566-6.92-1.735zm11.368-3.6c1.31-.773 2.343-1.866 3.1-3.28.738-1.414 1.125-3.035 1.125-4.863 0-1.829-.369-3.45-1.125-4.863-.757-1.414-1.772-2.489-3.1-3.261-1.311-.773-2.805-1.15-4.466-1.15s-3.137.377-4.466 1.15a8.203 8.203 0 00-3.118 3.26c-.757 1.414-1.144 3.035-1.144 4.864 0 1.828.387 3.45 1.144 4.863.756 1.414 1.808 2.507 3.118 3.28 1.31.773 2.805 1.169 4.466 1.169s3.155-.396 4.466-1.169zM226.809 33.65a12.786 12.786 0 01-4.853-4.806c-1.162-2.036-1.753-4.355-1.753-6.937 0-2.583.591-4.901 1.753-6.937a12.485 12.485 0 014.853-4.788c2.067-1.15 4.411-1.715 7.05-1.715 2.343 0 4.428.49 6.255 1.451 1.827.962 3.266 2.357 4.263 4.185l-3.562 2.337c-.812-1.263-1.827-2.205-3.026-2.846-1.199-.622-2.528-.942-4.004-.942-1.698 0-3.211.377-4.558 1.15-1.347.772-2.399 1.847-3.174 3.26-.757 1.414-1.144 3.035-1.144 4.864 0 1.866.387 3.487 1.144 4.9.756 1.414 1.827 2.508 3.174 3.262 1.347.773 2.86 1.15 4.558 1.15 1.457 0 2.786-.32 4.004-.943 1.218-.622 2.214-1.583 3.026-2.846l3.562 2.3a10.396 10.396 0 01-4.263 4.203c-1.845.98-3.93 1.47-6.255 1.47-2.639-.019-4.983-.603-7.05-1.772zM268.845 12.896h-9.448V35.1h-4.687V12.896h-9.448V8.71h23.583v4.185zM290.565 11.143c1.901 1.79 2.842 4.467 2.842 8.01v15.929h-4.429v-3.487c-.775 1.225-1.901 2.168-3.34 2.808-1.439.641-3.156.98-5.148.98-2.898 0-5.204-.716-6.939-2.148-1.734-1.433-2.602-3.299-2.602-5.618 0-2.318.831-4.184 2.491-5.598 1.661-1.414 4.282-2.111 7.898-2.111h7.4v-.943c0-2.054-.59-3.638-1.753-4.731-1.162-1.093-2.897-1.64-5.167-1.64-1.531 0-3.026.264-4.484.773-1.458.509-2.694 1.206-3.709 2.073l-1.956-3.581c1.329-1.094 2.915-1.942 4.779-2.507 1.846-.585 3.82-.867 5.905-.867 3.58-.02 6.311.867 8.212 2.658zm-4.65 19.358c1.291-.81 2.233-1.96 2.823-3.468v-3.676h-7.215c-3.968 0-5.942 1.358-5.942 4.09 0 1.32.498 2.376 1.513 3.13 1.015.773 2.399 1.15 4.189 1.15 1.79-.02 3.34-.415 4.632-1.226zM301.359 8.71h4.688v11.198h14.725V8.71h4.687V35.1h-4.687V24.055h-14.725V35.1h-4.688V8.71z"/>
    </g>
    <defs>
        <clipPath id="clip0">
            <path fill="#fff" transform="translate(0 .248)" d="M0 0h335v44.505H0z"/>
        </clipPath>
    </defs>
</svg>
