<svg width="226" height="31" fill="none" xmlns="http://www.w3.org/2000/svg">
    <path d="M222.92 3.468l.721 1.068h.659l-.771-1.068a.678.678 0 00.56-.28.978.978 0 00.211-.634.877.877 0 00-.186-.572c-.174-.229-.473-.343-.896-.343h-.833v2.91h.535v-1.08zm0-1.308h.311c.199 0 .348.05.435.152.062.076.1.165.1.28a.425.425 0 01-.1.28c-.087.1-.224.139-.423.139h-.311V2.16h-.012z" fill="#403F3F"/>
    <path d="M223.244 5.705c.709 0 1.318-.254 1.816-.775.51-.509.758-1.131.758-1.868 0-.724-.248-1.334-.758-1.855-.498-.509-1.107-.775-1.816-.775-.722 0-1.331.254-1.829.762a2.57 2.57 0 00-.759 1.855c0 .724.249 1.347.759 1.868.498.534 1.12.788 1.829.788zm-1.481-4.142c.411-.42.908-.623 1.481-.623.572 0 1.069.216 1.48.623.41.419.622.914.622 1.512 0 .597-.212 1.105-.622 1.524-.411.42-.908.623-1.48.623a2.005 2.005 0 01-1.493-.623 2.084 2.084 0 01-.61-1.512c0-.597.199-1.105.622-1.524zM17.862 13.342c.797.978 1.195 2.223 1.195 3.748 0 2.033-.734 3.609-2.19 4.727-1.455 1.118-3.582 1.677-6.356 1.677H0V0h9.889c2.513 0 4.49.521 5.896 1.563C17.191 2.605 17.9 4.09 17.9 6.048c0 1.27-.311 2.364-.933 3.253-.622.89-1.505 1.563-2.65 2.008 1.568.381 2.737 1.054 3.545 2.033zM3.26 10.343h6.406c1.605 0 2.824-.318 3.67-.978.845-.648 1.268-1.601 1.268-2.86 0-1.257-.422-2.21-1.28-2.871-.86-.66-2.066-.991-3.645-.991H3.259v7.7zm12.476 6.468c0-1.347-.447-2.338-1.33-2.974-.884-.635-2.202-.953-3.956-.953h-7.19v7.955h7.19c3.52 0 5.286-1.335 5.286-4.028zM39.358 15.667H25.24c.199 1.563.87 2.821 2.015 3.774 1.144.953 2.575 1.423 4.291 1.423 2.078 0 3.757-.712 5.026-2.147l1.741 2.084c-.784.94-1.766 1.651-2.936 2.147-1.169.495-2.475.737-3.93.737-1.841 0-3.47-.381-4.901-1.156-1.43-.776-2.525-1.855-3.297-3.24-.783-1.386-1.169-2.948-1.169-4.702 0-1.728.373-3.278 1.132-4.663.759-1.385 1.791-2.465 3.122-3.24 1.331-.775 2.824-1.157 4.49-1.157 1.668 0 3.148.382 4.454 1.157 1.306.775 2.326 1.855 3.06 3.24.734 1.385 1.094 2.973 1.094 4.765 0 .254-.024.584-.074.978zM27.018 9.67c-1.02.94-1.617 2.172-1.79 3.697h11.17c-.175-1.5-.772-2.719-1.792-3.672-1.02-.953-2.289-1.423-3.794-1.423-1.505-.013-2.774.457-3.794 1.398zM57.755 6.683a8.134 8.134 0 013.135 3.189c.758 1.36 1.132 2.948 1.132 4.727 0 1.791-.373 3.367-1.132 4.752-.759 1.372-1.804 2.44-3.135 3.202-1.33.762-2.848 1.144-4.54 1.144-1.244 0-2.388-.242-3.433-.737-1.045-.496-1.916-1.207-2.65-2.148v9.2h-3.16V5.704h3.023v2.821a6.827 6.827 0 012.662-2.236c1.07-.509 2.252-.75 3.545-.75 1.717 0 3.222.381 4.553 1.144zm-1.791 13.405a5.567 5.567 0 002.102-2.21c.51-.954.771-2.047.771-3.28 0-1.232-.26-2.325-.77-3.278a5.532 5.532 0 00-2.103-2.198c-.883-.52-1.89-.775-3.01-.775-1.095 0-2.09.267-2.973.788a5.616 5.616 0 00-2.102 2.198c-.51.94-.772 2.02-.772 3.253s.25 2.325.76 3.278a5.403 5.403 0 002.101 2.211c.896.521 1.891.788 2.986.788 1.132.013 2.127-.254 3.01-.775zM77.856 7.345c1.28 1.207 1.915 3.011 1.915 5.4v10.737h-2.985v-2.35c-.523.825-1.282 1.46-2.252 1.892-.97.432-2.127.661-3.47.661-1.953 0-3.508-.483-4.677-1.448-1.17-.966-1.754-2.224-1.754-3.787 0-1.563.56-2.82 1.68-3.774 1.119-.953 2.885-1.423 5.323-1.423h4.988v-.635c0-1.385-.398-2.453-1.182-3.19-.783-.737-1.953-1.105-3.483-1.105-1.032 0-2.04.178-3.022.52-.983.344-1.816.814-2.5 1.399l-1.32-2.415c.896-.737 1.966-1.308 3.223-1.69 1.243-.393 2.575-.584 3.98-.584 2.4-.013 4.254.584 5.536 1.792zm-3.148 13.05c.871-.547 1.505-1.322 1.904-2.339v-2.478h-4.864c-2.675 0-4.005.915-4.005 2.758 0 .89.335 1.6 1.02 2.109.684.52 1.617.775 2.823.775 1.207-.013 2.252-.28 3.122-.826zM101.267 5.705v17.79h-3.16V8.524h-9.826v14.97h-3.16V5.704h16.146zM120.808 6.683a8.13 8.13 0 013.134 3.189c.759 1.36 1.132 2.948 1.132 4.727 0 1.791-.373 3.367-1.132 4.752a8.16 8.16 0 01-3.134 3.202c-1.331.762-2.849 1.144-4.54 1.144-1.244 0-2.389-.242-3.434-.737-1.044-.496-1.915-1.207-2.649-2.148v9.2h-3.16V5.704h3.023v2.821a6.829 6.829 0 012.662-2.236c1.07-.509 2.251-.75 3.545-.75 1.704 0 3.222.381 4.553 1.144zm-1.791 13.405a5.568 5.568 0 002.102-2.21c.51-.954.771-2.047.771-3.28 0-1.232-.261-2.325-.771-3.278a5.533 5.533 0 00-2.102-2.198c-.884-.52-1.891-.775-3.011-.775-1.094 0-2.089.267-2.973.788a5.616 5.616 0 00-2.102 2.198c-.51.94-.771 2.02-.771 3.253s.249 2.325.759 3.278a5.397 5.397 0 002.102 2.211c.896.521 1.891.788 2.985.788 1.12.013 2.127-.254 3.011-.775zM132.114 22.515a8.436 8.436 0 01-3.234-3.24c-.783-1.372-1.169-2.935-1.169-4.676s.386-3.304 1.169-4.676a8.318 8.318 0 013.234-3.228c1.381-.775 2.936-1.156 4.665-1.156s3.284.381 4.652 1.156a8.37 8.37 0 013.222 3.228c.784 1.372 1.169 2.935 1.169 4.676 0 1.74-.385 3.303-1.169 4.676a8.578 8.578 0 01-3.222 3.24c-1.368.788-2.923 1.169-4.652 1.169s-3.284-.381-4.665-1.17zm7.663-2.427c.883-.521 1.58-1.258 2.09-2.21.497-.954.758-2.047.758-3.28 0-1.232-.248-2.325-.758-3.278-.51-.953-1.195-1.677-2.09-2.198-.883-.52-1.891-.775-3.01-.775-1.12 0-2.115.254-3.011.775a5.533 5.533 0 00-2.102 2.198c-.51.954-.771 2.046-.771 3.279 0 1.232.261 2.325.771 3.278a5.568 5.568 0 002.102 2.211c.883.521 1.891.788 3.011.788 1.119 0 2.127-.267 3.01-.788zM152.889 22.515a8.617 8.617 0 01-3.272-3.24c-.783-1.372-1.181-2.935-1.181-4.676s.398-3.304 1.181-4.676a8.416 8.416 0 013.272-3.228c1.393-.775 2.973-1.156 4.751-1.156 1.58 0 2.986.33 4.217.978a6.83 6.83 0 012.874 2.821l-2.401 1.576c-.547-.851-1.232-1.487-2.04-1.919-.809-.42-1.704-.635-2.699-.635-1.145 0-2.165.254-3.073.775a5.534 5.534 0 00-2.139 2.198c-.51.953-.772 2.046-.772 3.278 0 1.258.262 2.351.772 3.304a5.378 5.378 0 002.139 2.198c.908.521 1.928.776 3.073.776a5.84 5.84 0 002.699-.636c.821-.42 1.493-1.067 2.04-1.919l2.401 1.55a7.01 7.01 0 01-2.874 2.834c-1.244.661-2.649.991-4.217.991-1.778-.012-3.358-.406-4.751-1.194zM181.225 8.526h-6.369v14.968h-3.159V8.526h-6.369v-2.82h15.897v2.82zM195.865 7.345c1.281 1.207 1.916 3.011 1.916 5.4v10.737h-2.986v-2.35c-.522.825-1.281 1.46-2.251 1.892-.97.432-2.127.661-3.47.661-1.953 0-3.508-.483-4.678-1.448-1.169-.966-1.753-2.224-1.753-3.787 0-1.563.559-2.82 1.679-3.774 1.119-.953 2.886-1.423 5.324-1.423h4.988v-.635c0-1.385-.398-2.453-1.182-3.19-.784-.737-1.953-1.105-3.483-1.105a9.12 9.12 0 00-3.023.52c-.982.344-1.816.814-2.5 1.399l-1.318-2.415c.895-.737 1.965-1.308 3.221-1.69 1.244-.393 2.575-.584 3.981-.584 2.413-.013 4.254.584 5.535 1.792zm-3.134 13.05c.87-.547 1.505-1.322 1.903-2.339v-2.478h-4.864c-2.674 0-4.005.915-4.005 2.758 0 .89.336 1.6 1.02 2.109.684.52 1.617.775 2.823.775 1.207-.013 2.252-.28 3.123-.826zM203.143 5.705h3.159v7.548h9.926V5.705h3.16v17.79h-3.16v-7.447h-9.926v7.446h-3.159V5.705z" fill="#403F3F"/>
</svg>
