<svg width="334" height="45" fill="none" xmlns="http://www.w3.org/2000/svg">
    <g clip-path="url(#clip0)" opacity=".7">
        <path d="M197.921 8.32l1.335 1.985h1.226l-1.444-1.985a1.28 1.28 0 001.049-.51c.272-.345.409-.73.409-1.185 0-.428-.109-.772-.341-1.062-.341-.427-.885-.647-1.675-.647h-1.567v5.389h1.008V8.32zm-.014-2.453h.586c.382 0 .654.096.817.275a.76.76 0 01.178.524.775.775 0 01-.191.524c-.164.179-.422.262-.804.262h-.586V5.867z" fill="#0085E5"/>
        <path d="M198.52 12.455c1.322 0 2.466-.469 3.406-1.42.94-.95 1.416-2.108 1.416-3.46 0-1.336-.476-2.48-1.416-3.445-.94-.95-2.071-1.42-3.406-1.42-1.348 0-2.479.47-3.419 1.42-.94.951-1.403 2.095-1.403 3.446 0 1.35.477 2.508 1.417 3.46.926.95 2.07 1.419 3.405 1.419zm-2.779-7.677a3.784 3.784 0 012.779-1.158 3.75 3.75 0 012.765 1.158c.763.772 1.158 1.709 1.158 2.798 0 1.116-.381 2.053-1.158 2.825-.762.772-1.689 1.144-2.765 1.144-1.103 0-2.029-.386-2.792-1.158-.763-.771-1.144-1.709-1.144-2.811.013-1.089.395-2.026 1.157-2.798z" fill="#0085E5"/>
        <path d="M225.136 24.102v16.746h-2.342v-6.63c-1.744.69-3.365 1.034-4.85 1.034-2.016 0-3.582-.496-4.699-1.489-1.117-.992-1.662-2.398-1.662-4.231v-5.43h2.316v5.168c0 1.24.381 2.205 1.13 2.867.749.675 1.812 1.006 3.174 1.006 1.526 0 3.065-.344 4.591-1.047v-7.994h2.342zM260.662 25.659c1.226 1.034 1.838 2.467 1.838 4.287 0 1.819-.612 3.238-1.838 4.286-1.226 1.034-2.915 1.557-5.054 1.557h-4.086v5.072h-2.371v-16.76h6.457c2.139 0 3.828.524 5.054 1.558zm-1.703 7.07c.79-.647 1.185-1.57 1.185-2.784 0-1.212-.395-2.136-1.185-2.784-.79-.647-1.934-.964-3.433-.964h-4.018v7.511h4.018c1.512-.014 2.643-.33 3.433-.978zM279.432 24.102v16.746h-2.37v-7.47h-9.508v7.47h-2.37V24.102h2.37v7.194h9.508v-7.194h2.37zM283.995 24.102h2.343v12.914l9.794-12.914h2.179v16.746h-2.315V27.96l-9.808 12.887h-2.179V24.102h-.014zM319.316 38.767v5.885h-2.193v-3.804h-14.262V24.102h2.343v14.665h9.222V24.102h2.343v14.665h2.547zM334 24.102v16.746h-2.316v-4.88h-4.563c-.286 0-.491-.013-.641-.027l-3.31 4.907h-2.506l3.664-5.307c-1.185-.4-2.084-1.06-2.724-1.998-.627-.937-.94-2.068-.94-3.404 0-1.903.599-3.377 1.812-4.439 1.212-1.06 2.833-1.585 4.876-1.585H334v-.013zm-9.876 8.862c.722.662 1.771.992 3.174.992h4.372v-7.773h-4.236c-1.417 0-2.506.33-3.269 1.006-.763.675-1.131 1.64-1.131 2.922.014 1.24.382 2.191 1.09 2.853z" fill="#000"/>
        <path d="M30.717 23.646c1.375 1.654 2.056 3.79 2.056 6.382 0 3.473-1.253 6.161-3.76 8.063-2.506 1.902-6.156 2.853-10.937 2.853H0V.904h17.013c4.332 0 7.71.883 10.148 2.66 2.425 1.779 3.65 4.315 3.65 7.637 0 2.177-.53 4.024-1.606 5.54-1.076 1.53-2.588 2.674-4.55 3.432 2.67.662 4.686 1.806 6.062 3.474zM5.598 18.52h11.02c2.752 0 4.85-.551 6.307-1.654 1.444-1.102 2.18-2.729 2.18-4.865s-.736-3.763-2.207-4.893c-1.471-1.13-3.555-1.681-6.28-1.681H5.598v13.093zM27.08 29.56c0-2.288-.763-3.97-2.289-5.058-1.525-1.089-3.8-1.626-6.81-1.626H5.597v13.562H17.98c6.062-.014 9.1-2.302 9.1-6.878zM45.333 10.622H39.91V40.93h5.422V10.622zM74.837 27.726c1.09 1.186 1.635 2.647 1.635 4.41 0 1.793-.6 3.391-1.812 4.783-1.212 1.393-2.874 2.481-5 3.267-2.124.786-4.508 1.172-7.15 1.172-2.22 0-4.4-.29-6.525-.883-2.125-.592-4.018-1.433-5.68-2.55l1.634-4.176c1.43.91 3.065 1.627 4.918 2.15 1.839.51 3.718.772 5.598.772 2.56 0 4.604-.44 6.13-1.35 1.525-.896 2.288-2.11 2.288-3.625 0-1.406-.613-2.495-1.839-3.267-1.226-.758-2.942-1.144-5.176-1.144h-5.476v-3.942h5.081c2.03 0 3.637-.358 4.809-1.088 1.17-.731 1.757-1.71 1.757-2.978 0-1.378-.681-2.44-2.057-3.197-1.376-.758-3.228-1.144-5.571-1.144-2.984 0-6.13.785-9.44 2.343l-1.471-4.245c3.65-1.86 7.478-2.798 11.47-2.798 2.41 0 4.576.344 6.497 1.034 1.92.689 3.432 1.654 4.522 2.921 1.09 1.255 1.635 2.688 1.635 4.287 0 1.489-.49 2.825-1.472 3.997-.98 1.185-2.302 2.081-3.963 2.688 2.03.523 3.568 1.392 4.658 2.563zM88.745 10.622h-5.422V40.93h5.422V10.622zM102.706 39.276c-2.37-1.337-4.236-3.17-5.57-5.513-1.336-2.343-2.003-5.003-2.003-7.98 0-2.977.667-5.637 2.002-7.98a14.118 14.118 0 015.571-5.486c2.371-1.31 5.054-1.97 8.023-1.97 2.97 0 5.64.66 7.996 1.97 2.357 1.31 4.196 3.143 5.544 5.486 1.335 2.343 2.003 5.003 2.003 7.98 0 2.977-.668 5.637-2.003 7.98a14.384 14.384 0 01-5.544 5.514c-2.356 1.336-5.026 1.998-7.996 1.998-2.969.014-5.652-.662-8.023-1.998zm13.2-4.134c1.525-.896 2.724-2.15 3.582-3.777.872-1.626 1.294-3.473 1.294-5.582 0-2.095-.436-3.956-1.294-5.582-.872-1.626-2.057-2.867-3.582-3.749-1.526-.882-3.256-1.31-5.177-1.31-1.92 0-3.65.442-5.176 1.31-1.525.882-2.738 2.123-3.623 3.749-.885 1.626-1.321 3.487-1.321 5.582 0 2.095.449 3.956 1.321 5.582.885 1.627 2.098 2.88 3.623 3.777 1.526.895 3.256 1.35 5.176 1.35 1.921 0 3.651-.454 5.177-1.35zM144.361 28.126h-6.211v12.818h-5.421V10.622h5.421V23.44h6.334l9.726-12.818h5.816l-11.36 14.582 12.15 15.726h-6.388l-10.067-12.804zM168.975 39.276c-2.398-1.337-4.264-3.17-5.626-5.513s-2.03-5.003-2.03-7.98c0-2.977.681-5.637 2.03-7.98 1.362-2.343 3.228-4.177 5.626-5.486 2.397-1.31 5.108-1.97 8.173-1.97 2.71 0 5.135.55 7.26 1.653s3.773 2.702 4.944 4.81l-4.127 2.688c-.94-1.447-2.111-2.536-3.501-3.267-1.389-.73-2.942-1.088-4.631-1.088-1.961 0-3.719.44-5.285 1.309-1.567.882-2.793 2.123-3.678 3.749-.885 1.626-1.321 3.487-1.321 5.582 0 2.136.449 4.01 1.321 5.637.885 1.627 2.111 2.867 3.678 3.75 1.566.881 3.324 1.308 5.285 1.308 1.689 0 3.242-.358 4.631-1.088 1.39-.73 2.561-1.806 3.501-3.267l4.127 2.633a12.01 12.01 0 01-4.944 4.837c-2.125 1.13-4.55 1.682-7.26 1.682-3.052.014-5.776-.662-8.173-1.998z" fill="#0085E6"/>
        <path d="M238.936 24.212a8.754 8.754 0 00-1.485-.138 8.21 8.21 0 00-3.351.716 8.365 8.365 0 00-3.801 3.419s0 .013-.013.013a8.458 8.458 0 00-1.144 4.26c0 .15.013.303.013.454.232 4.424 3.855 7.953 8.296 7.953 4.59 0 8.309-3.763 8.309-8.408 0-4.135-2.942-7.553-6.824-8.27zm-2.916 9.027a2.514 2.514 0 00-2.07-1.088 2.71 2.71 0 00-.49.04c.068-.234.109-.495.109-.757 0-.745-.314-1.42-.818-1.889a2.543 2.543 0 002.234-2.095c.477.634 1.213 1.048 2.057 1.048.191 0 .395-.027.572-.069-.095.276-.15.579-.15.882 0 .73.3 1.392.777 1.86a2.573 2.573 0 00-2.221 2.068z" fill="#0085E5"/>
    </g>
    <defs>
        <clipPath id="clip0">
            <path fill="#fff" transform="translate(0 .905)" d="M0 0h334v43.747H0z"/>
        </clipPath>
    </defs>
</svg>
