<svg width="187" height="24" fill="none" xmlns="http://www.w3.org/2000/svg">
    <g clip-path="url(#clip0)">
        <path d="M118.457 4.8l.82 1.198h.753l-.892-1.199a.797.797 0 00.642-.307c.167-.207.25-.443.25-.712a.996.996 0 00-.208-.644c-.205-.257-.548-.386-1.029-.386h-.961v3.248h.616l.009-1.199zm-.006-1.475h.36c.232 0 .398.06.502.169a.468.468 0 01.107.319.455.455 0 01-.116.319c-.095.109-.261.16-.493.16h-.36v-.967z" fill="#555"/>
        <path d="M118.826 7.295a2.86 2.86 0 002.09-.86c.58-.573.869-1.27.869-2.082 0-.806-.292-1.497-.869-2.073a2.86 2.86 0 00-2.09-.86c-.824 0-1.526.287-2.103.857a2.818 2.818 0 00-.866 2.076c0 .812.289 1.51.869 2.082.58.573 1.279.86 2.1.86zm-1.708-4.625a2.34 2.34 0 011.708-.703c.663 0 1.228.236 1.698.703.473.466.708 1.028.708 1.683a2.3 2.3 0 01-.708 1.701 2.337 2.337 0 01-1.698.694c-.678 0-1.25-.233-1.713-.7a2.313 2.313 0 01-.702-1.695c0-.655.238-1.22.707-1.683zM18.58 13.495c.832.983 1.246 2.247 1.246 3.786 0 2.058-.759 3.656-2.273 4.787-1.516 1.132-3.72 1.699-6.614 1.699H0V0h10.29c2.62 0 4.667.526 6.136 1.577 1.47 1.052 2.204 2.564 2.204 4.534 0 1.29-.324 2.386-.975 3.293-.652.907-1.568 1.583-2.752 2.038 1.618.384 2.844 1.069 3.676 2.053zm-15.195-3.04h6.665c1.662 0 2.932-.328 3.813-.983.877-.656 1.314-1.619 1.314-2.886 0-1.267-.443-2.236-1.332-2.903-.89-.667-2.154-1.001-3.795-1.001H3.385v7.773zm12.988 6.551c0-1.358-.461-2.36-1.383-3.004-.922-.643-2.296-.968-4.12-.968H3.385v8.045h7.486c3.67.003 5.502-1.356 5.502-4.073zM27.415 5.771h-3.28v17.993h3.28V5.77zM45.26 15.922c.66.703.99 1.574.99 2.614 0 1.063-.362 2.008-1.094 2.835-.729.827-1.737 1.471-3.025 1.935-1.288.463-2.727.697-4.324.697-1.345 0-2.662-.174-3.95-.526-1.288-.351-2.433-.854-3.435-1.512l.993-2.478c.866.543 1.856.969 2.974 1.273 1.116.307 2.246.458 3.385.458 1.55 0 2.787-.266 3.709-.798.922-.531 1.386-1.25 1.386-2.156 0-.836-.372-1.482-1.113-1.934-.74-.452-1.784-.68-3.128-.68H35.31v-2.342h3.076c1.231 0 2.197-.215 2.905-.644.705-.428 1.06-1.019 1.06-1.766 0-.815-.417-1.447-1.247-1.902-.833-.452-1.954-.68-3.367-.68-1.8 0-3.703.465-5.707 1.392l-.89-2.513c2.21-1.108 4.524-1.663 6.94-1.663 1.457 0 2.768.204 3.931.611 1.163.408 2.073.984 2.736 1.73.66.748.99 1.596.99 2.547 0 .883-.297 1.674-.889 2.377-.591.703-1.388 1.235-2.394 1.595 1.208.32 2.145.827 2.805 1.53zM53.67 5.771h-3.281v17.993h3.28V5.77zM62.111 22.777a8.642 8.642 0 01-3.366-3.275c-.81-1.392-1.214-2.972-1.214-4.735 0-1.763.405-3.343 1.214-4.734a8.518 8.518 0 013.366-3.258c1.437-.78 3.055-1.172 4.854-1.172 1.8 0 3.412.39 4.836 1.172a8.549 8.549 0 013.35 3.258c.808 1.39 1.213 2.971 1.213 4.734s-.405 3.343-1.214 4.735a8.694 8.694 0 01-3.349 3.275c-1.424.792-3.036 1.187-4.836 1.187-1.8.003-3.417-.392-4.854-1.187zm7.983-2.46a5.666 5.666 0 002.171-2.242c.524-.963.785-2.064.785-3.31 0-1.244-.261-2.349-.785-3.312a5.526 5.526 0 00-2.17-2.224c-.926-.52-1.967-.78-3.13-.78-1.163 0-2.204.26-3.129.78a5.645 5.645 0 00-2.188 2.224c-.536.963-.804 2.065-.804 3.311 0 1.247.268 2.348.803 3.311a5.75 5.75 0 002.19 2.242c.921.531 1.965.797 3.128.797s2.207-.266 3.13-.797zM87.305 16.158h-3.759v7.606h-3.28V5.77h3.28v7.605h3.828l5.88-7.605h3.521l-6.87 8.657 7.349 9.336h-3.863l-6.086-7.606zM102.194 22.777a8.737 8.737 0 01-3.402-3.275c-.821-1.392-1.231-2.972-1.231-4.735 0-1.763.41-3.343 1.23-4.734a8.612 8.612 0 013.403-3.258c1.446-.78 3.093-1.172 4.94-1.172 1.642 0 3.105.327 4.393.983a7.049 7.049 0 012.992 2.85l-2.495 1.595c-.568-.86-1.276-1.503-2.118-1.934-.844-.429-1.778-.644-2.804-.644-1.187 0-2.252.26-3.198.78a5.573 5.573 0 00-2.221 2.223c-.536.963-.803 2.065-.803 3.311 0 1.267.267 2.384.803 3.343a5.572 5.572 0 002.221 2.224c.946.52 2.011.78 3.198.78 1.026 0 1.96-.215 2.804-.644.842-.428 1.55-1.075 2.118-1.934l2.495 1.562a7.142 7.142 0 01-2.992 2.868c-1.288.668-2.751 1.001-4.393 1.001-1.847 0-3.494-.395-4.94-1.19z" fill="#555"/>
        <path d="M136.754 13.55v9.91h-1.398v-8.678h-4.42l-.101 2.903c-.047 1.368-.16 2.478-.336 3.326-.175.85-.455 1.488-.833 1.917-.38.428-.892.643-1.537.643-.295 0-.595-.038-.899-.112l.102-1.26c.151.037.303.055.455.055.407 0 .737-.162.984-.487.247-.325.431-.815.556-1.465.125-.65.205-1.51.241-2.575l.158-4.177h7.028zM150.724 14.097a4.781 4.781 0 011.817 1.81c.44.768.663 1.633.663 2.596 0 .963-.22 1.828-.663 2.6a4.803 4.803 0 01-1.817 1.81c-.77.437-1.636.658-2.594.658-.895 0-1.707-.192-2.438-.579a4.826 4.826 0 01-1.782-1.6 4.962 4.962 0 01-.812-2.322h-1.826v4.39h-1.413v-9.91h1.413v4.247h1.838a4.935 4.935 0 01.848-2.25 4.824 4.824 0 011.775-1.55c.723-.373 1.52-.559 2.395-.559.96 0 1.826.218 2.596.659zm-.735 7.714a3.483 3.483 0 001.312-1.353c.318-.575.479-1.225.479-1.955 0-.726-.161-1.376-.479-1.952a3.482 3.482 0 00-1.312-1.353 3.612 3.612 0 00-1.859-.487 3.55 3.55 0 00-1.838.487c-.55.325-.987.777-1.302 1.353-.318.576-.479 1.226-.479 1.952 0 .727.161 1.38.479 1.955a3.527 3.527 0 001.302 1.353 3.55 3.55 0 001.838.487 3.62 3.62 0 001.859-.487zM162.243 14.782h-3.423v8.677h-1.398v-8.677h-3.408V13.55h8.226v1.232h.003zM171.221 22.228v1.231h-7.242V13.55h7.042v1.232h-5.618v3.045h5.003v1.202h-5.003v3.199h5.818zM172.269 12.298a.687.687 0 01-.208-.517c0-.21.068-.384.208-.523a.695.695 0 01.52-.212c.199 0 .369.07.515.213a.711.711 0 01.214.522.693.693 0 01-.214.517.709.709 0 01-.515.207.706.706 0 01-.52-.207zm1.136 1.252h1.424v9.91h-1.424v-9.91zm1.511-1.252a.68.68 0 01-.214-.517c0-.21.071-.384.214-.523a.728.728 0 01.526-.212c.199 0 .372.07.515.213a.711.711 0 01.214.522.693.693 0 01-.214.517.709.709 0 01-.515.207.715.715 0 01-.526-.207zM186.461 13.55v9.91h-1.424v-4.416h-5.732v4.415h-1.424V13.55h1.424v4.262h5.732V13.55h1.424z" fill="#222"/>
    </g>
    <defs>
        <clipPath id="clip0">
            <path fill="#fff" d="M0 0h186.462v24H0z"/>
        </clipPath>
    </defs>
</svg>
