<svg width="260" height="62" fill="none" xmlns="http://www.w3.org/2000/svg">
    <path d="M25.377 15.933c0 3.64-1.584 6.406-4.751 8.296 1.724.634 3.167 1.713 4.33 3.26 1.162 1.535 1.749 3.717 1.749 6.533 0 2.816-1.047 5.049-3.142 6.698-2.094 1.65-5.096 2.474-9.016 2.474H2.057c-.601 0-1.1-.203-1.482-.61C.192 42.18 0 41.647 0 40.987V7.383c0-.38.064-.634.179-.761.128-.127.383-.19.766-.19h12.056c8.25 0 12.376 3.171 12.376 9.5zm-15.224-.99v6.876h.268c3.385 0 5.07-1.116 5.07-3.362 0-1.23-.331-2.118-.983-2.676-.651-.559-1.737-.838-3.244-.838h-1.11zm0 13.066v6.825h.958c1.52 0 2.631-.28 3.333-.837.703-.558 1.06-1.446 1.06-2.677 0-1.23-.332-2.08-.983-2.575-.651-.495-1.737-.736-3.244-.736h-1.124zM40.485 23.938c0 .545-1.609.825-4.84.825s-4.84-.242-4.84-.71V7.142c0-.787 1.609-1.18 4.84-1.18s4.84.228 4.84.71v17.265z" fill="#154496"/>
    <path d="M40.485 42.877c0 .279-1.609.418-4.84.418s-4.84-.126-4.84-.367V17.15c0-.24 1.609-.368 4.84-.368s4.84.102 4.84.317v25.777zM43.82 41.659c-.103-3.463.702-6.33 2.426-8.614 1.583.558 3.474.838 5.657.838 4.266 0 6.399-1.028 6.399-3.096 0-1.89-1.8-2.828-5.39-2.828h-.421c-1.022-2.271-1.022-4.567 0-6.876h.792c2.822 0 4.227-.875 4.227-2.626 0-1.61-1.098-2.41-3.282-2.41-1.443 0-2.733.419-3.857 1.256-2.708-1.23-4.534-3.273-5.44-6.14 2.924-3.146 6.998-4.731 12.209-4.731 3.422 0 6.168.888 8.25 2.676 2.043 1.789 3.065 4.148 3.065 7.091 0 3.819-1.609 6.533-4.815 8.132 4.266.837 6.399 3.564 6.399 8.194 0 3.565-1.341 6.318-4.023 8.246-2.708 1.966-6.526 2.943-11.418 2.943-4.291 0-7.892-.685-10.779-2.055zM83.243 21.782c0 .482-1.609.723-4.84.723-3.219 0-4.84-.203-4.84-.622V7.003c0-.685 1.609-1.04 4.84-1.04 3.218 0 4.84.203 4.84.621v15.198z" fill="#154496"/>
    <path d="M83.243 42.877c0 .279-1.609.418-4.84.418-3.219 0-4.84-.126-4.84-.367V17.15c0-.24 1.609-.368 4.84-.368 3.218 0 4.84.102 4.84.317v25.777zM104.252 43.714c-4.955 0-8.99-1.61-12.107-4.833-3.116-3.222-4.674-7.915-4.674-14.093s1.57-10.859 4.725-14.043c3.155-3.184 7.216-4.782 12.21-4.782 4.98 0 9.016 1.573 12.081 4.693 3.065 3.134 4.598 7.878 4.598 14.233 0 6.356-1.571 11.075-4.7 14.17-3.129 3.108-7.177 4.655-12.133 4.655zm.026-27.666c-1.686 0-3.104.774-4.253 2.308-1.15 1.535-1.711 3.704-1.711 6.483 0 2.778.549 4.922 1.634 6.406 1.099 1.484 2.529 2.232 4.304 2.232 1.776 0 3.219-.748 4.33-2.258 1.111-1.51 1.66-3.653 1.66-6.457 0-2.803-.575-4.947-1.711-6.456-1.137-1.51-2.555-2.258-4.253-2.258zM136.157 42.445c0 .52-1.661.786-4.968.786l-2.963-.152c-1.763-.14-2.644-.38-2.644-.736V7.117c0-.596 1.762-.887 5.287-.887s5.288.291 5.288.887V20.55l6.449-13.434c.243-.494 1.661-.735 4.228-.735 4.687 0 7.152.406 7.394 1.205 0 .076-.012.14-.051.215l-9.195 16.491 10.677 14.652c0 .076-.332.368-1.009.888-1.622 1.395-3.525 2.499-5.709 3.31a5.886 5.886 0 01-2.005.369l-1.265-.102c-1.123-.279-2.005-1.002-2.643-2.156L137 29.81h-.843v12.634zM180.536 7.041c1.954.723 2.938 1.687 2.938 2.918 0 1.23-.473 2.74-1.405 4.541-.932 1.801-1.712 2.702-2.35 2.702-.179 0-.383-.101-.613-.292-.23-.19-.754-.406-1.584-.634-.83-.228-1.545-.342-2.145-.342-2.044 0-3.691.723-4.943 2.156-1.251 1.433-1.877 3.628-1.877 6.584 0 2.955.638 5.15 1.928 6.583 1.29 1.434 2.912 2.157 4.892 2.157.804 0 1.711-.114 2.72-.343 1.009-.228 1.711-.545 2.146-.976.076-.076.217-.102.421-.102.217 0 .613.393 1.188 1.18.587.786 1.124 1.826 1.609 3.095.498 1.281.741 2.27.741 2.968 0 1.37-1.06 2.449-3.168 3.26-2.12.8-4.61 1.206-7.509 1.206-4.649 0-8.48-1.624-11.469-4.884-3.001-3.26-4.495-7.852-4.495-13.776 0-5.925 1.545-10.593 4.623-13.992 3.078-3.4 6.935-5.087 11.545-5.087 2.58 0 4.84.355 6.807 1.078z" fill="#154496"/>
    <path d="M201.481 59.887c11.252.558 30.192.52 41.431.444 4.814-.165 12.822-.457 15.542-5.328 3.908-7.472-5.517-10.643-11.009-11.721 2.299-7.421 5.186-16.44-4.278-20.893-8.493-4.16-15.964 2.474-20.881 8.398-3.129-6.584-8.583-15.641-17.51-13.726-8.276 1.89-9.208 11.81-8.952 18.813-3.972-3.362-9.273-7.967-14.611-4.58-6.271 4.047-1.903 9.628.192 14.347-4.47.482-10.345-1.864-14.074 1.46-3.117 2.663-2.976 6.481.025 9.564 4.968 4.884 27.395 3.78 34.125 3.222z" fill="#fff" stroke="#154496" stroke-miterlimit="10"/>
    <path d="M206.462 47.647c0 1.471-.396 2.613-1.187 3.412-.792.812-1.916 1.218-3.359 1.218-2.554 0-4.036-1.078-4.432-3.26h-.919v2.968a7.317 7.317 0 01-3.627 0v-8.664a7.317 7.317 0 013.627 0v2.968h.932c.472-2.169 1.941-3.26 4.419-3.26 3.027-.012 4.546 1.535 4.546 4.618zm-3.652.013c0-1.053-.294-1.573-.894-1.573-.613 0-.92.52-.92 1.56 0 1.015.307 1.522.92 1.522.6 0 .894-.495.894-1.51zM212.248 43.308a7.317 7.317 0 013.627 0v8.664a7.317 7.317 0 01-3.627 0v-2.968h-1.609v2.968a7.317 7.317 0 01-3.627 0v-8.664a7.317 7.317 0 013.627 0V46.1h1.609v-2.79zM219.988 42.572c0 .076-.524.114-1.584.114-1.047 0-1.584-.038-1.584-.101v-2.461c0-.114.524-.165 1.584-.165 1.047 0 1.584.038 1.584.101v2.512zm0 9.425c0 .09-.524.14-1.584.14-1.047 0-1.584-.038-1.584-.114v-8.41c0-.077.524-.115 1.584-.115 1.047 0 1.584.038 1.584.102v8.397zM222.21 51.085c-.716-.787-1.073-1.878-1.073-3.273 0-1.395.357-2.486 1.073-3.273.715-.786 1.685-1.18 2.911-1.18 1.214 0 2.184.394 2.899 1.18.716.787 1.073 1.877 1.073 3.273 0 1.395-.357 2.486-1.073 3.273-.715.786-1.673 1.18-2.899 1.18-1.226.012-2.196-.381-2.911-1.18zm2.911-4.859c-.651 0-.97.52-.97 1.573s.319 1.573.97 1.573c.652 0 .971-.52.971-1.573s-.319-1.573-.971-1.573zM233.857 55.22c0 .076-.485.114-1.469.114-.983 0-1.481-.038-1.481-.114v-8.829h-.588c-.281 0-.46-.253-.575-.748a2.85 2.85 0 01-.051-.622c0-.254.077-.545.243-.888.23-.507.6-.748 1.098-.748.332 0 .639.076.92.228.281.152.472.292.587.431.115.14.166.203.166.229.767-.597 1.61-.888 2.504-.888.894 0 1.66.342 2.311 1.04.639.685.971 1.763.971 3.21 0 1.446-.319 2.562-.971 3.36-.638.8-1.456 1.193-2.452 1.193-.447 0-.856-.025-1.226-.063v3.095h.013zm.702-8.841c-.191 0-.383.063-.574.19V49.6c.191.026.357.039.472.039h.281c.473-.051.703-.647.703-1.802.012-.977-.281-1.459-.882-1.459zM25.377 15.933c0 3.64-1.584 6.406-4.751 8.296 1.724.634 3.167 1.713 4.33 3.26 1.162 1.535 1.749 3.717 1.749 6.533 0 2.816-1.047 5.049-3.142 6.698-2.094 1.65-5.096 2.474-9.016 2.474H2.057c-.601 0-1.1-.203-1.482-.61C.192 42.18 0 41.647 0 40.987V7.383c0-.38.064-.634.179-.761.128-.127.383-.19.766-.19h12.056c8.25 0 12.376 3.171 12.376 9.5zm-15.224-.99v6.876h.268c3.385 0 5.07-1.116 5.07-3.362 0-1.23-.331-2.118-.983-2.676-.651-.559-1.737-.838-3.244-.838h-1.11zm0 13.066v6.825h.958c1.52 0 2.631-.28 3.333-.837.703-.558 1.06-1.446 1.06-2.677 0-1.23-.332-2.08-.983-2.575-.651-.495-1.737-.736-3.244-.736h-1.124zM40.485 23.938c0 .545-1.609.825-4.84.825s-4.84-.242-4.84-.71V7.142c0-.787 1.609-1.18 4.84-1.18s4.84.228 4.84.71v17.265z" fill="#154496"/>
    <path d="M40.485 42.877c0 .279-1.609.418-4.84.418s-4.84-.126-4.84-.367V17.15c0-.24 1.609-.368 4.84-.368s4.84.102 4.84.317v25.777zM43.82 41.659c-.103-3.463.702-6.33 2.426-8.614 1.583.558 3.474.838 5.657.838 4.266 0 6.399-1.028 6.399-3.096 0-1.89-1.8-2.828-5.39-2.828h-.421c-1.022-2.271-1.022-4.567 0-6.876h.792c2.822 0 4.227-.875 4.227-2.626 0-1.61-1.098-2.41-3.282-2.41-1.443 0-2.733.419-3.857 1.256-2.708-1.23-4.534-3.273-5.44-6.14 2.924-3.146 6.998-4.731 12.209-4.731 3.422 0 6.168.888 8.25 2.676 2.043 1.789 3.065 4.148 3.065 7.091 0 3.819-1.609 6.533-4.815 8.132 4.266.837 6.399 3.564 6.399 8.194 0 3.565-1.341 6.318-4.023 8.246-2.708 1.966-6.526 2.943-11.418 2.943-4.291 0-7.892-.685-10.779-2.055zM83.243 21.782c0 .482-1.609.723-4.84.723-3.219 0-4.84-.203-4.84-.622V7.003c0-.685 1.609-1.04 4.84-1.04 3.218 0 4.84.203 4.84.621v15.198z" fill="#154496"/>
    <path d="M83.243 42.877c0 .279-1.609.418-4.84.418-3.219 0-4.84-.126-4.84-.367V17.15c0-.24 1.609-.368 4.84-.368 3.218 0 4.84.102 4.84.317v25.777zM104.252 43.714c-4.955 0-8.99-1.61-12.107-4.833-3.116-3.222-4.674-7.915-4.674-14.093s1.57-10.859 4.725-14.043c3.155-3.184 7.216-4.782 12.21-4.782 4.98 0 9.016 1.573 12.081 4.693 3.065 3.134 4.598 7.878 4.598 14.233 0 6.356-1.571 11.075-4.7 14.17-3.129 3.108-7.177 4.655-12.133 4.655zm.026-27.666c-1.686 0-3.104.774-4.253 2.308-1.15 1.535-1.711 3.704-1.711 6.483 0 2.778.549 4.922 1.634 6.406 1.099 1.484 2.529 2.232 4.304 2.232 1.776 0 3.219-.748 4.33-2.258 1.111-1.51 1.66-3.653 1.66-6.457 0-2.803-.575-4.947-1.711-6.456-1.137-1.51-2.555-2.258-4.253-2.258zM136.157 42.445c0 .52-1.661.786-4.968.786l-2.963-.152c-1.763-.14-2.644-.38-2.644-.736V7.117c0-.596 1.762-.887 5.287-.887s5.288.291 5.288.887V20.55l6.449-13.434c.243-.494 1.661-.735 4.228-.735 4.687 0 7.152.406 7.394 1.205 0 .076-.012.14-.051.215l-9.195 16.491 10.677 14.652c0 .076-.332.368-1.009.888-1.622 1.395-3.525 2.499-5.709 3.31a5.886 5.886 0 01-2.005.369l-1.265-.102c-1.123-.279-2.005-1.002-2.643-2.156L137 29.81h-.843v12.634zM180.536 7.041c1.954.723 2.938 1.687 2.938 2.918 0 1.23-.473 2.74-1.405 4.541-.932 1.801-1.712 2.702-2.35 2.702-.179 0-.383-.101-.613-.292-.23-.19-.754-.406-1.584-.634-.83-.228-1.545-.342-2.145-.342-2.044 0-3.691.723-4.943 2.156-1.251 1.433-1.877 3.628-1.877 6.584 0 2.955.638 5.15 1.928 6.583 1.29 1.434 2.912 2.157 4.892 2.157.804 0 1.711-.114 2.72-.343 1.009-.228 1.711-.545 2.146-.976.076-.076.217-.102.421-.102.217 0 .613.393 1.188 1.18.587.786 1.124 1.826 1.609 3.095.498 1.281.741 2.27.741 2.968 0 1.37-1.06 2.449-3.168 3.26-2.12.8-4.61 1.206-7.509 1.206-4.649 0-8.48-1.624-11.469-4.884-3.001-3.26-4.495-7.852-4.495-13.776 0-5.925 1.545-10.593 4.623-13.992 3.078-3.4 6.935-5.087 11.545-5.087 2.58 0 4.84.355 6.807 1.078zM189.834 5.163l1.251 1.826h1.15l-1.354-1.826c.396 0 .728-.153.983-.47.256-.317.384-.672.384-1.09 0-.394-.103-.711-.32-.977-.319-.394-.83-.597-1.571-.597h-1.468v4.96h.945V5.163zm-.013-2.246h.549c.358 0 .613.09.766.254a.693.693 0 01.166.482c0 .19-.063.355-.178.482-.154.165-.396.241-.754.241h-.549V2.917z" fill="#154496"/>
    <path d="M190.396 8.969c1.239 0 2.312-.432 3.193-1.307.881-.875 1.328-1.94 1.328-3.184 0-1.23-.447-2.283-1.328-3.171C192.708.43 191.648 0 190.396 0c-1.264 0-2.324.431-3.206 1.307-.881.875-1.315 1.928-1.315 3.17 0 1.244.447 2.31 1.328 3.185.869.875 1.941 1.307 3.193 1.307zm-2.605-7.054c.715-.71 1.596-1.065 2.605-1.065s1.877.355 2.593 1.065c.715.71 1.085 1.573 1.085 2.576 0 1.027-.357 1.89-1.085 2.6-.716.71-1.584 1.053-2.593 1.053-1.034 0-1.903-.355-2.618-1.066-.715-.71-1.073-1.573-1.073-2.587 0-1.015.371-1.865 1.086-2.576z" fill="#154496"/>
</svg>
