<svg width="150" height="36" fill="none" xmlns="http://www.w3.org/2000/svg">
    <path d="M14.578 9.247c0 2.114-.91 3.719-2.73 4.816.991.368 1.82.994 2.488 1.892.667.891 1.005 2.158 1.005 3.792 0 1.635-.602 2.93-1.805 3.888-1.203.957-2.927 1.435-5.18 1.435H1.181c-.345 0-.63-.117-.85-.353C.11 24.482 0 24.172 0 23.79V4.285c0-.221.037-.369.103-.442.073-.074.22-.11.44-.11h6.926c4.739 0 7.109 1.84 7.109 5.514zm-8.745-.574v3.99h.154c1.944 0 2.912-.647 2.912-1.95 0-.715-.19-1.23-.565-1.554-.374-.324-.997-.486-1.863-.486h-.638zm0 7.584v3.961h.55c.873 0 1.511-.162 1.915-.486.403-.324.609-.84.609-1.553 0-.714-.191-1.208-.565-1.495-.375-.287-.998-.427-1.864-.427h-.645zM23.256 13.894c0 .317-.924.479-2.78.479-1.856 0-2.78-.14-2.78-.412V4.146c0-.457.924-.685 2.78-.685 1.856 0 2.78.132 2.78.412v10.021z" fill="#154496"/>
    <path d="M23.256 24.888c0 .162-.924.243-2.78.243-1.856 0-2.78-.074-2.78-.214V9.956c0-.14.924-.214 2.78-.214 1.856 0 2.78.06 2.78.184v14.962zM25.171 24.18c-.059-2.01.404-3.675 1.394-5 .91.324 1.995.486 3.25.486 2.45 0 3.676-.596 3.676-1.797 0-1.097-1.035-1.642-3.096-1.642h-.242c-.587-1.318-.587-2.65 0-3.99h.454c1.622 0 2.429-.508 2.429-1.524 0-.936-.631-1.4-1.886-1.4-.829 0-1.57.244-2.215.73-1.556-.715-2.605-1.9-3.126-3.564 1.68-1.826 4.02-2.747 7.014-2.747 1.966 0 3.544.516 4.74 1.554 1.173 1.038 1.76 2.408 1.76 4.116 0 2.216-.924 3.792-2.766 4.72 2.45.486 3.676 2.069 3.676 4.756 0 2.07-.77 3.667-2.311 4.786-1.555 1.141-3.75 1.708-6.559 1.708-2.465 0-4.534-.397-6.192-1.192zM47.819 12.643c0 .28-.925.42-2.78.42-1.85 0-2.781-.119-2.781-.361V4.065c0-.398.924-.604 2.78-.604 1.85 0 2.78.118 2.78.36v8.822z" fill="#154496"/>
    <path d="M47.819 24.888c0 .162-.925.243-2.78.243-1.85 0-2.781-.074-2.781-.214V9.956c0-.14.924-.214 2.78-.214 1.85 0 2.78.06 2.78.184v14.962zM59.888 25.373c-2.846 0-5.165-.935-6.955-2.805s-2.685-4.595-2.685-8.18c0-3.586.902-6.303 2.715-8.151 1.812-1.848 4.145-2.776 7.013-2.776 2.862 0 5.18.913 6.94 2.724 1.761 1.819 2.642 4.573 2.642 8.262s-.903 6.428-2.7 8.224c-1.797 1.804-4.123 2.702-6.97 2.702zm.015-16.058c-.968 0-1.783.449-2.443 1.34-.66.89-.983 2.15-.983 3.762 0 1.613.315 2.857.939 3.719.63.861 1.453 1.295 2.472 1.295 1.02 0 1.85-.434 2.487-1.31.639-.876.954-2.12.954-3.748 0-1.627-.33-2.872-.983-3.748-.653-.876-1.467-1.31-2.443-1.31zM78.215 24.637c0 .302-.954.456-2.854.456l-1.702-.088c-1.012-.081-1.518-.221-1.518-.427V4.13c0-.346 1.012-.516 3.037-.516s3.037.17 3.037.516v7.797l3.705-7.797c.14-.288.954-.427 2.429-.427 2.692 0 4.108.235 4.248.7a.261.261 0 01-.03.124L83.285 14.1l6.133 8.505c0 .044-.19.213-.58.515-.931.81-2.024 1.45-3.279 1.922a3.35 3.35 0 01-1.152.213l-.726-.059c-.646-.162-1.152-.581-1.519-1.251L78.7 17.303h-.484v7.334zM103.71 4.087c1.123.42 1.688.98 1.688 1.693 0 .715-.272 1.59-.807 2.636-.536 1.046-.984 1.569-1.35 1.569-.103 0-.22-.06-.353-.17-.132-.11-.432-.235-.909-.368-.477-.132-.888-.199-1.233-.199-1.174 0-2.12.42-2.839 1.252-.719.832-1.078 2.106-1.078 3.821 0 1.716.366 2.99 1.107 3.822.741.832 1.673 1.252 2.81 1.252.462 0 .983-.067 1.563-.2.579-.132.983-.316 1.232-.566.044-.044.125-.06.243-.06.124 0 .352.23.682.686.337.456.645 1.06.924 1.796.286.744.426 1.318.426 1.723 0 .795-.609 1.421-1.82 1.892-1.218.464-2.648.7-4.314.7-2.67 0-4.871-.942-6.588-2.835-1.724-1.892-2.582-4.557-2.582-7.996s.887-6.148 2.656-8.121C94.936 4.44 97.15 3.46 99.8 3.46c1.482 0 2.78.206 3.91.626z" fill="#154496"/>
    <path d="M115.741 34.76c6.464.325 17.344.303 23.8.259 2.766-.096 7.366-.265 8.928-3.093 2.245-4.337-3.169-6.177-6.324-6.803 1.321-4.308 2.979-9.543-2.457-12.127-4.879-2.415-9.171 1.435-11.996 4.874-1.797-3.821-4.93-9.079-10.058-7.967-4.754 1.097-5.29 6.855-5.143 10.92-2.282-1.952-5.326-4.624-8.393-2.659-3.602 2.35-1.093 5.59.11 8.328-2.568.28-5.942-1.082-8.085.847-1.79 1.546-1.71 3.762.015 5.552 2.854 2.834 15.737 2.194 19.603 1.87z" fill="#fff" stroke="#403F3F" stroke-miterlimit="10"/>
    <path d="M118.603 27.655c0 .854-.227 1.517-.682 1.98-.455.472-1.1.707-1.929.707-1.468 0-2.319-.625-2.546-1.892h-.528v1.723a4.163 4.163 0 01-2.084 0v-5.029a4.163 4.163 0 012.084 0v1.723h.535c.272-1.26 1.115-1.892 2.539-1.892 1.738-.008 2.611.89 2.611 2.68zm-2.098.007c0-.611-.169-.913-.513-.913-.353 0-.529.302-.529.906 0 .589.176.883.529.883.344 0 .513-.287.513-.876zM121.926 25.136a4.163 4.163 0 012.084 0v5.03a4.163 4.163 0 01-2.084 0v-1.724h-.924v1.723a4.163 4.163 0 01-2.084 0v-5.029a4.163 4.163 0 012.084 0v1.62h.924v-1.62zM126.372 24.71c0 .044-.301.066-.91.066-.601 0-.909-.022-.909-.058v-1.429c0-.066.301-.096.909-.096.602 0 .91.022.91.06v1.457zm0 5.47c0 .052-.301.082-.91.082-.601 0-.909-.022-.909-.066v-4.882c0-.044.301-.066.909-.066.602 0 .91.022.91.059v4.874zM127.649 29.65c-.41-.456-.616-1.09-.616-1.9 0-.81.206-1.443.616-1.9.411-.456.969-.684 1.673-.684.697 0 1.255.228 1.666.685.41.456.616 1.09.616 1.9 0 .81-.206 1.443-.616 1.9-.411.456-.961.684-1.666.684-.704.007-1.262-.221-1.673-.685zm1.673-2.82c-.374 0-.557.302-.557.913s.183.913.557.913c.374 0 .558-.302.558-.913s-.184-.913-.558-.913zM134.341 32.051c0 .044-.279.067-.844.067s-.851-.023-.851-.067v-5.124h-.337c-.162 0-.264-.148-.33-.435a1.656 1.656 0 01-.03-.36c0-.148.044-.317.14-.516.132-.294.344-.434.631-.434.19 0 .366.044.528.132.161.088.271.17.337.25.066.081.096.118.096.133.44-.346.924-.515 1.438-.515.513 0 .953.198 1.328.603.366.398.557 1.024.557 1.863 0 .84-.183 1.488-.557 1.951-.367.464-.837.693-1.409.693-.257 0-.492-.015-.704-.037v1.796h.007zm.403-5.132a.59.59 0 00-.33.11v1.76c.11.015.206.023.272.023h.161c.272-.03.404-.376.404-1.046.007-.567-.162-.847-.507-.847zM14.578 9.247c0 2.114-.91 3.719-2.73 4.816.991.368 1.82.994 2.488 1.892.667.891 1.005 2.158 1.005 3.792 0 1.635-.602 2.93-1.805 3.888-1.203.957-2.927 1.435-5.18 1.435H1.181c-.345 0-.63-.117-.85-.353C.11 24.482 0 24.172 0 23.79V4.285c0-.221.037-.369.103-.442.073-.074.22-.11.44-.11h6.926c4.739 0 7.109 1.84 7.109 5.514zm-8.745-.574v3.99h.154c1.944 0 2.912-.647 2.912-1.95 0-.715-.19-1.23-.565-1.554-.374-.324-.997-.486-1.863-.486h-.638zm0 7.584v3.961h.55c.873 0 1.511-.162 1.915-.486.403-.324.609-.84.609-1.553 0-.714-.191-1.208-.565-1.495-.375-.287-.998-.427-1.864-.427h-.645zM23.256 13.894c0 .317-.924.479-2.78.479-1.856 0-2.78-.14-2.78-.412V4.146c0-.457.924-.685 2.78-.685 1.856 0 2.78.132 2.78.412v10.021z" fill="#403F3F"/>
    <path d="M23.256 24.888c0 .162-.924.243-2.78.243-1.856 0-2.78-.074-2.78-.214V9.956c0-.14.924-.214 2.78-.214 1.856 0 2.78.06 2.78.184v14.962zM25.171 24.18c-.059-2.01.404-3.675 1.394-5 .91.324 1.995.486 3.25.486 2.45 0 3.676-.596 3.676-1.797 0-1.097-1.035-1.642-3.096-1.642h-.242c-.587-1.318-.587-2.65 0-3.99h.454c1.622 0 2.429-.508 2.429-1.524 0-.936-.631-1.4-1.886-1.4-.829 0-1.57.244-2.215.73-1.556-.715-2.605-1.9-3.126-3.564 1.68-1.826 4.02-2.747 7.014-2.747 1.966 0 3.544.516 4.74 1.554 1.173 1.038 1.76 2.408 1.76 4.116 0 2.216-.924 3.792-2.766 4.72 2.45.486 3.676 2.069 3.676 4.756 0 2.07-.77 3.667-2.311 4.786-1.555 1.141-3.75 1.708-6.559 1.708-2.465 0-4.534-.397-6.192-1.192zM47.819 12.643c0 .28-.925.42-2.78.42-1.85 0-2.781-.119-2.781-.361V4.065c0-.398.924-.604 2.78-.604 1.85 0 2.78.118 2.78.36v8.822z" fill="#403F3F"/>
    <path d="M47.819 24.888c0 .162-.925.243-2.78.243-1.85 0-2.781-.074-2.781-.214V9.956c0-.14.924-.214 2.78-.214 1.85 0 2.78.06 2.78.184v14.962zM59.888 25.373c-2.846 0-5.165-.935-6.955-2.805s-2.685-4.595-2.685-8.18c0-3.586.902-6.303 2.715-8.151 1.812-1.848 4.145-2.776 7.013-2.776 2.862 0 5.18.913 6.94 2.724 1.761 1.819 2.642 4.573 2.642 8.262s-.903 6.428-2.7 8.224c-1.797 1.804-4.123 2.702-6.97 2.702zm.015-16.058c-.968 0-1.783.449-2.443 1.34-.66.89-.983 2.15-.983 3.762 0 1.613.315 2.857.939 3.719.63.861 1.453 1.295 2.472 1.295 1.02 0 1.85-.434 2.487-1.31.639-.876.954-2.12.954-3.748 0-1.627-.33-2.872-.983-3.748-.653-.876-1.467-1.31-2.443-1.31zM78.215 24.637c0 .302-.954.456-2.854.456l-1.702-.088c-1.012-.081-1.518-.221-1.518-.427V4.13c0-.346 1.012-.516 3.037-.516s3.037.17 3.037.516v7.797l3.705-7.797c.14-.288.954-.427 2.429-.427 2.692 0 4.108.235 4.248.7a.261.261 0 01-.03.124L83.285 14.1l6.133 8.505c0 .044-.19.213-.58.515-.931.81-2.024 1.45-3.279 1.922a3.35 3.35 0 01-1.152.213l-.726-.059c-.646-.162-1.152-.581-1.519-1.251L78.7 17.303h-.484v7.334zM103.71 4.087c1.123.42 1.688.98 1.688 1.693 0 .715-.272 1.59-.807 2.636-.536 1.046-.984 1.569-1.35 1.569-.103 0-.22-.06-.353-.17-.132-.11-.432-.235-.909-.368-.477-.132-.888-.199-1.233-.199-1.174 0-2.12.42-2.839 1.252-.719.832-1.078 2.106-1.078 3.821 0 1.716.366 2.99 1.107 3.822.741.832 1.673 1.252 2.81 1.252.462 0 .983-.067 1.563-.2.579-.132.983-.316 1.232-.566.044-.044.125-.06.243-.06.124 0 .352.23.682.686.337.456.645 1.06.924 1.796.286.744.426 1.318.426 1.723 0 .795-.609 1.421-1.82 1.892-1.218.464-2.648.7-4.314.7-2.67 0-4.871-.942-6.588-2.835-1.724-1.892-2.582-4.557-2.582-7.996s.887-6.148 2.656-8.121C94.936 4.44 97.15 3.46 99.8 3.46c1.482 0 2.78.206 3.91.626zM109.049 2.996l.719 1.06h.66l-.778-1.06a.689.689 0 00.565-.272.976.976 0 00.22-.633.861.861 0 00-.183-.567c-.183-.228-.477-.346-.902-.346h-.844v2.879h.543v-1.06zm-.008-1.303h.316c.205 0 .352.052.44.147.066.074.095.17.095.28a.41.41 0 01-.102.28c-.088.096-.228.14-.433.14h-.316v-.847z" fill="#403F3F"/>
    <path d="M109.373 5.206a2.5 2.5 0 001.834-.759 2.53 2.53 0 00.763-1.848c0-.714-.257-1.325-.763-1.84A2.488 2.488 0 00109.373 0c-.727 0-1.336.25-1.842.758a2.506 2.506 0 00-.756 1.841c0 .722.257 1.34.763 1.848.499.508 1.116.759 1.835.759zm-1.497-4.094a2.046 2.046 0 011.497-.619 2.03 2.03 0 011.489.619c.411.412.623.913.623 1.495 0 .596-.205 1.097-.623 1.509-.411.412-.91.611-1.489.611a2.036 2.036 0 01-1.504-.618 2.049 2.049 0 01-.617-1.502c0-.59.213-1.083.624-1.495z" fill="#403F3F"/>
</svg>
