<svg width="310" height="40" fill="none" xmlns="http://www.w3.org/2000/svg">
    <g clip-path="url(#clip0)">
        <path d="M196.941 8l1.364 1.998h1.251l-1.483-1.999c.435 0 .786-.172 1.068-.512.277-.344.415-.738.415-1.186 0-.423-.113-.783-.346-1.073-.341-.428-.909-.645-1.711-.645h-1.597v5.415h1.024l.015-1.999zm-.01-2.457h.598c.386 0 .663.098.836.28a.79.79 0 01.178.532.763.763 0 01-.193.532c-.158.182-.435.266-.821.266h-.598v-1.61z" fill="#006AC6"/>
        <path d="M197.554 12.159c1.355 0 2.517-.478 3.476-1.433.964-.955 1.444-2.117 1.444-3.47 0-1.344-.485-2.496-1.444-3.456-.959-.955-2.121-1.432-3.476-1.432-1.37 0-2.537.477-3.496 1.427-.959.955-1.439 2.107-1.439 3.46 0 1.354.48 2.516 1.444 3.471.964.955 2.126 1.432 3.491 1.432zm-2.838-7.71a3.883 3.883 0 012.838-1.17c1.103 0 2.042.393 2.823 1.17.787.779 1.177 1.714 1.177 2.807 0 1.117-.395 2.062-1.177 2.835-.786.773-1.725 1.157-2.823 1.157-1.127 0-2.077-.39-2.848-1.167-.777-.782-1.167-1.718-1.167-2.825 0-1.093.395-2.033 1.177-2.806zM30.89 22.49c1.384 1.64 2.071 3.747 2.071 6.311 0 3.431-1.26 6.094-3.778 7.98-2.521 1.885-6.185 2.83-10.997 2.83H0V0h17.108c4.357 0 7.759.876 10.201 2.629 2.443 1.752 3.664 4.272 3.664 7.556 0 2.15-.539 3.977-1.621 5.488-1.083 1.511-2.606 2.639-4.574 3.397 2.69.64 4.727 1.782 6.111 3.42zM5.626 17.427h11.081c2.764 0 4.875-.547 6.339-1.64 1.459-1.092 2.186-2.697 2.186-4.809s-.737-3.726-2.216-4.839c-1.478-1.112-3.58-1.668-6.309-1.668H5.627v12.956zM27.22 28.343c0-2.265-.766-3.934-2.299-5.007-1.533-1.073-3.817-1.614-6.848-1.614H5.627v13.409h12.446c6.101.005 9.147-2.26 9.147-6.788zM45.579 9.619h-5.454v29.987h5.454V9.62zM75.247 26.537c1.098 1.172 1.647 2.624 1.647 4.356 0 1.773-.604 3.348-1.82 4.726-1.212 1.378-2.888 2.451-5.029 3.224-2.14.773-4.534 1.162-7.19 1.162a24.78 24.78 0 01-6.566-.876c-2.14-.586-4.044-1.423-5.71-2.52l1.65-4.13c1.44.905 3.086 1.614 4.945 2.121 1.855.512 3.733.763 5.627.763 2.576 0 4.633-.443 6.166-1.33 1.533-.885 2.305-2.081 2.305-3.593 0-1.393-.619-2.47-1.85-3.224-1.231-.753-2.967-1.132-5.202-1.132h-5.513v-3.903h5.113c2.047 0 3.654-.36 4.83-1.073 1.173-.714 1.761-1.699 1.761-2.944 0-1.359-.692-2.412-2.072-3.17-1.384-.753-3.248-1.132-5.597-1.132-2.991 0-6.156.772-9.489 2.318l-1.478-4.189c3.674-1.846 7.52-2.771 11.536-2.771 2.423 0 4.603.34 6.536 1.019 1.934.679 3.447 1.639 4.55 2.884 1.097 1.246 1.646 2.658 1.646 4.243 0 1.472-.494 2.791-1.478 3.963-.984 1.172-2.31 2.058-3.98 2.658 2.007.532 3.564 1.378 4.662 2.55zM89.225 9.619h-5.453v29.987h5.453V9.62zM103.263 37.962c-2.388-1.32-4.252-3.14-5.597-5.459-1.345-2.318-2.018-4.952-2.018-7.89 0-2.94.673-5.573 2.018-7.891 1.345-2.319 3.209-4.13 5.597-5.43 2.388-1.3 5.078-1.954 8.07-1.954 2.991 0 5.671.65 8.04 1.954a14.235 14.235 0 015.568 5.43c1.344 2.318 2.017 4.952 2.017 7.89 0 2.939-.673 5.573-2.017 7.891-1.345 2.319-3.205 4.14-5.568 5.46-2.369 1.318-5.049 1.978-8.04 1.978-2.992.005-5.682-.655-8.07-1.979zm13.272-4.1c1.532-.886 2.734-2.132 3.609-3.737.87-1.604 1.306-3.44 1.306-5.518 0-2.072-.436-3.913-1.306-5.518-.87-1.604-2.072-2.835-3.609-3.706-1.538-.867-3.269-1.3-5.202-1.3-1.933 0-3.664.433-5.202 1.3-1.533.866-2.749 2.102-3.639 3.706-.89 1.605-1.335 3.441-1.335 5.518 0 2.078.445 3.914 1.335 5.518.89 1.605 2.101 2.85 3.639 3.737 1.533.886 3.269 1.329 5.202 1.329 1.933 0 3.669-.443 5.202-1.33zM145.149 26.931h-6.25v12.675h-5.454V9.62h5.454v12.675h6.364l9.776-12.675h5.854l-11.422 14.427 12.218 15.56h-6.423l-10.117-12.675zM169.903 37.962c-2.408-1.32-4.292-3.14-5.657-5.459-1.364-2.318-2.047-4.952-2.047-7.89 0-2.94.683-5.573 2.047-7.891 1.365-2.319 3.249-4.13 5.657-5.43 2.403-1.3 5.142-1.954 8.213-1.954 2.73 0 5.162.546 7.303 1.64 2.141 1.092 3.798 2.677 4.975 4.75l-4.149 2.657c-.944-1.432-2.121-2.505-3.521-3.224-1.404-.714-2.956-1.073-4.662-1.073-1.973 0-3.743.433-5.316 1.3-1.572.866-2.803 2.101-3.693 3.706-.891 1.605-1.336 3.441-1.336 5.518 0 2.112.445 3.973 1.336 5.573.89 1.604 2.121 2.84 3.693 3.706 1.573.867 3.343 1.3 5.316 1.3 1.706 0 3.258-.36 4.662-1.073 1.4-.714 2.577-1.792 3.521-3.225l4.149 2.604c-1.177 2.078-2.834 3.668-4.975 4.78-2.141 1.113-4.573 1.669-7.303 1.669-3.071 0-5.81-.66-8.213-1.984z" fill="#006AC6"/>
        <path d="M227.36 22.584V39.1h-2.324V24.637h-7.348l-.168 4.839c-.079 2.279-.267 4.13-.558 5.543-.292 1.417-.757 2.48-1.385 3.194-.633.714-1.483 1.073-2.556 1.073-.49 0-.989-.064-1.494-.187l.168-2.101c.253.064.505.093.757.093.677 0 1.226-.27 1.637-.812.41-.542.717-1.359.924-2.442.208-1.083.341-2.515.401-4.292l.262-6.96h11.684zM250.584 23.495a7.95 7.95 0 013.021 3.018c.732 1.28 1.103 2.722 1.103 4.326 0 1.605-.366 3.047-1.103 4.332a7.985 7.985 0 01-3.021 3.018c-1.28.728-2.719 1.097-4.311 1.097-1.489 0-2.839-.32-4.055-.964a8.04 8.04 0 01-2.962-2.668c-.756-1.133-1.211-2.422-1.35-3.87h-3.036V39.1h-2.349V22.585h2.349v7.078h3.056c.173-1.398.643-2.648 1.409-3.75a8.03 8.03 0 012.952-2.585c1.202-.62 2.527-.93 3.981-.93 1.597 0 3.036.364 4.316 1.097zm-1.221 12.858a5.814 5.814 0 002.181-2.255c.529-.96.796-2.043.796-3.258 0-1.211-.267-2.294-.796-3.254a5.813 5.813 0 00-2.181-2.255c-.925-.541-1.953-.812-3.09-.812-1.123 0-2.141.27-3.056.812a5.804 5.804 0 00-2.166 2.255c-.529.96-.796 2.043-.796 3.254 0 1.21.267 2.298.796 3.258a5.874 5.874 0 002.166 2.255c.915.541 1.933.812 3.056.812 1.132 0 2.165-.27 3.09-.812zM269.736 24.637h-5.691V39.1h-2.324V24.637h-5.666v-2.053h13.677v2.053h.004zM284.663 37.047v2.052h-12.04V22.585h11.709v2.052h-9.34v5.075h8.316v2.004h-8.316v5.33h9.671zM286.405 20.497c-.233-.226-.346-.512-.346-.861 0-.35.113-.64.346-.871.227-.237.519-.355.865-.355.331 0 .613.118.855.355.238.236.356.526.356.87 0 .345-.118.63-.356.862a1.173 1.173 0 01-.855.345c-.346 0-.633-.113-.865-.345zm1.889 2.087h2.368V39.1h-2.368V22.584zm2.511-2.087a1.138 1.138 0 01-.356-.861c0-.35.119-.64.356-.871.238-.232.53-.355.876-.355.331 0 .618.118.855.355.237.236.356.526.356.87 0 .345-.119.63-.356.862a1.173 1.173 0 01-.855.345 1.19 1.19 0 01-.876-.345zM310 22.584V39.1h-2.369V31.74h-9.528v7.36h-2.369V22.583h2.369v7.104h9.528v-7.104H310z" fill="#222"/>
    </g>
    <defs>
        <clipPath id="clip0">
            <path fill="#fff" d="M0 0h310v40H0z"/>
        </clipPath>
    </defs>
</svg>
