<svg width="202" height="28" fill="none" xmlns="http://www.w3.org/2000/svg">
    <g clip-path="url(#clip0)">
        <path d="M119.7 5.089l.808 1.2h.741l-.873-1.2c.255 0 .47-.1.634-.309.165-.208.247-.442.247-.717a.982.982 0 00-.205-.641c-.206-.259-.536-.392-1.014-.392h-.947v3.26h.609V5.088zm-.008-1.484h.354c.231 0 .396.058.495.167a.462.462 0 01.107.316.467.467 0 01-.115.317c-.099.109-.256.159-.487.159h-.354v-.959z" fill="#797979"/>
        <path d="M120.063 7.59c.799 0 1.491-.284 2.059-.86a2.872 2.872 0 00.857-2.092c0-.808-.288-1.5-.857-2.084a2.78 2.78 0 00-2.059-.858c-.816 0-1.5.283-2.068.858a2.85 2.85 0 00-.849 2.084c0 .817.289 1.517.857 2.093.56.575 1.252.858 2.06.858zm-1.681-4.644a2.29 2.29 0 011.681-.7c.651 0 1.211.233 1.672.7.461.467.7 1.034.7 1.692 0 .676-.23 1.242-.7 1.71a2.26 2.26 0 01-1.672.691 2.28 2.28 0 01-1.689-.7 2.33 2.33 0 01-.692-1.7 2.365 2.365 0 01.7-1.693z" fill="#797979"/>
        <path d="M136.161 14.633v10.128h-1.417v-4.01c-1.055.418-2.035.626-2.933.626-1.219 0-2.167-.3-2.842-.9-.676-.6-1.005-1.45-1.005-2.56v-3.284h1.4v3.126c0 .75.231 1.334.684 1.734.453.409 1.096.609 1.92.609.922 0 1.853-.209 2.776-.634v-4.835h1.417zM157.646 15.575c.741.625 1.112 1.492 1.112 2.593 0 1.1-.371 1.959-1.112 2.592-.742.625-1.763.942-3.057.942h-2.471v3.068h-1.433V14.633h3.904c1.294 0 2.315.317 3.057.942zm-1.03 4.277c.478-.392.717-.95.717-1.684s-.239-1.292-.717-1.684c-.478-.392-1.17-.584-2.076-.584h-2.43v4.543h2.43c.914-.008 1.598-.2 2.076-.591zM168.998 14.633v10.128h-1.433v-4.518h-5.751v4.518h-1.433V14.633h1.433v4.352h5.751v-4.352h1.433zM171.758 14.633h1.417v7.81l5.923-7.81h1.318v10.128h-1.4v-7.794l-5.932 7.794h-1.318V14.633h-.008zM193.12 23.503v3.559h-1.327v-2.3h-8.625V14.632h1.417v8.87h5.577v-8.87h1.417v8.87h1.541zM202 14.633v10.128h-1.401v-2.95h-2.76c-.173 0-.296-.009-.387-.017l-2.002 2.967h-1.515l2.216-3.209c-.717-.242-1.261-.642-1.648-1.209-.379-.567-.568-1.25-.568-2.059 0-1.15.362-2.042 1.095-2.684.733-.642 1.714-.958 2.95-.958H202v-.009zm-5.973 5.36c.437.4 1.071.6 1.92.6h2.644v-4.701h-2.562c-.857 0-1.516.2-1.977.608-.462.409-.684.992-.684 1.768.008.75.231 1.325.659 1.725z" fill="#000"/>
        <path d="M18.577 14.358c.832 1 1.244 2.292 1.244 3.86 0 2.1-.758 3.726-2.274 4.876-1.515 1.15-3.723 1.725-6.615 1.725H0V.604h10.29c2.62 0 4.662.533 6.137 1.609 1.466 1.075 2.208 2.609 2.208 4.618 0 1.317-.322 2.434-.972 3.35-.651.926-1.566 1.618-2.752 2.076 1.615.4 2.834 1.092 3.666 2.101zm-15.191-3.1h6.665c1.664 0 2.932-.334 3.814-1.001.873-.667 1.318-1.65 1.318-2.943 0-1.292-.445-2.275-1.335-2.959-.89-.683-2.15-1.017-3.797-1.017H3.386v7.92zm12.992 6.676c0-1.384-.462-2.4-1.385-3.06-.922-.658-2.298-.983-4.119-.983H3.386v8.203h7.488c3.666-.009 5.504-1.393 5.504-4.16zM27.416 6.481h-3.278v18.33h3.278V6.481zM45.26 16.825c.66.717.99 1.6.99 2.668 0 1.083-.363 2.05-1.096 2.892-.734.842-1.739 1.5-3.024 1.976-1.285.475-2.727.708-4.325.708a14.63 14.63 0 01-3.946-.533c-1.285-.359-2.43-.867-3.435-1.542l.988-2.526c.865.55 1.854.983 2.974 1.3 1.112.309 2.25.467 3.386.467 1.55 0 2.785-.267 3.708-.817.922-.542 1.384-1.275 1.384-2.192 0-.85-.371-1.509-1.113-1.976-.741-.458-1.78-.692-3.13-.692h-3.312v-2.384h3.073c1.227 0 2.2-.216 2.908-.658.709-.442 1.063-1.034 1.063-1.8 0-.834-.412-1.476-1.244-1.935-.832-.458-1.953-.691-3.37-.691-1.804 0-3.707.475-5.709 1.417l-.89-2.568c2.208-1.125 4.523-1.692 6.937-1.692 1.458 0 2.768.208 3.93.625 1.161.417 2.076 1 2.735 1.767.659.759.988 1.626.988 2.593 0 .9-.296 1.709-.89 2.417-.593.717-1.392 1.259-2.397 1.626 1.228.316 2.159.842 2.818 1.55zM53.671 6.481h-3.278v18.33h3.278V6.481zM62.116 23.81c-1.434-.808-2.563-1.916-3.37-3.334-.807-1.417-1.21-3.025-1.21-4.826 0-1.8.403-3.41 1.21-4.826a8.536 8.536 0 013.37-3.318c1.433-.792 3.056-1.192 4.852-1.192 1.796 0 3.41.4 4.836 1.192a8.657 8.657 0 013.353 3.318c.807 1.417 1.21 3.026 1.21 4.826 0 1.8-.403 3.41-1.21 4.826a8.7 8.7 0 01-3.353 3.335c-1.425.808-3.04 1.208-4.836 1.208-1.796.009-3.419-.4-4.852-1.208zm7.982-2.5a5.646 5.646 0 002.167-2.284c.527-.984.783-2.1.783-3.376 0-1.267-.264-2.392-.783-3.376-.527-.984-1.244-1.734-2.167-2.267-.922-.534-1.969-.792-3.13-.792-1.162 0-2.208.267-3.13.792a5.716 5.716 0 00-2.192 2.267c-.535.984-.8 2.109-.8 3.376s.273 2.392.8 3.376a5.815 5.815 0 002.191 2.284c.923.542 1.97.817 3.13.817 1.162 0 2.209-.275 3.131-.817zM87.308 17.067H83.55v7.753h-3.279V6.48h3.28v7.752h3.83l5.882-7.752h3.518l-6.87 8.82 7.348 9.51h-3.864l-6.088-7.744zM102.194 23.81a8.829 8.829 0 01-3.402-3.334c-.824-1.417-1.228-3.025-1.228-4.826 0-1.8.412-3.41 1.228-4.826a8.674 8.674 0 013.402-3.318c1.45-.792 3.09-1.192 4.943-1.192 1.64 0 3.106.333 4.391 1a7.084 7.084 0 012.991 2.91l-2.497 1.625c-.568-.875-1.276-1.534-2.117-1.976-.84-.441-1.779-.658-2.801-.658-1.186 0-2.249.267-3.196.792a5.626 5.626 0 00-2.224 2.267c-.536.984-.8 2.109-.8 3.376 0 1.292.272 2.426.8 3.41a5.625 5.625 0 002.224 2.267c.947.533 2.01.792 3.196.792 1.022 0 1.961-.217 2.801-.659.841-.442 1.549-1.092 2.117-1.976l2.497 1.593a7.271 7.271 0 01-2.991 2.925c-1.285.684-2.751 1.017-4.391 1.017-1.845.009-3.493-.4-4.943-1.208z" fill="#403F3F"/>
        <path d="M144.506 14.7a5.288 5.288 0 00-.898-.084c-.725 0-1.408.159-2.026.434a5.062 5.062 0 00-2.299 2.067s0 .008-.008.008a5.112 5.112 0 00-.692 2.576c0 .092.008.183.008.275.14 2.676 2.332 4.81 5.017 4.81 2.777 0 5.026-2.276 5.026-5.085 0-2.5-1.78-4.568-4.128-5.001zm-1.763 5.46a1.52 1.52 0 00-1.252-.659c-.107 0-.206.008-.296.025.041-.142.065-.3.065-.459 0-.45-.189-.858-.494-1.142a1.538 1.538 0 001.351-1.267c.289.384.733.634 1.244.634.115 0 .239-.017.346-.042-.058.167-.09.35-.09.534 0 .442.181.842.469 1.125a1.556 1.556 0 00-1.343 1.25z" fill="#797979"/>
    </g>
    <defs>
        <clipPath id="clip0">
            <path fill="#fff" transform="translate(0 .604)" d="M0 0h202v26.458H0z"/>
        </clipPath>
    </defs>
</svg>
